<svg id="Layer_1" xmlns="http://www.w3.org/2000/svg" xmlns:xlink="http://www.w3.org/1999/xlink" x="0" y="0" viewBox="128.7 -85.2 100 100" style="enable-background:new 128.7 -85.2 100 100"><path id="Funky" d="m154.9-51.2c.9-.5.5-1.9 1.6-2.3.1 1.2-1.7 2.4-.3 3.5.7.5 1-.4 1.3-1.4.2 1.2.3 1.8.3 2.5.1.8.3 1.3 1.3 1.4.6 0 1.2.1 1.4 1.1.3 1.2 4.9 2.2 5.9 1.5 1.3-.9 2.7-1.2 4.3-1.5 1.2-.2 2.4-1 3.9-1.3-.9-.1-1.6-.2-2.3-.3.2-.7.9-.3 1.5-.8-1 .4-1.3-.1-1.8-.4-.1-.1-.1-.2-.2-.3.1-.1.2-.2.4-.2 1.6-.1 3.3-.2 4.9-.3.2 0 .6.3.4.3-1.5.3-.7 2.8-2.7 2.4.2.4.6.7.5.8-.5.7-1.5.8-2.3 1.2 1.1.5.6.8-.1 1-2.7.7-4.3 3.1-6.5 4.4-1.6.9-.1 2.8-1.7 3.3-.6.2-1.1 1.1-1.7.3-.5-.7-1.3-1.6.1-2.3.2-.1.4-.3.7-.6-.8.2-1.5.4-2.1.5-2 .3-.3 2.3-1.5 3.1-.5.3-.8.7-1.4.4-.7-.3-.4-.8-.3-1.3.2-1 1-1.9 0-3.2-.2 1.3-.3 2.3-.5 3.6-.6-1.3 0-2.6-.2-3.8-1.4.9-1.6 4.3-.4 5.2.4.3.7.9.3 1.4-.4.6-.9 1.2-.2 1.8.7.5 1.4.1 2-.3.6-.4 1.1-.8 1.7-1.2-.3.7-.4 1.5-.8 2.2-3.4 5-.7 9.4 1.4 13.8 1.1 2.2 1.9 4.6 3.1 6.8 1.3 2.4 3.9 3.3 6.2 4.6.7.4 1.2 0 2-.2-.4.5-.6.7-.9 1 .5.4.7-.3 1-.3.8.1-.2.4.1.7.3-.2.6-.4.9-.5 0 .4.1.8.1 1.3.4-.2.8-.3 1.1-.6 1.3-1.3 2.5-3 1.9-4.6-1-2.7-3.4-4-6.1-4.8-.2-.1-.4-.2-.7-.3.2-.1.4-.4.6-.4 2-.1 6.8 3.9 7.1 6 .8-.9 1.5-1.6 2.1-2.4.1-.2 0-.5 0-.8 0 0-.2-.1-.3-.1-2.3 2.1-3.5-.7-5-1.4-1.9-.8-4.2-1.8-3.9-4.5 1.8 1.3 3.5 3 5.7 4.1.3.1.5.3.8.5.8.5 1.5.1 1.8-.6.4-1.1-.6-.4-.9-.6-2.7-1.9-6-3.2-7.1-6.8-.2-.8-.8-1.7-1.9-1.7-.5 0-.9-.6-.7-1 .4-.7 1.2-1 1.9-.7.7.3 1.5.6 1.8 1.8.4 1.6 2.3 2 3.8 2.3 1.9.5 3.4 1.7 4.9 2.9.8.6 1.3 1.7 2.6.8.4-.3.5.1.3 2 .9-1.7 1-3.3.8-4.7-.1-.8-1.1-.4-1.7-.1-1.8.9-2.6.4-3-1.6-.2-.9.1-2.6-1.8-2.4-.2 0-.8-.8-.7-1.2.1-.7.6 0 .9 0 1.9-.2 2.6 1.4 3.6 2.5.9 1 1.6 1 2.2-.2 1.3-2.9 3.1-5.5 3.4-8.8.2-1.7 1.2-3.1 3.3-2.5 2.6.7 5.6.4 7.4 3.1.2.4.5 0 .6-.3 2.1-3.6 4.1-7.3 4.6-11.6 0-.1.2-.4.4-.4.1 0 .5.1.5.2.1 1.1.8 2.2 0 3.4-.7 1-1.1 2.3-1.8 3.8 1-.7.7-1.7 1.8-2-.7 1.4-1.3 2.7-2.1 4.5.6-.5.9-.7 1.1-.9.8-1.6 3-2.2 2.9-4.4-.1-1.5-.2-3.1-.4-4.6-.1-.5-.4-.7-.9-.6-1.3.3-2.6.6-3.8 1.2.6-.1 1.1-.1 1.7-.2-3.1 1.4-6.4 1.2-9.6.6-2-.4-3.9-.9-5.8-1.7-1.4-.6-2.5-1.5-3.1-2.9-.6-1.4-1.2-2.5-2.9-3.2-2.2-.8-2.1-1.1-5.4-1.1 2.8-1.6 7.2-.4 8.7 2.6 1.5 3.2 4 4.2 7.2 4.3.6 0 1.1.1 1.7.2-.8.1-1.6.1-2.9.2 1.2.3 1.8.5 2.4.6.3.1.8.4 1-.1.1-.2-.3-.5-.5-.8.5.1 1.1.1 1.6.2-.5-.9-1.7-1.1-2-2.1 1.1.1 1.6 1.3 2.6 1.5 1.5.2 3.1 0 4.6-.2-.1 0-.2-.1-.4-.1-.9-.2-1.8.2-2.6-.5.8-.8 1.9-.3 2.8-.4 1.9-.1 3.8 0 6 0-1.4-.5-2.5-1-3.7-1.4 0-.1 0-.1.1-.2.9.3 1.8.5 2.7.8.2.1.4 0 .7 0-.1-.2-.3-.6-.4-.6-1.7-.2-3.4-1-5.2-.6-.4.1-.9-.2-1.4-.3 0 0 0-.2-.1-.3.4 0 .8-.2 1.2-.1 1.6.2 3.1.4 5.3.8-1-.4-1.4-.6-1.8-.7 0-.1 0-.2.1-.3.8.2 1.6.4 2.4.6.2.1.5.4.7 0 .1-.2-.2-.6-.4-.6-2.4-.7-4.7-1.6-7.2-1.8-.2 0-.6 0-.7.1-.3.4-.5.2-.6 0-.1-.1-.1-.3-.2-.4.2-.1.4-.2.6-.2 2.3.4 4.6.8 7.3 1.3-1.4-.7-2.5-1.3-3.5-1.8-1.1-.5-2.1-.9-3.2-1.6 2.5.6 5 1.3 7.7 1.2-1.5-.2-1.8-1.9-3.4-2.2 1.4 0 .9-.6.6-1.1-1.3-2.2-3.3-3.1-5.8-3.3.5-.4 2.4-.2 3.7.5 1.1.6 2 1.4 2.6 2.5.6 1.1 1.3 2.1 2.4 2.7.4.2.9.6.7 1.1-.2.5-.9.4-1.3.3-1.1-.1-2.1-.4-3.3-.6 1.5 1.5 4.3 1.2 4.9 3.7 1.2 5 1.3 7.4.4 9 .1-1.8.6-3.6-.7-5.4.2 1.6.3 2.9.3 4.2 0 4.7-3.4 7.5-5.5 11.1-.2.4-.5.9-.7 1.4-.4.9-.5 1.4.8 1.6 1.2.2 1.6 1.3 1.5 2.4 0 .3-.1.7-.1 1 .2-.1.4-.1.6-.2.5-.2.7-.6.6-1.2 0-.6-.6-.9-.9-1.3.5-.4.8.1 1.3.3-.2-.6-.4-1.1-.5-1.6 1.2 1.5 1.7 3.1.4 4.6-1.7 2-4.2 2.8-6.6 3.6-.7.2-1.2-.6-1.7-1.1-.2-.3-.4-.6-.7-.9-.1.1-.3.2-.2.3.2.4.3.8.6 1.2.2.3.5.4.9.6-.9.3-1.4-.5-2-.7-.1 1 .7 1.4 1.2 1.9-1 .7-1.7 0-2.6-.3.4.3.9.6 1.3 1-2.3-1.1-2.4 1.2-3.3 2.1-.8.8-1.7 1.4-3 1-.7-.3-1 .4-1.2.8-2.8 4.3-7.5 6.3-11.5 9.1-.8.6-1.7.2-2.6-.2-6.2-2.4-10.2-6.8-12.4-13-.9-2.5-2.5-4.6-3.1-7.3-.4-2.2 0-4.2.5-6.3.1-.3.1-.8.1-.8-.3-.1-.7-.2-1.1-.1-2.1.6-3 0-3-2.2 0-.2-.3-.4-.5-.6.9.3 1.2-.6 2.5-1.2-2.1.5-3.3 0-4.3-1.1 1.3.1 2.4.1 3.6.1.1 0 .1-.9.2-1.5-1.1 1.3-3.8 1.1-4.5-.1-.3-.4-.7-.7-1.2-.9-1.7-1.1-1-2.9-1.5-4.4 0-.1.2-.3.3-.4.1.3.3.5.4.8.2 1.3.6 2.4 2.4 2.3-.6-.5-1.4-1-1.4-1.3.1-2.4-1.8-4.2-1.8-6.7.8.5.3 2.1 1.2 1.7 1.4-.5.3-1.7.1-2.7.2 0 .3-.1.3 0 .5.4.5 1.6 1.2 1.2.7-.3-.1-1.2-.1-1.8-.1-1.2-.7-2.4-.3-4 1.2 3.4-.2 8.1 5.1 8.3-.5-1.3-2.4-2.2-1.3-4.1 0-.1-.3-.4-.5-.6-2.1-1.3-2.4-3.3-1.9-5.3.6-2.4 2.3-4.1 4.4-5.3-.6.5-1.1 1-1.9 1.8 1.2-.2 2.1-.3 3.1-.5-4.9 2.5-5.1 3.2-3.8 8.2-.3-.8-.7-1.7-1-2.6 0 .7 0 1.3 0 1.9-1-1.8.1-3.5.1-5.6-1.1 1.9-1.3 3.6-.7 5.4.1.2.2.8.6.2.1.2.3.5.4.7.2.3.5 1.1.6 0m36.3 28.8c.6 1.5 0 2.5-.5 3.6-.1.3-.7.2-.5.7 0 0 .8-.1.9-.3 1.7-2.1 3.5-4.1 4.8-6.5.2-.3 0-.5-.2-.7-.2-.1-.4-.1-.6-.2 0 .2 0 .4 0 .7 0 .3 0 .6 0 1.2-.6-.8-.4-2.2-1.3-2-3.1.4-4-1.8-5.2-3.6-3.1 4.2-1.9 9.3-2.4 13.9 2.1-1 2.9-3.4 4-5.6-.1.5-.3 1.1-.4 1.6.1 0 .1 0 .2 0 .5-.9.8-1.7 1.2-2.8m-37.4-20.3c0 .1 0 .1 0 .2 1.1 0 2.2.1 3.2 0 .7-.1.8-1 1-1.7-.2-.1-.4-.2-.5-.2-2.7 1.4-4.4.4-5.6-2.1-.1-.2-.5-.3-.8-.4 0 .3-.1.6 0 .9.4 2.8 2.7 2.6 5.3 3-1.3.2-1.9.3-2.6.3m19.4 22.1c1 2.8 3.3 3.8 5.4 5.1.5.3.9-.2 1.1-.6.1-.1 0-.5-.2-.5-2-1.3-4.1-2.6-6.3-4m-23.4-19.7c.2.3.3.4.3.5 1.5 2.1 3.9.9 5.9 1.5.4.1 0-.8.2-1.2.2-.4-.2-.3-.4-.3-1.9 0-3.9.3-6-.5m1.5-1.8c1.3 1.9 3.2 2 5.1 1.6.2 0 .5-.6.5-1 0-.5-.5-.3-.8-.3-1.6-.1-3.1-.2-4.8-.3m36.7 27.3c-2.9 1.8-4 4.4-6.6 6.4 3.2-1.4 4.6-3.7 6.6-6.4m-19.9-29.2c0-.1 0-.3 0-.4-1.9-.1-3.9-.3-5.9-.4-.2 0-.5.5-.2.4 1.1-.2 1.6.9 2.5.9 1.2-.1 2.4-.4 3.6-.5m35.1 20.4c-.1-.7-.2-1.5-1-1.8-.3-.1-.8-.2-.9.2-.2.7-.3 1.5.9 1.5 0 0 0 .1 0 .2-.6.7.1 1 .5 1 .5 0 .4-.6.5-1.1m-41.5-17.4c-.2-.1.2-.8-.2-.6-.8.3-1.4.8-2.2 1.2.3.4.1 1.3.7 1.2.9-.1 1.8-.5 1.7-1.8m-3-5.4c-.7-1.2-1.7-2-2.7-2.8-.3-.2-.4.2-.3.4.2 1.5 1.6 1.9 2.7 2.5 0 .1.1-.1.3-.1m38.5 17.9c.1-1.1-.6-1.3-1.5-1.5-.3-.1-.5 0-.4.4.2.8.5 1.7 1.3 2 .6.2.6-.5.6-.9m-6.2.5c.9.9 1.5 1.8 2.8 1.2.1-.1.2-.3.3-.4-.9-.6-1.9-.8-3.1-.8m-19.8-18c-1.2-.2-2.4-.3-3.3.6 1.2.7 2.3.1 3.3-.6m35.2 1.4c0-.1 0-.3 0-.4-1.9 0-3.8 0-5.7 0 0 0 0 .1 0 .1 1.9.1 3.8.2 5.7.3m-8 22c.1-1.4.2-2.3.3-3.9-.9 1.6-1.2 2.5-.3 3.9m-5.8 5.5c-1.3.5-2 1.2-2.5 1.9 0 0 .1.2.2.2 1.2.1 1.1-1.3 2.3-2.1m7.3-6.4c0 .7.2 1.3.9 1.6.2.1.7-.1.7-.2.1-1.1-1.2-.7-1.6-1.4m-21.2 15.8c1.1-.7 1.8-1.6 2.3-2.6-.6.9-2.1 1-2.3 2.6m-19-30.7c-.2.8-.4 1.4-.5 2.1 1.2-.4.9-1.1.5-2.1m42 5.2c-.1-.1-.1-.1-.2-.2-.5.9-.9 1.8-1.4 2.7.1 0 .2.1.2.1.5-.8.9-1.7 1.4-2.6m-6.6 6.7c.4.1.7.9 1.3.4.3-.3.1-.9-.6-1.1.7 1.4-.5.2-.7.7m-39.8-11.5c-1.3-.1-2-.1-3.4-.2 1.3.4 2.1.7 3.4.2m3.7-3.4c.7-.5.6-1 .5-1.5 0-.1-.3-.2-.4-.1-.6.4.3.9-.1 1.6m-8.2-2.7c.6 1 .9 1.7 2 1.6-.6-.6-1.1-.9-2-1.6m25.7 24.4c.4.2.9.5 1.5.8-.2-1.1-.9-.8-1.5-.8m-21-24.4c-.9-.4-1.4-.7-2.2-1.1.6.9 1.2 1 2.2 1.1m51.4-3c-.1.4-.2.6-.1.6.1.3.3.5.5.7.1-.1.2-.3.2-.4-.2-.2-.4-.4-.6-.9m-24.9 14.2c.4-.1.8-.2 1.3-.3 1.2-.2 2.3-.4.8-1.8-.3-.3-.8-1-.9-.9-.6.4.1.7.1 1.1 0 .4-.1.8-.5.7-.5-.1-1.2-.1-1.5-.7-.3-.6.7-2.4-1.5-1.3-.7.4-2.5-1.3-3.7-2.3.2.1.5.1.8.2.1-.5-.3-.5-.6-.5-.5-.1-.8-.2-.7-.8.1-.6.6-.5 1-.5 1.7.1 3.2.7 4.6 1.8.3.2.7.3 1.1.5-1.2-2.1-4.4-4.1-6.6-4.2-.6 0-1.1-.1-1.1-.8-.1-.7.6-.7 1-.7 2.9-.3 5.5-.1 7.4 2.6 1 1.5 2.9 2.2 3.8 3.8.2.3 1 .6.5 1-.3.3-1.1.1-1.6 0-.4-.1-.8-.7-1.2-.2-.5.6.4.6.5 1 .2.6 1.3 1.1.7 1.8-1 1.1-2.4.6-3.7.5m-8.4-20.3c1.8-1.6 3.4-1.6 5-2.2-2 .2-3.8.5-5.4 1.5.1-.7.3-.9 1.4-1.3 2.9-1 5.9-.9 8.8-.1.9.3.9.6.4 1.5-.3.6 0 1.6-1.4 1.2.3-.2.5-.3 1.1-.6-2.4.1-4.4.3-6.4.4-.2 0-.3.2-.5.1-.5 0-.2 1-.8.7-.1-.1-.2-.5-.2-.6.3-.5.9-.7 1.5-.8 1.6-.3 3.3-.5 4.9-.9.3-.1.5-.3.8-.5-.3-.1-.6-.4-.9-.4-2.6-.1-5.1.6-8.3 2m-7.1 3.6c-1.3.7-2.4 1.9-4 1.3-.5-.2.3-.7.4-1.2-.7.3-1.3.6-1.9.7-.5.1-1 .1-1.6.1.1-.7 1-.5 1.2-1.1-.6-.3-1.4-.5-1.2-1.2.1-.3 1-.4 1.6-.7-.2.6-1.3.4-1 .9.3.6 1.1.4 1.7.1 2.8-1.3 5.9-1.9 8.5-3.8-2.5 2.1-5.5 3.2-8.2 4.8 1.9-.8 3.8-1.5 5.7-2.3.3-.1.7 0 1-.1-.3.2-.5.5-.8.7-1.7.6-3.5 1.2-5.5 3 1.9-.5 3-.9 4.1-1.2m24.5.4c-1.9.4-3.8.2-5.6-.5 2.8 1.9 6.1 1.4 9.1 2.3-2.3-.2-4.5-.4-6.8-.5 0 .1 0 .2-.1.4 2.6.3 5.3.7 7.9 1-2.7.2-5.6.6-7.9-.7-1.5-.9-3.8-1.9-3.2-4.5.1-.3.3-1 .4-.9.5.1.2.5.2.8.1 2 1.7 2.1 3.1 2.5 1 0 2 0 2.9.1m-24.2 24.7c.7-2.4 1.4-4 3.7-4 2.7.1 5.3.3 7.9.6.5.1 1.3-.7 1.5.1.3 1.2-1.5 1-1.6 2.1-.1-.1-.3-.1-.4-.2-2-2.2-7.9-2.4-10-.4-.3.3-.5.8-1.1 1.8m35-34.4c-2.3-1.7-4.2-2.4-6.2-3.1 3.5-.2 9.7 4.4 9.8 7.3-2.8-4.7-7.7-5.2-12.1-6.6 2.7.1 5.2 1.3 8.5 2.4m-20.5-8.1c-6.4 0-11.6 2.6-16.2 7.2 1.7-4 13-8.8 16.2-7.2m-12 18.2c-.8.5-1.6.9-2.6 1.5 1.9.1 3.3-1.1 4.9-1.5-2.2 1.9-4.9 2.3-7.6 2.6-.2 0-.4-.2-.7-.3.1-.1.2-.4.3-.4 2.2-.1 3.8-1.3 5.7-1.9m18.7-6.1c-3.9-3.7-8-2.6-12.1-1.7 2.2-2.4 10.2-1.5 12.1 1.7m6.8-10.1c1.6.8 3.4 1.3 4.5 4-3-3.9-6.7-4.2-11-4.3 2.6-.5 4.5-.1 6.5.3m-29.3 44.8c.7 2.5.4 4.8-.6 7.1.2-2.3.4-4.7.6-7.1m29.3-44.8c-3.3-1.4-6.8-1.6-10.3-1.7 3.4-.3 6.7 0 9.9 1.1.6.1.6.2.4.6m-23.3 57.9c-.5.1-.7.1-.6-.2.2-1.1.7-2 1.8-2.4.1 0 .5.3.5.3-.5 1-1 1.9-1.7 2.3m9.3-27.1c-1.7.1-3.1-.5-4.5-1.5-.1-.1-.1-.3-.1-.4.2 0 .4-.1.5 0 1.2 1.1 2.8 1.3 4.1 1.9m-15.5-18.5c1.7-1.3 2.9-2.9 3.4-5.1.6 1.5-1.3 4.3-3.4 5.1m-1.4-4.5c-.2 2-1.6 2.9-3.2 3.6 1.2-1.1 2.6-2 3.2-3.6m2.1 35c-1.2-.4-.7-1.2-.5-1.9.2-1 .5-2 .9-3-.2 1.6-.9 3.2-.4 4.9m-.9-32.2c1.3-1.4 2.6-2.8 3.7-4.3-.7 1.8-2.2 3-3.7 4.3m1.6 25.9c.4-1.1.7-1.9 1-2.7.7.5.5 1.2.2 1.7-.2.4-.6.5-1.2 1m5.6-15.6c-.4 1.6.8 2.2 1.6 3.1-.9-.4-1.8-.9-2.2-1.9-.1-.4-.1-.9.6-1.2m-1.1 10.1c-.5 1.4-1.4 1.6-2.1 2.1-.1 0-.2 0-.3-.1.1-.2.1-.4.2-.4.6-.5 1.3-.9 2.2-1.6m-5.2 11.8c.8.1 1.1 1.1 1 3.7-.5-1.6-.7-2.7-1-3.7m7.4-17.8c-1.1.2-2.1.3-3.3.5 1.1-.9 2.2-.6 3.3-.5m-5.7 26.2c.5-.9 1.2-1.3 1.9-1.4.1 0 .1.2.2.3-.6.3-1.3.7-2.1 1.1m4.4-27c-1.3 0-2.1 0-3.1 0 1-.5 1.8-.4 3.1 0m-9.6-11.7c.7-.5 1.4-1 2-1.5.1.1.1.2.2.2-.7.5-1.4 1-2 1.5-.1-.1-.2-.2-.2-.2"/></svg>