<?xml version="1.0" encoding="utf-8"?>
<!-- Generator: Adobe Illustrator 17.0.0, SVG Export Plug-In . SVG Version: 6.00 Build 0)  -->
<!DOCTYPE svg PUBLIC "-//W3C//DTD SVG 1.1//EN" "http://www.w3.org/Graphics/SVG/1.1/DTD/svg11.dtd">
<svg version="1.1" id="Layer_1" xmlns="http://www.w3.org/2000/svg" xmlns:xlink="http://www.w3.org/1999/xlink" x="0px" y="0px"
	 width="196.7px" height="368.6px" viewBox="0 0 196.7 368.6" style="enable-background:new 0 0 196.7 368.6;" xml:space="preserve"
	>
<g id="_x31_st.svg">
	<path id="back_8_" style="opacity:0.4;fill:#0A0B0B;" d="M0.2,91.3c0-29,0-57.9-0.1-86.9c0-3.8,1.5-4.2,4.7-4.2
		c23.6,0.1,47.2,0,70.9,0c25,0,50-0.3,74.9,0.1c12.9,0.2,25.8-0.6,38.7-0.2c6.6,0.2,9,2.9,6.4,8.9c-1.2,2.8-2.2,4.8,0.1,7.5
		c0.7,0.8,0.2,2.6,0.2,3.9c0,18.8,0.4,37.6-0.2,56.4c-0.3,7.6,0.6,15.1,0.3,22.6c-0.3,8-0.1,16-0.1,24c0,8-0.1,16-0.2,24
		c-2.2,1.7-4.8,2.6-6.8,4.8c-3.2,3.5-4.6,6.9-2.9,11.6c1.3,3.6-1.1,6.3-3,9c-4.3,6.9-10.3,12.1-17,16.6c-1.4,2.1-2.4,4.3-2.8,6.8
		c-0.1,4.1,0.3,8-1.5,12.1c-2.1,4.8,1.8,8.6,7.3,8.1c4.5-0.4,5.6,0.4,5.4,4.1c-6.7,3.1-6.8,4.7-0.9,10.2c3.2,2,4.5,4.4,2.2,8
		c-0.7,1.1-0.7,2.5-1.2,3.7c-1.2,3.2-3.9,3.5-6.8,3.4c-2.4-0.1-4.8-0.7-7.2-1.2c-3.8-1.8-5.8,0.3-7.6,3.3c-1.3,2.2-2.3,5.1-5.8,4.3
		c-3.8-2.7-8.9-4.3-8.5-10.5c0.1-1.2-1.2-1.9-2.2-2.5c-4.6-1.9-8.7-4.6-12.4-8c-1.4-1.2-2.7-2.4-3.5-4.1c-1.2-2.6-3-3.1-5.7-2.1
		c-3.7,1.3-4.8,0.2-3.6-3.8c0.8-2.9,0.4-4.7-3-6.4c-0.1,7.2-4.7,13-3.8,20c0,2.4-1.6,2.8-3.5,2.8c-0.5,0-1-0.1-1.4-0.3
		c-1.8-0.6-3.7-0.5-5.5-0.5c-0.7,0-1.4,0-2.1,0c-0.8,0-1.6-0.1-2.5-0.2c1,0.8,2.2,1.4,2.7,2.7c0.2,1.1-0.2,1.8-1,2.5
		c-0.6,0.4-1.3,0.6-1.9,0.8c-2.9,0.6-4.3,3.2-6.4,4.9c-0.3,0.3-0.7,0.6-1.1,0.8c-2.8,1.9-5.4,3.9-6.3,7.3
		c-0.9,7.4-2.3,14.7-2.9,22.2c-1.3,3.4-4.5,5-7.1,7.1c-2.2,1.7-0.4,3.6-0.2,5.4c0,0.5,0,0.9-0.2,1.3c-0.6,1.2-2,1.9-2.6,3.1
		c-0.6,4.7-1.9,8.9-7.5,9.6c-1.8,1.7-2.6,4-3.4,6.3c-0.6,2.8-1.8,5.3-3.7,7.4c-1.1,1.5-2.4,2.9-3.7,4.2c-1.5,1.7-3.7,2.2-6,3.1
		c0.6,1.9,3,3.2,2.2,5.6c-0.7,2.1-3.3,2.2-4.2,4.1c-0.2,0.7-0.5,1.3-0.8,1.9c-0.6,0.9-1.5,1.3-2.5,1.2c-0.5-0.1-0.9-0.2-1.4-0.5
		c-1-0.8-1.8-2-2.6-3c-1.7-2-2.7-4,0.7-5.4c2.1-0.8,1.9-2,0.5-3.4c-1.7-1.6-3.2-3.4-5.1-4.8c-4.2-3.2-11.5-3.3-15.8-0.2
		c-1,0.7-1.9,1.7-1.5,2.9c0.4,1.2,1.7,0.5,2.6,0.5c2.7,0,5.7-0.3,4.9,4.1c-0.9,1.5-2.5,2.1-4.2,2.7c6-1.9,10.6,0.4,14.7,4.6
		c2,2,4.7,3.1,7.6,3.3c1.1,0.1,2.2-0.1,3.2-0.5c0.4-0.2,0.8-0.3,1.3-0.5c3.4-2.3,6.3-4.9,10.8-5.6c6-0.9,6.1-1.8,5.1-8.8
		c0.3-3.5,1.7-6.7,2-10.2c0.2-2.2,1.5-3.3,3.8-2c1.7,2.8,2.9,6,7,6.2c0.5,0,1.4-0.1,1.4-0.2c0-0.7-1-0.2-1.3-0.8
		c-1.2-2.4-0.5-3.8,2.2-3.8c2.2,0,3.8-0.7,4.1-3c0.1-0.7,0.4-1.4,0.9-1.9c3.8-1.7,6.1-6.1,10.7-6.6c1.3-0.1,2.5-0.8,3.6,0.4
		c2.3,5.4,2.3,5.4-4.9,11.5c2.9-2.7,6.9-4.4,7.4-9.1c1.6-3.9,1.7-8,1.6-12.2c-0.1-5.8,0.8-11.5,3-16.9c1.6-1.9,2.6-5.8,5.7-4.1
		c3.2,1.8,0.1,4.6-0.5,7c-0.2,0.9-0.9,1.8-0.4,3.1c2.1,0.3,2.9-1.6,4.1-2.8c0.7-0.7,1.5-1.2,2.5-1c2.3,1.4,1.7,3.2,0.9,5.1
		c-0.8,1.8-1.9,3.4-2.7,5.2c-0.9,1.9,0.7,1.1,1.5,1.2c2.1-0.2,3.9,0.5,5.8,1.2c0.3,0.1,0.6,0.2,0.9,0.4c2.1,1.1,5.6,1.9,4.6,4.7
		c-1.2,3.2-4.4,1.4-6.8,0.8c-2.3-1.1-4.9-0.6-7.2-1.2c-4-1-5.5,0.8-5.4,4.6c0.1,2.7,2.1,3.5,4.1,4.4c2.8,1.3,6,1.8,8.7,3.4
		c1.4,1,2.6,2.2,3.4,3.8c0.7,3.6-1.3,3.5-3.8,2.6c-3.8-1.4-7.7-2.8-11.6-3.4c-1,1-0.6,1.8-0.1,2.4c2.2,3,1.6,5.7-0.3,8.7
		c-2.2,3.5-4.7,7-2.4,11.5c1.2,2.7,0.8,5.7,1.3,8.6c0.1,1-0.1,1.9-0.2,2.8c0.3-2.2,1.6-3.6,3.2-4.9c3.8-2.6,8.3-3.7,12.4-5.7
		c2.7-0.7,5.3-1.4,8-2c2.1-0.2,4.2-1,6.4-0.6c9.3,0.4,18.6,1.1,27.9,1.2c4.7-1.9,3.7-5.5,3-9.2c-0.1-0.7-0.1-1.4,0.1-2
		c1.3-2,0.9-4.2,0.6-6.3c0-2.1,1.8-3.9,0.9-6.1c-0.7-4.6,0.1-8.7,2.7-12.7c2.6-3.9,2.7-8.7,3-13.4c0.1-2.1-0.3-4.3,0.8-6.3
		c1.2-1.4,2.5-0.9,3.8-0.1c0.7,0.5,1.2,1.2,1.5,2c1,3.1-0.3,5.9-0.8,8.8c-0.8,2.3-0.4,4.8-1.2,7.2c-2.4,5.8-1.5,11.7-0.8,17.6
		c0.7,3.3,0.1,6.8,0.8,10.1c1.2,4.2,1.4,8.8,5,12c2.2-2.2,4.7-4.4,6.2-7.4c1.1-1.9-0.4-4.3,1-6.2c1.4-1.2,2.8-1.5,4.4-0.4
		c1.4,2.3,1,4.7,0.8,7.2c-2.3,6-6.1,10.8-11.3,14.5c-2.2,1.8-4.3,3.8-6.6,5.4c-1.5,1-2.9,2.3-4.8,0.8c-2.6-5.7-8.4-6.2-13.4-7.3
		c-4.1-0.9-8.6-0.7-12.9,0.3c-4.1,1.1-8.4-1-12.4,1.2c-4.8,1.9-8.7,5.1-12.7,8.3c-2.2,1.8-1.9,4.4-1.2,6.8c0.6,2.3,0,4.9,1.1,7.2
		c0.3,0.7,0.6,1.5,0.6,2.3c-0.1,0.9-0.4,1.6-1.5,1.7c-7,0.3-14.1-0.6-21.1,0.4c-18-0.1-36,0.2-53.9-0.7c-5.5-0.3-10.8,0.5-16.2,0.3
		c-5.7-0.2-11.3-0.3-17-0.2c-3,0.1-4-0.6-4-3.8c0.2-30.5,0.1-60.9,0.2-91.4c1.2-2.1,2.1-4.2,0-6.2c0-19.2,0-38.5,0-57.7
		c2.2-2.4,2.1-4.9,0-7.3c0-35.2,0-70.5,0-105.7C1.2,94.1,1.2,92.7,0.2,91.3z"/>
	<g id="muszla">
		<path style="fill:#BCBACC;" d="M195.9,288.1c0,5.4,0.6,30.2,0.6,35.6c-3.6,3.8-43.5-5.3-46.9-5.8c-3.9-3.8,21.4-21.9,20.4-26.8
			c0-1.8-1-3.4-1.4-5.1c-0.1-0.8,0.1-1.5,0.7-2.1C175,284.1,191.1,285,195.9,288.1z"/>
		<path style="fill:#888997;" d="M96.4,308.6c3.3,0.3,96.2,9.5,99.5,9.9c0,2.9,0,5.8,0,8.8c-1.6-0.6-3.2-1.2-4.8-1.9
			c-2.5-1.1-4.1-0.3-5.1,2c0-2.6-93.9,8.2-93.9,5.5C91.5,332.3,95.8,309.3,96.4,308.6z"/>
		<polygon style="fill:#BDB6C7;" points="77.2,368.6 196.5,367.5 196.5,323.7 98.8,314.1 		"/>
		<g>
			<path style="fill:#BFBDC0;" d="M170.9,277.5c-0.3-0.4-0.5-0.8-0.8-1.1c-0.8-1.2-0.1,20.8-0.2,19.1c-0.2-8-3.9,24.1-9.7,19.5
				c-2.4-1.9-51.2-1.9-50.2-5c0.9-2.7,50.1-79.6,53-79.5c2.4,0.4,1.8,13.6,4.2,14c3,0.5,5.6,0.2,6.8-3.2c3-1.8,3.7,0.6,4.6,2.5
				c2.6,5.7,6.8,10.1,11.7,13.9c-5.8-8.1-26.8,3.8-21.2-8.5c-2.1,0.3-7.2-15.3-9.9-17.2c5.3,2.1,12-1.9,11.7-2.7
				c-1-2.1-2.5-4.6-2.1-6.6c0.2-1.1,3.6-1.7,5.6-2.6c2.1-1.5,4.6,0.3,7-0.8c-5.3-0.3-9.9-3.8-15.3-2.5c-1.2,0.3-3.3-0.7-3.3-2.4
				c-0.1-4.2,1.7-8.1,3.8-11.6c1.5-2.4,4.3-2,6.8-1.5c0.5,0.2,0.9,0.4,1.3,0.7c2.7,4.6,2.5,4.8-4.2,5.9c5.2,1.3,10.7,0.9,15.7,3.2
				c1.4-0.1,4.2,2.3,2.9-2c-0.4-1.3,1.3-1.7,2.5-1.6c1.7,0.1,3.3,0.4,4.6,1.6c0,28.4,0,56.8-0.1,85.3c-1.2,1.2-2.8,1.8-4.5,1.7
				c-9.6-0.4-18-7.5-19.8-17C171.5,278.6,171.6,277.9,170.9,277.5z"/>
			<path style="fill:#B6C2A2;" d="M165.2,188.5c6.9-4,12.2-9.7,17-16c5.5-2.1,9.6,1,13.8,3.8c0,9.4,0,18.8,0,28.2
				c-2.8-0.2-5.2-2-8.1-1.6c-0.8,0.1-1.7-0.5-2-1.3c-1.4-3.7-4.9-2.5-7.2-3.6c-4.6-2.3-9.6-4.3-13.7-7.8
				C164.4,189.8,164.6,189,165.2,188.5z"/>
			<path style="fill:#BFB8CA;" d="M195.9,354.3c0,4.1,0,8.2,0,12.3c-4,1.7-8.1,0.6-12.2,0.7c-0.3,0-0.8,0-0.9-0.3
				c-4.8-6.1-12-10.4-13.7-18.8c0.4-2.6,2.4-3.3,4.4-2.7c5.4,1.7,11.1,1.7,16.4,3.5C192.7,350,195,351.3,195.9,354.3z"/>
			<path style="fill:#BDB6C7;" d="M175.1,340.4c3.6-4.4,7.3-8.7,10.9-13.1c1.8-4.9,5-4.9,9.9-0.1c0,5.4,0,10.8,0,16.2
				c-1,2.5-2.3,3.8-5.6,3.2c-4.2-0.8-8.5-0.5-12.6-1.8C175.6,344.2,173.4,343.4,175.1,340.4z"/>
			<path style="fill:#4B4F3C;" d="M165.2,188.5c0.9,0.9,1.7,1.7,2.6,2.6c2.7,2.6,8.9-0.3,9.2,5.9c1.4-0.1,3.1,0.2,4.2-0.5
				c2.5-1.5,3.7-1.7,4.2,1.8c0.3,2.2,1.3,4.2,4.7,3.4c1.6-0.4,3.9,1.8,5.8,2.7c0,1.6,0,3.2,0,4.8c-2.1-0.2-4.1-0.3-6.2-0.5
				c0.8,1.3,1.6,2.6,2.4,3.9c-2-0.2-4-0.3-6-0.5c-1.1-0.5-1.9-1.3-2.1-2.5c-0.6-2.8-2.7-4.1-5.2-4.4c-2.2-0.3-3.6-1.2-4.7-3l0,0
				c-0.8-1.2-3.4,0.3-3.4-2c0-1.4-0.3-0.1-0.4-0.1c-2.8,2.8-4.5,1.9-5.6-1.5c-0.5-1.5-1.3-2.7-2.7-3.4
				C163.1,193.1,164.1,190.8,165.2,188.5z"/>
			<path style="fill:#AD9F4C;" d="M195.9,176.3c-4.6-1.3-9.2-2.6-13.8-3.8c3.1-3.3,3.5-6.7,2.2-11.3c-1.7-6.1,4.7-12.9,11.6-13.7
				c0,3.6,0,7.3,0,10.9c-0.8,2.6-3,4.2-4.5,6.3c-1.4,1.9-2.2,3.8,0.9,4.9c2.3,0.8,2.8,3,3.6,4.9
				C195.9,175.1,195.9,175.7,195.9,176.3z"/>
			<path style="fill:#8F8B99;" d="M170,348.5c-0.3-1-39.4-7-39.7-8c2-1.7,11.3-3.5,13.3-5.2c0.8,1,32.9,7.9,33.8,8.1
				c5.1,1.1,10.3,2,15.4,2.5c0.9,0.1,2-1.5,3.1-2.4c0,3.6,0,7.2,0,10.8c-4.5-4.3-10.2-5.3-16.1-5.9c-1.6-0.2-3.1-0.8-4.7-1.3
				C173.1,346.4,171,345.2,170,348.5z"/>
			<path style="fill:#B6C19E;" d="M195.9,174.5c-2-1.4-4.3-2.7-6.1-4.4c-0.8-0.8-1.3-3.1-0.8-3.9c2-2.8,4.5-5.2,6.8-7.8
				C195.9,163.7,195.9,169.1,195.9,174.5z"/>
			<path style="fill:#90898A;" d="M173.1,231.4c2.5-0.7,5-1.6,7.5-2.2c0.8-0.2,1.8,0.1,2.7,0.1c-0.1,0.9,0,1.9-0.4,2.6
				c-1.1,1.5-3.7,3.1-3.5,4.2c0.8,3.8,2.2,7.7,4.2,11c2,3.3,5.3,6,7.7,9.1c0.7,0.9,0.7,2.5,1.1,3.8c-1.1-0.4-2.7-0.4-3.4-1.2
				c-4-4.9-7.8-10.1-11.8-15c-0.8-1-2.1-1.6-3.1-2.3c0.3-1.1,0.2-2.5,0.8-3.2C178,234.8,175.6,233.1,173.1,231.4z"/>
			<path style="fill:#8A907C;" d="M174.1,202.5c2.3,0.6,4.6,1,6.8,1.8c3.9,1.2,4.2,4.9,5.3,8.1c-5-0.7-10-1-14.8-2.1
				c-1.5-0.3-2.6-2.5-3.9-3.8c1.4,0,2.9-0.1,4.3-0.1c1.1,0,2.3,0,3.6,0C174.9,204.9,174.5,203.7,174.1,202.5z"/>
			<path style="fill:#B29E4B;" d="M162.1,195.4c3-1.1,3.8,0.9,4,3.2c0.2,3,1.1,3.2,3.7,1.8c0.8-0.5,2.9,1.3,4.3,2.1
				c-2.2,0.2-5.7-0.3-6.5,0.9c-2,3.1-3,6.9-3.9,10.5c-0.1,0.4,2.9,2.2,4.5,2.4c4.7,0.6,9.5,0.7,14.3,1.1c0.7,0.1,1.4,0.5,2.1,0.8
				c-0.4,0.8-0.8,2.3-1.3,2.3c-3,0.1-23.4,19.2-26.4,19.1c0.7-4.9,4.3-10.8,2.6-10.4c-3.1,0.8,4.2-10.6,2.5-13.6
				c-1.9-3.2-2.7-6.2-0.6-10.2C162.9,202.7,162,198.8,162.1,195.4z"/>
		</g>
		<path style="fill:#727A89;" d="M195.9,302.3c-5.2-1.6-10.5-3.2-15.7-4.8c-1.5,0.6-8.8-3.8-10.2-1.9c-2.8-3.4,0.4-19.7-2.5-23
			c0.3-2.9,3.2,7.9,3.5,5c0.4,0.5,0.9,1,1,1.6c2,10.3,10.4,13.2,18.7,16c1.5,0.5,3.5-0.3,5.2-0.5
			C195.9,297.1,195.9,299.7,195.9,302.3z"/>
	</g>
	<g id="sp1">
		<g>
			<path d="M181.6,151.2c-0.4-1.3-0.7-2.8-0.4-4.1c2-12-4.7-21.8-16.9-21.4c-11,0.3-21.9,3.6-31.3,9.6c-3.6,2.3-4.5,6.5-2.3,10.7
				c0.7,1.4,1.4,3.2,1.2,4.8c-0.8,6.4,1.1,11.3,6.7,14.9c0.9,0.6,1.4,1.9,2.1,2.9c-0.1,0.3-0.1,0.5-0.2,0.7c0.1-0.2,0.2-0.5,0.2-0.7
				c-1.1,1.9-7.7,2.1-2.2,6.3c0,0-1.2,1.1-1.3,1.8c-0.4,1.7-0.4,3.4-0.6,5.1c2-0.1,6.3,0.1,8.2,0c-0.4-4.3,2.4-4,4.6-5.5
				c2-0.8,3.3-2.7,5-2.2c5.9,1.6,11.5,0,15.1-4.9c0.8-1.1,2.2-2.1,3.4-2.4C180,165.1,183.9,158.3,181.6,151.2z"/>
			<path style="fill:#FFFFFF;" d="M180,151.6c-0.4-1.2-0.6-2.6-0.4-3.9c1.8-11.4-4.4-20.7-15.7-20.4c-10.2,0.3-20.3,3.4-29,9.1
				c-3.3,2.2-4.2,6.2-2.1,10.2c0.7,1.4,1.3,3.1,1.1,4.5c-0.8,6.1,1.1,10.8,6.2,14.2c0.9,0.6,1.3,1.8,1.9,2.7c0,0.2-0.1,0.5-0.2,0.7
				c0.1-0.2,0.1-0.4,0.2-0.7c-1,1.8-7.1,2-2,6c0,0-1.1,1.1-1.2,1.7c-0.3,1.6-0.4,3.2-0.6,4.8c1.8-0.1,3.7-0.3,5.5-0.4
				c-0.4-4.1,3.4-3.5,5.4-4.9c1.9-0.7,4-2.4,5.5-2c5.5,1.5,10.6,0,14-4.7c0.7-1,2-2,3.2-2.3C178.5,164.9,182.1,158.4,180,151.6z"/>
		</g>
		<g>
			<path style="fill:#8B7C81;" d="M157.9,144.6c-5.8,2-7.1-3.4-9.2-7.2c-0.3-0.5,0.8-2.8,1.5-2.9c7.2-1.1,15.2,2.6,17.9,9.2
				c1.1,2.7,0.6,6.9-0.8,9.6c-1.9,3.7-4.9,7-8.2,9.7c-1.9,1.6-5.3,1.8-6.6-1.6c-1-2.6-1.6-5.3,2.4-6.1c0.7-0.2,1.8-0.9,1.9-1.5
				C157.3,150.9,157.6,148,157.9,144.6z"/>
			<path style="fill:#D39EA8;" d="M162.8,156.1c-1.7-3-3.6-5.2-3.1-5.9c1.3-2.1,3.6-3.7,5.5-5.4c0.5,0.9,1.5,1.9,1.3,2.6
				C165.6,149.8,164.4,152.2,162.8,156.1z"/>
			<path style="fill:#CC9BA4;" d="M153.3,136.7c3.5,1.2,7,2.4,10.5,3.5c-0.2,0.6-0.4,1.2-0.6,1.8C160,140,154.6,143.9,153.3,136.7z"
				/>
		</g>
	</g>
	<g id="funky">
		<polygon style="fill:#0A0B0B;" points="98.2,347.2 110.6,350.9 167.3,349.6 186,327.4 186.1,319.4 170.1,276.3 164,259 
			150.2,249.1 143.3,241.5 146.7,234.7 154,231.6 152.8,222.4 154.1,202.8 139.3,186.4 126.1,185.4 114.4,188.5 108,202.3 
			99.8,232.6 93.1,231.6 82.1,233.4 84.3,241.5 70.6,252.1 68.2,277.5 60.1,285.5 61,291.4 51,303.5 42.4,321.2 25,330.5 
			35.1,343.4 51,336.4 70.6,327.1 89.1,311.5 95.5,304.4 96.3,317.1 91.2,327.7 		"/>
		<path style="fill:#506963;" d="M170,348.5c2.1,3.1,4.2,6.2,6.1,9.4c4.6,7.6-29,10.5-52.1,10.4c-0.4-0.5-0.5-1-0.4-1.6
			c0.3-0.5,0.7-0.9,1.2-1.1c3.8-0.9,7.6-0.6,11.5-0.2c3.4,1.2,7.2,0.2,10.2,1.5c-1-1.1-1.9-2.5-0.1-4.1c2-0.9,4-0.9,6.1-0.1
			c1.6,1.2,1.4,2.6,0.3,4c2.4-0.3,4.6-1.3,6.7-2.6c1.8,0.4,3.6,1.4,5.5,0.9c1.3-0.3,1.1-1.5,1.6-2.3c0.9-1.7,3.2-0.9,4.3-2.8
			c-2.2-1.5-2.1-4.4-3.7-6.5c-1.4-0.9-3-1.5-3.7-3.2c-0.2-1.4,0.2-2.5,1.7-3c1.3-0.6,2.6-1.2,3.8-1.8
			C170.1,346.2,169.1,347.6,170,348.5z"/>
		<path style="fill:#7BB4A1;" d="M113,367.3c1.9-1,3.9-2.2,5.1,1C109.1,368.3,111.2,367.4,113,367.3z"/>
		<path style="fill:#4D6861;" d="M118.1,368.3c-1.7-0.3-3.4-0.6-5.1-1c0-0.6,0-1.2,0-1.9c1.8-1,3.6-0.1,5.3,0
			c0.4,0.1,0.9,0.2,1.3,0.3c1.5,0.5,3.2,0.4,4.4,1.5c0,0.3,0,0.6,0,1C122.1,368.3,120.1,368.3,118.1,368.3z"/>
		<path style="fill:#90CAD9;" d="M106.2,289.6c-1.2,0.1-2.4,0.2-3.6,0.2c0.4-0.9,1-1.9,1.3-2.8c1.1-3.2,2.2-6.4,3.2-9.6
			c-1-4.3-0.4-8.7-0.4-13c-0.9,4.5,1.3,9.6-1.6,14c-0.4,0.9-0.5,2.2-1.2,2.5c-1.6,0.9-3.5,1.4-5.3,2c0.2-1.5,0.3-3.1,0.6-4.6
			c0.1-0.8,0.7-1.5,0.9-2.3c0.4-1.6,0.7-3.3,1.1-4.9c-1.4,1.1-2.7,2.2-4.1,3.3c-1.9,0.2-1.8-1.3-2.1-2.5c0-1.6,0.6-2.9,1.7-4
			c1.1-1.2,1.6-2.5,0.4-4c-0.9-1-1.9-2.1-3.4-1.7c-2,0.6-1.1,2.4-1.2,3.8c1.7,10.6-0.9,20.8-3.3,30.9c-0.3,1.1-0.9,2.5-2,2.8
			c-5.5,1.3-8.8,5.8-13.1,8.7c0,0.6,0,1.2,0,1.7c-3,3.9-5.3,4-7.5,0.2c-1.1-1.9-1.4-4.4-4.1-6c0.9,4.5,4.2,7.6,4.7,11.8
			c1,0.2,1.9,0.4,2.9,0.6c0,0.4,0,0.8,0,1.2c-2.2,0-4.8,0.7-6.4-0.2c-1.7-1-2.5-3.6-3.7-5.5c-1.8-2.2-3.1-4.9-5.6-6.6
			c-0.8-0.6-1.2-1.5-0.4-2.5c6.2-0.5,6.9-5.4,8-10c0.9-0.6,1.8-0.6,2.8-0.3c0.2,2.6-2,4.7-1.4,7.4c8.3,0.5,8.3,0.5,10.1-6.9
			c1.2-1.4,2.9-2.1,4.2-3.3c0.1,0,0.3-0.1,0.4-0.1c0.2,0,0.3,0,0.5,0.1c-0.2-1.8-1.4-3.1-2.6-4.3c-1-1-1.9-2.1-1.2-3.4
			c2.1-3.8-0.2-4.2-3.1-4.2c1-8,2.1-16.1,3.1-24.1c2.5-2.2,4.4-4.9,7.3-6.8l0,0c2.7-1.5,4.3-4.4,7-5.9c0.6-0.1,1.3-0.1,1.9-0.2
			c4.4,2.9,5.4,4.9-0.8,8.4c-2.8,1.6-6.1,2.4-9.2,5.4c4.5-1.5,8.4-2.3,11.6-4.9c3-2.5,6.4-1.7,6.6,2c0.2,3.3,2.6,3.8,3.5,4.7
			c-3-5.6-8.7-10.7-10.7-18.1c-1.1-1.1-2-2.3,0.1-3.3c0.6,0,1.3,0,1.9,0c1.9,1.1,4,0.7,6.1,0.8l0,0c6.9,0.8,13.6,2.7,20.5,2.6
			c0.2,3.2-1.1,6.4,0.7,9.8c0.8,1.6-1.8,2.8-6.9,2.6c2,0.7,3.7,0,5.1,0.7c1.8,0.9,2.5,2.7,3,4.4c0.6,2.2,1.5,4.8-2.1,5.3
			c-1.9,0.3-0.6,1.5-0.8,2.2c-0.3,1.4,0.6,2.2,2,2.2c3.8,0.1,7.7,0,11.5,0.1c1.5,0.1,2.1-0.7,2-2.2c-0.3-2.7,0.3-5.7-2.3-7.8
			c-0.9-0.7-1.5-1.8-1.7-3c-0.3-1.8-0.6-3.9,1.2-5c1.7-1,3.6,0.1,4.4,1.4c3,4.7,8,6.1,12.4,8.7c4.5,2.7,3.5,8.2,5,12.5
			c0.6,1.6,0.3,3.6,0.6,5.4c0.7,3.5,4.2,4.5,6,7c0.9,1.2,2.2,2.1,2.7,3.5c1,2.6,1.5,5.3-0.8,7.4c-2.3,2.1-4.6,1.1-6.8-0.6
			c-1.9-1.5-4.2-2-6.6-1.9c-1.5,0-3-0.7-4.3-0.8c-3.1-0.2,0-6.8-5.5-4.7c-2.6,1-5.6-1.5-8.5-2.1c-0.3-0.1-0.6-0.3-0.8-0.5
			c-1.3-2.9-0.3-5.5,1-8c1.3-2.6,0.4-4-2.3-3.8c-3.9,0.3-8.3-1.8-11.6,2.3c-1.3,1.6-2.7,0.7-3.2-1.1c-0.5-1.6-0.9-3.2-0.7-3.7
			c-0.1,1.4,1.1,4,0.1,6.5c-0.7,2,2,1.1,2,2.5c0,1.9,1.4,3.8-0.1,5.6c-5.2,0.6-5.3,0.4-4.6-7.3c-0.5,1.7-0.6,3.6-0.2,5.2
			C111.7,286,109.9,288.3,106.2,289.6z"/>
		<path style="fill:#AFDCE9;" d="M154.1,276.4c-1-3.6-3-7.2-2.7-10.7c0.5-6.8-5-6.8-8.5-9.2c-1.8-1.2-3.3-2.7-4.9-4.1
			c-1.5-1.2-3-2.4-4.6-3.5c-0.1,0-1.2,0.9-1.1,1.2c0.4,1.9,0.4,4.6,1.6,5.3c4.7,2.9,1,7.8,3.1,11.1c0,0-1.3,1.2-1.9,1.2
			c-5,0-9.9-0.2-14.9-0.4c-2-0.1-3.2-0.1-1.9-2.8c0.6-1.4-0.4-3.5-0.8-6.1c1.6,0.9,2.8,1.6,4.1,2.4c1.1-6-1-8.5-6.5-8
			c-1.2,0.1-2.4-0.6-3.7-1c1.2-0.7,2.3-1.8,3.5-2.1c1-0.3,2.2,0.5,3.4,0.5c0.7,0,1.5-0.6,2.2-0.9c-0.4-0.7-0.8-1.4-1.1-2.1
			c-1.4-3.1-1.6-5.9,1.9-7.8c-0.6-0.7-0.8-1.6-0.5-2.5c2.5-2.9,5.8-2.4,8.6-1.4c2.6,0.9,5.3,1.6,7.8,2.8c2.3,0.7,4.5,1.3,3.1,4.7
			c-0.4,0.9,0.5,2.7,1.3,3.5c1.7,1.7,3.8,3.1,5.8,4.6c1.8,1.2,4,1.5,5.9,2.5c2.3,1.1,4.6,2.1,6.3,4c0.3,0.3,0.6,0.7,0.9,1.1
			c1.4,1.5,1.5,3.5,2.1,5.4c1.3,3.9,0.3,8.1,2.4,12c1.3,2.5,0.8,5.9-2.4,7.7c-2.7,0-3.6-2.1-4.8-4c-0.3-2.1,1.8-1.8,2.9-2.6
			c-2-0.3-3.8-0.9-5.8-0.7C154.5,276.5,154.3,276.4,154.1,276.4z"/>
		<path style="fill:#679A8B;" d="M166.1,366.3c-2-0.6-4-1.3-6-1.9c-0.4-1.5-1.2-2.2-2.7-1.4c-1.4,0.8-2.7,1.8-4.3,0.4
			c-2.3,0-4.7,0-7,0c-1.2,0.4-1.8-0.2-2.3-1.2c-0.1-0.7,0.1-1.3,0.2-2c0.8-5.1,1.8-5.6,6.4-2.7c0.6,0.4,1.1,1.2,2.2,0.6
			c-4.3-4.1-8.8-1.6-12.8-0.1c-2.6,1,0.9,2.8,0.7,4.5c0,2.2-4.1,1-3.3,3.9c-4.3,0-8.6,0-13,0c-0.8-1.3-0.2-2.1,0.9-2.7
			c1.6-0.6,3.2-0.5,4.8-0.3c3,0.7,3-0.8,2.4-3c-2.5-9.5-2-10.2,8-10.3c2.3,0,4.6,0.1,6.9,0c5.2-0.2,7-2.8,5.6-8.2
			c-0.7-0.4-1.3-1.7-1.9,0.1c0.5,1.9,2.5,3.9-0.1,5.7c-1.6-0.3-2.3-1.9-3.5-2.7c-1-1.1-1.1-2.6-2.4-3.5c-0.4-0.2-0.7-0.4-1.1-0.6
			c-1.8-0.6-4.1,0.3-5.6-1.5c8-1.8,15.9-1,23.3,2.4c1.8,0.8,2.7,3.6,4,5.5c-0.4,1-0.7,2.1-1.1,3.1c-5.4,0.9-5.4,0.9-2.1,7
			c0.3,0.2,0.4,0.5,0.3,0.8c0.5-0.5,0.3,0.6,0.4,0s0.1,0.2-0.3-0.3c-0.4-0.5-0.7-1.1-0.9-1.7c-0.6-1.7-0.5-3.4,1.2-4.2
			c1.8-0.9,3.4-0.1,4.6,1.5c0,2.8-1.4,5.5-0.7,8.4C165.6,363.2,167.3,364.9,166.1,366.3z"/>
		<path style="fill:#95C8D7;" d="M121,332.3c-2.6,0.6-5.2,1.3-7.8,1.9c-2.6-1.5-3.5-3.9-4-6.7c-0.3-1.8,1.4-2.8,2-4.1
			c-1.3-1.3-2.8-1.5-5.4-2.5c3.4,2.7,3,4.7,0.8,6.5c-3.5,1-7.2,1.6-9.3,5.1c-0.4,0.7-1.5,0.5-2.1-0.2c-3-4.8,0.2-8.7,2.5-12.1
			c2.2-3.3,2-5.5-0.2-8.3c-0.6-0.8-0.7-2-1-3.1c1.2-0.2,2.6-0.9,3.6-0.6c3.8,1.1,7.5,2.4,11.1,3.8c1.9,0.7,3.3,1.4,2.7-1.6
			c0.2-0.1,0.5-0.2,0.7-0.3c1.8,0.2,3.3,1.4,5,2c4.3,1.6,4.6,2.8,2.5,7.3c-1.8,1-3.2-0.1-4.5-1c-2.9-1.8-6-2.7-9.4-2.7
			c3.2,1,6.3,2,9.5,3.2c5.2,2,5.5,6.4,5.9,10.8C123.8,331.8,122.1,331.7,121,332.3z"/>
		<path style="fill:#ABDAE6;" d="M111.1,294.4c0.5,0.1,0.9,0.4,1.4,0.4c1.6,0.1,3.2,0,4.9,0c-1.1-1-2.2-2.1-3.3-3
			c-0.6-0.5-1.4-0.8-2.1-1.3c-0.3-0.5-0.5-0.9-0.7-1.5c-0.3-3,1.5-3.8,4-3.6c2.6,0.3,5.3,0.7,7.9,0.5c4.8-0.4,8.7,0.4,11.1,5.4
			c1.6,3.3,4.6,2.6,7.3,1.3c0.6-0.2,1.1-0.4,1.7-0.5c1.3-0.2,2.6-0.2,3.9-0.1c2,0.1,4.1,0.2,4.8,2.6c0.7,2.4,0.4,4.6-2.3,5.7
			c-6.9,0.3-13.9-0.6-20.7,1.4c-6.5-0.4-13.2,1-19.6-1.3c-2.5-0.9-6.8-1.6-6-4.6C104.2,292.7,108.2,293.8,111.1,294.4z"/>
		<path style="fill:#8CC1D0;" d="M157.1,332.4c-1,0.3-2,1-3,1c-9-0.5-18.1-1.2-27.1-1.9c-3.7-2.6-3.3-4.9,1.1-8.3
			c0.5,0,1.1,0.1,1.2,0.6c0.3,0.8,0.5,1.7,0.2,2.1c0-0.8,0.1-2-0.7-3.4c-1.7-3.3-0.2-4.9,3.1-5.4c1.3-0.2,2.8-1,3.9-0.5
			c4.9,2.2,9,0.9,13.1-2c0.5,0.1,0.9,0.3,1.3,0.5c1.1,2.3,3.3,2.4,5.4,2.9c1.4,0.3,3.6-0.3,3.5,2.3c0,0.6,0,1.2,0,1.8
			c0.4,4.5-3,6.2-6.1,8.1c-2.7-0.5-4.6-2.6-6.4-4.4c-2.1-2.1-4.6-2.6-7.2-2.8c-1.3-0.1-2.9-0.3-3.4,1.3c-0.4,1.5,1,2.4,2.1,3.1
			c4.7,3.1,10,2.8,15.3,2.4C155.7,329.2,156.8,330.3,157.1,332.4z"/>
		<path style="fill:#EAD2D1;" d="M103.9,234.7c-0.5-0.9-1.7-2-1.5-2.7c1.5-5.9,3.2-11.9,5-17.7c0.2-0.6,2.6-1.2,2.8-0.9
			c2,2.4,5.9,4.5,1.9,8.4c-0.5,0.5-0.3,1.8-0.3,2.2c2.9-0.1,6.1-1.2,8.1-0.2c2.2,1.2,3.4,4.4,5,6.7c2.6,3.4,0.2,4.3-2.4,3.8
			c-4.8-0.9-9.1,0.5-13.5,1.9C107.1,236.7,105.3,236.3,103.9,234.7z"/>
		<path style="fill:#BEAAA4;" d="M14.7,328.2c1.1-5-2.7-2.1-4.3-2.6c-1.5-0.5-3.2-0.4-4.8-0.6c1.5-1.9,2.6-4.3,4.5-5.6
			c2.2-1.5,5.2-2.7,7.7-2.5c2.9,0.2,5.9,1.6,8.4,3.2c2.4,1.6,4.6,3.9,6.3,6.3c0.6,0.8-0.6,4.1-1,4.1c-6.3,0.2-2.3,2.4-0.9,4.1
			c0.7,0.9,1.2,1.9,1.7,2.8c-4.4-0.2-6-3.3-7.2-6.9c-0.6-1.7-0.1-3.7-1.9-6.2c0.8,3.3-0.8,4.1-2.8,4.2
			C18.5,328.6,16.5,329.7,14.7,328.2z"/>
		<path style="fill:#649FAF;" d="M158.1,279.4c1.3,1.3,2.7,2.7,4,4c3.5,0.3,2.7-2.4,3-4.3c0.3-1.7-0.9-4.1,2-4.8
			c0.4,0.4,0.4,0.8,0.1,1.3c0.2,8.3,0,16.3-5.1,23.6c-1.7,2.4-0.7,6.7-0.9,10.1c-2.7,0.2-2.2-2-2.4-3.4
			c-1.6-11.4-5.4-14.3-16.8-12.5l0,0c-0.1,0.1-0.3,0.3-0.4,0.3c-4.6-2.2-8.4-5.4-12.2-8.7c-0.2-0.1,0-0.6,0.2-0.9
			c0.2-0.2,0.3-0.4,0.5-0.6c2.1,0.3,4.2,0.6,6.3,0.9c1.5,0.2,3.7,3.1,4-1.1c0-0.2,1.4-0.7,1.6-0.5c0.8,0.7,2,1.7,1.9,2.5
			c-0.5,5,2.5,5.1,6.2,5.3c2.4,0.1,4.8,1.8,7.2,2.6c1.3,0.4,3.1,1.2,4,0.7c0.9-0.5,1.9-3,1.5-3.7c-2.2-3.5-4.7-6.8-7.3-9.9
			c-1.1-1.3-3.8-1.6-1.4-3.9l0,0C155.7,277,157.4,277.6,158.1,279.4z"/>
		<path style="fill:#5B6668;" d="M54.9,324.3c2.3,5.4,1.7,7-3.8,8.7c-4.7,1.4-9,3.5-13,6.4c-0.1-2.1,0.4-4.7-2.9-4.9
			c0.2-0.6,0.3-1.3,0.7-1.7c1.3-1,2.7-1.9,4.1-2.8c-1.3-1.5-2.6-3-4.1-4.8c2.5-1.2,5.4-2.5,8.2-3.8c1.3,1.4,0.5,2.7,0,4.1
			c-0.4,1.3-0.8,2.7,1.3,2.9c2,0.2,2.6-0.9,2.4-2.7c-0.3-2.7-0.9-5.5-0.6-8.2c1.3-2.4,2.5-4.7,3.8-7.1c4.3,2,2.4,6.4,3.7,9.6
			C55.1,321.3,54.2,322.9,54.9,324.3z"/>
		<path style="fill:#83BECE;" d="M74.1,308.6c3.7-3.4,5.7-8.8,11.8-9.3c0.7,0,1.7-1.5,2-2.5c1.2-4.5,2.6-8.9,3-13.5
			c0.5-6,0.2-12.1,0.3-18.1c4,0.2,2,5.1,4.9,6.2c0.3,1,0.7,2,1,3c-1,5.8-2,11.6-3,17.4c-0.7,4.5-1.4,9-2.1,13.5
			c-3.2,1.5-2.4-2.3-4-3c-2.7,0.8-5.5,1.4-8,2.5C77.9,305.8,76.1,307.3,74.1,308.6z"/>
		<path style="fill:#8AC4D2;" d="M142.1,293.4c5.8-2.4,11.3-1.4,15.8,2.7c1.4,1.3,1.7,4.1,2.2,6.2c0.6,2.3,0.8,4.7,1.1,7
			c-0.4,1.7-0.8,3.3-1.2,5c-2.8,3.6-6.3,2.8-9.8,1.2l-0.2-0.3c0-1.8,1.7-2.8,2.1-4.4c1.3-2.9-1.3-2-2.3-2.2c-2.6-0.5-5.6,0.7-8-1.3
			c1.3-3.5,4.8-2.4,7.2-3.6c3.2-1.5-1.5-2.9-0.1-4.3c0.7-1.4,1.7-2.8,1.8-4.3c0-0.5-2.1-1.5-3.3-1.7
			C145.7,293.2,143.9,293.4,142.1,293.4z"/>
		<path style="fill:#4D97B1;" d="M129.1,193.4c0.3,0.4,0.4,1.1,0.8,1.2c6.8,2,7.9,9.9,14.8,13.2c-1.6,0.3-2.3,0.7-2.7,0.5
			c-3.5-1.5-5.4-0.2-6.6,3.1c-0.3,0.9-1.4,1.5-2.2,2.2c-0.5-1-1-1.9-1.5-2.8c-1.1-1.6-2.2-3.3-3.5-4.7c-0.2-0.2-1.9,1.1-2.9,1.8
			c-0.8-2.9,0.8-8.2-5.7-6.3c-0.5,0.1-1.5-1.6-2.3-2.4c-1.2-2.7-0.7-3.7,2.1-3.6c2.4,0.1,4.4,1.4,6.3,2.6c1.5,0.9,2.6,2.6,5.1,3
			c-1.6-2.7-3.8-4-5.7-5.6c-1-0.8-2.6-1.7-1.7-3.1c0.8-1.3,2.4-0.6,3.5,0C127.5,192.9,128.4,192.8,129.1,193.4z"/>
		<path style="fill:#5291A0;" d="M182.2,326.5c-2.9,3.4-5.8,6.9-8.8,10.5c-1.7-5.4-3-10-4.4-14.5c3.2,0.2,4.6-1.2,3.5-4.3
			c-1.9-5.3-2.8-10.8-3.4-16.4c0,3.4,1.4,6.9-1.2,9.9c-1.5-6.2-2.3-12.4,1.1-18.3c3.6,2.8,4.9,7,5.8,11.1c1.2,5.6,2.7,11.2,3.8,16.8
			C179.1,323.6,180.7,324.9,182.2,326.5z"/>
		<path style="fill:#87C1D3;" d="M182.2,326.5c-2.4,0.1-3.9-0.3-4.4-3.3c-1-6.3-2.3-12.7-4-18.9c-1.1-3.8-3.1-7.3-4.7-10.9
			c0.3-2.4,0.6-4.7,0.9-7.1c5.2,2,4.3,7.3,6.1,11.2c2.2,2.3,1.2,5.3,1.5,8c-0.2,1.7,1.1,2.5,2,3.6c2.6,3.4,4.7,7,2.7,11.5
			C182.2,322.5,182.2,324.5,182.2,326.5z"/>
		<path style="fill:#436A77;" d="M110.1,327.4c1,2.3,2.1,4.6,3.1,6.8c-4,1.8-8.1,3.5-12.1,5.3c-1.5,0.4-2.2,2.5-4.1,2.1
			c-0.6-3.1-1.2-6.2-1.8-9.3c0.3-0.1,0.8,0,0.9-0.2c2.4-3.6,5.9-5.2,10-5.7C107.8,325.3,109.1,325.8,110.1,327.4z"/>
		<path style="fill:#629887;" d="M130.1,364.4c-1.7,0-3.5,0-5.2-0.1c-2.2-1.4-2.5-4.3-4.4-5.9c-0.5-2.6-2.2-2.1-4.1-1.9
			c-1.7,0.2-3.6,2.4-5.3-0.1c-1.5-3.6-1.4-6.3,2.7-8.4c4-2.1,7.6-5,11.3-7.6c1.1,2.6,1.6,5.2,0.5,7.9c-1.2,1.7-3.7,0.9-5.1,2.4
			c0.7,0.5,1.7,0.3,2.1,1c0.8,1.6,0.4,4.2,3.4,4c0.5,0,1.2,0.4,1.2,0.7C127.1,359.5,129.9,361.5,130.1,364.4z"/>
		<path style="fill:#DDC9C2;" d="M14.7,328.2c1.5-0.2,2.9-0.6,4.4-0.7c3-0.1,6.2,0,1.3-3.6c3.7-1.3,5.8,0.4,5.5,3.2
			c-0.4,5.2,2.7,7.8,6.3,10.2c0.3,0.1,0.5,0.2,0.8,0.2c1.3,0.6,2.2,1.3,1.1,2.8c-3.2-1.4-7-2.1-9.5-4.3c-3.6-3.3-6.8-5.3-11.8-3.8
			c-1.6,0.5-3.4,0.1-5.4-0.8C9.8,330.4,12.3,329.3,14.7,328.2z"/>
		<path style="fill:#6199A8;" d="M92.1,238.3c4.6,7.4,9.2,14.7,13.9,22.4c-3.2,1.2-3.3-7.5-7.8-0.9c0-2.2,0.2-3.3,0-4.3
			c-0.4-1.9-1-3.8-1.5-5.6c-1.4,0.8-2.9,1.5-4.1,2.6c-3,2.6-11.2,4-14.6,1.9c3.9-1.8,7.5-3.5,11.1-5c3.8-1.6,4.4-3.7,1.9-7.9
			c0.3-0.6,0.6-1.1,0.9-1.7C91.5,239.1,91.6,238.7,92.1,238.3z"/>
		<path style="fill:#627482;" d="M167.2,275.6c-0.1-0.4-0.2-0.9-0.3-1.3c-2.5-3.6-3.6-7.9-5.1-11.9c-0.6-1.7-1.4-2.8-2.6-4l-0.1,0
			c-1.3-2.4-3.7-3.2-6.1-3.8c-1.9-1.1-3.9-2.2-5.8-3.3c1.4-1,2.8-1.8,4-3c2.5-2.4,1.9,1.6,8.1,6.5c5.3,4.2,9.8,9.3,9.7,16.8
			c0,1.6,0.6,3.2,1,4.8C169.2,276.1,168.2,275.8,167.2,275.6z"/>
		<path style="fill:#A9D8E4;" d="M74.1,293.3c-0.1,7.7-1.9,9.9-7.4,8.8c-1.6-0.3-4.4-1.2-4.4-1.6c0.2-2.6-1-5.9,2.7-7.2
			c-0.3-0.6,0-1.2,0.2-1.9c0-0.3,0-0.7,0-1c-0.7-1-0.6-2.3,0.6-2.1C69.1,288.9,73,288.8,74.1,293.3z"/>
		<path style="fill:#547C88;" d="M128,323.4c-1.3,2.6-4.2,5-1,8.1c-2,0.3-4,0.5-6,0.8c3.1-3.8,0.7-10.3-5.1-12.7
			c-2.9-1.2-6.1-1.5-9-2.4c-0.9-0.3-1.6-1.2-2.4-1.9c0.8-0.3,1.8-1.1,2.5-0.9c3.5,0.7,6.9,1.5,10.3,2.6c1.7,0.5,3.2,1.6,4.8,2.5
			c0.2,0,0.4-0.1,0.7-0.1c2.6-0.2,4.3,1,5.2,3.4C128,323,128,323.2,128,323.4z"/>
		<path style="fill:#5D8694;" d="M111.1,294.4c-2.4,0.2-4.8,0.5-7.2,0.7c-0.1,0.6-0.3,1.3-0.4,1.9c4.1,1.1,8.1,2.7,12.2,3.2
			c4.4,0.6,9,0.2,13.4,0.3c-0.9,2.8-3.4,2.1-5.4,2.3c-2.8,0.3-5.7-0.6-8.3,1.1c-1,0.5-2.1,0.7-3.2,0.8c-1.7,0-3.3-0.2-4.7-1.1
			c-2.9-2.7-7.2-2-10.4-4.1c0.1-6.8,0.4-7,7-6C106.4,293.7,108.8,294,111.1,294.4z"/>
		<path style="fill:#78B19F;" d="M125.1,348.3c0-2.6,0-5.3-0.1-7.9c4.3-0.3,8.6-0.7,12.9-1c2.4,0.4,4.7,0.7,7.1,1.1
			c-1.7,1.7-4,1-6,1.5c2.1,0,4.5,1,6.1-1.5c0.7,1.3,1.3,2.6,2,3.9c-0.1,0.1-0.2,0.3-0.3,0.3c-6.7,1.1-13.4,2.1-19.8,4.3
			C126.3,349.2,125.6,348.8,125.1,348.3z"/>
		<path style="fill:#183D4E;" d="M129.1,193.4c-1.7-0.3-3.5-0.7-6.6-1.3c3.7,3,6.4,4.9,8.8,7.3c0.8,0.8,0.5,2.5,0.7,3.8
			c-1.2-0.3-2.5-0.4-3.6-1c-3-1.7-5.7-3.9-8.8-5.4c-2.2-1.1-3.7-0.4-2.6,2.5c-1.1,0.9-2.1,1.9-3.2,2.8c-0.5-0.3-0.9-0.5-1.4-0.8
			c1.8-3.1,3-7.2,5.7-8.9C121.3,190.4,125.8,190.1,129.1,193.4z"/>
		<path style="fill:#A7D6E3;" d="M71.7,278.3c1.5-0.6,3-1.3,4.6-1.9c0,2-0.1,4,0,5.9c0.1,1,0.3,2.1,0.8,3c0.9,1.9,2,3.7,3,5.6
			c-0.7-0.1-1.3-0.3-2-0.4c-4.3-0.6-8.3-2.8-12.7-3.3c-1.8-0.2-1.6-1.7-0.3-2.9C67.2,282.3,69.5,280.3,71.7,278.3z"/>
		<path style="fill:#6DBCCE;" d="M167.9,311.6c0-4.4,0-8.8,0-13.2c0.3-0.1,0.6-0.1,0.9-0.2c0.4,1,1,1.9,1.2,3
			c1.4,6.1,2.8,12.1,3.9,18.2c0.3,1.7-0.3,3.5-0.5,5.3c-1.5-0.8-3-1.6-4.5-2.3C168.6,318.8,168.3,315.2,167.9,311.6z"/>
		<path style="fill:#72A8B5;" d="M54.9,324.3c-1.3-4.6-2.6-9.3-4-13.9c1-2.3,2.1-4.7,3.1-7c2.6,2.6,5.9,4.8,6,9.1
			c-1,0.3-2.6,0.4-2.8,0.9C56.3,317,55.7,320.6,54.9,324.3z"/>
		<path style="fill:#798C95;" d="M108.9,235.3c4.5-2.2,9-3.9,14.1-2.1c2.7,1,2.3-1.1,2-2.7c4,2.6,8,5.2,12.1,7.9
			c-3.3-0.6-6.6-1.5-10-1.8c-2-0.2-4.1,0.5-6.1,0.8C116.5,239.3,112.3,239.3,108.9,235.3z"/>
		<path style="fill:#B2A49F;" d="M47.1,317.5c0.7,3.3,1.4,6.6,1.9,9.9c0.1,0.6-1.1,1.8-1.9,2c-1.5,0.3-3.1,0.1-4.6,0.1
			c0.3-1.8,0.6-3.6,0.9-5.4c0.2-0.9,0.4-1.9,0.7-2.8C45.1,320.1,46.1,318.8,47.1,317.5z"/>
		<path style="fill:#5F9AA7;" d="M67.2,316.3c-2-3.5-4.2-6.9-6.1-10.4c-0.4-0.8,0-2,0.1-2.9c1.1,0.3,2.7,0.1,3.4,0.8
			c1.2,1.3,2,3.1,2.5,4.8c1.4,4.7,3.8,4.7,7.1,1.7c-0.3,2.8-1.5,3.5-4.8,3.8C68.6,314.2,67.9,315.6,67.2,316.3z"/>
		<path style="fill:#275460;" d="M124,215.4c0.8,0.5,1.8,1.5,2.2,1.3c3.8-1.6,5.8,1.2,8,3.2c0.7,0.7,0.6,2.3,0.8,3.4
			c-1.2,0.1-2.6,0.6-3.5,0.1c-3.6-1.8-7-4-10.6-6C121.7,216.3,122.3,215,124,215.4z"/>
		<path style="fill:#5D6E7D;" d="M182.2,320.5c-0.8-4.3-0.3-9.1-5.2-11.6c-0.6-0.3-0.5-1.7-0.8-2.6c1.5-1.1,3.5-1.5,4.6-3.1
			c0.4-0.2,0.8-0.2,1.2,0.2c1.3,4.7,2.7,9.4,4,14.1c0,0.7,0,1.3,0,2C184.8,319.8,183.5,320.2,182.2,320.5z"/>
		<path style="fill:#5C7981;" d="M65,284.3c0.7,0.7,1.3,1.6,2.2,2c3.6,1.5,7.2,2.8,10.9,4.2c-1.3,0.9-2.6,1.9-3.8,2.8
			c-2.7-1.8-5-5-9-2.9C62.6,286,62.6,286,65,284.3z"/>
		<path style="fill:#537C70;" d="M111.1,356.4c3.1-0.7,6.3-1.4,9.7-2.1c0.1,1.2,0.2,2.7,0.3,4.1c-1.5,2.5,1.9,6.2-1.9,8.2l-0.2-0.3
			c-1.6-1.4-2.5-3.2-3.1-5.2c-2.2,0.4-2.3,2.5-3.7,3.3C111.8,361.7,111.4,359.1,111.1,356.4z"/>
		<path style="fill:#55868F;" d="M124,215.4c-1,0.7-2,1.4-3,2.1c-2.7-2.3-5.5-4.6-8.2-7.1c-0.6-0.6-0.8-1.6-1.2-2.4
			c0.8-0.2,1.9-0.9,2.3-0.7C117.4,209.9,120.7,212.7,124,215.4z"/>
		<path style="fill:#65848D;" d="M108.9,235.3c4,0.7,8.1,1.4,12.1,2.1c0,0.7,0.1,1.4,0.1,2.1c-7.4,1.7-14.2-0.6-21-3.2
			c1.3-0.5,2.5-1.1,3.8-1.6C105.6,234.9,107.2,235.1,108.9,235.3z"/>
		<path style="fill:#8AC4D2;" d="M97.2,299.4c3.6,1,7.2,2,10.8,3.1c0,2.4,4,1,3.7,3.8c0,0.5-0.2,0.9-0.6,1.2
			c-3.5-1.3-7.2-2.3-10.6-4C99,302.8,98.2,300.8,97.2,299.4z"/>
		<path style="fill:#315E6E;" d="M148,229.3c-2.8-0.6-5.8-1-8.5-2c-1.1-0.4-2-2.1-2.2-3.4c-0.1-0.9,1.1-2,1.7-3
			c1.1,0.7,2.2,1.2,3.1,2c2.2,1.7,4.2,3.5,6.4,5.3C148.3,228.6,148.1,229,148,229.3z"/>
		<path style="fill:#2D6171;" d="M150.2,208.2c-0.4,3.2-0.7,6.3-1.2,9.2c-0.1,0.4-1.3,1.2-1.5,1.1c-1.5-0.8-3-1.7-4.1-3
			c-0.4-0.5,0.1-2.3,0.7-2.9C145.8,211.1,147.9,209.9,150.2,208.2z"/>
		<path style="fill:#4D7C89;" d="M150.2,315.6c3.3-0.4,6.5-0.8,9.8-1.2c-0.3,2-0.6,4.1-0.8,6.1c-2.6-0.7-5.3-1.2-7.8-2.1
			C150.7,318.1,150.6,316.6,150.2,315.6z"/>
		<path style="fill:#2E4E55;" d="M88.1,302.4c1.3,1,2.7,2,4,3c-3,6.6-8.1,10.2-11.7,8.2C83.1,310,91.2,310,88.1,302.4z"/>
		<path style="fill:#7BB4A1;" d="M112.1,364.4c1.3-2.1,2.6-4.2,4.5-7.3c1.1,4.2,1.7,6.7,2.4,9.1c-2-0.2-4-0.5-6-0.7
			C112.7,365.1,112.4,364.7,112.1,364.4z"/>
		<path style="fill:#4D7C89;" d="M153.2,330.3c2-2.7,4-5.4,6-8c1.3,3.8,2.8,7.6-2.1,10.1C155.8,331.7,154.5,331,153.2,330.3
			L153.2,330.3z"/>
		<path style="fill:#6395A3;" d="M112,289.5c0,0.3,0,0.7,0,1c-1.9-0.3-3.8-0.6-5.8-0.9c5.7-3.4,3.2-9.3,4.2-14.8
			c1.8,3.4-1.7,9.8,5.7,8.6c0.1,0.2,0.3,0.4,0.4,0.6c0.2,2.1-1.3,1.9-2.7,1.9C111.1,286,110.9,287.5,112,289.5z"/>
		<path style="fill:#213135;" d="M61.6,323.3c2-0.3,4-0.8,6-0.8c1,0,2,0.8,3,1.3c-1.1,0.7-2.1,1.9-3.2,1.9c-2-0.1-3.9-1-5.8-1.5
			C61.7,323.9,61.7,323.6,61.6,323.3z"/>
		<path style="fill:#35616B;" d="M73.9,319.3c0.8-4,3.7-3.1,6.9-1.9c-2.2,1.3-4.5,2.7-6.7,4C73.4,320.8,73.6,320.1,73.9,319.3z"/>
		<path style="fill:#A3A2A0;" d="M35.2,334.4c1.4,0.1,2.7,0.2,4.1,0.3c-0.4,1.5-0.8,3.1-1.2,4.6c-0.3,0.1-0.6,0.2-0.9,0.2
			c-2.6,0.2-1.3-2.1-2-3.1C35.1,335.7,35.1,335.1,35.2,334.4z"/>
		<path style="fill:#4C8291;" d="M105.1,278.4c0.5-5,0.9-10,1.4-15c0.2,0,0.4,0,0.6,0c0,4.7,0,9.3,0,14
			C106.4,277.7,105.8,278,105.1,278.4z"/>
		<path style="fill:#1E2E32;" d="M97,341.6c1.4-0.7,2.7-1.4,4.1-2.1c-1.3,2.3-5.5,3.9,0.7,8c-1.2-0.1-2.4-0.1-3.6-0.2
			C97.8,345.3,97.4,343.5,97,341.6z"/>
		<path style="fill:#65848D;" d="M92.1,238.3c-0.1,0.4-0.1,0.9-0.2,1.3c-1.7-1.1-3.5-2.1-6.1-3.7c2.5-0.2,4.4-0.3,6.3-0.4
			C92.1,236.4,92.1,237.4,92.1,238.3z"/>
		<path style="fill:#65848D;" d="M82.1,247.4c-2.4,2.3-4.8,4.5-7.3,6.8C77.2,251.9,79.7,249.7,82.1,247.4z"/>
		<path style="fill:#65848D;" d="M89.1,241.5c-2.3,2-4.7,3.9-7,5.9C84.4,245.4,86.8,243.5,89.1,241.5z"/>
		<path style="fill:#65848D;" d="M100.1,236.3c-2-0.3-4.1-0.5-6.1-0.8C96.1,235.8,98.1,236,100.1,236.3z"/>
		<path style="fill:#5B6668;" d="M35.1,336.4c0.7,1,1.4,2.1,2,3.1c-1,0.3-2.1,0.5-3.1,0.8c-0.4-0.9-0.7-1.9-1.1-2.8
			C33.7,337.2,34.4,336.8,35.1,336.4z"/>
		<path style="fill:#95C8D7;" d="M111,307.5c0-0.4,0-0.7,0-1.1c2.7-0.1,3.8,1.2,3.2,3.8l-0.3,0.2C113,309.5,112,308.5,111,307.5z"/>
		<path style="fill:#5C7981;" d="M65.1,291.4c0,0.6-0.1,1.2-0.1,1.9c-1,0-2,0.1-2.9,0.1C63.1,292.7,64.1,292.1,65.1,291.4z"/>
		<path style="fill:#213135;" d="M73.9,319.3c0,0.7,0.1,1.4,0.1,2.1c-0.5,0.1-1,0.3-1.5,0.4C73,321,73.5,320.2,73.9,319.3z"/>
		<path style="fill:#66998A;" d="M166.1,362.4c-1.1-2.8-2.3-5.7,1-8c0.9-0.4,0.9-1.3,1-2c0.6,0.6,1.5,1.1,1.8,1.9
			c0.2,0.7-0.6,2.1-0.3,2.3c8,5.5,0.6,5.4-2.5,6.9C166.2,363.6,165.7,363.4,166.1,362.4z"/>
		<path style="fill:#4D6861;" d="M144,362.3c0.7,0.4,1.4,0.7,2,1.1c0.5,1.2,1,2.4,1.8,4.3c-3.5-0.5-7.2-0.9-10.8-1.4
			c-1.6-3.4,2.1-2.6,3.1-3.9C141.4,361.3,142.7,361.2,144,362.3z"/>
		<path style="fill:#4D6861;" d="M153.1,363.4c1.3-0.6,2.5-1.1,3.8-1.7c0.9-0.4,1.9-0.6,2.8-1c0.1,1.2,0.3,2.4,0.4,3.6
			c-2.7,1.4-5.4,2.8-8.1,4.2c-0.2-0.4-0.4-0.9-0.6-1.3C152,366,152.5,364.7,153.1,363.4z"/>
		<path style="fill:#83B7A5;" d="M168.1,352.4c-0.3,0.7-0.7,1.3-1,2c-1.2-0.6-2.4-1.2-3.6-1.8c-0.5,1.6-0.9,3.2-1.4,4.8l0,0
			c-0.9-0.9-2.2-1.6-2.8-2.6c-0.7-1.6-0.9-3.4-1.3-5.1c1.6,0.2,3.1,0.4,4.7,0.5c0.5,0.1,1,0.1,1.5,0.2
			C165.5,351,166.8,351.7,168.1,352.4z"/>
		<path style="fill:#2F4C44;" d="M119.2,366.5c0.1-1.5-0.1-3.1,0.2-4.5c0.3-1.3,1.1-2.5,1.6-3.7c1.3,2,2.5,4,3.8,6
			c-0.3,0.7-0.5,1.4-0.8,2c0,0.3,0,0.6-0.1,0.9C122.4,367.1,120.8,366.8,119.2,366.5z"/>
		<path style="fill:#83B7A5;" d="M166.1,362.4c0.3,0.3,0.7,0.7,1,1c-0.3,1-0.6,1.9-0.9,2.9C166.1,365,166.1,363.7,166.1,362.4z"/>
		<path style="fill:#303D46;" d="M181.2,303.4c0.1,3.9-2.7,3.1-5,2.9c-0.1-3-0.1-5.9-0.2-8.9c0.1-1.2,0.3-2.4,0.5-4.2
			c1.5,1.7,2.6,3,3.6,4.2c0,0.6,0,1.3,0.1,1.9C180.5,300.7,181.3,301.9,181.2,303.4z"/>
		<path style="fill:#727A89;" d="M181.2,303.4c-0.3-1.3-0.7-2.7-1-4c0.6,1.4,1.2,2.7,1.8,4.1C181.7,303.4,181.5,303.4,181.2,303.4z"
			/>
		<path style="fill:#AEDCE8;" d="M116.1,283.4c-4.4-5.6-3.3-11.9-1.9-18.2c0.3,2.8,0.5,5.7,0.9,9.2c2.9-3.4,14.2-5.5,17.3-3.5
			c0.9,0.6,1.6,2.6,1.3,3.7c-0.9,3.1-2.3,6-3.5,9c0,0,0,0,0,0C125.4,285.7,120.7,285.8,116.1,283.4L116.1,283.4z"/>
		<path style="fill:#3E6873;" d="M96.1,271.4c-1.8,1.1-2.9,1.3-3.2-1.4c-0.2-1.6-1.1-3.2-1.7-4.8c0.4-1.6,0.9-3.1,1.3-4.7
			c2.2,1.3,4.7,2.2,6.4,4c1.8,1.8,0.8,3.5-1.6,4.5C96.7,269.3,96.5,270.6,96.1,271.4z"/>
		<path style="fill:#90CAD9;" d="M159.2,258.4c0.8,0.5,5.9,11.1,7.7,15.9c-0.3,2.4-0.6,4.8-0.7,7.2c-0.2,3.3-1.6,3.6-4.1,1.9
			c3.5-5.5,3-7.9-2.4-9.8C163,271.4,162.8,265.7,159.2,258.4z"/>
		<path style="fill:#90CAD9;" d="M158.1,279.4c-1.3-1-2.7-2-4-3c2.7-3,5.4,0.4,8.1-0.1c0.1,0,0.8,1.3,0.6,1.6
			c-0.3,0.6-1,1.1-1.7,1.3C160.2,279.4,159.1,279.3,158.1,279.4z"/>
		<path style="fill:#BFBDC0;" d="M153.1,254.5c2.8,0.1,5.5,0.3,6.1,3.8C157.1,257.1,155.1,255.8,153.1,254.5z"/>
		<path style="fill:#82BDA9;" d="M130.1,364.4c-1.4-1-2.7-2.1-4.2-3.2c0.9-2.1,3.2-5.3-2.8-4.7c-0.1,0-0.6-3.3-0.9-5
			c7.5-2.2,14.5-6.2,22.7-5.5c1.8,0.1,3.7,0.1,5.1,1.4c-0.3-2-0.7-4-1-5.9c0.7-2.7,2.5-1.3,4-1.1c0.5,2.2,1.8,4.6,1.2,6.5
			c-0.7,2.3-1.6,5.3-5.7,4.7c-4.1-0.6-8.3-0.2-12.4-0.1c-5,0.2-5.7,1.6-3.7,6.1c0.6,1.3,1.1,2.8,1.5,4.2c0.2,1.1,0.1,2.2,0.2,3.3
			C132.8,364.8,131.4,364.6,130.1,364.4z"/>
		<path style="fill:#4F8474;" d="M150,347.3c-6.9,0.1-13.7-0.4-20.2,3.1c-2.1,1.1-5.1,0.7-7.7,1.1c-1.5,0.3-2.9,0.6-4.4,0.9
			c-0.2-0.6-0.3-1.3-0.5-1.9c2.6-0.7,5.2-1.4,7.9-2.1c7.2-2,14.1-5.3,21.9-4C148,345.4,149,346.4,150,347.3z"/>
		<path style="fill:#82BEA7;" d="M144,362.3c-1.3,0.1-2.6,0.1-3.9,0.2c-1.1-1.2-2.4-2.3-3.2-3.7c-0.3-0.4,0.6-2.2,1-2.3
			c4.6-0.5,9.2-0.9,13.8-0.9c1,0,2.1,1.8,3,2.9c0.2,0.2-0.5,1.6-0.7,1.6c-1.4-0.2-2.8-0.3-4-0.9c-1.4-0.6-2.6-1.7-3.9-2.6
			c-0.2,1.3-0.2,2.7-0.5,3.9C145.4,361.2,144.6,361.7,144,362.3z"/>
		<path style="fill:#78B19F;" d="M153.1,340.3c-1.3,0.4-2.7,0.7-4,1.1C149,339.1,149.7,338.9,153.1,340.3z"/>
		<path style="fill:#83B7A5;" d="M162.1,357.4c0.6,1,1.3,1.9,1.9,2.9c-0.4,0.1-0.8,0.3-1.1,0.4C162.6,359.6,162.4,358.5,162.1,357.4
			L162.1,357.4z"/>
		<path style="fill:#AADAE7;" d="M114.3,310.2c-1.1-1.3-2.2-2.6-3.2-3.8c-1-1.3-2.1-2.6-3.1-3.9c1.4,0.3,2.7,0.6,4.1,0.9
			c10.6,0.8,21.1,1,31.6-0.9c2.4-0.3,4.7-0.1,6.4,1.9c-2.6,1.1-5.2,2.2-7.8,3.3c0.1,0.5,0,0.9-0.4,1.3c-1.2,1.2-3,1.4-4.6,2.3
			c4.9-0.1,9.6-2.2,14.3-0.4c0.1,0.2,0.3,0.4,0.4,0.6c2.3,2.8-1,2.7-2,3.8c-4.4,3.6-8.8,5.2-14.6,2.7c-2-0.8-8.6-0.9-5.2,5.8
			c0.4,0.8-0.2,2.2-0.4,3.8c-0.7-1.7-1.2-3-1.8-4.3c0,0,0,0,0,0c-0.7-3.3-3.4-3.6-6-4l0,0c0.5-3.2,1.2-6.3-3.9-6.3
			C116.9,313.1,115.6,311.2,114.3,310.2z"/>
		<path style="fill:#5A8794;" d="M110.1,327.4c-1.3-0.3-2.7-0.6-4-0.9c1.4-1.5,2.2-2.8-0.5-3.9c-0.6-0.2-0.9-1.5-1.3-2.2
			c0.9-0.2,1.8-0.6,2.6-0.4c2.2,0.6,4.3,1.6,6.4,2.4C112.3,324,111.2,325.7,110.1,327.4z"/>
		<path style="fill:#2F464E;" d="M150.1,304.4c-2-0.3-4-0.6-6-1c-9.6,0.9-19.3,3-28.9-0.3c1.3-0.6,2.5-1.5,3.8-1.7
			c3.3-0.5,6.7-0.6,10.1-0.9c6.5-2.2,13.2-1.9,19.9-1.1c0.8,0.7,1.7,1.4,2.5,2.2C154.4,304.3,151.6,304,150.1,304.4z"/>
		<path style="fill:#8BC7D6;" d="M116.1,283.4c4.7,0,9.4,0,14.1,0c0.1,0.7-0.1,1.7,0.2,1.9c3.8,2.7,7.8,5.3,11.7,8
			c-4.9,3.3-6.7,3.1-9.3-1.7c-1.8-3.3-3.8-4.7-7.7-4.4c-3.2,0.3-6.6-0.7-9.8-0.5c-1.1,0.1-2.2,1.8-3.3,2.8c-3.2-2.2-1-3.1,1-4.1
			C114,284.9,115,284.1,116.1,283.4z"/>
		<path style="fill:#AADAE7;" d="M153.2,330.3c-7,2.8-16.5,0.4-18.6-4.8c-0.3-0.8,0.4-2.8,1-3c4.2-1.1,8.2-1.3,11.6,2.4
			C149,326.9,151.2,328.5,153.2,330.3C153.2,330.3,153.2,330.3,153.2,330.3z"/>
		<path style="fill:#405D66;" d="M141.9,308.3c0.2-0.2,0.3-0.4,0.4-0.6c3.3-0.1,6.5-0.4,9.7-0.1c1.1,0.1,2.1,1.6,3.1,2.5
			c-1,0.5-2,1-3.1,1.5l0.1-0.1c-2.9-1-5.8-0.3-8.7-0.3C141.5,311.1,139.9,310.6,141.9,308.3z"/>
		<path style="fill:#8CC1D0;" d="M122,319.4c2.9,0,6.3-0.8,6,4C126,322.1,124,320.8,122,319.4z"/>
		<path style="fill:#8AC4D2;" d="M115.2,303.2c9.6,0.1,19.2,0.2,28.9,0.3c-10.7,2.4-21.3,3.2-32,0
			C113.1,303.4,114.2,303.3,115.2,303.2z"/>
		<path style="fill:#82BDA9;" d="M145.1,340.4c0.8,2.4-0.1,3.5-2.6,3c-2.4-0.5-4.8-1-7.2-1.5c2.2-0.5,4.5-1,6.7-1.4
			C143,340.3,144.1,340.4,145.1,340.4C145.1,340.4,145.1,340.4,145.1,340.4z"/>
		<path style="fill:#7AA6B2;" d="M141.9,308.3c0.8,0.7,1.6,1.8,2.5,2.1c2.5,0.6,5.1,0.7,7.6,1.1c-4.7,0.6-9.3,1.3-14,1.7
			c-1.2,0.1-2.4-0.4-3.7-0.6c0.8-0.8,1.4-1.9,2.3-2.4C138.4,309.3,140.2,308.9,141.9,308.3z"/>
	</g>
	<g id="brenda">
		<path style="fill:#0D1011;" d="M85,119.6c3.4,2.6-2,8.7-2.6,9.5c-1.8,0.6-13.8-5.7-2.7-9.4c1-0.1,2.9,0.5,3.3-0.3
			C83.8,118.8,84.5,118.8,85,119.6z"/>
		<path style="fill:#0D1011;" d="M81.9,110.5c1.2,1.6-0.7,10.3-0.6,10.9c-2.1,0.1-6.1-5-8.2-4.1c-1.7,0.8-0.2-4.3-1-5.8
			c2.3-0.7,4.9,0.8,7.1-1C80.1,110.5,81,110.5,81.9,110.5z"/>
		<path style="fill:#0D1011;" d="M71.9,116.5c1.1,0.2,2.3,0.9,3.3,0.7c5.8-1.5,5,1.8,3.9,5.3c-0.3,0.3-0.7,0.5-1.2,0.5
			c-0.4-0.1-0.8-0.3-1.1-0.6c-0.6-0.6,0.5-1.9-1-2.1c-1,0-1.9-0.4-2.7-1c-0.5-0.4-0.9-0.9-1.2-1.4C71.7,117.3,71.7,116.9,71.9,116.5
			z"/>
		<path style="fill:#F2D8D0;" d="M53,24.5c1.9,2.2,2.8,5.3,5.7,6.7c1,0.5,1.3,1.7,0.6,2.6c-3.5,4.4-2.4,9.5-2,14.4
			c0.4,5.5,0.7,11-2.1,16c-1,1.8-0.1,2.7,1.3,3.6c3.2,2.3,6.5,4.6,9.7,6.9c3.4,1.5,4.4,4.6,5.2,7.9c-0.5,0.5-1.1,0.9-1.7,1.2
			c-2.5,0.4-1.9,5.3-5.6,3.8c-6.7-4.3-11-10.8-15.1-17.4c-1.2-2-1-3.8-0.5-6.1c1.8-8.5,4.8-16.9,4.9-25.8c0-3.3-0.1-6.6-1.1-9.8
			C51.7,27,50.3,25.3,53,24.5z"/>
		<path style="fill:#EFD8D1;" d="M82.3,77c2.9,3.1,2.9,6.9,1.8,10.5c-1.7,5.7-0.1,8.8,5.8,10c1.3,1.5,1.2,3.6,2.3,5.2
			c0.3,0.7,0.4,1.4,0.1,2.1c-1.1,2-3.6,2.1-5,3.7c-1.4,1-0.2,3.3-2,4.1c-1.6,0.6-2.5-1.2-4-1.2c-1-0.1-2,0-3-0.4
			c-1.3-0.7-2.7-1.1-4-1.7c-2.8-1.1-4.1-3.1-2.4-6.1l0,0c0.9-1,1.8-2,3.2-1.7c-0.3-0.4-0.8-0.1-1.2-0.2c-2.3-0.1-2.5-1.8-2.7-3.4
			c-0.3-1.8-0.4-3.6-2.1-4.7c-0.6-0.8-2-0.4-2.2-1.6c-1.2-2-1.9-3.9,0.6-5.5c2,2.2,4.8,1.2,7.2,1.8c0.9,0.9,1.8,1.7,3.1,0.7
			c0.8-0.9,0.5-2.4,1.8-3.1c1.7-1.1,2.1-2.6,1.9-4.5C81.5,79.6,80.8,78.1,82.3,77z"/>
		<path style="fill:#F2D7D0;" d="M82.3,77c0.3,1.7,0.6,3.5,0.8,5.2c0.4,3.1-0.7,4.6-4,4.2c-1.2,0.7-2.2-0.5-3.4-0.5
			c-0.4-0.1-0.8-0.3-1.1-0.5c-0.8-0.9-1.7-1.7-2.6-2.5c-0.3-0.4-0.4-0.7-0.5-1.2c-2.1-2.6-3.3-5.7-5.2-8.5
			c-0.2-10.8,5.9-19.4,9.8-28.8c1.2-1.1,1.1-3,2.8-4.5c1.6,4-0.8,7.4-0.7,10.9c-0.2,5.3-0.9,10.5-4.2,14.9c-1.8,2.4-1.5,4.1,1.4,5.4
			C78.2,72.3,81,73.8,82.3,77z"/>
		<path style="fill:#D8C9C6;" d="M92.3,104.8c-0.4-0.5-0.9-1-1.3-1.5c-0.1-1.4,0-2.8,1-4c1.4-2.4,2.4-5.2,4.2-7.2
			c1.7-2,2.1-4,1.7-6.4c-0.1-1.2-1.2-2.8,1.1-3.3c4.1,3.4,4,6.9,0.8,11C97,97,94.7,101,92.3,104.8z"/>
		<path style="fill:#D3C1BE;" d="M78.2,50.8c-0.9-3.2,0.6-6.2,0.8-9.5c-1.5,0.8-1.3,2.9-3,3.2c1-4.3,3.2-8.3,2.8-13
			c-0.1-1.3-0.7-3.1,1-4c0.8-0.4,1.6,0.1,2.2,0.7c1.3,1.2,2.4,2.5,1.6,4.3C81.2,38.3,80,44.6,78.2,50.8z"/>
		<path style="fill:#CBC3C1;" d="M69,107.5c-4.4-5.3-11-5.6-17-7c-0.6-2,1.5-1.2,2.1-2c6.3-1.5,11.4,0.6,15.8,5.1
			C71.1,105.3,71.7,106.8,69,107.5z"/>
		<path style="fill:#B5B2B2;" d="M99,82.4c-1.2,0.8-0.8,2.2-1.1,3.3c-1.9-5.3-7.9-9.8-2.5-17.9C96.3,73.5,94.3,79.1,99,82.4z"/>
		<path style="fill:#5D5E61;" d="M69,107.5c1.8-0.9,0.9-2.6,0.9-3.9c0.7-0.1,1.4-0.2,2-0.3c-0.3,2.9,0,5.5,3.9,5.2
			c1.7-0.1,2.1,1.4,3.3,2c-2.1,2.5-4.6,1.5-7.1,1C71,110.2,70,108.8,69,107.5z"/>
		<path style="fill:#B7B8B7;" d="M81.9,110.5c1,0.6,2,1.1,2.9,1.7c2.3,0.1,1.2,1.4,0.8,2.4c-1.4,1.4-1.3,3.4-1.9,5.1
			c-0.6,0.9-1.1,2.3-2.7,1.3c0.3-2.9,0.7-5.7,1-8.6C81.5,111.8,81.5,111.2,81.9,110.5z"/>
		<path style="fill:#3D4649;" d="M85,125.3c0.3-0.9,0.6-1.9,1-2.8c0.4-1.5,0.3-3.1,1.2-4.4c0.7-0.3,1.3-0.2,1.9,0.3
			c-0.6,2.7,2.8,0.3,2.8,2.2c-0.3,1.1-1.9,1.5-1.7,2.9c-0.7,1-1.4,2-2.1,2.9C87.2,125.7,85.7,126.6,85,125.3z"/>
		<path style="fill:#786E69;" d="M69.2,93.3c2.6,0.5,2.7,2.4,2.6,4.4c-0.1,2.3,0.9,3.2,3.1,3c0.9,0.3,1.7,0.7,1.2,1.9
			c-1.5-0.2-2.8,0.1-4.1,0.8C71.1,100,70.2,96.6,69.2,93.3z"/>
		<path style="fill:#DCCDCA;" d="M68,86.4c-2.1,1.4-1,3.4-1,5.3c-1.8-0.8-2.6-2.4-3.1-4.1c3.3-0.1,1.8-5.2,5.3-5
			C70.1,84.2,69.5,85.4,68,86.4z"/>
		<path style="fill:#7F7472;" d="M66.3,73.2c3.3,2.2,4.3,5.8,5.7,9.2c-0.3,0.2-0.7,0.2-1-0.1c-2.6-1.9-2.9-5.4-5-7.7
			C66.2,74.2,66.2,73.7,66.3,73.2z"/>
		<path style="fill:#8D8D8D;" d="M54.1,98.5c-0.7,0.7-1.4,1.3-2.1,2c-3.4,0.3-3.8-2.1-4.6-4.5C50.6,95.1,51.4,99.1,54.1,98.5z"/>
		<path style="fill:#A0B2B5;" d="M73.3,118.3c0.9,0.3,1.9,0.7,2.8,1c0.8,0.9,0.4,1.9,0.4,2.9c-0.3,1.1-1.2,1.6-2.3,1.8
			c-0.8-1.4-1.6-2.7-2.4-4.1C71.6,118.6,72,118.1,73.3,118.3z"/>
		<path style="fill:#BBBABD;" d="M85.1,114.6c0.2-0.8,1-1.7-0.2-2.4c1.4-0.8,0.5-3.2,2.4-3.7c-2,3,2.3,4.3,1.8,6.9
			c-0.4,0.8-0.9,1.4-1.8,1.6c-0.4,0-0.8-0.1-1.2-0.2C85.4,116.2,85.1,115.5,85.1,114.6z"/>
		<path style="fill:#777C7F;" d="M86.1,116.5c0.3,0,0.6,0,0.8-0.1c0.7,0.6,0.7,1.2,0.1,1.8c0.6,1.7,1.4,3.4-1.1,4.3
			c-0.9-0.1-1.7-0.2-2.6-0.3c-1-1.4,1.2-2.1,0.8-3.4C84.4,117.7,84.8,116.8,86.1,116.5z"/>
		<path style="fill:#889C9B;" d="M86.3,127.5c-0.9,0.5-1.7,1-2.6,1.4c-0.8,0.3-1.9,0.5-2.2-0.3c-0.4-1.1,0.7-1.6,1.5-2.1
			C84.6,125.4,85.6,126.3,86.3,127.5z"/>
		<path style="fill:#62696C;" d="M78.1,122.4c0.3,0,0.7,0,1,0c-0.3,1.5,0.3,2.7,1.6,3.7c-2.4,0.7-4.2,0.2-5.5-1.8
			C76,123.4,77.3,123.3,78.1,122.4z"/>
		<path style="fill:#2B2526;" d="M92,99.4c0.3,1.5-0.1,2.8-1,4c-1.5-1.7,0.1-4-1.1-5.8C91.1,97.5,91.1,98.9,92,99.4z"/>
		<path style="fill:#6E6D6D;" d="M53,24.5c-1.7,1-0.3,2.6-0.9,3.9c-1.4-0.8-0.9-2.4-1.6-3.5c-0.4-0.6-0.5-1.5,0.2-1.7
			C51.6,23,52.7,23.3,53,24.5z"/>
		<path style="fill:#6D7B7D;" d="M86.3,127.5c-1.1-0.3-2.1-0.7-3.2-1c0.6-0.4,1.3-0.7,1.9-1.1c1.1,0.1,2.4-0.3,3.1,1
			C87.5,126.7,86.9,127.1,86.3,127.5z"/>
		<path style="fill:#C4D6DA;" d="M78.1,122.4c0.3,2.5-1.8,1.4-2.8,1.9c-0.3-0.1-0.6-0.3-1-0.4c0.6-0.5,1.2-1,1.8-1.5
			c0.3-0.6,0.7-0.7,1.2-0.2C77.5,122.2,77.8,122.3,78.1,122.4z"/>
		<path style="fill:#5E676E;" d="M90.2,123.5c-0.4-0.1-1.3-0.3-1.3-0.4c0-2,2-1.6,3-2.5C92.1,122,91.1,122.7,90.2,123.5z"/>
		<path style="fill:#DBDDDD;" d="M87.1,118.2c0-0.6-0.1-1.2-0.1-1.8c0.7-0.3,1.4-0.7,2.1-1c0.5,1,1,2,0,3
			C88.4,118.3,87.8,118.3,87.1,118.2z"/>
		<path style="fill:#2B2F30;" d="M68.2,116.3c-1.2-0.7-2.5-2.1-1.5-2.9c1.3-1,2.2,0.5,2.5,1.9C69,115.8,68.7,116.1,68.2,116.3z"/>
		<path style="fill:#727C7D;" d="M68.2,116.3c0.3-0.3,0.6-0.7,0.9-1c0.9,0.4,1.8,0.8,2.7,1.2c0.1,0.3,0.2,0.5,0.4,0.8
			c-0.8,0.8-1.7,0.7-2.6,0.2C69.2,117.1,68.7,116.7,68.2,116.3z"/>
		<path style="fill:#99A4A7;" d="M69.6,117.5c0.9-0.1,1.7-0.1,2.6-0.2c0.3,0.3,0.7,0.7,1,1c-0.5,0.5-0.9,1-1.4,1.5
			C70.7,119.4,70.2,118.5,69.6,117.5z"/>
		<path d="M71.1,82.3c0.3,0,0.7,0,1,0.1c0,0-0.1,0-0.1,0c1.2,0.8,2.3,1.6,3,2.9c0.2,0.1,0.4,0.2,0.6,0.1c1.7,0.4,3,1.1,2.5,3.2
			c-1,0.7-2,0.6-3-0.2c-2.3-0.8-6.1,3-7.1-2.1c0.4-1.3,0.8-2.6,1.2-3.9C69.8,82.4,70.5,82.4,71.1,82.3z"/>
		<path style="fill:#A29B97;" d="M77.9,88.2c-0.8-0.9-1.5-1.8-2.3-2.8c1.8-1.9,2.3,0.8,3.5,1c0.3,1.1,2,2.2,0.1,3.3
			C78.1,89.7,77.6,89.3,77.9,88.2z"/>
		<path style="fill:#C1B4AF;" d="M77.9,88.2c0.4,0.5,0.9,1,1.3,1.5c-3.7,1.2-4,1.1-4.1-1.3C76,88.4,77,88.3,77.9,88.2z"/>
		<path style="fill:#B8A59E;" d="M76.1,102.5c-0.4-0.6-0.8-1.2-1.2-1.9c1.5-0.1,3.2-0.1,3.3,1.7C78.3,103.3,76.9,103.6,76.1,102.5z"
			/>
		<path style="fill:#CAB5B0;" d="M75.4,107.3c-0.9-0.3-0.8-0.8-0.5-1.1c0.4-0.4,1-0.7,1.4-1.1c0.1,0.4,0.3,0.9,0.2,1.1
			C76.3,106.7,75.8,107,75.4,107.3z"/>
		<path style="fill:#95827F;" d="M75.6,95.4c-0.6-0.1-1.4-0.2-1.1-1c0.1-0.3,0.7-0.6,1-0.5c0.4,0.1,0.8,0.5,0.9,0.9
			C76.6,95.3,76,95.4,75.6,95.4z"/>
		<path style="fill:#606561;" d="M75,85.3c-1-1-2-2-3-2.9C74,82.4,75.1,83.2,75,85.3z"/>
		<path style="fill:#929C9D;" d="M77.3,122.3c-0.4,0.1-0.8,0.1-1.2,0.2c0-1.1,0-2.1,0.1-3.2c0.6,0.3,2-2.8,1.9,0.4
			C78,120.5,77.5,121.4,77.3,122.3z"/>
		<path style="fill:#EFD8D1;" d="M85,119.6c-0.6,0-1.3-0.1-1.9-0.1c0.6-1.7-1.5-4.4,2-4.8c0.9,0.3,0.9,1.1,1,1.9
			C85.4,117.4,85,118.4,85,119.6z"/>
	</g>
</g>
<g>
</g>
<g>
</g>
<g>
</g>
<g>
</g>
<g>
</g>
<g>
</g>
<g>
</g>
<g>
</g>
<g>
</g>
<g>
</g>
<g>
</g>
<g>
</g>
<g>
</g>
<g>
</g>
<g>
</g>
</svg>
