<svg id="Layer_1" xmlns="http://www.w3.org/2000/svg" xmlns:xlink="http://www.w3.org/1999/xlink" x="0" y="0" viewBox="0 0 196.7 368.6" style="enable-background:new 0 0 196.7 368.6"><g id="_x31_st.svg"><path id="back_8_" d="m.2 91.3c0-29 0-57.9-.1-86.9 0-3.8 1.5-4.2 4.7-4.2 23.6.1 47.2 0 70.9 0 25 0 50-.3 74.9.1 12.9.2 25.8-.6 38.7-.2 6.6.2 9 2.9 6.4 8.9-1.2 2.8-2.2 4.8.1 7.5.7.8.2 2.6.2 3.9 0 18.8.4 37.6-.2 56.4-.3 7.6.6 15.1.3 22.6-.3 8-.1 16-.1 24 0 8-.1 16-.2 24-2.2 1.7-4.8 2.6-6.8 4.8-3.2 3.5-4.6 6.9-2.9 11.6 1.3 3.6-1.1 6.3-3 9-4.3 6.9-10.3 12.1-17 16.6-1.4 2.1-2.4 4.3-2.8 6.8-.1 4.1.3 8-1.5 12.1-2.1 4.8 1.8 8.6 7.3 8.1 4.5-.4 5.6.4 5.4 4.1-6.7 3.1-6.8 4.7-.9 10.2 3.2 2 4.5 4.4 2.2 8-.7 1.1-.7 2.5-1.2 3.7-1.2 3.2-3.9 3.5-6.8 3.4-2.4-.1-4.8-.7-7.2-1.2-3.8-1.8-5.8.3-7.6 3.3-1.3 2.2-2.3 5.1-5.8 4.3-3.8-2.7-8.9-4.3-8.5-10.5.1-1.2-1.2-1.9-2.2-2.5-4.6-1.9-8.7-4.6-12.4-8-1.4-1.2-2.7-2.4-3.5-4.1-1.2-2.6-3-3.1-5.7-2.1-3.7 1.3-4.8.2-3.6-3.8.8-2.9.4-4.7-3-6.4-.1 7.2-4.7 13-3.8 20 0 2.4-1.6 2.8-3.5 2.8-.5 0-1-.1-1.4-.3-1.8-.6-3.7-.5-5.5-.5-.7 0-1.4 0-2.1 0-.8 0-1.6-.1-2.5-.2 1 .8 2.2 1.4 2.7 2.7.2 1.1-.2 1.8-1 2.5-.6.4-1.3.6-1.9.8-2.9.6-4.3 3.2-6.4 4.9-.3.3-.7.6-1.1.8-2.8 1.9-5.4 3.9-6.3 7.3-.9 7.4-2.3 14.7-2.9 22.2-1.3 3.4-4.5 5-7.1 7.1-2.2 1.7-.4 3.6-.2 5.4 0 .5 0 .9-.2 1.3-.6 1.2-2 1.9-2.6 3.1-.6 4.7-1.9 8.9-7.5 9.6-1.8 1.7-2.6 4-3.4 6.3-.6 2.8-1.8 5.3-3.7 7.4-1.1 1.5-2.4 2.9-3.7 4.2-1.5 1.7-3.7 2.2-6 3.1.6 1.9 3 3.2 2.2 5.6-.7 2.1-3.3 2.2-4.2 4.1-.2.7-.5 1.3-.8 1.9-.6.9-1.5 1.3-2.5 1.2-.5-.1-.9-.2-1.4-.5-1-.8-1.8-2-2.6-3-1.7-2-2.7-4 .7-5.4 2.1-.8 1.9-2 .5-3.4-1.7-1.6-3.2-3.4-5.1-4.8-4.2-3.2-11.5-3.3-15.8-.2-1 .7-1.9 1.7-1.5 2.9.4 1.2 1.7.5 2.6.5 2.7 0 5.7-.3 4.9 4.1-.9 1.5-2.5 2.1-4.2 2.7 6-1.9 10.6.4 14.7 4.6 2 2 4.7 3.1 7.6 3.3 1.1.1 2.2-.1 3.2-.5.4-.2.8-.3 1.3-.5 3.4-2.3 6.3-4.9 10.8-5.6 6-.9 6.1-1.8 5.1-8.8.3-3.5 1.7-6.7 2-10.2.2-2.2 1.5-3.3 3.8-2 1.7 2.8 2.9 6 7 6.2.5 0 1.4-.1 1.4-.2 0-.7-1-.2-1.3-.8-1.2-2.4-.5-3.8 2.2-3.8 2.2 0 3.8-.7 4.1-3 .1-.7.4-1.4.9-1.9 3.8-1.7 6.1-6.1 10.7-6.6 1.3-.1 2.5-.8 3.6.4 2.3 5.4 2.3 5.4-4.9 11.5 2.9-2.7 6.9-4.4 7.4-9.1 1.6-3.9 1.7-8 1.6-12.2-.1-5.8.8-11.5 3-16.9 1.6-1.9 2.6-5.8 5.7-4.1 3.2 1.8.1 4.6-.5 7-.2.9-.9 1.8-.4 3.1 2.1.3 2.9-1.6 4.1-2.8.7-.7 1.5-1.2 2.5-1 2.3 1.4 1.7 3.2.9 5.1-.8 1.8-1.9 3.4-2.7 5.2-.9 1.9.7 1.1 1.5 1.2 2.1-.2 3.9.5 5.8 1.2.3.1.6.2.9.4 2.1 1.1 5.6 1.9 4.6 4.7-1.2 3.2-4.4 1.4-6.8.8-2.3-1.1-4.9-.6-7.2-1.2-4-1-5.5.8-5.4 4.6.1 2.7 2.1 3.5 4.1 4.4 2.8 1.3 6 1.8 8.7 3.4 1.4 1 2.6 2.2 3.4 3.8.7 3.6-1.3 3.5-3.8 2.6-3.8-1.4-7.7-2.8-11.6-3.4-1 1-.6 1.8-.1 2.4 2.2 3 1.6 5.7-.3 8.7-2.2 3.5-4.7 7-2.4 11.5 1.2 2.7.8 5.7 1.3 8.6.1 1-.1 1.9-.2 2.8.3-2.2 1.6-3.6 3.2-4.9 3.8-2.6 8.3-3.7 12.4-5.7 2.7-.7 5.3-1.4 8-2 2.1-.2 4.2-1 6.4-.6 9.3.4 18.6 1.1 27.9 1.2 4.7-1.9 3.7-5.5 3-9.2-.1-.7-.1-1.4.1-2 1.3-2 .9-4.2.6-6.3 0-2.1 1.8-3.9.9-6.1-.7-4.6.1-8.7 2.7-12.7 2.6-3.9 2.7-8.7 3-13.4.1-2.1-.3-4.3.8-6.3 1.2-1.4 2.5-.9 3.8-.1.7.5 1.2 1.2 1.5 2 1 3.1-.3 5.9-.8 8.8-.8 2.3-.4 4.8-1.2 7.2-2.4 5.8-1.5 11.7-.8 17.6.7 3.3.1 6.8.8 10.1 1.2 4.2 1.4 8.8 5 12 2.2-2.2 4.7-4.4 6.2-7.4 1.1-1.9-.4-4.3 1-6.2 1.4-1.2 2.8-1.5 4.4-.4 1.4 2.3 1 4.7.8 7.2-2.3 6-6.1 10.8-11.3 14.5-2.2 1.8-4.3 3.8-6.6 5.4-1.5 1-2.9 2.3-4.8.8-2.6-5.7-8.4-6.2-13.4-7.3-4.1-.9-8.6-.7-12.9.3-4.1 1.1-8.4-1-12.4 1.2-4.8 1.9-8.7 5.1-12.7 8.3-2.2 1.8-1.9 4.4-1.2 6.8.6 2.3 0 4.9 1.1 7.2.3.7.6 1.5.6 2.3-.1.9-.4 1.6-1.5 1.7-7 .3-14.1-.6-21.1.4-18-.1-36 .2-53.9-.7-5.5-.3-10.8.5-16.2.3-5.7-.2-11.3-.3-17-.2-3 .1-4-.6-4-3.8.2-30.5.1-60.9.2-91.4 1.2-2.1 2.1-4.2 0-6.2 0-19.2 0-38.5 0-57.7 2.2-2.4 2.1-4.9 0-7.3 0-35.2 0-70.5 0-105.7 1.3-1.5 1.3-2.9.3-4.3" style="fill:#0a0b0b;opacity:.4"/><g id="muszla"><path d="m195.9 288.1c0 5.4.6 30.2.6 35.6-3.6 3.8-43.5-5.3-46.9-5.8-3.9-3.8 21.4-21.9 20.4-26.8 0-1.8-1-3.4-1.4-5.1-.1-.8.1-1.5.7-2.1 5.7.2 21.8 1.1 26.6 4.2" style="fill:#bcbacc"/><path d="m96.4 308.6c3.3.3 96.2 9.5 99.5 9.9 0 2.9 0 5.8 0 8.8-1.6-.6-3.2-1.2-4.8-1.9-2.5-1.1-4.1-.3-5.1 2 0-2.6-93.9 8.2-93.9 5.5-.6-.6 3.7-23.6 4.3-24.3" style="fill:#888997"/><path d="m77.2 368.6l119.3-1.1v-43.8l-97.7-9.6z" style="fill:#bdb6c7"/><g><path d="m170.9 277.5c-.3-.4-.5-.8-.8-1.1-.8-1.2-.1 20.8-.2 19.1-.2-8-3.9 24.1-9.7 19.5-2.4-1.9-51.2-1.9-50.2-5 .9-2.7 50.1-79.6 53-79.5 2.4.4 1.8 13.6 4.2 14 3 .5 5.6.2 6.8-3.2 3-1.8 3.7.6 4.6 2.5 2.6 5.7 6.8 10.1 11.7 13.9-5.8-8.1-26.8 3.8-21.2-8.5-2.1.3-7.2-15.3-9.9-17.2 5.3 2.1 12-1.9 11.7-2.7-1-2.1-2.5-4.6-2.1-6.6.2-1.1 3.6-1.7 5.6-2.6 2.1-1.5 4.6.3 7-.8-5.3-.3-9.9-3.8-15.3-2.5-1.2.3-3.3-.7-3.3-2.4-.1-4.2 1.7-8.1 3.8-11.6 1.5-2.4 4.3-2 6.8-1.5.5.2.9.4 1.3.7 2.7 4.6 2.5 4.8-4.2 5.9 5.2 1.3 10.7.9 15.7 3.2 1.4-.1 4.2 2.3 2.9-2-.4-1.3 1.3-1.7 2.5-1.6 1.7.1 3.3.4 4.6 1.6 0 28.4 0 56.8-.1 85.3-1.2 1.2-2.8 1.8-4.5 1.7-9.6-.4-18-7.5-19.8-17-.3-.5-.2-1.2-.9-1.6" style="fill:#bfbdc0"/><path d="m165.2 188.5c6.9-4 12.2-9.7 17-16 5.5-2.1 9.6 1 13.8 3.8 0 9.4 0 18.8 0 28.2-2.8-.2-5.2-2-8.1-1.6-.8.1-1.7-.5-2-1.3-1.4-3.7-4.9-2.5-7.2-3.6-4.6-2.3-9.6-4.3-13.7-7.8-.6-.4-.4-1.2.2-1.7" style="fill:#b6c2a2"/><path d="m195.9 354.3c0 4.1 0 8.2 0 12.3-4 1.7-8.1.6-12.2.7-.3 0-.8 0-.9-.3-4.8-6.1-12-10.4-13.7-18.8.4-2.6 2.4-3.3 4.4-2.7 5.4 1.7 11.1 1.7 16.4 3.5 2.8 1 5.1 2.3 6 5.3" style="fill:#bfb8ca"/><path d="m175.1 340.4c3.6-4.4 7.3-8.7 10.9-13.1 1.8-4.9 5-4.9 9.9-.1 0 5.4 0 10.8 0 16.2-1 2.5-2.3 3.8-5.6 3.2-4.2-.8-8.5-.5-12.6-1.8-2.1-.6-4.3-1.4-2.6-4.4" style="fill:#bdb6c7"/><path d="m165.2 188.5c.9.9 1.7 1.7 2.6 2.6 2.7 2.6 8.9-.3 9.2 5.9 1.4-.1 3.1.2 4.2-.5 2.5-1.5 3.7-1.7 4.2 1.8.3 2.2 1.3 4.2 4.7 3.4 1.6-.4 3.9 1.8 5.8 2.7 0 1.6 0 3.2 0 4.8-2.1-.2-4.1-.3-6.2-.5.8 1.3 1.6 2.6 2.4 3.9-2-.2-4-.3-6-.5-1.1-.5-1.9-1.3-2.1-2.5-.6-2.8-2.7-4.1-5.2-4.4-2.2-.3-3.6-1.2-4.7-3-.8-1.2-3.4.3-3.4-2 0-1.4-.3-.1-.4-.1-2.8 2.8-4.5 1.9-5.6-1.5-.5-1.5-1.3-2.7-2.7-3.4 1.1-2.1 2.1-4.4 3.2-6.7" style="fill:#4b4f3c"/><path d="m195.9 176.3c-4.6-1.3-9.2-2.6-13.8-3.8 3.1-3.3 3.5-6.7 2.2-11.3-1.7-6.1 4.7-12.9 11.6-13.7 0 3.6 0 7.3 0 10.9-.8 2.6-3 4.2-4.5 6.3-1.4 1.9-2.2 3.8.9 4.9 2.3.8 2.8 3 3.6 4.9 0 .6 0 1.2 0 1.8" style="fill:#ad9f4c"/><path d="m170 348.5c-.3-1-39.4-7-39.7-8 2-1.7 11.3-3.5 13.3-5.2.8 1 32.9 7.9 33.8 8.1 5.1 1.1 10.3 2 15.4 2.5.9.1 2-1.5 3.1-2.4 0 3.6 0 7.2 0 10.8-4.5-4.3-10.2-5.3-16.1-5.9-1.6-.2-3.1-.8-4.7-1.3-2-.7-4.1-1.9-5.1 1.4" style="fill:#8f8b99"/><path d="m195.9 174.5c-2-1.4-4.3-2.7-6.1-4.4-.8-.8-1.3-3.1-.8-3.9 2-2.8 4.5-5.2 6.8-7.8.1 5.3.1 10.7.1 16.1" style="fill:#b6c19e"/><path d="m173.1 231.4c2.5-.7 5-1.6 7.5-2.2.8-.2 1.8.1 2.7.1-.1.9 0 1.9-.4 2.6-1.1 1.5-3.7 3.1-3.5 4.2.8 3.8 2.2 7.7 4.2 11 2 3.3 5.3 6 7.7 9.1.7.9.7 2.5 1.1 3.8-1.1-.4-2.7-.4-3.4-1.2-4-4.9-7.8-10.1-11.8-15-.8-1-2.1-1.6-3.1-2.3.3-1.1.2-2.5.8-3.2 3.1-3.5.7-5.2-1.8-6.9" style="fill:#90898a"/><path d="m174.1 202.5c2.3.6 4.6 1 6.8 1.8 3.9 1.2 4.2 4.9 5.3 8.1-5-.7-10-1-14.8-2.1-1.5-.3-2.6-2.5-3.9-3.8 1.4 0 2.9-.1 4.3-.1 1.1 0 2.3 0 3.6 0-.5-1.5-.9-2.7-1.3-3.9" style="fill:#8a907c"/><path d="m162.1 195.4c3-1.1 3.8.9 4 3.2.2 3 1.1 3.2 3.7 1.8.8-.5 2.9 1.3 4.3 2.1-2.2.2-5.7-.3-6.5.9-2 3.1-3 6.9-3.9 10.5-.1.4 2.9 2.2 4.5 2.4 4.7.6 9.5.7 14.3 1.1.7.1 1.4.5 2.1.8-.4.8-.8 2.3-1.3 2.3-3 .1-23.4 19.2-26.4 19.1.7-4.9 4.3-10.8 2.6-10.4-3.1.8 4.2-10.6 2.5-13.6-1.9-3.2-2.7-6.2-.6-10.2 1.5-2.7.6-6.6.7-10" style="fill:#b29e4b"/></g><path d="m195.9 302.3c-5.2-1.6-10.5-3.2-15.7-4.8-1.5.6-8.8-3.8-10.2-1.9-2.8-3.4.4-19.7-2.5-23 .3-2.9 3.2 7.9 3.5 5 .4.5.9 1 1 1.6 2 10.3 10.4 13.2 18.7 16 1.5.5 3.5-.3 5.2-.5 0 2.4 0 5 0 7.6" style="fill:#727a89"/></g><g id="sp1"><g><path d="m181.6 151.2c-.4-1.3-.7-2.8-.4-4.1 2-12-4.7-21.8-16.9-21.4-11 .3-21.9 3.6-31.3 9.6-3.6 2.3-4.5 6.5-2.3 10.7.7 1.4 1.4 3.2 1.2 4.8-.8 6.4 1.1 11.3 6.7 14.9.9.6 1.4 1.9 2.1 2.9-.1.3-.1.5-.2.7.1-.2.2-.5.2-.7-1.1 1.9-7.7 2.1-2.2 6.3 0 0-1.2 1.1-1.3 1.8-.4 1.7-.4 3.4-.6 5.1 2-.1 6.3.1 8.2 0-.4-4.3 2.4-4 4.6-5.5 2-.8 3.3-2.7 5-2.2 5.9 1.6 11.5 0 15.1-4.9.8-1.1 2.2-2.1 3.4-2.4 7.1-1.7 11-8.5 8.7-15.6"/><path d="m180 151.6c-.4-1.2-.6-2.6-.4-3.9 1.8-11.4-4.4-20.7-15.7-20.4-10.2.3-20.3 3.4-29 9.1-3.3 2.2-4.2 6.2-2.1 10.2.7 1.4 1.3 3.1 1.1 4.5-.8 6.1 1.1 10.8 6.2 14.2.9.6 1.3 1.8 1.9 2.7 0 .2-.1.5-.2.7.1-.2.1-.4.2-.7-1 1.8-7.1 2-2 6 0 0-1.1 1.1-1.2 1.7-.3 1.6-.4 3.2-.6 4.8 1.8-.1 3.7-.3 5.5-.4-.4-4.1 3.4-3.5 5.4-4.9 1.9-.7 4-2.4 5.5-2 5.5 1.5 10.6 0 14-4.7.7-1 2-2 3.2-2.3 6.7-1.3 10.3-7.8 8.2-14.6" style="fill:#fff"/></g><g><path d="m157.9 144.6c-5.8 2-7.1-3.4-9.2-7.2-.3-.5.8-2.8 1.5-2.9 7.2-1.1 15.2 2.6 17.9 9.2 1.1 2.7.6 6.9-.8 9.6-1.9 3.7-4.9 7-8.2 9.7-1.9 1.6-5.3 1.8-6.6-1.6-1-2.6-1.6-5.3 2.4-6.1.7-.2 1.8-.9 1.9-1.5.5-2.9.8-5.8 1.1-9.2" style="fill:#8b7c81"/><path d="m162.8 156.1c-1.7-3-3.6-5.2-3.1-5.9 1.3-2.1 3.6-3.7 5.5-5.4.5.9 1.5 1.9 1.3 2.6-.9 2.4-2.1 4.8-3.7 8.7" style="fill:#d39ea8"/><path d="m153.3 136.7c3.5 1.2 7 2.4 10.5 3.5-.2.6-.4 1.2-.6 1.8-3.2-2-8.6 1.9-9.9-5.3" style="fill:#cc9ba4"/></g></g><g id="funky"><path d="m98.2 347.2l12.4 3.7 56.7-1.3 18.7-22.2.1-8-16-43.1-6.1-17.3-13.8-9.9-6.9-7.6 3.4-6.8 7.3-3.1-1.2-9.2 1.3-19.6-14.8-16.4-13.2-1-11.7 3.1-6.4 13.8-8.2 30.3-6.7-1-11 1.8 2.2 8.1-13.7 10.6-2.4 25.4-8.1 8 .9 5.9-10 12.1-8.6 17.7-17.4 9.3 10.1 12.9 15.9-7 19.6-9.3 18.5-15.6 6.4-7.1.8 12.7-5.1 10.6z" style="fill:#0a0b0b"/><path d="m170 348.5c2.1 3.1 4.2 6.2 6.1 9.4 4.6 7.6-29 10.5-52.1 10.4-.4-.5-.5-1-.4-1.6.3-.5.7-.9 1.2-1.1 3.8-.9 7.6-.6 11.5-.2 3.4 1.2 7.2.2 10.2 1.5-1-1.1-1.9-2.5-.1-4.1 2-.9 4-.9 6.1-.1 1.6 1.2 1.4 2.6.3 4 2.4-.3 4.6-1.3 6.7-2.6 1.8.4 3.6 1.4 5.5.9 1.3-.3 1.1-1.5 1.6-2.3.9-1.7 3.2-.9 4.3-2.8-2.2-1.5-2.1-4.4-3.7-6.5-1.4-.9-3-1.5-3.7-3.2-.2-1.4.2-2.5 1.7-3 1.3-.6 2.6-1.2 3.8-1.8 1.1.8.1 2.2 1 3.1" style="fill:#506963"/><path d="m113 367.3c1.9-1 3.9-2.2 5.1 1-9 0-6.9-.9-5.1-1" style="fill:#7bb4a1"/><path d="m118.1 368.3c-1.7-.3-3.4-.6-5.1-1 0-.6 0-1.2 0-1.9 1.8-1 3.6-.1 5.3 0 .4.1.9.2 1.3.3 1.5.5 3.2.4 4.4 1.5 0 .3 0 .6 0 1-1.9.1-3.9.1-5.9.1" style="fill:#4d6861"/><path d="m106.2 289.6c-1.2.1-2.4.2-3.6.2.4-.9 1-1.9 1.3-2.8 1.1-3.2 2.2-6.4 3.2-9.6-1-4.3-.4-8.7-.4-13-.9 4.5 1.3 9.6-1.6 14-.4.9-.5 2.2-1.2 2.5-1.6.9-3.5 1.4-5.3 2 .2-1.5.3-3.1.6-4.6.1-.8.7-1.5.9-2.3.4-1.6.7-3.3 1.1-4.9-1.4 1.1-2.7 2.2-4.1 3.3-1.9.2-1.8-1.3-2.1-2.5 0-1.6.6-2.9 1.7-4 1.1-1.2 1.6-2.5.4-4-.9-1-1.9-2.1-3.4-1.7-2 .6-1.1 2.4-1.2 3.8 1.7 10.6-.9 20.8-3.3 30.9-.3 1.1-.9 2.5-2 2.8-5.5 1.3-8.8 5.8-13.1 8.7 0 .6 0 1.2 0 1.7-3 3.9-5.3 4-7.5.2-1.1-1.9-1.4-4.4-4.1-6 .9 4.5 4.2 7.6 4.7 11.8 1 .2 1.9.4 2.9.6 0 .4 0 .8 0 1.2-2.2 0-4.8.7-6.4-.2-1.7-1-2.5-3.6-3.7-5.5-1.8-2.2-3.1-4.9-5.6-6.6-.8-.6-1.2-1.5-.4-2.5 6.2-.5 6.9-5.4 8-10 .9-.6 1.8-.6 2.8-.3.2 2.6-2 4.7-1.4 7.4 8.3.5 8.3.5 10.1-6.9 1.2-1.4 2.9-2.1 4.2-3.3.1 0 .3-.1.4-.1.2 0 .3 0 .5.1-.2-1.8-1.4-3.1-2.6-4.3-1-1-1.9-2.1-1.2-3.4 2.1-3.8-.2-4.2-3.1-4.2 1-8 2.1-16.1 3.1-24.1 2.5-2.2 4.4-4.9 7.3-6.8 2.7-1.5 4.3-4.4 7-5.9.6-.1 1.3-.1 1.9-.2 4.4 2.9 5.4 4.9-.8 8.4-2.8 1.6-6.1 2.4-9.2 5.4 4.5-1.5 8.4-2.3 11.6-4.9 3-2.5 6.4-1.7 6.6 2 .2 3.3 2.6 3.8 3.5 4.7-3-5.6-8.7-10.7-10.7-18.1-1.1-1.1-2-2.3.1-3.3.6 0 1.3 0 1.9 0 1.9 1.1 4 .7 6.1.8 6.9.8 13.6 2.7 20.5 2.6.2 3.2-1.1 6.4.7 9.8.8 1.6-1.8 2.8-6.9 2.6 2 .7 3.7 0 5.1.7 1.8.9 2.5 2.7 3 4.4.6 2.2 1.5 4.8-2.1 5.3-1.9.3-.6 1.5-.8 2.2-.3 1.4.6 2.2 2 2.2 3.8.1 7.7 0 11.5.1 1.5.1 2.1-.7 2-2.2-.3-2.7.3-5.7-2.3-7.8-.9-.7-1.5-1.8-1.7-3-.3-1.8-.6-3.9 1.2-5 1.7-1 3.6.1 4.4 1.4 3 4.7 8 6.1 12.4 8.7 4.5 2.7 3.5 8.2 5 12.5.6 1.6.3 3.6.6 5.4.7 3.5 4.2 4.5 6 7 .9 1.2 2.2 2.1 2.7 3.5 1 2.6 1.5 5.3-.8 7.4-2.3 2.1-4.6 1.1-6.8-.6-1.9-1.5-4.2-2-6.6-1.9-1.5 0-3-.7-4.3-.8-3.1-.2 0-6.8-5.5-4.7-2.6 1-5.6-1.5-8.5-2.1-.3-.1-.6-.3-.8-.5-1.3-2.9-.3-5.5 1-8 1.3-2.6.4-4-2.3-3.8-3.9.3-8.3-1.8-11.6 2.3-1.3 1.6-2.7.7-3.2-1.1-.5-1.6-.9-3.2-.7-3.7-.1 1.4 1.1 4 .1 6.5-.7 2 2 1.1 2 2.5 0 1.9 1.4 3.8-.1 5.6-5.2.6-5.3.4-4.6-7.3-.5 1.7-.6 3.6-.2 5.2 1.2 4.5-.6 6.8-4.3 8.1" style="fill:#90cad9"/><path d="m154.1 276.4c-1-3.6-3-7.2-2.7-10.7.5-6.8-5-6.8-8.5-9.2-1.8-1.2-3.3-2.7-4.9-4.1-1.5-1.2-3-2.4-4.6-3.5-.1 0-1.2.9-1.1 1.2.4 1.9.4 4.6 1.6 5.3 4.7 2.9 1 7.8 3.1 11.1 0 0-1.3 1.2-1.9 1.2-5 0-9.9-.2-14.9-.4-2-.1-3.2-.1-1.9-2.8.6-1.4-.4-3.5-.8-6.1 1.6.9 2.8 1.6 4.1 2.4 1.1-6-1-8.5-6.5-8-1.2.1-2.4-.6-3.7-1 1.2-.7 2.3-1.8 3.5-2.1 1-.3 2.2.5 3.4.5.7 0 1.5-.6 2.2-.9-.4-.7-.8-1.4-1.1-2.1-1.4-3.1-1.6-5.9 1.9-7.8-.6-.7-.8-1.6-.5-2.5 2.5-2.9 5.8-2.4 8.6-1.4 2.6.9 5.3 1.6 7.8 2.8 2.3.7 4.5 1.3 3.1 4.7-.4.9.5 2.7 1.3 3.5 1.7 1.7 3.8 3.1 5.8 4.6 1.8 1.2 4 1.5 5.9 2.5 2.3 1.1 4.6 2.1 6.3 4 .3.3.6.7.9 1.1 1.4 1.5 1.5 3.5 2.1 5.4 1.3 3.9.3 8.1 2.4 12 1.3 2.5.8 5.9-2.4 7.7-2.7 0-3.6-2.1-4.8-4-.3-2.1 1.8-1.8 2.9-2.6-2-.3-3.8-.9-5.8-.7-.4 0-.6-.1-.8-.1" style="fill:#afdce9"/><path d="m166.1 366.3c-2-.6-4-1.3-6-1.9-.4-1.5-1.2-2.2-2.7-1.4-1.4.8-2.7 1.8-4.3.4-2.3 0-4.7 0-7 0-1.2.4-1.8-.2-2.3-1.2-.1-.7.1-1.3.2-2 .8-5.1 1.8-5.6 6.4-2.7.6.4 1.1 1.2 2.2.6-4.3-4.1-8.8-1.6-12.8-.1-2.6 1 .9 2.8.7 4.5 0 2.2-4.1 1-3.3 3.9-4.3 0-8.6 0-13 0-.8-1.3-.2-2.1.9-2.7 1.6-.6 3.2-.5 4.8-.3 3 .7 3-.8 2.4-3-2.5-9.5-2-10.2 8-10.3 2.3 0 4.6.1 6.9 0 5.2-.2 7-2.8 5.6-8.2-.7-.4-1.3-1.7-1.9.1.5 1.9 2.5 3.9-.1 5.7-1.6-.3-2.3-1.9-3.5-2.7-1-1.1-1.1-2.6-2.4-3.5-.4-.2-.7-.4-1.1-.6-1.8-.6-4.1.3-5.6-1.5 8-1.8 15.9-1 23.3 2.4 1.8.8 2.7 3.6 4 5.5-.4 1-.7 2.1-1.1 3.1-5.4.9-5.4.9-2.1 7 .3.2.4.5.3.8.5-.5.3.6.4 0s.1.2-.3-.3c-.4-.5-.7-1.1-.9-1.7-.6-1.7-.5-3.4 1.2-4.2 1.8-.9 3.4-.1 4.6 1.5 0 2.8-1.4 5.5-.7 8.4-1.3 1.3.4 3-.8 4.4" style="fill:#679a8b"/><path d="m121 332.3c-2.6.6-5.2 1.3-7.8 1.9-2.6-1.5-3.5-3.9-4-6.7-.3-1.8 1.4-2.8 2-4.1-1.3-1.3-2.8-1.5-5.4-2.5 3.4 2.7 3 4.7.8 6.5-3.5 1-7.2 1.6-9.3 5.1-.4.7-1.5.5-2.1-.2-3-4.8.2-8.7 2.5-12.1 2.2-3.3 2-5.5-.2-8.3-.6-.8-.7-2-1-3.1 1.2-.2 2.6-.9 3.6-.6 3.8 1.1 7.5 2.4 11.1 3.8 1.9.7 3.3 1.4 2.7-1.6.2-.1.5-.2.7-.3 1.8.2 3.3 1.4 5 2 4.3 1.6 4.6 2.8 2.5 7.3-1.8 1-3.2-.1-4.5-1-2.9-1.8-6-2.7-9.4-2.7 3.2 1 6.3 2 9.5 3.2 5.2 2 5.5 6.4 5.9 10.8.2 2.1-1.5 2-2.6 2.6" style="fill:#95c8d7"/><path d="m111.1 294.4c.5.1.9.4 1.4.4 1.6.1 3.2 0 4.9 0-1.1-1-2.2-2.1-3.3-3-.6-.5-1.4-.8-2.1-1.3-.3-.5-.5-.9-.7-1.5-.3-3 1.5-3.8 4-3.6 2.6.3 5.3.7 7.9.5 4.8-.4 8.7.4 11.1 5.4 1.6 3.3 4.6 2.6 7.3 1.3.6-.2 1.1-.4 1.7-.5 1.3-.2 2.6-.2 3.9-.1 2 .1 4.1.2 4.8 2.6.7 2.4.4 4.6-2.3 5.7-6.9.3-13.9-.6-20.7 1.4-6.5-.4-13.2 1-19.6-1.3-2.5-.9-6.8-1.6-6-4.6.8-3.1 4.8-2 7.7-1.4" style="fill:#abdae6"/><path d="m157.1 332.4c-1 .3-2 1-3 1-9-.5-18.1-1.2-27.1-1.9-3.7-2.6-3.3-4.9 1.1-8.3.5 0 1.1.1 1.2.6.3.8.5 1.7.2 2.1 0-.8.1-2-.7-3.4-1.7-3.3-.2-4.9 3.1-5.4 1.3-.2 2.8-1 3.9-.5 4.9 2.2 9 .9 13.1-2 .5.1.9.3 1.3.5 1.1 2.3 3.3 2.4 5.4 2.9 1.4.3 3.6-.3 3.5 2.3 0 .6 0 1.2 0 1.8.4 4.5-3 6.2-6.1 8.1-2.7-.5-4.6-2.6-6.4-4.4-2.1-2.1-4.6-2.6-7.2-2.8-1.3-.1-2.9-.3-3.4 1.3-.4 1.5 1 2.4 2.1 3.1 4.7 3.1 10 2.8 15.3 2.4 2.3-.6 3.4.5 3.7 2.6" style="fill:#8cc1d0"/><path d="m103.9 234.7c-.5-.9-1.7-2-1.5-2.7 1.5-5.9 3.2-11.9 5-17.7.2-.6 2.6-1.2 2.8-.9 2 2.4 5.9 4.5 1.9 8.4-.5.5-.3 1.8-.3 2.2 2.9-.1 6.1-1.2 8.1-.2 2.2 1.2 3.4 4.4 5 6.7 2.6 3.4.2 4.3-2.4 3.8-4.8-.9-9.1.5-13.5 1.9-1.9.5-3.7.1-5.1-1.5" style="fill:#ead2d1"/><path d="m14.7 328.2c1.1-5-2.7-2.1-4.3-2.6-1.5-.5-3.2-.4-4.8-.6 1.5-1.9 2.6-4.3 4.5-5.6 2.2-1.5 5.2-2.7 7.7-2.5 2.9.2 5.9 1.6 8.4 3.2 2.4 1.6 4.6 3.9 6.3 6.3.6.8-.6 4.1-1 4.1-6.3.2-2.3 2.4-.9 4.1.7.9 1.2 1.9 1.7 2.8-4.4-.2-6-3.3-7.2-6.9-.6-1.7-.1-3.7-1.9-6.2.8 3.3-.8 4.1-2.8 4.2-1.9.1-3.9 1.2-5.7-.3" style="fill:#beaaa4"/><path d="m158.1 279.4c1.3 1.3 2.7 2.7 4 4 3.5.3 2.7-2.4 3-4.3.3-1.7-.9-4.1 2-4.8.4.4.4.8.1 1.3.2 8.3 0 16.3-5.1 23.6-1.7 2.4-.7 6.7-.9 10.1-2.7.2-2.2-2-2.4-3.4-1.6-11.4-5.4-14.3-16.8-12.5-.1.1-.3.3-.4.3-4.6-2.2-8.4-5.4-12.2-8.7-.2-.1 0-.6.2-.9.2-.2.3-.4.5-.6 2.1.3 4.2.6 6.3.9 1.5.2 3.7 3.1 4-1.1 0-.2 1.4-.7 1.6-.5.8.7 2 1.7 1.9 2.5-.5 5 2.5 5.1 6.2 5.3 2.4.1 4.8 1.8 7.2 2.6 1.3.4 3.1 1.2 4 .7.9-.5 1.9-3 1.5-3.7-2.2-3.5-4.7-6.8-7.3-9.9-1.1-1.3-3.8-1.6-1.4-3.9 1.6.6 3.3 1.2 4 3" style="fill:#649faf"/><path d="m54.9 324.3c2.3 5.4 1.7 7-3.8 8.7-4.7 1.4-9 3.5-13 6.4-.1-2.1.4-4.7-2.9-4.9.2-.6.3-1.3.7-1.7 1.3-1 2.7-1.9 4.1-2.8-1.3-1.5-2.6-3-4.1-4.8 2.5-1.2 5.4-2.5 8.2-3.8 1.3 1.4.5 2.7 0 4.1-.4 1.3-.8 2.7 1.3 2.9 2 .2 2.6-.9 2.4-2.7-.3-2.7-.9-5.5-.6-8.2 1.3-2.4 2.5-4.7 3.8-7.1 4.3 2 2.4 6.4 3.7 9.6.4 1.3-.5 2.9.2 4.3" style="fill:#5b6668"/><path d="m74.1 308.6c3.7-3.4 5.7-8.8 11.8-9.3.7 0 1.7-1.5 2-2.5 1.2-4.5 2.6-8.9 3-13.5.5-6 .2-12.1.3-18.1 4 .2 2 5.1 4.9 6.2.3 1 .7 2 1 3-1 5.8-2 11.6-3 17.4-.7 4.5-1.4 9-2.1 13.5-3.2 1.5-2.4-2.3-4-3-2.7.8-5.5 1.4-8 2.5-2.1 1-3.9 2.5-5.9 3.8" style="fill:#83bece"/><path d="m142.1 293.4c5.8-2.4 11.3-1.4 15.8 2.7 1.4 1.3 1.7 4.1 2.2 6.2.6 2.3.8 4.7 1.1 7-.4 1.7-.8 3.3-1.2 5-2.8 3.6-6.3 2.8-9.8 1.2l-.2-.3c0-1.8 1.7-2.8 2.1-4.4 1.3-2.9-1.3-2-2.3-2.2-2.6-.5-5.6.7-8-1.3 1.3-3.5 4.8-2.4 7.2-3.6 3.2-1.5-1.5-2.9-.1-4.3.7-1.4 1.7-2.8 1.8-4.3 0-.5-2.1-1.5-3.3-1.7-1.7-.2-3.5 0-5.3 0" style="fill:#8ac4d2"/><path d="m129.1 193.4c.3.4.4 1.1.8 1.2 6.8 2 7.9 9.9 14.8 13.2-1.6.3-2.3.7-2.7.5-3.5-1.5-5.4-.2-6.6 3.1-.3.9-1.4 1.5-2.2 2.2-.5-1-1-1.9-1.5-2.8-1.1-1.6-2.2-3.3-3.5-4.7-.2-.2-1.9 1.1-2.9 1.8-.8-2.9.8-8.2-5.7-6.3-.5.1-1.5-1.6-2.3-2.4-1.2-2.7-.7-3.7 2.1-3.6 2.4.1 4.4 1.4 6.3 2.6 1.5.9 2.6 2.6 5.1 3-1.6-2.7-3.8-4-5.7-5.6-1-.8-2.6-1.7-1.7-3.1.8-1.3 2.4-.6 3.5 0 .6.4 1.5.3 2.2.9" style="fill:#4d97b1"/><path d="m182.2 326.5c-2.9 3.4-5.8 6.9-8.8 10.5-1.7-5.4-3-10-4.4-14.5 3.2.2 4.6-1.2 3.5-4.3-1.9-5.3-2.8-10.8-3.4-16.4 0 3.4 1.4 6.9-1.2 9.9-1.5-6.2-2.3-12.4 1.1-18.3 3.6 2.8 4.9 7 5.8 11.1 1.2 5.6 2.7 11.2 3.8 16.8.5 2.3 2.1 3.6 3.6 5.2" style="fill:#5291a0"/><path d="m182.2 326.5c-2.4.1-3.9-.3-4.4-3.3-1-6.3-2.3-12.7-4-18.9-1.1-3.8-3.1-7.3-4.7-10.9.3-2.4.6-4.7.9-7.1 5.2 2 4.3 7.3 6.1 11.2 2.2 2.3 1.2 5.3 1.5 8-.2 1.7 1.1 2.5 2 3.6 2.6 3.4 4.7 7 2.7 11.5-.1 1.9-.1 3.9-.1 5.9" style="fill:#87c1d3"/><path d="m110.1 327.4c1 2.3 2.1 4.6 3.1 6.8-4 1.8-8.1 3.5-12.1 5.3-1.5.4-2.2 2.5-4.1 2.1-.6-3.1-1.2-6.2-1.8-9.3.3-.1.8 0 .9-.2 2.4-3.6 5.9-5.2 10-5.7 1.7-1.1 3-.6 4 1" style="fill:#436a77"/><path d="m130.1 364.4c-1.7 0-3.5 0-5.2-.1-2.2-1.4-2.5-4.3-4.4-5.9-.5-2.6-2.2-2.1-4.1-1.9-1.7.2-3.6 2.4-5.3-.1-1.5-3.6-1.4-6.3 2.7-8.4 4-2.1 7.6-5 11.3-7.6 1.1 2.6 1.6 5.2.5 7.9-1.2 1.7-3.7.9-5.1 2.4.7.5 1.7.3 2.1 1 .8 1.6.4 4.2 3.4 4 .5 0 1.2.4 1.2.7-.1 3.1 2.7 5.1 2.9 8" style="fill:#629887"/><path d="m14.7 328.2c1.5-.2 2.9-.6 4.4-.7 3-.1 6.2 0 1.3-3.6 3.7-1.3 5.8.4 5.5 3.2-.4 5.2 2.7 7.8 6.3 10.2.3.1.5.2.8.2 1.3.6 2.2 1.3 1.1 2.8-3.2-1.4-7-2.1-9.5-4.3-3.6-3.3-6.8-5.3-11.8-3.8-1.6.5-3.4.1-5.4-.8 2.4-1 4.9-2.1 7.3-3.2" style="fill:#ddc9c2"/><path d="m92.1 238.3c4.6 7.4 9.2 14.7 13.9 22.4-3.2 1.2-3.3-7.5-7.8-.9 0-2.2.2-3.3 0-4.3-.4-1.9-1-3.8-1.5-5.6-1.4.8-2.9 1.5-4.1 2.6-3 2.6-11.2 4-14.6 1.9 3.9-1.8 7.5-3.5 11.1-5 3.8-1.6 4.4-3.7 1.9-7.9.3-.6.6-1.1.9-1.7-.4-.7-.3-1.1.2-1.5" style="fill:#6199a8"/><path d="m167.2 275.6c-.1-.4-.2-.9-.3-1.3-2.5-3.6-3.6-7.9-5.1-11.9-.6-1.7-1.4-2.8-2.6-4h-.1c-1.3-2.4-3.7-3.2-6.1-3.8-1.9-1.1-3.9-2.2-5.8-3.3 1.4-1 2.8-1.8 4-3 2.5-2.4 1.9 1.6 8.1 6.5 5.3 4.2 9.8 9.3 9.7 16.8 0 1.6.6 3.2 1 4.8-.8-.3-1.8-.6-2.8-.8" style="fill:#627482"/><path d="m74.1 293.3c-.1 7.7-1.9 9.9-7.4 8.8-1.6-.3-4.4-1.2-4.4-1.6.2-2.6-1-5.9 2.7-7.2-.3-.6 0-1.2.2-1.9 0-.3 0-.7 0-1-.7-1-.6-2.3.6-2.1 3.3.6 7.2.5 8.3 5" style="fill:#a9d8e4"/><path d="m128 323.4c-1.3 2.6-4.2 5-1 8.1-2 .3-4 .5-6 .8 3.1-3.8.7-10.3-5.1-12.7-2.9-1.2-6.1-1.5-9-2.4-.9-.3-1.6-1.2-2.4-1.9.8-.3 1.8-1.1 2.5-.9 3.5.7 6.9 1.5 10.3 2.6 1.7.5 3.2 1.6 4.8 2.5.2 0 .4-.1.7-.1 2.6-.2 4.3 1 5.2 3.4 0 .2 0 .4 0 .6" style="fill:#547c88"/><path d="m111.1 294.4c-2.4.2-4.8.5-7.2.7-.1.6-.3 1.3-.4 1.9 4.1 1.1 8.1 2.7 12.2 3.2 4.4.6 9 .2 13.4.3-.9 2.8-3.4 2.1-5.4 2.3-2.8.3-5.7-.6-8.3 1.1-1 .5-2.1.7-3.2.8-1.7 0-3.3-.2-4.7-1.1-2.9-2.7-7.2-2-10.4-4.1.1-6.8.4-7 7-6 2.3.2 4.7.5 7 .9" style="fill:#5d8694"/><path d="m125.1 348.3c0-2.6 0-5.3-.1-7.9 4.3-.3 8.6-.7 12.9-1 2.4.4 4.7.7 7.1 1.1-1.7 1.7-4 1-6 1.5 2.1 0 4.5 1 6.1-1.5.7 1.3 1.3 2.6 2 3.9-.1.1-.2.3-.3.3-6.7 1.1-13.4 2.1-19.8 4.3-.7.2-1.4-.2-1.9-.7" style="fill:#78b19f"/><path d="m129.1 193.4c-1.7-.3-3.5-.7-6.6-1.3 3.7 3 6.4 4.9 8.8 7.3.8.8.5 2.5.7 3.8-1.2-.3-2.5-.4-3.6-1-3-1.7-5.7-3.9-8.8-5.4-2.2-1.1-3.7-.4-2.6 2.5-1.1.9-2.1 1.9-3.2 2.8-.5-.3-.9-.5-1.4-.8 1.8-3.1 3-7.2 5.7-8.9 3.2-2 7.7-2.3 11 1" style="fill:#183d4e"/><path d="m71.7 278.3c1.5-.6 3-1.3 4.6-1.9 0 2-.1 4 0 5.9.1 1 .3 2.1.8 3 .9 1.9 2 3.7 3 5.6-.7-.1-1.3-.3-2-.4-4.3-.6-8.3-2.8-12.7-3.3-1.8-.2-1.6-1.7-.3-2.9 2.1-2 4.4-4 6.6-6" style="fill:#a7d6e3"/><path d="m167.9 311.6c0-4.4 0-8.8 0-13.2.3-.1.6-.1.9-.2.4 1 1 1.9 1.2 3 1.4 6.1 2.8 12.1 3.9 18.2.3 1.7-.3 3.5-.5 5.3-1.5-.8-3-1.6-4.5-2.3-.3-3.6-.6-7.2-1-10.8" style="fill:#6dbcce"/><path d="m54.9 324.3c-1.3-4.6-2.6-9.3-4-13.9 1-2.3 2.1-4.7 3.1-7 2.6 2.6 5.9 4.8 6 9.1-1 .3-2.6.4-2.8.9-.9 3.6-1.5 7.2-2.3 10.9" style="fill:#72a8b5"/><path d="m108.9 235.3c4.5-2.2 9-3.9 14.1-2.1 2.7 1 2.3-1.1 2-2.7 4 2.6 8 5.2 12.1 7.9-3.3-.6-6.6-1.5-10-1.8-2-.2-4.1.5-6.1.8-4.5 1.9-8.7 1.9-12.1-2.1" style="fill:#798c95"/><path d="m47.1 317.5c.7 3.3 1.4 6.6 1.9 9.9.1.6-1.1 1.8-1.9 2-1.5.3-3.1.1-4.6.1.3-1.8.6-3.6.9-5.4.2-.9.4-1.9.7-2.8 1-1.2 2-2.5 3-3.8" style="fill:#b2a49f"/><path d="m67.2 316.3c-2-3.5-4.2-6.9-6.1-10.4-.4-.8 0-2 .1-2.9 1.1.3 2.7.1 3.4.8 1.2 1.3 2 3.1 2.5 4.8 1.4 4.7 3.8 4.7 7.1 1.7-.3 2.8-1.5 3.5-4.8 3.8-.8.1-1.5 1.5-2.2 2.2" style="fill:#5f9aa7"/><path d="m124 215.4c.8.5 1.8 1.5 2.2 1.3 3.8-1.6 5.8 1.2 8 3.2.7.7.6 2.3.8 3.4-1.2.1-2.6.6-3.5.1-3.6-1.8-7-4-10.6-6 .8-1.1 1.4-2.4 3.1-2" style="fill:#275460"/><path d="m182.2 320.5c-.8-4.3-.3-9.1-5.2-11.6-.6-.3-.5-1.7-.8-2.6 1.5-1.1 3.5-1.5 4.6-3.1.4-.2.8-.2 1.2.2 1.3 4.7 2.7 9.4 4 14.1 0 .7 0 1.3 0 2-1.2.3-2.5.7-3.8 1" style="fill:#5d6e7d"/><path d="m65 284.3c.7.7 1.3 1.6 2.2 2 3.6 1.5 7.2 2.8 10.9 4.2-1.3.9-2.6 1.9-3.8 2.8-2.7-1.8-5-5-9-2.9-2.7-4.4-2.7-4.4-.3-6.1" style="fill:#5c7981"/><path d="m111.1 356.4c3.1-.7 6.3-1.4 9.7-2.1.1 1.2.2 2.7.3 4.1-1.5 2.5 1.9 6.2-1.9 8.2l-.2-.3c-1.6-1.4-2.5-3.2-3.1-5.2-2.2.4-2.3 2.5-3.7 3.3-.4-2.7-.8-5.3-1.1-8" style="fill:#537c70"/><path d="m124 215.4c-1 .7-2 1.4-3 2.1-2.7-2.3-5.5-4.6-8.2-7.1-.6-.6-.8-1.6-1.2-2.4.8-.2 1.9-.9 2.3-.7 3.5 2.6 6.8 5.4 10.1 8.1" style="fill:#55868f"/><path d="m108.9 235.3c4 .7 8.1 1.4 12.1 2.1 0 .7.1 1.4.1 2.1-7.4 1.7-14.2-.6-21-3.2 1.3-.5 2.5-1.1 3.8-1.6 1.7.2 3.3.4 5 .6" style="fill:#65848d"/><path d="m97.2 299.4c3.6 1 7.2 2 10.8 3.1 0 2.4 4 1 3.7 3.8 0 .5-.2.9-.6 1.2-3.5-1.3-7.2-2.3-10.6-4-1.5-.7-2.3-2.7-3.3-4.1" style="fill:#8ac4d2"/><path d="m148 229.3c-2.8-.6-5.8-1-8.5-2-1.1-.4-2-2.1-2.2-3.4-.1-.9 1.1-2 1.7-3 1.1.7 2.2 1.2 3.1 2 2.2 1.7 4.2 3.5 6.4 5.3-.2.4-.4.8-.5 1.1" style="fill:#315e6e"/><path d="m150.2 208.2c-.4 3.2-.7 6.3-1.2 9.2-.1.4-1.3 1.2-1.5 1.1-1.5-.8-3-1.7-4.1-3-.4-.5.1-2.3.7-2.9 1.7-1.5 3.8-2.7 6.1-4.4" style="fill:#2d6171"/><path d="m150.2 315.6c3.3-.4 6.5-.8 9.8-1.2-.3 2-.6 4.1-.8 6.1-2.6-.7-5.3-1.2-7.8-2.1-.7-.3-.8-1.8-1.2-2.8" style="fill:#4d7c89"/><path d="m88.1 302.4c1.3 1 2.7 2 4 3-3 6.6-8.1 10.2-11.7 8.2 2.7-3.6 10.8-3.6 7.7-11.2" style="fill:#2e4e55"/><path d="m112.1 364.4c1.3-2.1 2.6-4.2 4.5-7.3 1.1 4.2 1.7 6.7 2.4 9.1-2-.2-4-.5-6-.7-.3-.4-.6-.8-.9-1.1" style="fill:#7bb4a1"/><path d="m153.2 330.3c2-2.7 4-5.4 6-8 1.3 3.8 2.8 7.6-2.1 10.1-1.3-.7-2.6-1.4-3.9-2.1" style="fill:#4d7c89"/><path d="m112 289.5c0 .3 0 .7 0 1-1.9-.3-3.8-.6-5.8-.9 5.7-3.4 3.2-9.3 4.2-14.8 1.8 3.4-1.7 9.8 5.7 8.6.1.2.3.4.4.6.2 2.1-1.3 1.9-2.7 1.9-2.7.1-2.9 1.6-1.8 3.6" style="fill:#6395a3"/><path d="m61.6 323.3c2-.3 4-.8 6-.8 1 0 2 .8 3 1.3-1.1.7-2.1 1.9-3.2 1.9-2-.1-3.9-1-5.8-1.5.1-.3.1-.6 0-.9" style="fill:#213135"/><path d="m73.9 319.3c.8-4 3.7-3.1 6.9-1.9-2.2 1.3-4.5 2.7-6.7 4-.7-.6-.5-1.3-.2-2.1" style="fill:#35616b"/><path d="m35.2 334.4c1.4.1 2.7.2 4.1.3-.4 1.5-.8 3.1-1.2 4.6-.3.1-.6.2-.9.2-2.6.2-1.3-2.1-2-3.1-.1-.7-.1-1.3 0-2" style="fill:#a3a2a0"/><path d="m105.1 278.4c.5-5 .9-10 1.4-15 .2 0 .4 0 .6 0 0 4.7 0 9.3 0 14-.7.3-1.3.6-2 1" style="fill:#4c8291"/><path d="m97 341.6c1.4-.7 2.7-1.4 4.1-2.1-1.3 2.3-5.5 3.9.7 8-1.2-.1-2.4-.1-3.6-.2-.4-2-.8-3.8-1.2-5.7" style="fill:#1e2e32"/><g style="fill:#65848d"><path d="m92.1 238.3c-.1.4-.1.9-.2 1.3-1.7-1.1-3.5-2.1-6.1-3.7 2.5-.2 4.4-.3 6.3-.4 0 .9 0 1.9 0 2.8"/><path d="m82.1 247.4c-2.4 2.3-4.8 4.5-7.3 6.8 2.4-2.3 4.9-4.5 7.3-6.8"/><path d="m89.1 241.5c-2.3 2-4.7 3.9-7 5.9 2.3-2 4.7-3.9 7-5.9"/><path d="m100.1 236.3c-2-.3-4.1-.5-6.1-.8 2.1.3 4.1.5 6.1.8"/></g><path d="m35.1 336.4c.7 1 1.4 2.1 2 3.1-1 .3-2.1.5-3.1.8-.4-.9-.7-1.9-1.1-2.8.8-.3 1.5-.7 2.2-1.1" style="fill:#5b6668"/><path d="m111 307.5c0-.4 0-.7 0-1.1 2.7-.1 3.8 1.2 3.2 3.8l-.3.2c-.9-.9-1.9-1.9-2.9-2.9" style="fill:#95c8d7"/><path d="m65.1 291.4c0 .6-.1 1.2-.1 1.9-1 0-2 .1-2.9.1 1-.7 2-1.3 3-2" style="fill:#5c7981"/><path d="m73.9 319.3c0 .7.1 1.4.1 2.1-.5.1-1 .3-1.5.4.5-.8 1-1.6 1.4-2.5" style="fill:#213135"/><path d="m166.1 362.4c-1.1-2.8-2.3-5.7 1-8 .9-.4.9-1.3 1-2 .6.6 1.5 1.1 1.8 1.9.2.7-.6 2.1-.3 2.3 8 5.5.6 5.4-2.5 6.9-.9.1-1.4-.1-1-1.1" style="fill:#66998a"/><g style="fill:#4d6861"><path d="m144 362.3c.7.4 1.4.7 2 1.1.5 1.2 1 2.4 1.8 4.3-3.5-.5-7.2-.9-10.8-1.4-1.6-3.4 2.1-2.6 3.1-3.9 1.3-1.1 2.6-1.2 3.9-.1"/><path d="m153.1 363.4c1.3-.6 2.5-1.1 3.8-1.7.9-.4 1.9-.6 2.8-1 .1 1.2.3 2.4.4 3.6-2.7 1.4-5.4 2.8-8.1 4.2-.2-.4-.4-.9-.6-1.3.6-1.2 1.1-2.5 1.7-3.8"/></g><path d="m168.1 352.4c-.3.7-.7 1.3-1 2-1.2-.6-2.4-1.2-3.6-1.8-.5 1.6-.9 3.2-1.4 4.8-.9-.9-2.2-1.6-2.8-2.6-.7-1.6-.9-3.4-1.3-5.1 1.6.2 3.1.4 4.7.5.5.1 1 .1 1.5.2 1.3.6 2.6 1.3 3.9 2" style="fill:#83b7a5"/><path d="m119.2 366.5c.1-1.5-.1-3.1.2-4.5.3-1.3 1.1-2.5 1.6-3.7 1.3 2 2.5 4 3.8 6-.3.7-.5 1.4-.8 2 0 .3 0 .6-.1.9-1.5-.1-3.1-.4-4.7-.7" style="fill:#2f4c44"/><path d="m166.1 362.4c.3.3.7.7 1 1-.3 1-.6 1.9-.9 2.9-.1-1.3-.1-2.6-.1-3.9" style="fill:#83b7a5"/><path d="m181.2 303.4c.1 3.9-2.7 3.1-5 2.9-.1-3-.1-5.9-.2-8.9.1-1.2.3-2.4.5-4.2 1.5 1.7 2.6 3 3.6 4.2 0 .6 0 1.3.1 1.9.3 1.4 1.1 2.6 1 4.1" style="fill:#303d46"/><path d="m181.2 303.4c-.3-1.3-.7-2.7-1-4 .6 1.4 1.2 2.7 1.8 4.1-.3-.1-.5-.1-.8-.1" style="fill:#727a89"/><path d="m116.1 283.4c-4.4-5.6-3.3-11.9-1.9-18.2.3 2.8.5 5.7.9 9.2 2.9-3.4 14.2-5.5 17.3-3.5.9.6 1.6 2.6 1.3 3.7-.9 3.1-2.3 6-3.5 9-4.8 2.1-9.5 2.2-14.1-.2" style="fill:#aedce8"/><path d="m96.1 271.4c-1.8 1.1-2.9 1.3-3.2-1.4-.2-1.6-1.1-3.2-1.7-4.8.4-1.6.9-3.1 1.3-4.7 2.2 1.3 4.7 2.2 6.4 4 1.8 1.8.8 3.5-1.6 4.5-.6.3-.8 1.6-1.2 2.4" style="fill:#3e6873"/><g style="fill:#90cad9"><path d="m159.2 258.4c.8.5 5.9 11.1 7.7 15.9-.3 2.4-.6 4.8-.7 7.2-.2 3.3-1.6 3.6-4.1 1.9 3.5-5.5 3-7.9-2.4-9.8 3.3-2.2 3.1-7.9-.5-15.2"/><path d="m158.1 279.4c-1.3-1-2.7-2-4-3 2.7-3 5.4.4 8.1-.1.1 0 .8 1.3.6 1.6-.3.6-1 1.1-1.7 1.3-.9.2-2 .1-3 .2"/></g><path d="m153.1 254.5c2.8.1 5.5.3 6.1 3.8-2.1-1.2-4.1-2.5-6.1-3.8" style="fill:#bfbdc0"/><path d="m130.1 364.4c-1.4-1-2.7-2.1-4.2-3.2.9-2.1 3.2-5.3-2.8-4.7-.1 0-.6-3.3-.9-5 7.5-2.2 14.5-6.2 22.7-5.5 1.8.1 3.7.1 5.1 1.4-.3-2-.7-4-1-5.9.7-2.7 2.5-1.3 4-1.1.5 2.2 1.8 4.6 1.2 6.5-.7 2.3-1.6 5.3-5.7 4.7-4.1-.6-8.3-.2-12.4-.1-5 .2-5.7 1.6-3.7 6.1.6 1.3 1.1 2.8 1.5 4.2.2 1.1.1 2.2.2 3.3-1.3-.3-2.7-.5-4-.7" style="fill:#82bda9"/><path d="m150 347.3c-6.9.1-13.7-.4-20.2 3.1-2.1 1.1-5.1.7-7.7 1.1-1.5.3-2.9.6-4.4.9-.2-.6-.3-1.3-.5-1.9 2.6-.7 5.2-1.4 7.9-2.1 7.2-2 14.1-5.3 21.9-4 1 1 2 2 3 2.9" style="fill:#4f8474"/><path d="m144 362.3c-1.3.1-2.6.1-3.9.2-1.1-1.2-2.4-2.3-3.2-3.7-.3-.4.6-2.2 1-2.3 4.6-.5 9.2-.9 13.8-.9 1 0 2.1 1.8 3 2.9.2.2-.5 1.6-.7 1.6-1.4-.2-2.8-.3-4-.9-1.4-.6-2.6-1.7-3.9-2.6-.2 1.3-.2 2.7-.5 3.9-.2.7-1 1.2-1.6 1.8" style="fill:#82bea7"/><path d="m153.1 340.3c-1.3.4-2.7.7-4 1.1-.1-2.3.6-2.5 4-1.1" style="fill:#78b19f"/><path d="m162.1 357.4c.6 1 1.3 1.9 1.9 2.9-.4.1-.8.3-1.1.4-.3-1.1-.5-2.2-.8-3.3" style="fill:#83b7a5"/><path d="m114.3 310.2c-1.1-1.3-2.2-2.6-3.2-3.8-1-1.3-2.1-2.6-3.1-3.9 1.4.3 2.7.6 4.1.9 10.6.8 21.1 1 31.6-.9 2.4-.3 4.7-.1 6.4 1.9-2.6 1.1-5.2 2.2-7.8 3.3.1.5 0 .9-.4 1.3-1.2 1.2-3 1.4-4.6 2.3 4.9-.1 9.6-2.2 14.3-.4.1.2.3.4.4.6 2.3 2.8-1 2.7-2 3.8-4.4 3.6-8.8 5.2-14.6 2.7-2-.8-8.6-.9-5.2 5.8.4.8-.2 2.2-.4 3.8-.7-1.7-1.2-3-1.8-4.3-.7-3.3-3.4-3.6-6-4 .5-3.2 1.2-6.3-3.9-6.3-1.2.1-2.5-1.8-3.8-2.8" style="fill:#aadae7"/><path d="m110.1 327.4c-1.3-.3-2.7-.6-4-.9 1.4-1.5 2.2-2.8-.5-3.9-.6-.2-.9-1.5-1.3-2.2.9-.2 1.8-.6 2.6-.4 2.2.6 4.3 1.6 6.4 2.4-1 1.6-2.1 3.3-3.2 5" style="fill:#5a8794"/><path d="m150.1 304.4c-2-.3-4-.6-6-1-9.6.9-19.3 3-28.9-.3 1.3-.6 2.5-1.5 3.8-1.7 3.3-.5 6.7-.6 10.1-.9 6.5-2.2 13.2-1.9 19.9-1.1.8.7 1.7 1.4 2.5 2.2 2.9 2.7.1 2.4-1.4 2.8" style="fill:#2f464e"/><path d="m116.1 283.4c4.7 0 9.4 0 14.1 0 .1.7-.1 1.7.2 1.9 3.8 2.7 7.8 5.3 11.7 8-4.9 3.3-6.7 3.1-9.3-1.7-1.8-3.3-3.8-4.7-7.7-4.4-3.2.3-6.6-.7-9.8-.5-1.1.1-2.2 1.8-3.3 2.8-3.2-2.2-1-3.1 1-4.1 1-.5 2-1.3 3.1-2" style="fill:#8bc7d6"/><path d="m153.2 330.3c-7 2.8-16.5.4-18.6-4.8-.3-.8.4-2.8 1-3 4.2-1.1 8.2-1.3 11.6 2.4 1.8 2 4 3.6 6 5.4" style="fill:#aadae7"/><path d="m141.9 308.3c.2-.2.3-.4.4-.6 3.3-.1 6.5-.4 9.7-.1 1.1.1 2.1 1.6 3.1 2.5-1 .5-2 1-3.1 1.5l.1-.1c-2.9-1-5.8-.3-8.7-.3-1.9-.1-3.5-.6-1.5-2.9" style="fill:#405d66"/><path d="m122 319.4c2.9 0 6.3-.8 6 4-2-1.3-4-2.6-6-4" style="fill:#8cc1d0"/><path d="m115.2 303.2c9.6.1 19.2.2 28.9.3-10.7 2.4-21.3 3.2-32 0 1-.1 2.1-.2 3.1-.3" style="fill:#8ac4d2"/><path d="m145.1 340.4c.8 2.4-.1 3.5-2.6 3-2.4-.5-4.8-1-7.2-1.5 2.2-.5 4.5-1 6.7-1.4 1-.2 2.1-.1 3.1-.1" style="fill:#82bda9"/><path d="m141.9 308.3c.8.7 1.6 1.8 2.5 2.1 2.5.6 5.1.7 7.6 1.1-4.7.6-9.3 1.3-14 1.7-1.2.1-2.4-.4-3.7-.6.8-.8 1.4-1.9 2.3-2.4 1.8-.9 3.6-1.3 5.3-1.9" style="fill:#7aa6b2"/></g><g id="brenda"><g style="fill:#0d1011"><path d="m85 119.6c3.4 2.6-2 8.7-2.6 9.5-1.8.6-13.8-5.7-2.7-9.4 1-.1 2.9.5 3.3-.3.8-.6 1.5-.6 2 .2"/><path d="m81.9 110.5c1.2 1.6-.7 10.3-.6 10.9-2.1.1-6.1-5-8.2-4.1-1.7.8-.2-4.3-1-5.8 2.3-.7 4.9.8 7.1-1 .9 0 1.8 0 2.7 0"/><path d="m71.9 116.5c1.1.2 2.3.9 3.3.7 5.8-1.5 5 1.8 3.9 5.3-.3.3-.7.5-1.2.5-.4-.1-.8-.3-1.1-.6-.6-.6.5-1.9-1-2.1-1 0-1.9-.4-2.7-1-.5-.4-.9-.9-1.2-1.4-.2-.6-.2-1 0-1.4"/></g><path d="m53 24.5c1.9 2.2 2.8 5.3 5.7 6.7 1 .5 1.3 1.7.6 2.6-3.5 4.4-2.4 9.5-2 14.4.4 5.5.7 11-2.1 16-1 1.8-.1 2.7 1.3 3.6 3.2 2.3 6.5 4.6 9.7 6.9 3.4 1.5 4.4 4.6 5.2 7.9-.5.5-1.1.9-1.7 1.2-2.5.4-1.9 5.3-5.6 3.8-6.7-4.3-11-10.8-15.1-17.4-1.2-2-1-3.8-.5-6.1 1.8-8.5 4.8-16.9 4.9-25.8 0-3.3-.1-6.6-1.1-9.8-.6-1.5-2-3.2.7-4" style="fill:#f2d8d0"/><path d="m82.3 77c2.9 3.1 2.9 6.9 1.8 10.5-1.7 5.7-.1 8.8 5.8 10 1.3 1.5 1.2 3.6 2.3 5.2.3.7.4 1.4.1 2.1-1.1 2-3.6 2.1-5 3.7-1.4 1-.2 3.3-2 4.1-1.6.6-2.5-1.2-4-1.2-1-.1-2 0-3-.4-1.3-.7-2.7-1.1-4-1.7-2.8-1.1-4.1-3.1-2.4-6.1.9-1 1.8-2 3.2-1.7-.3-.4-.8-.1-1.2-.2-2.3-.1-2.5-1.8-2.7-3.4-.3-1.8-.4-3.6-2.1-4.7-.6-.8-2-.4-2.2-1.6-1.2-2-1.9-3.9.6-5.5 2 2.2 4.8 1.2 7.2 1.8.9.9 1.8 1.7 3.1.7.8-.9.5-2.4 1.8-3.1 1.7-1.1 2.1-2.6 1.9-4.5 0-1.4-.7-2.9.8-4" style="fill:#efd8d1"/><path d="m82.3 77c.3 1.7.6 3.5.8 5.2.4 3.1-.7 4.6-4 4.2-1.2.7-2.2-.5-3.4-.5-.4-.1-.8-.3-1.1-.5-.8-.9-1.7-1.7-2.6-2.5-.3-.4-.4-.7-.5-1.2-2.1-2.6-3.3-5.7-5.2-8.5-.2-10.8 5.9-19.4 9.8-28.8 1.2-1.1 1.1-3 2.8-4.5 1.6 4-.8 7.4-.7 10.9-.2 5.3-.9 10.5-4.2 14.9-1.8 2.4-1.5 4.1 1.4 5.4 2.8 1.2 5.6 2.7 6.9 5.9" style="fill:#f2d7d0"/><path d="m92.3 104.8c-.4-.5-.9-1-1.3-1.5-.1-1.4 0-2.8 1-4 1.4-2.4 2.4-5.2 4.2-7.2 1.7-2 2.1-4 1.7-6.4-.1-1.2-1.2-2.8 1.1-3.3 4.1 3.4 4 6.9.8 11-2.8 3.6-5.1 7.6-7.5 11.4" style="fill:#d8c9c6"/><path d="m78.2 50.8c-.9-3.2.6-6.2.8-9.5-1.5.8-1.3 2.9-3 3.2 1-4.3 3.2-8.3 2.8-13-.1-1.3-.7-3.1 1-4 .8-.4 1.6.1 2.2.7 1.3 1.2 2.4 2.5 1.6 4.3-2.4 5.8-3.6 12.1-5.4 18.3" style="fill:#d3c1be"/><path d="m69 107.5c-4.4-5.3-11-5.6-17-7-.6-2 1.5-1.2 2.1-2 6.3-1.5 11.4.6 15.8 5.1 1.2 1.7 1.8 3.2-.9 3.9" style="fill:#cbc3c1"/><path d="m99 82.4c-1.2.8-.8 2.2-1.1 3.3-1.9-5.3-7.9-9.8-2.5-17.9.9 5.7-1.1 11.3 3.6 14.6" style="fill:#b5b2b2"/><path d="m69 107.5c1.8-.9.9-2.6.9-3.9.7-.1 1.4-.2 2-.3-.3 2.9 0 5.5 3.9 5.2 1.7-.1 2.1 1.4 3.3 2-2.1 2.5-4.6 1.5-7.1 1-1-1.3-2-2.7-3-4" style="fill:#5d5e61"/><path d="m81.9 110.5c1 .6 2 1.1 2.9 1.7 2.3.1 1.2 1.4.8 2.4-1.4 1.4-1.3 3.4-1.9 5.1-.6.9-1.1 2.3-2.7 1.3.3-2.9.7-5.7 1-8.6-.5-.6-.5-1.2-.1-1.9" style="fill:#b7b8b7"/><path d="m85 125.3c.3-.9.6-1.9 1-2.8.4-1.5.3-3.1 1.2-4.4.7-.3 1.3-.2 1.9.3-.6 2.7 2.8.3 2.8 2.2-.3 1.1-1.9 1.5-1.7 2.9-.7 1-1.4 2-2.1 2.9-.9-.7-2.4.2-3.1-1.1" style="fill:#3d4649"/><path d="m69.2 93.3c2.6.5 2.7 2.4 2.6 4.4-.1 2.3.9 3.2 3.1 3 .9.3 1.7.7 1.2 1.9-1.5-.2-2.8.1-4.1.8-.9-3.4-1.8-6.8-2.8-10.1" style="fill:#786e69"/><path d="m68 86.4c-2.1 1.4-1 3.4-1 5.3-1.8-.8-2.6-2.4-3.1-4.1 3.3-.1 1.8-5.2 5.3-5 .9 1.6.3 2.8-1.2 3.8" style="fill:#dccdca"/><path d="m66.3 73.2c3.3 2.2 4.3 5.8 5.7 9.2-.3.2-.7.2-1-.1-2.6-1.9-2.9-5.4-5-7.7.2-.4.2-.9.3-1.4" style="fill:#7f7472"/><path d="m54.1 98.5c-.7.7-1.4 1.3-2.1 2-3.4.3-3.8-2.1-4.6-4.5 3.2-.9 4 3.1 6.7 2.5" style="fill:#8d8d8d"/><path d="m73.3 118.3c.9.3 1.9.7 2.8 1 .8.9.4 1.9.4 2.9-.3 1.1-1.2 1.6-2.3 1.8-.8-1.4-1.6-2.7-2.4-4.1-.2-1.3.2-1.8 1.5-1.6" style="fill:#a0b2b5"/><path d="m85.1 114.6c.2-.8 1-1.7-.2-2.4 1.4-.8.5-3.2 2.4-3.7-2 3 2.3 4.3 1.8 6.9-.4.8-.9 1.4-1.8 1.6-.4 0-.8-.1-1.2-.2-.7-.6-1-1.3-1-2.2" style="fill:#bbbabd"/><path d="m86.1 116.5c.3 0 .6 0 .8-.1.7.6.7 1.2.1 1.8.6 1.7 1.4 3.4-1.1 4.3-.9-.1-1.7-.2-2.6-.3-1-1.4 1.2-2.1.8-3.4.3-1.1.7-2 2-2.3" style="fill:#777c7f"/><path d="m86.3 127.5c-.9.5-1.7 1-2.6 1.4-.8.3-1.9.5-2.2-.3-.4-1.1.7-1.6 1.5-2.1 1.6-1.1 2.6-.2 3.3 1" style="fill:#889c9b"/><path d="m78.1 122.4c.3 0 .7 0 1 0-.3 1.5.3 2.7 1.6 3.7-2.4.7-4.2.2-5.5-1.8.8-.9 2.1-1 2.9-1.9" style="fill:#62696c"/><path d="m92 99.4c.3 1.5-.1 2.8-1 4-1.5-1.7.1-4-1.1-5.8 1.2-.1 1.2 1.3 2.1 1.8" style="fill:#2b2526"/><path d="m53 24.5c-1.7 1-.3 2.6-.9 3.9-1.4-.8-.9-2.4-1.6-3.5-.4-.6-.5-1.5.2-1.7.9-.2 2 .1 2.3 1.3" style="fill:#6e6d6d"/><path d="m86.3 127.5c-1.1-.3-2.1-.7-3.2-1 .6-.4 1.3-.7 1.9-1.1 1.1.1 2.4-.3 3.1 1-.6.3-1.2.7-1.8 1.1" style="fill:#6d7b7d"/><path d="m78.1 122.4c.3 2.5-1.8 1.4-2.8 1.9-.3-.1-.6-.3-1-.4.6-.5 1.2-1 1.8-1.5.3-.6.7-.7 1.2-.2.2 0 .5.1.8.2" style="fill:#c4d6da"/><path d="m90.2 123.5c-.4-.1-1.3-.3-1.3-.4 0-2 2-1.6 3-2.5.2 1.4-.8 2.1-1.7 2.9" style="fill:#5e676e"/><path d="m87.1 118.2c0-.6-.1-1.2-.1-1.8.7-.3 1.4-.7 2.1-1 .5 1 1 2 0 3-.7-.1-1.3-.1-2-.2" style="fill:#dbdddd"/><path d="m68.2 116.3c-1.2-.7-2.5-2.1-1.5-2.9 1.3-1 2.2.5 2.5 1.9-.2.5-.5.8-1 1" style="fill:#2b2f30"/><path d="m68.2 116.3c.3-.3.6-.7.9-1 .9.4 1.8.8 2.7 1.2.1.3.2.5.4.8-.8.8-1.7.7-2.6.2-.4-.4-.9-.8-1.4-1.2" style="fill:#727c7d"/><path d="m69.6 117.5c.9-.1 1.7-.1 2.6-.2.3.3.7.7 1 1-.5.5-.9 1-1.4 1.5-1.1-.4-1.6-1.3-2.2-2.3" style="fill:#99a4a7"/><path d="m71.1 82.3c.3 0 .7 0 1 .1 0 0-.1 0-.1 0 1.2.8 2.3 1.6 3 2.9.2.1.4.2.6.1 1.7.4 3 1.1 2.5 3.2-1 .7-2 .6-3-.2-2.3-.8-6.1 3-7.1-2.1.4-1.3.8-2.6 1.2-3.9.6 0 1.3 0 1.9-.1"/><path d="m77.9 88.2c-.8-.9-1.5-1.8-2.3-2.8 1.8-1.9 2.3.8 3.5 1 .3 1.1 2 2.2.1 3.3-1.1 0-1.6-.4-1.3-1.5" style="fill:#a29b97"/><path d="m77.9 88.2c.4.5.9 1 1.3 1.5-3.7 1.2-4 1.1-4.1-1.3.9 0 1.9-.1 2.8-.2" style="fill:#c1b4af"/><path d="m76.1 102.5c-.4-.6-.8-1.2-1.2-1.9 1.5-.1 3.2-.1 3.3 1.7.1 1-1.3 1.3-2.1.2" style="fill:#b8a59e"/><path d="m75.4 107.3c-.9-.3-.8-.8-.5-1.1.4-.4 1-.7 1.4-1.1.1.4.3.9.2 1.1-.2.5-.7.8-1.1 1.1" style="fill:#cab5b0"/><path d="m75.6 95.4c-.6-.1-1.4-.2-1.1-1 .1-.3.7-.6 1-.5.4.1.8.5.9.9.2.5-.4.6-.8.6" style="fill:#95827f"/><path d="m75 85.3c-1-1-2-2-3-2.9 2 0 3.1.8 3 2.9" style="fill:#606561"/><path d="m77.3 122.3c-.4.1-.8.1-1.2.2 0-1.1 0-2.1.1-3.2.6.3 2-2.8 1.9.4-.1.8-.6 1.7-.8 2.6" style="fill:#929c9d"/><path d="m85 119.6c-.6 0-1.3-.1-1.9-.1.6-1.7-1.5-4.4 2-4.8.9.3.9 1.1 1 1.9-.7.8-1.1 1.8-1.1 3" style="fill:#efd8d1"/></g></g></svg>
