<svg id="Layer_1" xmlns="http://www.w3.org/2000/svg" xmlns:xlink="http://www.w3.org/1999/xlink" x="0" y="0" viewBox="0 0 435.1 237.5" style="enable-background:new 0 0 435.1 237.5">
    <g id="_x34_th.svg">
        <g id="muszla_3_">
            <path d="m2.4 1.3h170.7v234.3h-170.7z" style="fill:#f9f8f8;stroke-miterlimit:10;stroke:#fff" />
            <path d="m211.9 50.5c-5.6-3.9-11.3-7.7-16.8-11.7-2.1-1.5-3-1.3-4.7.8-4.2 5-9.4 7.7-16.4 7.5-3.6-.1-7.3 1.9-11 2.9-3.3.9-6.6 1.7-9.9 2.5-.6-1.6 38 62-25.9 14.3-3.7-2.8-68.7 18.7-71.6 17.3-4.9-2.3 6.1-50.1 9-54.8.5-.8 81.6-2.3 81.2-2.7-3.6-5.1 1.2-8.5 2.3-12.7 1.1-4.6 2.3-8.9 7-11.2 3.7-2.6 7.8-.9 11.7-.8.7.4 1 1.1 1.2 1.8-.3 4.7 3 2.8 5.2 2.9 2.3.3 3.3 1.8 3.6 4 0 .5-.1.9-.3 1.4-.2.8-1.1 2-.6 2.2 1.9.5 1.8-1.9 3-2.6 4-2.2 5.3-1.5 5.3 2.8 0 1.8-1 3.5 0 5.6 3.5.1 4.8-7 9.4-3.3.8 1 1.3 2.1 1.1 3.4-.3 1.2-1.2 2.1-1.9 3-.4.9-1.8 1.7-.5 2.7.8.6 1.3-.3 1.8-.9.8-1.4 1.4-2.9 2.5-4.2.6-.6 1.2-.8 2-.9 3.1.4 3.6 2.5 3.4 5.1-.1 1.3-1.1 2.8.4 3.6 1.5.8 2.4-.7 3.2-1.7 1.9-2.2 3.9-3.1 6.3-.6.7 1 1 2.2.3 3.3-2.8 4.5-2.1 9.1-.3 13.7 1 2.4 2.2 4.8 0 7.3" style="fill:#d1e6ea" />
            <path d="m152.6 178c.6-.8-.9 29.6-1 28.9-.7-6.6-3.2 34.4-4 27.8-.3-2.6-17.1-.6-26.5-.6-5.3 0-14.1 1-25.5.6-1.7-1.5-42-.9-42-.9l-53.6 1.3v-98.5c6.5-13.6 115.6-65 114.1-69.1-2.3-6.5 32.3 5.7 30-.8-.7-1.8 4.8-9.5 6.5-14.7 2.1-1.8 4.6-3 7.2-3.2 5.9-.4 11.1-3.7 17.3-3.8 4.1 0 8.9-2.5 11.9-6.5 1.6-2.2 3.7-3.2 5.9-1.4 5.6 4.6 12.1 8.1 17.4 13 .3 2.6 1.8 3.6 4.4 3.5 3-.1 6-.3 9 .4 1.7.6 3.1 3.1 5.1.4 1.4-.7 3-.9 4.3-.1 2.4 1.6 4.3.5 6.4-.6 3-1.2 4.2.3 4.7 3 .2 1.6.4 3.2.4 4.8.1 1.2-1 2.4.3 4 2.5-1.3 1.4-4 2.1-5.8.1-.4.4-.8.6-1.2 1.8-1.3 3.3-3.1 5.4-4.2.7-.2 1.4-.1 2 .4.2.4.3.9.2 1.4-.3.9-1.1 1.7-1.5 2.5-2.6 5.5-1.8 6.9 4 6.9 1.4 1.9 3.6 3.1 4.7 5.3.5 1 .6 2.1.9 3.2 1.9 2.8 2.7-.1 3.9-.8.5-.5 1.1-.8 1.9-.8 1.1.3 1.4 1.1 1.4 2.2-.1.9-.5 1.8-.9 2.6-1.8 2.4-1.1 5.1-1.2 7.8-1.7 3.4-.6 7.3-1.9 10.8-.5.9-1.5 1.3-1.9 2.2-.4.9-1.8 2.2-.3 2.9 2.1 1 2.4-.7 2.4-2.3.3-2.8.4-5.7 1.3-8.4.8-2.3.9-4.7.7-7.2-.1-1.3 0-2.5.5-3.7 1.1-2.3 2.6-4.2 4.3-6.1 2-1.7.6-5.9 4.4-6.3.8-.1 1.6 0 2.3.3 1.3.7 1.7 1.8 1.8 3.2.3 3.2-2.3 5.7-3 9.3 3.1-1 5-2.9 5.9-5 1.3-2.9 3.2-3 5.6-2.3 2.7.8 3.6 2.6 3.3 5.3-.2 1.9-1.3 3.7-.3 6.4 3.3-2.8 5.1-8.8 10.8-4.9 1.7 1.2 1.6 3 1.5 4.8-.1 1.1-1 2.4.3 3.1 1.3.7 2.5-.1 3.4-1.1.8-.9 1.5-1.7 2.7-1.9 3.7.1 6 1.5 5.6 5.7-.1.8-.4 1.6-.5 2.4-.2 1.2 0 2.6 1.4 2.8 1.1.2 2.3-.3 3-1.4.7-1.2.5-3.1 2.4-3.4 5.5.9 5.8 1.3 5.5 6.9-.1 1.6-.8 3.5 1.9 3.6 2.3-.3 4.6-.7 6.7.6 1.8 1.1 2.7 1 4.4-.8 2.3-2.6 3.9.2 5.4 1.8.2.4.4.8.5 1.2 0 2.1 2.3 3 2.7 5-1.1 2.8-3.8 4.5-5.1 7.1-.7.7-1.4 1.5-2.1 2.1-3 2.7-4.7 2.4-5.5-1.5-.6-3.2-2.7-5.7-3-8.9-.1-1-.7-2-1.9-1.8-1 .2-1 1.2-1.1 2-.2 1.8-.6 3.7-.1 5.5 2.6 7.9 3.1 16.2 5.4 24.1.4.2.7.2 1 0 6.2-4.6 6.7-4.5 12.1 1.1 2.1 2.2 4.1 4.4 5.4 7.1.4.9.9 2.1 1.8 2.3 7.2 1.7 5.4 7.7 6.1 12.5.4 2.9-.9 5-4.3 4.6-3.8-.5-6.9 2.4-10.6 2.3-2 0-4.2.8-5-1.8-.9-2.8.6-4.4 3.1-5.3.6-.2 1.3-.4 1.9-.9.1-1.4-1.7-.7-2-1.5-1.9-6.1-7.1-5.5-11.8-6.1-.3 0-.7-.6-.8-.4-.6.5-.1 1.1-.1 1.7-.2 3-1.6 3.4-3.9 1.9-2.1-1.4-4.3-2.8-6.8-.7-2.4 2-1.7 4.4-.8 6.8.9 2.2 1.2 4.5.7 6.9-.8 4 .3 6.5 4.7 6.9 1.1.1 2.2.8 2.7 2 .1 2.6-1.9 2.6-3.7 2.9-.5 0-1 0-1.5 0-1.2-.2-2.3-.1-3.4.5-2.6 1.4-4.9 1.5-5.6-2.1-.3-1.5-1.2-2.1-2.5-1.5-6.1 2.7-9.9-.7-13.2-5-1.8-2.4-2.7-2.1-4.4.1-2 2.6-3.1 5.5-3.6 8.6-.3 1.5-.4 2.6 1.2 3.3 1.3.6 2.1 1.7 1.5 3.2-.6 1.5-2 1.7-3.3 1.6-1.4-.1-3-.7-3.9 1.2-.9.8-1.9 1.1-3.1 1.4-3.1-.8-4.7 1.4-6.4 3.4-6.8 4.1-18.7 1.1-22.4-5.7-1.8-3.4-.1-7.3-1.5-10.8-.4-1.2-.8-2.3-.3-3.6 5.6-4 2.8-9.2 2-14.1-.5-.6-1-1-1.8-.5-1.9 2-3.5.7-5.9-.8 2.7 3.3 4.8 6 5.7 9.4.1.5.1.9.1 1.4-2.4 2.8-4.7 5.6-7.4 7.9-2.6 2.3-3.3 4.6-2.4 7.8.6 2.1 1.8 4.5-.3 6.5-.9.7-2 1.1-3 1.6-2.3 1.2-1.1 3.7-1.9 5.5-.3.9-.7 1.7-1.2 2.4-.8 1.1-2 1.8-2.4 3.2-1.1 2.4-3.7 3.2-5.5 4.8-1.6 1.5-3.4.1-4.6-1.4-1.1-1.4-1.2-3-1.2-5.2-1.3 1-3.2 1.8-4 .6-2.3-3.4-5.8-3.1-9-4-2.5-.7-4.3-2.4-5.2-4.9-.6-1.6-1.2-3.1-2-4.5-2.3-4.1-3.3-4.3-6.7-1.2-2 1.8-4 3.4-6.7 4-4.9 1.1-6.9-.1-7.3-5.1-.3-3.2-1.2-6.1-2.9-8.9-1.5-2.5-3.1-2.7-5.2-.8-1.6 1.4-3.1 3-5 4.1-7.1 3.7-11.3 2.9-18.7-3.8" style="fill:#f8f4f5" />
            <path d="m244.1 192.5c1-.3 2-.7 3-1 2.6 3.2 3 6.6 2 10.6-.9 3.5-2.6 7.4 1.4 10.4 1 2.3 2.2 5.2-.6 6.6-2.6 1.3-5.9 1.5-8.6-1.1 1 3.3 3.1 6.7.5 10.2-.3 2.2 2 4.3.2 6.5-3.4 1.4-7 .4-10.6.7-29.7 0-59.5 0-89.2 0-2.1 0-4.4.7-6.1-1.1-3.1-.7-4.9-2.7-2.5-5.3 5.5-5.7 6.3-12.8 7.2-20 .4-3.6 2.3-5.1 5.8-5.6 1.7-.3 3.8-1.3 4.7-2.7 2.1-3.1 4.3-5.8 8.3-6.4.3 0 .9-2.2.6-2.5-1.9-1.6-3.9-3.4-6.1-4.2-2.2-.9-4.9-.6-7.3-1.1-1-.2-1.9-.9-2.9-1.4.8-.8 1.4-1.9 2.4-2.4 2.9-1.5 5.9-2.8 8.9-4.2 1.6.8 3.2 1.4 4.7 2.3 5.5 3.4 11.3 2.9 16.1-1.7 6.5-6.1 7.3-6 10.9 2.1.7 1.6 1.1 3.5 1.3 5.3.5 6.4 1.1 6.9 7.2 5 1.2-.4 2.4-1.1 3.3-2 7.6-7.6 7.4-5.7 11.6 3.2 2.6 5.5 3.9 6.6 10.4 5.9.5 0 1.1.9 1.6 1.4 1.1 1.1 2.2 2.2 3.3 3.3.8-1 1.7-2 3.1-3.8.2 2.6.1 4.5.6 6.3.4 1.3 1.7 2.3 2.6 3.4.8-.8 1.5-1.6 2.4-2.3 1.3-1.2 2.6-2.3 3.9-3.4 1.5.1 2.6-.5 3-2 .3-.7.7-1.3 1-2 1.4-2.1-1-5.3 1.9-7" style="fill:#e8d3e2" />
            <path d="m407.1 53.6c4.4 0 8.7 0 13.1 0 .7.7 1 1.5 1.1 2.4.3 1.2.7 2.4 2.1.9 1.1-1.2 2.1-2.5 4-2 2.1-.1 4.4-1.1 6.2.9.9 8.4.3 16.8.4 25.1-3.3 3-6.5 6.4-11.8 4.4-2.5-.9-4.8-.2-6 2.1-2.9 5.4-7.4 9.8-9.6 15.6-1 2.5-2.8 4.9 1.7 6.5 2.2.8 4.3 3.5 1.1 6.2-1.8-1-3.5-2.1-5.6-2.6-2.4-1.4-1.5-4.7-3.8-6.1-1.1-1.5-2.9-2.3-4.2-3.5-.9-2.3.3-4.2 1.3-6.2.9-1.3 1.6-2.9 2.7-4.1 2.5-.5 2.2-2.8 3.1-4.4.2-.4.4-.8.7-1.1 1.3-1.8 2.6-3.6 3.3-5.8.2-.6.5-1.2 1-1.7 2.8-.2 1.9-2.9 2.9-4.3.2-.4.4-.8.7-1.1 1.3-2 2.8-3.8 3.4-6.2-.2-1.6 2.5-2.1 1.6-4.4-1.8.7-2 2.6-3 3.7-2.7 2.1-2.9 5.5-4.4 8.3-1.4 1.4-2.6 3.1-3.8 4.7-1.9.8-2.5 2.4-3 4.2-.3 1.2-.4 2.7-2.3 2.7-1-2.4-4.4-.6-5.3-3.3 0-.7.2-1.4.8-1.7 5.3-2.9 6-8.3 5-12.9-1.2-5.2-5.9-8.2-11-9.9-1.6-.5-3.3-.7-4.4-2.1-1-1.4-.5-2.5 1-3.1 7-1.2 13.9.2 20.8.3 2.5 0 5 .3 7.3 0-2.2-.8-4.9 1.4-7.1-1.5" style="fill:#bddbe1" />
            <path d="m407.1 53.6c2.7.4 5.4.8 8 1.3 0 .2 0 .5 0 .7-10 0-20 0-30 0-2.1 1.7-4.7 1.4-7.2 1.4-12.7-.1-25.3-.6-38-.4-12.8.2-25.6.1-38.4.4-2.3.1-4.7.2-6.9-.9-1.5-1.4-.2-2 .8-2.4 1.7-.6 3.6-.1 5.3-.5 2.4-.6 5 .3 7.4-.6 33 .4 66 .7 99 1" style="fill:#8fa8ad" />
            <path d="m211.9 50.5c-.6-2.4-1.3-4.8-1.7-7.3-.6-4-1.2-8.1-1.6-12.1-.2-1.9 4.7-1.4 2.6-4.6 1.2-2.9.3-5.6-.7-8.3 0-3.1.5-6.1-.1-9.2-.1-.5-.1-.9 0-1.4.5-2.2.1-3.8-2.5-4.1-1.6-.2-3.2-.6-4.7-1.1-.7-.3-1.2-.8-1.1-1.6.7 0 1.3.1 2 .1 10 0 10 0 10 10.3 0 12.5.1 25-.1 37.5-.1 3.3.9 4.2 4.1 4.1 7.6-.2 15.3.1 22.9.1 1.2.5 2.1 1.2 1 2.6-2.1 1.2-3.8 4.6-6.6.6-.5-.7-2.8-.2-4.2-.3-1.4.9-2.8.9-4.1 0-3.3-.1-6.7-.5-10-.1-4.4.5-5.6-1.3-5.2-5.2" style="fill:#1f282b" />
            <path d="m242 55.3c-.3-.9-.6-1.8-1-2.6 19.6 0 39.2 0 58.7 0 .5.1 1.1.2 1.3.8-2.3.7-4.6 1.4-6.9 2.1 1.5.8 1.3 2.1 1 3.5-.4 1.7-.6 3.3 1 4.5 1.1 1 1.4 1.9-.2 2.8-2.4.9-4.9 1.6-7.1-.5-.5-.6-.6-1.4-.6-2.1.3-1.4.5-2.8 1.2-4.2.5-1 2.3-1.9 1.1-3.3-1-1.2-2.4 0-3.6.2-3.3.5-6.5.5-9.8.1-2.2-.6-4.4-.8-6.6-.9-2.4-.1-1.8 1.7-2.3 2.8-1 .6-1.8.1-2.6-.3-1.6-1.2-3.3-1.4-5.2-1.1-1.4.2-2.7 0-3.3-1.5-.7.1-1.4.2-2.1.3-2.3.3-3.1 2.7-5 3.7-1.1 1.4-.8 4.6-4 3-.2-1.8-.8-3.5-.7-5.2.3-3.3-1.4-2.7-3.3-2.1" style="fill:#3f464a" />
            <path d="m1.6 234.1c0 0 190.9.4 219.1.4 3.8 0 7.6 0 11.5 0 .5.6.6 1.1 0 1.7-32.3.1-64.6.1-97 .2-.9 0-133.7-.5-133.7-.5l.1-1.8" style="fill:#999199" />
            <path d="m167 2.6c-4 0-8 .1-12 .1-8 0-145.6-1.4-153.6-1.4 0-.5 0-.7 0-1.2 1-.3 131.6.4 132.6.4 15.6-.1 31.2-.1 46.8 0 1 0 4.3-1.9 3.5 2-1.2 1.7-4.6 1.1-4.5 4.2-.2 2-.6 3.9-.4 5.9-.1.3-.1.7-.4.9-1.1 1-2.2 2-3.4 2.9-.2.2-1.5-.7-1.5-.8.6-1.4 1.3-2.7 2-4.1.4.4.3.9.6 1.3-.2-.5-.2-1-.5-1.4-1-1.4-2-2.7-3-4.1-1.6-.7.1-3.4-2.2-3.7-1.5.1-2.8-.1-4-1" style="fill:#1b2426" />
            <path d="m232.1 236.3c0-.6 0-1.1 0-1.7 3.4-.4 6.8-.8 10.1-1.2 3.6.7 7.3.5 10.9.5 39.3 0 78.5 0 117.8 0 2.9 0 6.1-.9 8.3 2-1.9 2.1-4.1.7-6.3.8-45.3-.1-90.6-.2-135.9-.3-1.5.1-3.2 0-4.9-.1" style="fill:#777379" />
            <path d="m435 145.5c0 23.7-.1 47.5-.1 71.2 0 5.1.1 10.3 0 15.4 0 1.6-.5 3.1-.8 4.7-.4-.4-.8-.8-.9-1.4-.5-2.8-.3-5.6-1.3-8.3-.6-20.1-.6-40.2 0-60.3.9-3.6.8-7.2.9-10.8.1-3.4-.6-6.9.8-10.1.3-.5.7-.7 1.4-.4" style="fill:#8b9093" />
            <path d="m435 145.5c-.4.1-.8.1-1.2.2-.6 0-1.1-.3-1.3-.8-1.4-3.8-.2-7.9-1.1-11.7 0-.6 0-1.2.1-1.8.2-13.9 0-27.8.1-41.7 0-2.5-.3-5 1.5-7.1 0-9 0-17.9 0-26.9 3.1.1 1.5 2.5 1.5 3.6.2 8.7.1 17.5.1 26.2 0 1.6-.3 3.3.4 4.9-.2 18.4-.1 36.7-.1 55.1" style="fill:#96a6a9" />
            <path d="m373 236.7c2.1-.2 4.2-.3 6.3-.5 2-1.6 4.4-1.2 6.6-1.2 3 0 5.9-.1 8.6-1.6 12.1-1.1 24.3-.6 36.4-.3 2 0 2.2 1.9 3.1 3 0 .2 0 .4.1.6-.6.2-1.2.6-1.8.6-19.1 0-38.3-.1-57.4-.2-.7.2-1.3-.2-1.9-.4" style="fill:#bec0c2" />
            <path d="m202.1.7c.4.3.8.6 1.1.8 1.2 3.2 1.1 6.2-1.3 8.9-1.4 1.3-2.5 3.4-5.1 2.3-1.9-2.6-2.4-5.4-.9-8.4.1-.1.2-.3.2-.4 0-.2 0-.3 0-.5-2.8 0-4.4 2.5-6.9 3.3-.4-.2-.7-.5-1-.9-.5-1.2-1.3-2.3-2.2-3.4.8-.6 1.5-1.8 2.3-1.8 4.7-.1 9.3 0 13.8.1" style="fill:#181f22" />
            <path d="m434.9 90.4c-.3-5.1-.5-10.1-.8-15.2-.4-6.5-.8-13-1.2-19.6-2.3-.1-4.5-.2-6.8-.3-.2-.2-.3-.4-.3-.7 0-.2.1-.4.2-.4.4-.2.8-.1 1.1.1 7-1.7 8-.9 8 6.1 0 10-.1 20-.2 30" style="fill:#5b6c72" />
            <path d="m186.1 2.4c1 .9 1.9 1.9 2.9 2.8-.6 2-2.4 1.9-3.9 2.3-1.1.3-2.3.9-3.1-.3-.9-1.4.2-2.4 1.1-3.3.4-.3.8-.5 1.2-.6.6-.3 1.2-.6 1.8-.9" style="fill:#78868d" />
            <path d="m427.2 54.4c-.3.1-.6.2-1 .2-2.2 0-2.8 5.4-6.1 1.9 0-1 0-1.9 0-2.9 2.4.3 4.7.5 7.1.8" style="fill:#8fa8ad" />
            <path d="m179.1 6.7c0-1-.3-2.8.1-2.9 1.6-.6 3.3-.8 5-1.2.1.2.1.4.1.7-.2.2-.3.4-.5.6-1.8.6-2.4 3.1-4.7 2.8" style="fill:#818e95" />
            <path d="m301.1 53.5c-.4-.3-.9-.5-1.3-.8 2.8 0 5.6 0 8.3 0-2.3.2-4.6.5-7 .8" style="fill:#cce4e9" />
            <path d="m432.8 234.4c-13 .1-25.9.1-38.9.2-1.7-.1-2.3-1.3-2.6-2.6-1.2-4.9-4.2-9-5.8-13.7-1.6-4.6-4.5-7.8-8.6-10.4-3.6-2.4-8.9-3.9-7.8-10.1 1.5-2.8 0-5.9.8-8.6-.4.7-1 1.6-.6 2.5 1.5 4.1-.4 5.8-4.3 6.3-3.9-2.4-8.3-4.2-10.8-8.5.3-3.9-.3-6.8-5.2-7.3-2.7-.3-3.9-2.8-4-5.6 0-2.5-1.4-3.5-3.6-3.7-3.5-.5-5.2 3.1-8.3 3.5-1.3-.3-2.6-.9-3.8-.8-4.7.2-4.8-2.7-4.7-6.1 0-2.9.6-6.3-.7-8.6-1.8-3.4-.9-5.6 1.3-7.7 2.6-2.5 5.2-1.4 7.7.3.8.5 1.5 1.1 2.9 2-.2-2.8-.4-5.1-.5-7.3 2.3 3.2 4.5 4.5 8.3 2.7 1-.5 3.5 1.2 4.8 2.4 1.8 1.6 3.3 3.7 5.4 6.3-.6.3-2.3.9-3.6 2-1.2 1-2 2.5-2.9 3.7 1.3.2 2.6.8 3.9.7 4.1-.4 8.2-.8 12.1-1.8 1-.2 2-2.3 2.1-3.6.2-2.2 0-4.5-.4-6.6-.3-1.2-1.3-2.4-2.2-3.3-1.7-1.5-3.8-2.6-5.3-4.3-2.4-2.7-4.2-5.8-6.6-8.4-2.3-2.4-4.9-4.7-7.7-.1-.7 1.2-2.7 1.5-4.2 2.2-.3-1.4-.6-2.8-.9-4.1-1.1-5.9-2.2-11.7-3.2-17.6-.6-3.8-1.2-7.7-1.5-11.5-.1-.9 1.5-2.8 1.8-2.7 1.4.5 3.3 1.3 3.7 2.4 1.3 3.3 1.8 6.9 2.8 10.3.2.9.9 1.6 1.4 2.4.6-.5 1.2-1 1.9-1.4 1-.7 2.1-1.4 3.1-2.1 4.4-2.5 4.5-2.4 7.1 3 2.1-2.3 4.2-4.4 7.5-4.3 2.3.3 3.8 2.6 6.4 2.3 1.5-.2 1.8 1.2 1.9 2.4.3 3.4 2.5 3.9 5.3 3.3 1.5-.9 2.6-2.8 4.8-1.9.3.3.6.7.8 1.2.6 2.4-.9 4.1-1.8 6-.7 1.5-1.5 3.4-.1 4.6 1.7 1.5 2.9-.4 4.1-1.5.5-.4 1-.9 1.6-1.2 1-.4 1.9 0 2.7.6.6.5 1 1.1 1.2 1.8 0 .5 0 .9-.2 1.4-.8 1.7-2.6 3.1-1.1 5.3 2.4 3.6 3.7 3.9 6.9 1.1.6-.5 1.2-1.1 2-1.4 1-.1 1.8.4 2.3 1.3 1.3 2.6-2.5 5.1-.2 7.6 2.4.7 3.2-1 4.2-2.6 1.3-2.2 3.1-5 5.6-3.5 2.2 1.3 2.4 4.6 1.6 7.3-.4 1.3-1.3 2.3-1.9 3.5-.5.9-1 1.9.1 2.7 1 .7 1.9.1 2.7-.5 1.4-1.2 2.5-2.7 3.8-3.9 1.1-1 2.2-2 3.7-2.4.5-.1 1-.2 1.5-.2 2.6.2 3.7 1.4 2.7 4-.8 1.6-1.1 3.2-.7 5 1.2-.4 1.2-1.6 1.8-2.3 1.3-1.7 3-2.2 4.6-.9 1.5 1.2.4 2.7-.4 3.9-.8 1.1-1 2.4-1 3.7 0 .5 0 1 0 1.4 0 1.1-.1 2.3.1 3.4.7 2 1.6 1.1 2.6.3.5-.5 1.1-.8 1.7-.9.5 0 .9.2 1.2.6 0 19.4 0 38.7 0 58.1 0 1.6.1 3.3.2 4.9.2 1.6.8 3.6-.6 5.4" style="fill:#f9f8f8" />
            <path d="m355.1 189.4c3.3 2.7 6.6 5.5 9.9 8.2 1.8.9 3.4-1.7 5.2-.3-1.3 5.9 4.2 7.2 7.3 9.4 4 2.9 7.3 5.6 8.9 10.6 1.8 5.9 5 11.4 7.6 17.1-1.2.6-2.3 1.5-3.5 1.6-3.7.2-7.4.1-11.2.1-4.1-.2-8.3-.5-12.4-.5-38.7-.1-77.4 0-116.2-.2-2.8 0-5.6-1.4-8.4-2.2-.7-1.9-1.4-3.8-2.1-5.7 1.2-.5 2.7-.9 2.4-2.6-.7-3.4 1.5-4 4-4.8 6-1.8 11.1-5.3 15-10.3 9.7-7.5 18.6-16.2 30.5-20.5 6.2-1 11.4-3.9 16.4-7.5 1.8-1.3 4.2-.9 6.4-.8 4.7.2 9.3-.1 13.5-2.6.2.2.4.2.6-.1 6.7.9 12.5 4.5 19 5.9 2.7 1.4 4.8 3.5 7.1 5.2" />
            <path d="m292.1 190.5c-11.7 4.2-19.8 13.6-30 20-.5.6-1.2 1.1-1.8 1.6-4.4 4-6 4.1-10.2.4-1-.6-2.8-1-2.9-1.8-.4-1.9-.6-4.1 0-5.8 1.7-4.6 1.2-9-.1-13.4-.1-2.1.3-4.4-.3-6.4-1.1-3.5-.7-5.9 2.6-7.9 1.4-.9 2-3.1 3.3-4.4 1.3-1.3 3-2.3 4.5-3.4.4 0 .8-.2.7-.5 0-.3-.5-.4-.8-.4-1.8-2.7-3.7-5.3-5.4-8-.6-1-.7-2.2-1.1-3.3.9.4 2.3.5 2.8 1.2 2.3 3.2 3.5.8 4.9-.8.4.8.8 1.6.9 2.5.4-.4.4-1.1.9-1.5 1 4.5 2.2 9 2.7 13.5.1.6-3.1 1.6-4.8 2.5-1.5 1.8-.5 2.5 1.2 3 .3 2 .9 4.1.9 6.1.1 5.2 2.8 8.5 7.8 10.1 4.8 1.4 9.5 2.9 14.2-.2 1.3-2.3 3.6-2.8 6-3.1 1-.3 2-.6 3-1 .5.1.9.4 1 1" style="fill:#eedde8" />
            <path d="m292.1 190.5c-.3-.3-.7-.7-1-1-.5-3.7-.6-3.5 2.5-2.7 1.3.3 2.8-.3 4.3-.5-.9-.6-1.9-1.2-2.8-1.9-.6-.4-1.5-1.1-1.4-1.5 1.2-5.6 3.3-10.9 7.2-15.3.3-.3 2 .3 2.6.9 1.5 1.6 2.9 3.4 4.2 5.2 2.4 3.4 5.3 3.2 8.8 1.7 2.2-1 5.3-2.8 4.2 2.5-.1.4 2 1.6 3.1 1.6 1.5.1 3.1-.6 4.6-.9-3.4 1.4-6.8 3.9-10.1 3.9-5.3 0-9.7.9-14.2 3.8-3.5 2.2-8 2.9-12 4.2" style="fill:#f2e3ea" />
            <path d="m306.1 80.5c-2.2.1-5.4-3.2-6.2 2.2-.2 1.4-3.7 2.2-5.6 3.3.1-2.1 0-4.3.4-6.4.9-4.2-.9-6.8-4.8-6-1.4.3-2.3 2.8-3.5 4.3-.9 1.1-1.8 2.3-3 3.2-.7.5-1.9.4-2.9.6-.2-1.3-.9-2.8-.5-4 .8-2.2 2.2-4.2 3.3-6.3 1-3.8 3.1-5.4 7.1-3.9 1.4.5 2.9-.1 4.3-.4 2.2.9 3.5-.9 5.1-1.7.9-.4 2.6-.9 2.7-.2.5 4.2 5.4 5.7 6 9.8.4 1.5 1.8 2.9.8 4.6-.8 1.1-2.3.2-3.2.9" style="fill:#0a0d0e" />
            <path d="m309.1 79.4c-.7-1.3-1.4-2.6-2-3.9.3-.4.7-.6 1.1-.8.5-.1.9 0 1.4.1.4.2.8.5 1.1.8.8 2.5 2.4 4.1 5 4.8.4.1.9.3 1.3.5 4.6 1.4 8.6 4.4 13.4 5.4.4.1.9.3 1.3.5 2 .7 3.7 2.8 6.1 1.1 1.8 0 3.3-1.3 5.1-1.5 3 .4 5.3 1.3 2 4.4-1.4 1.3-.8 2.5-.8 3.9.1 2.6-.3 4.9-3.5 5.4-1.9-.3-2.9-1.4-3-3.5.1 2.7-1.8 4.1-3.4 5.7-3.3 1.3-5.1.3-3.7-3.2 1.8-4.6.7-7.1-4.1-7.8-1.6-.9-1.8.5-2.4 1.4-.7 1.1-1.5 2.4-3 1.9-1.6-.5-2-1.9-1.7-3.5 1.8-4.7-2-4.9-4.8-5.9-.1-.1-.3-.2-.4-.2-2-.4-2.9 4.4-5.2 1.6-2.2-2.1-1.1-4.8.2-7.2" style="fill:#0b0d0f" />
            <path d="m267.9 58.7c-.3-1.2-.6-2.3-1.1-4.4 3.2.5 6.3.9 9.4 1.4 1.8.7 4.7-.1 4.2 3.4-.4.4-.8.9-1.4 1.3.6-.1.7-.7 1.2-1 .8-.8 1.8-1.3 2.9-1.5 1 0 2.2.2 2 1.3-.5 3 1.4 1.8 2.7 1.7 1.5.4 2 1.2 1.2 2.7 0 .6 0 1.3-.1 1.9-2.3.7-3.9 3.3-6.8 2.5-1.3-.3-2.6-.5-3.9-.8-.9-.5-1.8-1-2.5.3-1.3 2.3-2.6 4.5-4.9 5.9-.4.2-.7.5-1.1.7-1.5 2.1-3.2 3.6-5.8 1.3-.1-1.3-.1-2.6-.2-3.9-1.7-3.2 0-5.3 2.2-7.4 2.5-1.7 2.9-2.6 2.1-4.4-.2-.2-.3-.4-.3-.7.1-.2.2-.3.2-.3" style="fill:#050708" />
            <path d="m353 108.3c-1-1.3-1.9-2.6-2.9-3.9 2.3-2.6 4.3-5.1 2.5-9.1-1-2.2.7-4.9.1-7.8-3.6 3.3-5.8-1.4-9-1.2-1.6-.6-3 .5-4.5.6-1-.2-1.8-.6-2.3-1.4-.1-.5-.1-.9.1-1.4 1.5-3.3 3.9-3.8 7-2.5 3.2.5 6.1 2.7 9.5 1.1 1.9-.3 3.2.5 3.9 2.3.4 3.2 2.2 5.4 4.8 7.1 1.3.8 3 .3 4.2 1.5.2.4.2.9.1 1.3-.4 1.3-2.6.9-2.4 3.4.1 1.8-.1 4.9-2.7 6.3-1.9-1.6-3.6-2.6-4.9.6-.6 1.4-1.1 2.8-2.9 3.2-.1 0-.3 0-.6-.1" style="fill:#9aa1a4" />
            <path d="m343.3 85.7c1.7.1 4.2-2.6 4.7 1.4 2-.4 4.1-.7 5.6-1 .4 4.2 1.4 8.7 1.1 13.1-.1 1.8-2.9 3.5-4.5 5.2 0-.3-.1-.6-.1-1-.8-1.5-2.1-2.7-2-4.6 0-1.1.3-2.2.5-3.3.1-.9 0-1.6-.9-2-.4-.1-.7-.1-1.1 0-.8 2.3-.9 4.8-2.5 6.7-1.9 2.3-3.4 2.4-4.1-.8 1-1.5 3.2-3.8 2.8-4.2-2.9-3.9.6-4.8 3.6-6.9-2-.4-3.1-.7-4.3-1-.5-1 .1-1.4 1.2-1.6" style="fill:#272c2e" />
            <path d="m362.9 114.7c-2 1.6-6.3.7-5.4 5.2-1.4-.4-4.2-.9-4.2-1.1.6-5-2.6-3.6-5.3-3.3 1.6-2.4 3.3-4.8 4.9-7.1 2.1 0 3.8-1.4 5.8-1.4 1.4.3 2.6 1 3.4 2.2.6 1.2.5 2.6 1.1 3.8.1.4.2.9.1 1.3-.1.1-.2.2-.4.4" style="fill:#dee4e7" />
            <path d="m348.1 185.5c-6.4-2.3-12.8-4.6-19.2-6.9 1.4-.7 2.8-1.4 4.2-2.1 2.7-1.7 5.3-3.3 8-5 .6.6.9 1.4.9 2.2 0 4.2.1 8.3 5.4 9.7.6.2 1 1.2.7 2.1" style="fill:#f2e3ea" />
            <path d="m349.1 98.5c.3 1.7.6 3.4 1 5-1.9-.7-4.5-6.1-5.4.7-1-.1-1.9-.3-2.9-.4-2.6-.5-5.2-.9-7.7-1.4 1.2-2.8 2.4-5.7 3.7-9 1 2.8 1.6 4.5 2.2 6.2 2.3 1.6 4.4-.2 4.8-4.1.3-2.9.3-2.9 2.3-3 .4 2.1.1 4.4 2 6" style="fill:#90989c" />
            <path d="m257.2 55.5c1.3 0 2.7-.2 3.9.1 1.7.4 3.3 1.3 4.9 2-.5 2.5-2.3 4.2-3.8 6.1-2.1 2.4-4.9 4.2-7.6 2.6-2.9-1.8.6-4.4.6-6.7 0-1.1 1.2-1.9 1.6-3 .2-.5.3-.8.4-1.1" style="fill:#060809" />
            <path d="m262.1 62.6c1.3-1.7 2.7-3.4 4-5.1.6.4 1.2.8 1.8 1.1-.1.3 0 .6.2.8.7 1.9 1.1 3.7-1 5.1-1.1 2.3-2.2 4.7-3.2 7-1.3-1.7-2.6-3.3-3.9-5 .8-1.2 1.2-2.7 2.1-3.9" style="fill:#d3e0e5" />
            <path d="m322.6 126.3c2.5 2.5 4.8 4 5.9 6.2.4.7-2.5 3-3.9 4.6-1.5-2.2-3.2-4.2-4.3-6.5-.3-.7 1.1-2.3 2.3-4.3" style="fill:#f9f8f8" />
            <path d="m267.8 96.4c.7-3.7 1.4-7.4 2.2-11.1 3.1 1.6 1.3 3.9 1 6.1-.4 2.6-.7 5.2-1.1 7.8-.8.9.4 2.8-1.4 3.2-.7.2-1.3-.4-1.6-.9-1.4-1.9-.7-3.6.9-5.1" style="fill:#5a6063" />
            <path d="m282.1 67.5c2.3-.7 4.7-1.3 7-2 2.4 0 4.8 0 7.2 0 .5 1.1.5 2-1.1 2-1.4.4-2.7 1.2-4.1 1.2-4.9.1-4.9 0-7.7 2.8-.4-1-.8-2-1.2-3.1-.3-.2-.4-.4-.3-.6-.1-.2 0-.3.2-.3" style="fill:#11181b" />
            <path d="m309.1 79.4c-.1 1.1-.3 2.3-.3 3.4.1 1.3.4 2.7.6 4 .7-.7 1.3-1.8 2.2-2.1.6-.2 1.6.5 2.5.8-.7 1.1-1.1 2.9-2 3.2-1.5.6-3.5.5-5.1.1-.3-.1-.1-2.5-.3-3.8-.1-1.5-.4-2.9-.6-4.4 1-.4 2-.8 3-1.2" style="fill:#32383a" />
            <path d="m270.9 73.4c1.4-2.3 2.8-4.5 4.2-6.8 1.2-1.3 2.1 0 3.2.4.9.1 2.1-.1 1.8 1.5-.7.9-1.4 1.8-2 2.8-.7 1.1-1.3 2.2-1.9 3.3-.6-.9-1.1-.8-1.7 0-.6.7-1.4 1.5-2.5.9-.3-.8-.7-1.4-1.1-2.1" style="fill:#b6c1c6" />
            <path d="m318.9 91.3c1.2 2.5 2.4 4.4 4.2.2.7-1.7 1.9-3.3 3-.1-.6 1.5-.8 3.5-1.9 4.5-1 .9-2.9.9-4.4 1.2-.3-1.9-.6-3.8-.9-5.8" style="fill:#43484a" />
            <g style="fill:#cad6db">
                <path d="m246 62.5c1.3-1 2.7-2 4-3 0 1.5.3 3-.1 4.4-.4 1.4-1.4 2.8-2.4 4-.1.1-2.2-.7-2.2-1.2 0-1.4.5-2.8.7-4.2" />
                <path d="m262.1 62.6c-.7 1.3-1.4 2.7-2.1 4-2.2-.3-5 3.4-6.3-.3-1.3-3.6-.3-7.3 3.2-9.8-.5 1.6-1 3.1-1.3 4.7-.3 1.7-.3 3.4-.5 5.1 1.7-.7 3.5-1.3 5.2-2 .7-.4 1.2-1.2 1.8-1.7" />
            </g>
            <path d="m272 75.4c1.4-1.5 2.8-3.1 4.2-4.6.3.1.6.1.8.2-.3 1.2-.5 2.4-.8 3.5-1.3 1.7-2.7 3.3-4 5-.4.4-.9.4-1.4.1-.4-.7-.4-1.5.2-2.1.4-.7.7-1.4 1-2.1" style="fill:#212d35" />
            <path d="m267.8 96.4c-.4.9-1.1 1.8-1 2.6.2 1.1 1.1 2.1 1.7 3.1.5-1 .9-2 1.4-2.9 1.4 6.9-3.6 2.7-6.7 2.8 1.5-1.8 3.1-3.7 4.6-5.6" style="fill:#d6d7da" />
            <path d="m271.1 77.5c0 .7 0 1.3.1 2 .4 1.3-.4 2.9.9 3.9-.4 2.7-.7 5.3-1.1 8-.3-2-.7-4-1-6.1.4-2.6.7-5.2 1.1-7.8" style="fill:#b6c1c6" />
            <path d="m265.4 111.2c1 1.9 2.1 3.8 3.1 5.6-.6.3-1.1.6-1.7.9-1-1.9-2.1-3.7-3.1-5.6.5-.3 1.1-.6 1.7-.9" style="fill:#868a90" />
            <path d="m262 150.6c-1-1.4-2-2.7-3.1-4.1.8-.5 1.5-1 2.3-1.5.7 1.6 1.3 3.2 2 4.8-.3.3-.8.5-1.2.8" style="fill:#b9b7bc" />
            <path d="m264.6 132.4c-1-2.4-1.9-4.9-2.9-7.3.4-.2.9-.4 1.3-.6 1.1 2.4 2.2 4.9 3.3 7.3-.6.2-1.2.4-1.7.6" style="fill:#aba9ae" />
            <path d="m266.9 124.7c-1.3-1.7-2.7-3.4-4-5.1.4-.4.9-.7 1.3-1.1 1.3 1.7 2.7 3.3 4 5-.4.4-.8.8-1.3 1.2" style="fill:#8f9195" />
            <path d="m263.4 156.4c-.9.5-1.8 1.1-1.8 1-.9-1.1-1.7-2.2-2.4-3.4-.1-.1.7-.8 1.1-1.1.9 1 1.8 2 3.1 3.5" style="fill:#b8b5bc" />
            <path d="m288 190.4c-2 1-4 2-6 3.1.9-3.3 2.6-4.9 6-3.1" style="fill:#f2e3ea" />
            <path d="m259.1 177.5c-2.5 0-3.6-.9-3.3-2.8 0-.1 1.4-.1 2.1-.2.4 1 .8 2 1.2 3" style="fill:#a79ca5" />
            <path d="m267.1 110.9c-.6-1.6-1.3-3.2-1.9-4.8.5-.2 1-.4 1.4-.6.7 1.6 1.3 3.2 2 4.9-.5.2-1 .4-1.5.5" style="fill:#7b8184" />
            <path d="m227 55.7c1.4 0 2.8 0 4.1 0-.6.9-1.2 1.7-1.8 2.6-.8-.9-1.5-1.8-2.3-2.6" style="fill:#b4bcc0" />
            <path d="m250.1 59.5c1.7-1.2 3.3-2.4 5-3.7-1.7 1.3-3.3 2.5-5 3.7" style="fill:#cad6db" />
            <path d="m264.1 75.5c1.9-.4 3.8-.9 5.8-1.3-1.4 2.8-2.9 5.1-5.8 1.3" style="fill:#b6c1c6" />
            <path d="m244.1 192.5c-.7 2.3-1.3 4.6-2 7 .6-2.3 1.3-4.7 2-7" style="fill:#eedde8" />
            <path d="m260 158.5c.1 1.1.2 2.1.3 3.2-.4.1-.8.2-1.2.3-.3-1.5-.6-3-.8-4.5.5.4 1.1.7 1.7 1" style="fill:#918b93" />
            <path d="m262.2 141.1c-.6-.8-1.2-1.7-1.8-2.5.3-.2.7-.5 1-.7.6.8 1.2 1.7 1.8 2.5-.3.2-.6.5-1 .7" style="fill:#d3cdd1" />
            <path d="m262.8 132.4c.4.8.8 1.5 1.1 2.2 0 .1-.9.6-1 .6-.5-.5-.9-1.2-1.3-1.8-.1-.1.6-.5 1.2-1" style="fill:#b5b4b7" />
            <path d="m257.1 168.5c1.1.5 2.3 1 3.4 1.5-.3.5-.6.9-.8 1.4-.8-.7-1.7-1.3-2.5-2 0-.3 0-.6-.1-.9" style="fill:#7b717b" />
            <path d="m272.1 83.4c-.3-1.3-.6-2.6-.9-3.9.4 0 .8 0 1.1.1-.1 1.2-.2 2.5-.2 3.8" style="fill:#101518" />
            <path d="m241.1 201.5c.5 2.8-1.3 2.4-3 2 1-.7 2-1.4 3-2" style="fill:#eedde8" />
            <path d="m280.1 68.5c-.6-.4-1.3-.8-1.9-1.2-.4-.2-.5-.4-.3-.6.1-.2.3-.2.4-.2 1.3.3 2.5.7 3.8 1 0 .3 0 .7 0 1-.7-.1-1.3-.1-2 0" style="fill:#0a0d0e" />
            <path d="m250.1 212.5c4-4.1 2.5.8 3.4 2.3 2.9-1.4 5.7-2.8 8.6-4.3-2 3.5-4.1 6.4-8.6 7.3-3.4.7-6.6 2.6-9.7 4.1-.4.2-.4 1.5-.4 2.4-.1 2.1.1 4.3-3.1 3.4.3-2.1.8-4.2.7-6.3-.1-1.7-.9-3.3-1.1-4.1 3.4.4 6.5.8 9.7 1.2.1-2 .3-4 .5-6" style="fill:#9c919e" />
            <path d="m211 7.6c.1.4.1.7.2 1.1 1.4 4.1-3.3 6.3-3 9.9.8-1.1 1.7-1 2.8-.2 2.9 2.6 3.2 5.2.3 8-2.9-2.4-3.8.5-5.4 1.9-1.2 1.1-2.6 1.9-4 2.8-.3-1.9-.6-3.8-.9-5.8.7-2.6 2-5.6-2.9-4.9-.4.3-.7.7-1.1 1-.5.3-1 .2-1.4-.3-.7-1.8-.9-3.6-.2-5.4 1.3-1.9 3.4-2.8 5.4-3.7 3.1 3.4 3.3 3.4 4.8-.9.8-2.3 2.1-4.1 4.8-4.1.3.3.5.5.6.6" style="fill:#0a0c0f" />
            <path d="m179.1 6.7c1.6-.9 3.1-1.9 4.7-2.8-.5 1-1 1.9-1.9 3.9 2.9-1 5-1.7 7.2-2.5 0 .4.1.9.1 1.3 1.4 2.8 4.7.3 6.3 2.3 1 2.6.8 5.2 0 7.8-.4 1.2-1.2 1.4-2.3.7-3.9-2.9-4.2 2.3-6.5 3-1.2.4-2.3 1.3-3.4 2-.2-1.5-.7-3-.7-4.5 0-1.3.9-2.5.8-3.8-.2-3.1-1.4-4.4-4-1.6-.2-1.9-.2-3.8-.3-5.8" style="fill:#0f1113" />
            <path d="m193.1 17.5c3.5-2.8 2.6-6 .7-9.2-1.1-3.1 0-4.6 3.2-4.8 0 3 0 6 0 9 .3 1.3-.2 2.3-1 3.3 0 1.9 0 3.8 0 5.8-1.1.5-1.7-.1-2.1-1-.2-1.1-.5-2.1-.8-3.1" style="fill:#4b5256" />
            <path d="m171.9 2.7c.4 1.6.8 3.2 1.2 4.8-6.3 1.7-6.6 1.5-6-2.9 1.3-1.6 3.4-.7 4.8-1.9" style="fill:#676b6e" />
            <path d="m194 20.5c.7.3 1.4.7 2.1 1 .3 0 .5 0 .8 0-.7 1.3-1.3 2.6-2 3.9-1 1-2.2 1.4-3.4.5-1.5-1.1.1-2.3.3-3.4.8-.7 1.5-1.4 2.2-2" style="fill:#0f1317" />
            <path d="m191.9 22.4c-.9 3.1.7 3.4 3.1 2.9-1.3.6-2.6 1.3-3.9 1.9.3-1.5.5-3.2.8-4.8" style="fill:#94a5ac" />
            <path d="m198.1 20.5c1.1-.2 2.2-.4 3.3-.7-.1 1.9-.3 3.7-.4 5.6-.1-2.1.8-4.9-2.9-4.9" style="fill:#4b5256" />
            <path d="m171.9 2.7c-1.6.6-3.2 1.3-4.8 1.9 0-.7-.1-1.3-.1-2 1.7 0 3.3 0 4.9.1" style="fill:#aaadae" />
            <path d="m357.1 85.5c-1.3-.7-2.7-1.3-4-2-3.2.9-6-1-9-1.1-2.9-1.3-5 .2-7 2-1.4 2.3-3.1 1.8-5.1.8-3.7-1.8-7.2-4.2-11.6-4.3-1.3 0-2.5-1-3.5-1.9-2.7-2.5-5.4-5.2-8.8-6.7-2.4-1.9-3.7-3.8-3.1-7.5.5-3.6-2.9-1.4-4.7-1.5-1.7.7-3.6 0-5.3 1.1-.3-3-.6-6-.9-8.9 30.3-.2 60.6-.4 90.9 0 .9.9 1.6 2 2.7 2.6 3.9 2.3 8.1 4.1 11.7 6.7 2.2 1.6 3.2 4.2 2.8 7.7-.6 5.3-2.1 9.6-7.2 11.9-1 3.5-3.8 4.3-6.9 4.1-2.6-.1-4.8.2-6.5 2.5-1.9 2.7-5 .3-7.4 1.2-.4.2-.8.4-1.3.5-2.1-.2-3.9-1.3-5.6-2.5-2.6-2.8-5-6-9.6-4.8-.1.1-.3.1-.6.1" style="fill:#cce4e9" />
            <path d="m433 82.5c0 15.4.1 30.9.1 46.3 0 1.2-.6 2.4-.9 3.6-.6.1-1.3.3-1.9.5-3.7 1.3-6.8 3.4-8.8 6.9-.5.5-1.1 1-1.7.9-3.5-.5-8.8-6.5-9.1-10.3 2.4-3 5.2-5.9 4.8-9.9-3.7 1.5-.2 7.8-5.6 8.6-1.3-.6-2-2.1-3.6-2.1-3.8-4.3-2.9-7.9 2.8-11.4 1.3-4.4-.1-5.9-6.3-4.8 2-5.1 3.4-9.5 5.5-13.6 1.9-3.6 4.5-6.9 6.8-10.3 2-3.1 4.8-4.3 8-2.5 2.4 1.3 3.6 1.4 5.4-.9.6-1.1 2.9-.8 4.5-1" style="fill:#d2e7eb" />
            <path d="m409 115.4c-.9 1.3-1.6 2.9-2.7 4-3.1 2.9-1.8 5 .8 7.1-.5 4.1-2.7 8-2.6 11.9.1 5.3-3.5 7.1-6.4 9.9.3-2.9.6-5.9.9-8.8-1-1.6.4-2.3 1.2-3.3 1.6-2.1-.1-2-1.5-2-1 0-1.7-1-2.8-.9-.8.2-1.5.6-2.3.5-1-.3-1.9-.7-3-.6-.7 0-1.2-.2-1.7-.7.1-.3.1-.5 0-.8-1.4-2.3 1.7-3.1 1.6-4.9-.4-1.4-.7-2.7-1.3-4-.9-2.2-2.8-3-4.9-3.7-.5-.2-.9-.3-1.3-.6-1.3-.8-3.3-1-3.4-3-.1-2.2 1.9-2.8 3.4-3.5 1.6-.6 1.9-2.1 2.5-3.4 1-1.1 2.1-2.1 3.2-3.2.4-.2.8-.3 1.3-.2 1.1.4 1.9 1.2 2.7 2.1.9 1.1 1.4 2.4 1.2 3.9-.1.5-.3.9-.5 1.3-.2.1-.4.2-.6.4-.5 0-.9-.1-1.3-.4-.9-.9-1.9-2-3.1-.5-.6.7-1.2 1.7-.5 2.6.6.7 1.4-.4 2.2-.2.9.6 1.1 1.8 1.9 2.5 2.7.7 4.6 3.9 7.9 2.1 2.3-.5 3-2 2.8-4.2.2-.9.8-1.6 1.6-2 2.7-1.3 4.1 0 4.7 2.6" style="fill:#131617" />
            <path d="m373.2 91.6c1-.3 2.2-1.2 2.9-.9 2.8 1.1 4.5.8 5.8-2.2.4-.8 2.6-1.4 3.8-1.2 3.7.7 6.7-.4 9.4-2.9 1 2.2 5.4-1.3 5 3.1.3.4.4.8.3 1.2-1.1 2.1-2.2 4.3-3.5 6.4-2.3 3.4-5.4 6.1-8 9.3-.4.3-.8.5-1.2.6-3.3-.2-2.7-3.5-4.2-5.1-.3-.3-.6-.6-.9-.8-.7-.5-1.4-.9-2-1.5-.3-.3-.5-.7-.8-1-1.4-2.7-4.9-2.7-6.6-5" style="fill:#bbd7de" />
            <path d="m393 112.5c.1-.4.2-.7.3-1.1 4 .8 5-2.6 6.8-4.9 1 .9 2.2 1.6 2.9 2.7.7.9.8 2.2 1.2 3.4-.4.6-.7 1.3-1.1 1.9-.8 1.8-1.4 3.9-4.1 3.4-2.1-1.6-3.6-4-6-5.4" style="fill:#9da8ab" />
            <path d="m400.1 106.5c-.4 4.3-2.5 6.1-6.8 4.9-.4-1.3-.7-2.6-1.1-3.9.1-1.5 1-2.5 2.1-3.4.6-.4 1.2-.6 1.9-.6 1.3 1 2.6 2 3.9 3" style="fill:#dee8e9" />
            <path d="m400.1 88.5c0-.3 0-.6 0-.9 2-2.1.1-6.9 4.9-7.1.4 1.5 1.8 1.5 2.9 1.9-1.3 2-2.6 4.1-3.9 6.1-2 1.2 1.2 6.1-3.7 5.2-1.9-1.7-.1-3.5-.2-5.2" style="fill:#7a939b" />
            <path d="m396.1 103.5c-.4.2-.8.5-1.2.7-2.3-1.6-2.8 2.2-4.8 1.6-.4 0-.7-.1-1.1-.1-.6-.2-1-.6-1.1-1.3 2.7-3.2 5.4-6.5 8.1-9.7 1 .8 1.6 1.8 2 2.9-.5 1.9-1.2 3.9-1.9 5.9" style="fill:#475559" />
            <path d="m412 75.4c-2 1.2 1.2 6.1-3.7 5.2-1.9-1.6-.1-3.4-.3-5.1 1.7-2.7 3.3-5.4 5-8.1.4 1.5 1.8 1.5 2.9 1.9-1.3 2.1-2.6 4.1-3.9 6.1" style="fill:#79939b" />
            <path d="m415.9 69.4c-1.1.6-2.3 1.3-3.4 1.9.2-1.3.4-2.5.5-3.8.8-1.7 1.6-3.5 2.4-5.2.9.6 2.2 1 2.6 1.9.3.6-.6 1.8-1 2.7-.3.7-.7 1.6-1.1 2.5" style="fill:#30444b" />
            <g style="fill:#2e4249">
                <path d="m398.1 97.5c-.7-1-1.4-2-2-2.9 1.3-2 2.7-4.1 4-6.1.1 1.7.2 3.4.3 5.2-.8 1.2-1.5 2.5-2.3 3.8" />
                <path d="m408.1 75.5c.1 1.7.2 3.4.3 5.1-.1.6-.3 1.1-.4 1.7-1.1.6-2.3 1.3-3.4 1.9.2-1.3.4-2.5.5-3.8.9-1.6 2-3.3 3-4.9" />
            </g>
            <path d="m420.1 56.5c2-.6 4-1.3 6.1-1.9 0 .2-.1.4-.1.7-.4.7-.9 1.3-1.3 2-2.1 3.4-3.7 3.2-4.7-.8" style="fill:#7c8c91" />
            <g style="fill:#c2d9e2">
                <path d="m201.2 9.6c.7-2.7 1.4-5.4 2-8.1 2.4.2 5.1.1 7.2 1 .8.3.4 3.3.5 5.1l.1-.2c-3.5-1.2-4.1 2.1-5.4 3.8-1.2 1.5-1.6 3.5-3.9 1.5-.5-1-1.8-1.7-.5-3.1" />
                <path d="m211 18.4c-1.2.3-2.4.5-4.7 1 1.8-4 3.4-7.4 4.9-10.7-.1 3.3-.2 6.5-.2 9.7" />
            </g>
            <path d="m288 55.6c.9-.5 2.2-1.6 2.5-1.4 1 .7 2.4 2.2 2.1 2.9-.4 1-2 1.6-3.1 2.4-.4.1-.9.1-1.3-.1-1.1-.7-2.4-1.2-2.5-2.8.5-.9 1.7-.4 2.3-1" style="fill:#11181b" />
            <path d="m288 55.6c-.6.3-1.2.7-1.7 1-.9 1-2.2 1.1-3.2 1.8-1 .3-1.9.6-2.9.9l.1.1c-1.3-1.2-2.7-2.5-4-3.7 3.9 0 7.8-.1 11.7-.1" style="fill:#fefefe" />
            <path d="m295.1 64.5c1.7-.7 3.4-1.3 5-2 1.2 1.3.8 2.6-.1 3.9-1.6.4-2.3 5-4.9 1.1.4-.7.7-1.3 1.1-2-.4-.3-.7-.7-1.1-1" style="fill:#9aa8ac" />
            <path d="m289.6 59.5c0 0 0 .1 0 0-.1 1.4-.3 2.7-.4 4-.6-.7-1.3-1.4-1.9-2.1-.3-1.8.4-2.5 2.3-1.9" style="fill:#0a0d0e" />
            <path d="m176.1 11.5c.2 1.1.5 2.3.7 3.4-.4 0-.9 0-1.3 0 .3-1.1.4-2.2.6-3.4" style="fill:#13171a" />
            <path d="m422.1 151.6c1.4-2.4 1.1-3.7-2-3.2 0-3.1 2.5-2.9 4.5-3.5 2.9-.3 5.9-1.1 8.6.8.2.2.3.2.5.1.1 3.6.2 7.1.3 10.7-.7.9-1.6 1.3-2.5 1.9-1.8.9-2.6 3.7-5.3 2.9.6-2.3 1.3-4.6 2.1-7.9-1.2.7-2.3 1.4-3.5 2-3 .3-3.9-1-2.7-3.8" style="fill:#0e0f11" />
            <path d="m431 157.4c1-.3 2-.6 3-1-.4 3.1-.7 6.1-1.1 9.2-.3-.1-.6-.2-1-.2-1.1-1.3-2-2.7-3.2-3.9-.3-2 3.3-1.9 2.3-4.1" style="fill:#585c5f" />
            <path d="m432.8 234.4c.1-1.9.3-3.9.4-5.8.3 2.6.5 5.1.8 7.7-.4-.7-.8-1.3-1.2-1.9" style="fill:#323337" />
            <path d="m433.2 145.6c-2.7-.1-5.4-.1-8.1-.2-.8-2.3 1.4-3.1 2.2-4.7 1.8-2.3 1.8-5.7 4.8-7.2.4 4.1.8 8.1 1.1 12.1" style="fill:#e4edf0" />
            <path d="m432.2 133.6c-1.4 2.7-2.7 5.3-4.1 8-3.7-2-3.4-4.4-.6-7 1.1-1 2.4-1.8 3.5-2.8.4.3.8.5 1.2.8-.1.2 0 .6 0 1" style="fill:#5f6769" />
            <path d="m197.1 3.5c-1.1 1.6-2.2 3.2-3.2 4.8-2.2 1.3-5.1 4.6-4.7-1.7 2-2.6 3.8-5.5 7.8-3.9.1 0 .3.2.3.3 0 .2-.2.3-.2.5" style="fill:#b6cad2" />
            <path d="m201.2 9.6c.3.9.7 1.9 1 2.8-.4.5-.8.6-1.2.1-1.6 1.1-3.3 2.1-4.9 3.2.3-1.1.7-2.2 1-3.3 1.4-.9 2.7-1.8 4.1-2.8" style="fill:#818e94" />
            <path d="m198.3 8c-.3-.9-.7-1.4-.6-1.5.3-.5.8-.9 1.3-1.3.1 0 .8.6.7.6-.3.6-.7 1.2-1.4 2.2" style="fill:#4b5256" />
            <path d="m398.1 148.3c.8-1.3 2.1-2.5 2.4-3.9.4-1.5 6-1.7 1.3-4.5.4-.7.8-1.3 1.3-2 .5-.7 1.6-1.7 1.4-1.9-3.3-4.3 2.2-6.3 2.5-9.6.7.6 1.4 1.2 2.2 1.8.3 1.1 1.7 1.2 2 2.2.9 1.9.2 5.1 4.2 4.8 1-.1 2.1 2.8 3.4 4.1.3.3 1.4-.2 2.1-.3 3.8 3.2.3 4.6-1.5 6.4-.8.5-1.9.2-2.6 1-.4.7-.1 1.5 0 2.2-.1.6-.2 1.2-.6 1.7-1.3 1.5-2.3 3.4-3.9 4.4-1.4.9-3.4.8-5.2 1.1.1-1.4-.4-3.3.4-4.2 2.5-3.3 4-6.4 1-10.8-1.2 1.3-3.4 2.5-3.5 3.9-.8 5.1-3.8 4.3-6.9 3.6" style="fill:#101213" />
            <path d="m348.1 185.5c-.3-.4-.5-1-.9-1.2-6.8-3.5-7.3-4.5-6.1-12.8 3.5.3 6 1.3 5.2 5.9-.2 1.1 1.8 3.7 2.9 3.8 5.7.4 6.7 3.6 5.9 8.3-2.3-1.4-4.7-2.7-7-4" style="fill:#f8f4f5" />
            <path d="m418.2 145.5c1.1-2 5.3-2.7 2.8-6.3 1.7-4.7 5.6-6.5 10-7.5-.7 1-1.1 2.4-2 3-3.1 2-2.9 4.3-.8 6.8-1 1.3-2 2.6-3 4-1.7 1-3.4 1.9-5.1 2.9-.3 0-.7.1-1 .1-1.3-.7-2-1.6-.9-3" style="fill:#0b0d0e" />
            <path d="m376.9 123.1c-4.2 1.3-6.8-.2-7-4.2 0-.5-.5-1-1-1.3-2-1.1-4-2-6.1-3 0 0 .2-.2.2-.2 2.3-.7 3.7-1.9 4-4.6.2-1.3.8-3.7 2.9-3.3 1.9.3 3.2 2.1 2.8 4.1-.5 3 1.6 5.3 1.6 8.1.3 1.9 2.6 2.5 2.6 4.4" style="fill:#dee4e7" />
            <path d="m388.9 132.5c.7-.1 1.4-.1 2.1-.2 1.9-.1 1.7 1.2 1.4 2.3-.4 1.4-1.5 2.6-1.1 4.2 1.8-1.2 3.2-4.2 6-1.5.2.5.2.9-.1 1.3-2.1 1.4-4.4 4.2-6.2 4-5.1-.7-6-6.2-2.1-10.1" style="fill:#6d7376" />
            <path d="m386.2 129.6c-.3.4-.7.7-.9 1.1-1.3 2.7-3.7 4.6-6.1 2.7-1.2-.9-.6-4.5-.2-6.7.3-1.8 1.5-3.5 2.3-5.3 2 .1 3.7.9 4.2 2.8.6 2.2-1.7 2.9-3 4-.2.8-1.4-.2-1.5.8 0 .1.2.2.2.2.4-.2.6-.6 1-.9 1.4-.8 2.7-2 4.2-.1.1.5.1 1-.2 1.4" style="fill:#6b7174" />
            <path d="m382.1 128.6c3.1-2.8 3.1-5.2-.9-7.2-.2-.2-.3-.5-.4-.8.1-3 1.8-3 4.1-2.2 1.7 1.4 3.4 2.8 5.2 4.1-.4 2.6-2.7 3.9-4.1 5.9-1.3 0-2.6 0-4 0l.1.2" style="fill:#0e1012" />
            <path d="m384.9 118.4c-1.4.7-2.7 1.5-4.1 2.2-1.3.8-2.6 1.7-4 2.5-1.3-1.2-2.6-2.4-3.8-3.6.3-.3.7-.6 1.1-.8 4.8-.4 2.6-4.9 4.1-7.2.3-.7.7-1.2 1.4-1.5 1.9-.5 3.3.3 4.3 1.9.1.2.1.5.2.7-7.9 3 .4 3.9.8 5.8" style="fill:#6f7477" />
            <path d="m370.2 197.4c-1.8-.5-3.3 4.3-5.2.3 3-1.5 4.6-3.2 2.3-6.8-.7-1 .6-3.3 1.1-5 .1-.2 1.1-.4 1.3-.2.5.5 1.2 1.3 1.2 1.9-.1 3.2-.4 6.5-.7 9.8" style="fill:#474b4f" />
            <path d="m386 128.4c1.4-2 2.7-3.9 4.1-5.9.6 1.3 1.3 2.6 1.9 3.9-.2 2.6-3.4 2.1-4.2 4-.5-.3-1.1-.6-1.6-.9 0-.3-.1-.7-.2-1.1" style="fill:#c1c5c7" />
            <path d="m429.2 161.6c3.4-.6 2.3 2.2 2.8 3.8-.4.3-.7.7-1.1 1-1.6.1-3.1 2.7-4.7.1 0-1.3 0-2.5.1-3.8.6-1.2 1.8-1.1 2.9-1.1" style="fill:#101215" />
            <path d="m397.2 138.6c0-.3 0-.6 0-1-.2-1.5-.6-3 1.1-4 1.3-.4 2.5-.9 3.8-1.3.3 2.1 1.7 4.5-1.9 5.3-.5.1-.9 1.2-1.3 1.9-.5-.3-1.1-.6-1.7-.9" style="fill:#c0c5c6" />
            <path d="m373.9 161.5c-.2 2.3-.5 4.7-.7 7-.6.6-1.1 1.2-2 1.4-.4.1-.8-.1-1.1-.4.1-2.4.2-4.8.3-7.3.6.1 1.2.2 1.8.3.3-.7.8-1.2 1.7-1" style="fill:#767a7d" />
            <g style="fill:#4b4f55">
                <path d="m371.9 153.5c.3-1.6.5-3.1.8-4.7.2-1.1.2-2.2.4-3.3 1.2.4 2.3.9 3 2-.3 2.3-.7 4.7-1 7-1.4.8-2.2-.3-3.2-1" />
                <path d="m368.9 180.5c.3-1.6.5-3.1.8-4.7.2-1.1.2-2.2.4-3.3 1.2.4 2.3.9 3 2-.3 2.3-.7 4.7-1 7-1.4.8-2.2-.3-3.2-1" />
            </g>
            <path d="m429.2 161.6c-1 .4-2 .7-3 1.1 0-.5 0-.9 0-1.4 1.6-1.3 3.2-2.6 4.8-3.9.7.4 1.4.8 2.1 1.2-.4.6-.7 1.3-1.2 1.7-.8.5-1.8.9-2.7 1.3" style="fill:#aeb0b3" />
            <path d="m422.1 151.6c.9 1.3 1.8 2.5 2.8 3.8-.9 1.1-1.9 2.2-2.8 3.3 0-2.3 0-4.7 0-7.1" style="fill:#43494d" />
            <path d="m373.2 141.5c.5-2.1 1-4.3 1.5-6.4.4 0 .9 0 1.3 0 0 1.8 0 3.7 0 5.5-.8.7-1.6 1.5-2.8.9" style="fill:#adafb1" />
            <path d="m418.2 145.5c.3 1 .6 2 .9 3-1 .7-2 1.4-3 2 0-.7 0-1.5 0-2.2-.3-1 .1-2-.1-3 .7.1 1.4.1 2.2.2" style="fill:#4a5256" />
            <path d="m426.2 166.4c1.6 0 3.2-.1 4.7-.1-2.3 2.9-3.5 2.9-4.7.1" style="fill:#585c5f" />
            <path d="m373.1 174.5c-1-.7-2-1.3-3-2 0-1 .1-2.1.1-3.1.2.1.5.1.7.1 1.4-.1 1.5 1.2 2.2 1.8 0 1.2 0 2.2 0 3.2" style="fill:#b3b6bc" />
            <path d="m371.9 153.5c1.1.3 2.1.6 3.2 1-1 1-2.1 2-3.1 3l.1.1c-.1-1.4-.1-2.7-.2-4.1" style="fill:#35373c" />
            <path d="m373.9 161.5c-.6.3-1.1.7-1.7 1 0-1.6-.1-3.3-.1-4.9 0 0-.1-.1-.1-.1.6 1.3 1.2 2.6 1.9 4" style="fill:#555a5f" />
            <path d="m376.1 147.5c-1-.7-2-1.3-3-2 .1-.8.2-1.6.3-2.3 1.4-.7 2 .2 2.7 1.2-.1 1 0 2.1 0 3.1" style="fill:#b5b7be" />
            <path d="m376 144.4c-.9-.4-1.8-.8-2.7-1.2 0-.6-.1-1.1-.1-1.7.9-.3 1.9-.6 2.8-.9 0 1.3 0 2.5 0 3.8" style="fill:#1c1f22" />
            <path d="m368.9 180.5c1.1.3 2.1.6 3.2 1-.5.8-1.1 1.5-1.6 2.3-.5-1.1-1.1-2.2-1.6-3.3" style="fill:#35373c" />
            <path d="m387.9 130.6c1.4-1.3 2.8-2.7 4.2-4-.2.8-.3 1.7-.7 2.3-.6 1-1.5 1.9-2.3 2.8-.5-.4-.9-.8-1.2-1.1" style="fill:#3d4144" />
            <path d="m373 171.4c-.7-.6-1.5-1.2-2.2-1.8.8-.4 1.5-.8 2.3-1.1 0 .9 0 1.9-.1 2.9" style="fill:#171a1e" />
            <path d="m244.5 233c-.6-.9-1.1-1.5-1.4-2.2-.1-.1.7-.6 1.1-.9.5.6 1 1.2 1.3 1.9 0 .1-.5.6-1 1.2" style="fill:#9ca0a9" />
            <path d="m255 200.4c-.5-.4-1.2-.6-1.4-1.1-.5-1-.7-2.1 0-3.6.8 1.3 1.7 2.6 2.5 3.9-.4.2-.8.5-1.1.8" style="fill:#b3a7b0" />
            <path d="m253.4 206.9c-.5-1.2-1-2.3-1.6-3.5.3-.1.6-.3 1-.4.5 1.2.9 2.4 1.4 3.6-.2.1-.5.2-.8.3" style="fill:#a398a1" />
            <path d="m300 66.4c0-1.3.1-2.6.1-3.9 1.7-.4 3.4-.9 5.1-1 .3 0 1.2 2.3.9 3.2-1.4 3.4-.5 5.5 2.9 6.7-1.1 1.1.4 2.8-.8 3.9-.4.1-.8.1-1.2.2-.5-1.4 1-4.6-2.8-3.2-.5-1.5-1.3-2.9-1.4-4.4-.1-2.2-.9-2.7-2.8-1.5" style="fill:#3e474b" />
            <path d="m308.3 75.3c.3-1.3.5-2.6.8-3.9 3.1 2.4 6 5.3 9.4 7.1 5.2 2.7 10.9 4.7 16.4 6.8.6.2 1.5-.5 2.3-.7 0 .4 0 .8.1 1.1-1.3 2.9-3.5 2.7-5.9 1.6-3.7-2.3-7.5-4.5-11.9-5.2-2.7-.9-4.6-2.8-6.6-4.7-1-1.1-1.8-2.9-3.9-2h-.3l-.4-.1" style="fill:#afbfc3" />
            <path d="m319.2 81.4c5 0 9.2 1.5 12.1 5.8-5.1-1.9-10.2-3.8-15.3-5.7 1.1-.8 2.1-.6 3.2-.1" style="fill:#32383a" />
            <path d="m319.2 81.4c-1.1 0-2.1.1-3.2.1-2.9-1.1-5.2-2.8-6.2-5.9-.3 0-.6-.1-.9-.3 1.2 0 2.7-.6 3.4 0 2.5 1.8 4.6 4.1 6.9 6.1" style="fill:#3e474b" />
            <path d="m331.2 87.2c2-.5 4-1 5.9-1.6.7.3 1.3.5 2 .8.4 1-.1 1.5-.9 1.9-2.9 3.5-4.9 1.3-7-1.1" style="fill:#32383a" />
            <path d="m338.3 88.4c.3-.6.6-1.3.9-1.9 1.4-.3 2.7-.5 4.1-.8-.4.6-.8 1.2-1.2 1.8-1.3.3-2.6.6-3.8.9" style="fill:#afbfc3" />
            <path d="m309.8 75.6c2.1 2 4.2 3.9 6.2 5.9-3.6-.3-6-1.9-6.2-5.9" style="fill:#32383a" />
            <path d="m289.6 59.5c-.8.7-1.6 1.3-2.3 2-1.1.6-2.2 1.1-3.3 1.7.1-1.1.4-2.2.3-3.3 0-.5-.8-.9-1.2-1.4 1.1-.6 2.1-1.2 3.2-1.8 1.1.9 2.2 1.9 3.3 2.8" style="fill:#9aa7aa" />
            <path d="m267.1 64.5c.3-1.7.7-3.4 1-5.1 1.1-.6 2.1-1.2 3.2-1.7-2.6 1.6.3 6.7-4.2 6.8" style="fill:#353f44" />
            <path d="m280.1 59.4c-.3.9-.5 1.9-1.1 2.5-.6.5-1.6.6-2.5.8.4-.9.7-1.9 1.4-2.5.6-.5 1.5-.5 2.2-.8" style="fill:#505d5e" />
            <path d="m278.3 66.5c0 .3-.1.5-.1.8-1-.2-2-.5-3-.7.9-3 2-1.7 3.1-.1" style="fill:#505c61" />
            <path d="m363.1 113.5c-.4-1.3-.8-2.6-1.3-3.9-.3-1.5-2.2-2.7-1.2-4.6.2-.2.3-.3.5-.5.8-2.2 2.6-4.6 2.2-6.5-.7-3.2 1.9-2.4 2.8-3.4.8-1-.5-3.4 2-3.2 2.2.2 3 1.7 2.5 3.8-3.1 3.8-3.7 8.3-4.2 13-.1 2.2 0 5-3.3 5.3" style="fill:#303437" />
            <path d="m362.1 92.5c-.4.3-.8.9-1.1.8-1.9-.4-4.5-5.7-3.9-7.8 4.8-1.2 6.6-.3 8.5 4.3-.5 1.7-1.9 2.4-3.5 2.7" style="fill:#111316" />
            <path d="m359 107.5c-2 .3-4 .5-6 .8 1-1.6 2-3.3 3.1-4.8.7-1 1.6-1.8 2.4-2.7.9 1.2 1.7 2.5 2.6 3.7-.9.8-.3 2.7-2.1 3" style="fill:#cdd3d6" />
            <path d="m370.1 95.5c-.5-1.1-1-2.1-1.5-3.2-.8.8-1.6 1.5-2.4 2.3-.1-.4-.2-.8-.2-1.2-.8-.9-.8-1.9-.4-3 .5-1.1 1.1-1.8 2.4-.8 1.7.9 3.3 1.8 5 2.7.9 2.2-.6 2.8-2.2 3.4-.3-.1-.5-.1-.7-.2" style="fill:#757c7f" />
            <path d="m365.9 90.6c0 .9 0 1.8 0 2.7-1.3-.3-2.6-.5-3.8-.8 1-.7 1.9-1.4 2.9-2.1.4-.4.7-.4.9.2" style="fill:#cce4e9" />
            <path d="m344.1 82.5c3 .4 6 .7 9 1.1-3.5 3.5-6-1-9-1.1" style="fill:#afbfc3" />
            <path d="m349.1 98.5c-3.9-.9-3.7-3.3-2-6 1.4.6 2.7 1.3 2.8 3.1-.3.9-.6 1.9-.8 2.9" style="fill:#dce8ed" />
            <path d="m349.9 95.6c-.9-1-1.9-2.1-2.8-3.1 2.1 0 4 .1 2.8 3.1" style="fill:#90989c" />
            <path d="m363.1 113.5c.9-3.2 2-6.3 2.5-9.5.6-3.4.7-6.9 4.5-8.5 1.7.8 2.6 2.1 2.2 4.1-4.1 3.6.6 4.5 2 6.5.9.7 1.8 1.4 2.1 2.5.3.9-2.6 2.2.2 2.9 0 .4 0 .9-.2 1.3-1.3 2.1-.4 4.9-2.4 6.7-.3 0-.6 0-.9 0-.9-4.2-1.8-8.4-2.7-12.5-3.6 2 .2 9.8-7.3 7.5 0-.4 0-.7 0-1" style="fill:#757c7f" />
            <path d="m359 107.5c.7-1 1.4-2 2.1-3 .2 1.7.5 3.4.7 5.1-.9-.7-1.8-1.4-2.8-2.1" style="fill:#9aa1a4" />
            <path d="m201 12.5c.4 0 .8-.1 1.2-.1 2-1.9 3.9-3.9 5.9-5.8.7-.7 1.3-1.4 1.9-2.1.4 1 .8 1.9 1.1 2.9-1.4 1.6-2.6 3.4-4.2 4.9-1.6 1.5-3.4 2.7-5.1 4-.2-1.2-.5-2.5-.8-3.8" style="fill:#78868e" />
            <g style="fill:#434548">
                <path d="m206.1 21.7c-.3.6-.5 1-.7 1.4-.4-.3-.9-.6-1.2-1.1-.1-.1.4-.9.8-1 .2-.1.7.4 1.1.7" />
                <path d="m188.1 13.1c-.4.4-.7.7-1 1-.3-.5-.7-.9-.8-1.4 0-.2.7-.8 1-.7.3.1.5.6.8 1.1" />
            </g>
            <path d="m371.9 99.2c-.6-1.3-1.2-2.5-1.9-3.8 1-1.1 1.9-2.1 2.9-3.2.2-.2.2-.4.2-.7 2.9 1.2 6.8.8 7.8 4.9-2.3 1-5.3.4-6.9 3.1-.4.8-1.5.6-2.1-.3" style="fill:#3b4547" />
            <path d="m365.9 90.6c-.3 0-.6-.1-.9-.2-.8-4.7-4.3-4.8-7.9-4.9 3-3.9 5.6-.8 8.1.7 1.2.7 1.8 2.2 2.7 3.3-.6.4-1.3.8-2 1.1" style="fill:#9aa1a4" />
            <path d="m411.3 130.5c-.7-.7-1.4-1.5-2-2.2.9-.5 2.2-.9 2.5-1.7 1-2.7 1.7-5.6 2.6-8.9 3.3 5.4 3 6.7-3.1 12.8" style="fill:#484e51" />
            <path d="m393 112.5c4.2-1 4.8 2.3 5.9 4.9.1.8.9 1.3 1.2 2.1-1.2.2-2.6.9-3.7.5-1.9-.6-3.6-1.7-5.3-2.6 0-1.9.8-3.5 2-4.9h-.1" style="fill:#0e1012" />
            <path d="m398.3 133.7c-.4 1.3-.7 2.6-1.1 4-1.9.6-3.9 1.3-6.6 2.2-1.1-.9-2.4-2.8.7-5.1.3-.3-.1-1.6-.2-2.4 1 .4 1.9.7 2.9 1.1 1.6 1.4 1.4-.8 2.1-1.1.7.4 1.5.8 2.2 1.3" style="fill:#3d4144" />
            <path d="m390.4 114.7c-1 .5-2.1 1-3.1 1.5-.4-.9-1.3-2.3-1-2.7 1.2-1.6 2.8-3 4.3-4.4.5 1.1 1 2.2 1.5 3.3.9 1.7.5 2.6-1.7 2.3" style="fill:#0e1012" />
            <path d="m400.1 119.5c-.8-.5-1.6-.9-2.4-1.4.4-.2.8-.4 1.2-.7 1.4-1 2.8-1.9 4.3-2.9 1.3 3.2 1 5.3-3.1 5" style="fill:#788184" />
            <g style="fill:#0e1012">
                <path d="m390.2 105.8c.6-.9 1.2-1.9 2-2.8.5-.5 1.2-.9 1.8-1.3.4.8.7 1.7 1.1 2.5-.9 1.1-1.9 2.2-2.8 3.3-.8-.6-1.5-1.2-2.1-1.7" />
                <path d="m388 104.3c.4.4.7.9 1.1 1.3-1 1-2 1.9-3 2.9-.6.7-1.1 1.9-2.4.7-1-3.8 2.2-3.9 4.3-4.9" />
            </g>
            <path d="m390.4 114.7c.5-.8 1.1-1.6 1.6-2.4.4.1.7.1 1.1.2-.7 1.6-1.4 3.3-2 4.9-.2-.9-.5-1.8-.7-2.7" style="fill:#6d7377" />
            <path d="m396.1 132.3c-.7 1.2-1.5 2.4-2.2 3.5 0-.8.1-1.6.1-2.5.7-.3 1.4-.6 2.1-1" style="fill:#6d7376" />
            <path d="m384.1 109.7c.7-.4 1.3-.8 2-1.2-.7 1.3-1.3 2.7-2 4-.7-.9-.9-1.9 0-2.8" style="fill:#6f7477" />
            <path d="m371.9 99.2c3-1 4.9-5.4 9-2.7.2.3.3.6.2.9-.1 2.9-2.8 4.5-3.6 7.1-.9 1.2-2 1.9-3.6 1.8-1.8-1.5-3.7-3.1-5.5-4.6 1.2-.8 2.4-1.6 3.5-2.5" style="fill:#07080a" />
            <path d="m376 112.4c.2-.2.2-.5.2-.7 1.2-3 1.5-6.3 2.9-9.2.8-1.7 1.1-4.4 4-4.1.3 0 .6.1.9.2 1.7 6.9.8 9.4-4 11.8-.4.3-.7.7-1.1 1-.6.8-.3 2.3-1.7 2.4-.8.1-1.4-.4-1.2-1.4" style="fill:#0f1113" />
            <path d="m383.2 98.4c-1.3 2.9-2.5 5.9-3.9 8.7-.8 1.6-2 3.1-3 4.6 0-1-.1-2-.1-3 .2-1.5 1-2.9.8-4.5 1.4-2.2 2.8-4.5 4.2-6.7.6.3 1.3.6 2 .9" style="fill:#6c7074" />
            <path d="m380 110.4c4.2-2.9 4.5-7.2 4-11.8 1.3 1.9 2.6 3.8 4 5.7-1.3 1.8-2.6 3.6-3.9 5.4 0 .9 0 1.9 0 2.8-1.3-.7-2.7-1.4-4.1-2.1" style="fill:#33393b" />
            <path d="m404 88.4c-.7-1-1.4-1.9-2.1-2.9.5-.2.9-.4 1.4-.6.2 1.2.5 2.4.7 3.5" style="fill:#3d5258" />
            <path d="m412 75.4c-.7-1-1.4-1.9-2.1-2.9.5-.2.9-.4 1.4-.6.2 1.2.5 2.4.7 3.5" style="fill:#3d5257" />
            <path d="m416 145.3c0 1 .1 2 .1 3 0-1-.1-2-.1-3" style="fill:#9da5a9" />
            <path d="m382 128.5c-.4 1-.7 2.1-1.1 3.1-.3 0-.6-.1-.9-.1.2-1.4.4-2.7.6-4.1.5.4 1 .8 1.5 1.2l-.1-.1" style="fill:#0e1012" />
            <path d="m376 112.4c1-.3 2-.7 3-1-.1 1.9.5 4.2-.3 5.7-.7 1.3-3 1.7-4.6 2.4.6-2.4 1.2-4.7 1.9-7.1" style="fill:#424749" />
            <path d="m376.9 104.2c1.9 1.9 1.8 3.4-.8 4.5-.7-.8-1.4-1.5-2.1-2.3 1-.7 1.9-1.5 2.9-2.2" style="fill:#c4c9ca" />
            <path d="m1.4 0h1.4v235.6h-1.4z" style="fill:#999199" />
        </g>
        <g id="brenda_3_">
            <path d="m205.9 231.3c-3.3-.4-2.8 2.1-3 4-5.1 1.6-10.3-.5-15.4.7-2.5-4-7.6-1.7-10-3.5-4.6-3.4-8.2-2.5-11.5.2-5.3 4.4-10.3 3-15.6.7-9.7-6.7-10.4-6.7-19.7.8-1.5 1.2-3.1 1.8-5 1.8-5.6 0-11.2 0-16.8 0-1.8 0-3.3-.1-3.9-2.2-1-4.3-4-6.3-8.1-6.9-1.3-.2-2.7-.2-3.8-1-1.2-1.8-.1-2.6 1.5-3.3.9-.4 2.6 0 2.1-1.9-1.8-1.5-4-2.4-5.9-3.7-.9-.8-1.4-1.8-1.2-3.1 1.3-3.4 1.4-6.4-2.2-8.5-6 .3-5.7-4.7-7-8.3-3.2-4.3-7-.9-10.5-.7-1.6.2-3-.3-3.7-1.8-.9-2.1-1.9-4.1-3.7-5.7-1.4-1.2.5-1.8 1.2-2.5 2.8-1.3 2.2-4.7 4-6.6 4.6-5.1 4.6-5.1.2-10.2-1.2-1.3-3-2.7-1.8-4.7 1.1-1.8 3-.5 4.6-.4 1.8.1 3.7.1 5.5.1 5.8-.1 9.9-3.5 10.5-9.2.4-4 2.1-6.9 4.8-9.5 3.2-2.9 6-6.2 9.3-9.1 3.2-2.8 4.2-2.4 5.5 1.9-1.3 7.4-5.7 13.4-8.8 20-2.3 4.8-4.8 9.5-7.2 14.2-5.1 9.8-2 18.5 3.5 26.6 3.2 4.6 7.9 8 12 12 1.2 1.2 2.7 2 4.4 2.2 9.7 1.1 19.3 3.3 29.2 3.3 6.3 0 12-2.5 17.4-5.7 2.3-1.4 4.3-3.1 6.6-4.5 3.2-1.2 5.4-3.8 7.5-6.3 3.2-3.8 6.5-7.5 10.2-10.8 6.5-3.2 11.7-7.9 15.7-14.6-6.8-.8-12.7-2.4-15-9.3-.9-2.8 5.4-9.8 10.2-12-3.4-1.7-6.8-2.7-10.6-2.3-3.1.3-6.1.1-7.6-3.3.6-4.6 4.3-2 6.5-2.8 5-.3 10-1 14.5 2 .5.4-.2.3.4.2 8.9-1 10.4 6.5 13.7 11.9 3.5-3.2 3.7-6.9 0-9.8-5-4-10.7-6.6-16.9-8.3-2-.6-3.5.3-5.1 1.4-1.9 1.2-4.2.9-6.3 1.6-3.1.4-6-.9-9.1-.7-2.6.1-3.7 1.9-4.7 3.9-3.1 5.9-5.8 12-7 18.6-.4 2-.9 3.9-2.2 5.5-2 2.4-4.5 3.5-7.5 2.6-3-.9-3.2-3.5-3.2-6.1 0-1.2.1-2.3.6-3.4.5-.9 1.2-1.7 2.1-1.9 4.1-.5 5.7-3.2 6.7-6.7 2.9-7.2 6.7-13.7 12.7-18.9 1.8-1.5 3.7-2.7 6.1-3.3 12.8-3.2 24.7-.4 36 5.7 2.6 1.4 4.3 4 6.6 6.9.2-7.4 1.4-13.7 5.3-20.4-6.5 1.6-12.2 1.2-17.8 2.7-2.6.7-5.2 1.3-7.9.2-2-.8-4.2-1.7-3.4-4.6 6-1.8 12.2-2.4 17.2-4.6-5 1.5-10.7 3.5-16.8 3.9-1.9-2.1-4.1-3.2-7.1-3.6-5.1-.6-7.9-3.7-8.3-7.8 1.6-1.3 3.1 0 4.6.3 1.4.3 2.7.5 4-.1-2.8.9-5.2-.6-7.7-1.3-4.9-1-9.8-2.1-13.1-6.4-1.2-2.7-.8-5.7-1.5-8.5.9 4.1.6 8.5 2 12.5.5 2.8 3.9 6.5-.8 8-4 1.2-4.1-3.3-5-5.9-1.1-3.1-2-6.3-3.5-9.3-2.1-4-5-6.9-10-7-2.4 0-5-.4-6.4-3 2.9-10.3 6-20.4 18-24 4.5-1.3 5.4-5.7 6.2-9.5.9-4.5 2.1-9 3.2-13.5 2.1-8.2 7.2-10.8 15.3-8.1 2.5 1.5 5.5-.3 8 1 6.2 2.7 12.4 5.3 18.4 8.3 4.1 2 7.4 4.9 8.7 9.7.3 1.1 3.1 1.5 4.7 2.2 1.1 3.7-2 2.8-3.5 2.7-6.1-.3-12.2-.4-18.3-.7-2.6-.1-4.9 0-7.3.9-7.5.6-9.1-1.1-6.4-7 4.9-1.6 9.7 0 14 .3-3.5-1.1-7.8-.4-11.9-1.5-.8-.3-1.4-.9-1.9-1.5-1.3-1.8-2.9-3.7-5.1-3-1.7.6-1.6 3-2 4.8-.5 2.3.1 4.1 2.7 4.9 3 .9 2.9 2.7.7 4.7-2.8 1.2-5.9.6-8.1 1.6 4.5 0 9.3-2.6 14.4-.9 3.1 3.3 2.5 5.8-2.1 6.7-4.7 1-9.5 1.9-14.4.9-.6-.1-.3 1-.3.3 0-.2.2-.2.5-.2 3.9.6 4.6 2.6 2.7 5.8 3-1 6.1-1.5 9.3-1.2 5.1.5 5.9 1.9 3.3 6.3-4.3 7.2-5.4 7.8-13.8 6.5 4.3.7 5.2.3 9.6-.3 4.4-.6 9.2-2.2 13.3 1.3.1.5.1 1-.1 1.5-2.8 2.2-5.7 3.8-8.7 4.3 1.7-.7 3.9-.2 5.2 1.4 2.4 3 7.8.4 8.8 5.3.9-.5 1.8-.8 2.8-.8 2.1.3 4-.5 5.9-1 1.6-.1 3.4.2 3.1 2.1-.5 2.7.2 6.1-3.1 7.8-.9.5-2.2.2-2.8 1 2.6-1.8 6.4.4 9.1-2 3-1.9 6-3.3 8.2 1.1.4.8 1.4 1.2 2.1.8 2.7-1.4 5.6-3.3 6-6.1.3-2.4-1.9-4.6-4.7-5.6-5.9-2.2-6.3-4-2.6-8.9-2.1-.6-4.7.7-6.3-1.7-1-3.2-.9-6 3.2-6.8-2.1.4-4.1.3-5.9-.9-1.4-.9-3-1.1-4.7-1.2-5.6-.1-6.5-1.5-5.2-7 3.9-2.3 8.1-2.3 11.7-2.2-3.1-.6-6.8.3-10.4 1.2-3 .7-5.9 1-8.8-.1-1.3-.7-2.5-1.7-3.6-2.6-3.4-2.8-3.4-5-.3-8.6 8.8-.2 17.5.2 26.2.9 4.7.4 9.1 2 11.5 6.8.1.6.2 1.2.3 1.8 2.7 2.2 4.9 4.9 8.3 6 2.9 2.7 4.3 6 4.1 10.1-.1 2.1.3 4.2 1.4 6.1.4 4.7-.8 9.5 2.5 13.8 1.3 1.7 1.5 4.6 1.5 7-.1 10.1 0 20.2-.9 30.3-.5 5.1-3.1 9.9-4.7 14.9-.8 2.6-1.5 5.4-2.2 8-.7.7-1.4 1.5-1.4 2.5 0 7.1-.8 14.3.4 21.4.6 1.3 1 2.8-.1 3.9-1.1 1.2-2.3.2-3.3-.6-.4-.6-1.1-1.2-.9-2.1-.7.7.1 1.2.2 1.8.1 1.8-1.1 3.5-.1 5.3 2.4 3.9 4.7 7.8 7.1 11.7 1.2 1.4 5.5.8 3.9 3.7-1.4 2.5-3.6-.5-5.4-1.3-4.1-1.9-6.5-5.6-9.3-8.8-1.4-1.6-3-3-5.5-4.6-.2 5.8-.7 10.9.4 16.1.6 4.1 1.5 8.1 1.8 12.2.1 1.4-1 2.9-1.5 4.4-1.5-.8-3.4-1.3-4.4-2.5-1.3-1.6-1.9-3.7-2.6-5.3-.1.5-.2 1.7-.8 2.6-.2.3-2.3.1-2.4-.3-.9-3.3-1.5-6.7-2.2-10-2.9-1.2-4.1.9-5 2.9-2.4 4.5-5.8 8.5-9.3 12.4" style="fill:#1b1e21" />
            <path d="m106 232.5c1.1 1 2.2 2.8 3.3 2.8 5.3.3 10.6.4 15.8 0 2-.2 3.9-1.9 5.8-3 6.4-.4 12.9-.5 19.3-.1 6.2 3.4 11.7 1.7 17.5-1.7 2.1-1.2 5.9.4 8.9.8 1 .1 2.1.6 3.1.6 2.6 0 5.8-1.7 6.6 2.8.1.3 1.6.9 2.1.6 4.8-2.5 9.6.6 14.4-.1-4.5 2.5-15.2 1.7-18.3-1.4-.2-.2-.6-.7-.7-.6-6.7 2.7-14.9-6.4-20.9 2.5-.5.7-2.1.8-3.2.8-34.6 0-69.1-.1-103.7-.2-.3-.4-.2-.8.1-1.2 2.3-1.6 5.4-.1 7.8-1.5-.3-1.4-1.9-1.3-2.2-2.5.1-.2.1-.4.2-.5 9.9-3.3 19.1-9.1 30-9.6 2.2-.1 4.3-.2 6.1-1.6 2 1.9 2 3.3-1 4.1-1.3.3-2.5 1.2-3.8 1.8-2.1 1.8-4.9.3-7.1 1.4-1.3.7-3 1.1-2.7 3 .2 1.9 1.8 2.2 3.3 2.3 6.5.5 12.9-.4 19.3.5" style="fill:#a5a29d" />
            <path d="m106.3 127.8c1.6-2.1 3.2-4.2 4.7-6.4.8-1.2 1-2.8 1.9-3.9 2.2-7.5 6-13.8 12.7-18.3 8.7-5.8 13.2-14.8 18.5-23.4 2.7-4.4 7.2-8.1 11.6-11 3.4-2.2 5.1-4.8 6.3-8.4 2.2-6.6 4.6-13.1 7.2-19.5 1.5-3.7 4.1-5.5 8.3-3.2 1.9 1 4.2 1.2 6.3 1.8-1.2.8-2.6.4-3.9.4-7 0-8.9 1.6-11.2 8.4-2 6-2.3 12.3-4.8 18.2-1 2.5-2.5 4.4-5.1 5-4.9 1.1-8 4.5-11 8.1-2 2.3-3.5 4.8-4.1 7.9-.8 4.2-4.7 6.3-6.8 9.7-.2.4-.5.8-.8 1.1-1.7 1.8-3.4 3.6-5.2 5.3-.3.3-.7.6-1.1.8-1.3.8-2.5 1.7-3.6 2.8-.5.5-1 .9-1.6 1.3-5.8 4-7.7 10.1-9.1 16.5-1 3.8-1.6 8.1-6.7 8.9-.9-.4-1.9-.9-2.5-2.1" style="fill:#c4c5c6" />
            <path d="m106.3 127.8c1.1.3 2.1.5 3.2.8.9 4.4-.8 7.6-4.3 10.1-.3-1.8-.2-4.3-3-1.6-4.3 4.2-8.6 8.3-12.6 12.7-1 1.1-1.4 2.9-1.5 4.5-.7 7.8-4.2 11.2-12.1 11.3-3.1.1-6.2 0-9.8 0 2.8 4.5 12.2 8.9 1.8 14.9-.4-.6-.6-1.4-.1-1.8 4.9-4.2 1-6.8-1.7-9.6-.8-.8-1.7-1.6-2.4-2.5-1-1.2-3.2-2.3-1.5-4 1.6-1.7 4.9-3.2 6.1-1.4 3.1 4.6 7.1 2.6 10.9 2.5 3.5-3 7.4-5.7 6.4-11.3-.4-2.6 2.5-3.7 3.5-5.8 1-1 2-2 3-3 3.3-2 5.2-5.5 8.4-7.6l-.3-.3.4.3c1.5-2.7 3.7-4.9 5.6-7.4 0-.3 0-.6 0-.8" style="fill:#535455" />
            <path d="m147 75.4c3.1-2.8 5.8-7.2 9.5-8.1 6.5-1.7 7.1-6.5 8.5-11.3 1.6-5.4 3.1-10.8 4.9-16 1.4-4 4-6.3 8.7-4.7 1.7.6 3.6.2 5.4.3.1.3.1.6.1.9-12.3-1-13.2 4-15.1 12.6-1.1 5-2.2 10-4.1 14.7-.9 2.2-3.3 4.7-5.4 5.2-7.1 1.5-10.4 6.7-13.3 12.4-1.7 3.3-2.9 6.9-4.4 10.4-.5.1-1 0-1.4-.3-.4-.5-1-1.2-.5-1.7 4-4.1 3.9-10.1 7.1-14.4" style="fill:#595b5d" />
            <path d="m64.3 186.6c-.6 2 3.1 7.7 5.7 8.7.1 2.7-2.2 2.3-3.7 2.8-1.8.7-3.8 1.2-5.7 1.5-2.8.4-3.2 2.3-3.2 4.6-1.5 1.4-2.7-.7-4.6-.2.8 3.8-2.2 4.9-4.9 6.3-1.6 1.2-3.7 1.6-4.9 3.3-.3.3-.6.6-1 .8-3-4.4-2.6-6.7 2.9-10.3 5.2-3.4 10.7-6.4 16.3-9.2 2.6-1.3 3.5-2 1.3-4.5-.8-.9-.5-2.7-.6-4.1.9-.4 1.7-.5 2.4.3" style="fill:#c5b9b6" />
            <path d="m42.2 213.2c1.7-1.2 3.3-2.4 5-3.6 4-1.9 5.4 1.6 7.2 3.8 2.4 2.7 1 5.1-1.1 7.3-.6.6-1.2 1.4-2.3.9.8.8 2.1 1 2.6 2.2.2.8.1 1.5-.2 2.2-2.3 2.5-4.6 4.7-8.3 2.5-1.6-1-3.2-2.1-4.9-3.1-1.8-2.8.3-3.8 2.3-4.6 2.1-.9 4.4-1.2 6.6-3.1-2.4-1.6-6.3-.8-6.9-4.5" style="fill:#5d4e4e" />
            <path d="m232.1 214.5c-.3-5.2-.7-10.4-.9-15.6 0-.1 2.3-.9 2.7-.5 4.7 4.3 9.2 8.9 13.9 13.2.9.8 2.2 1.1 3.9.9-1.2-1.1-2.5-2.1-3.7-3.2 2.6 1.5 5.2 2.9 7.7 4.5.1 0-.4 1.2-.4 1.2-2.8-.6-6.1-.5-8.2-2.1-5.1-3.8-9.6-8.3-15-13.2 0 5.3 0 10.1 0 14.8" style="fill:#36393c" />
            <path d="m64.3 186.6c-.8-.1-1.5-.1-2.3-.2 2.5-3.9 5.1-7.8 7.3-11.8.3-.6-1.1-2.3-1.9-3.2-1.5-1.7-3.5-3.2-4.8-5-.9-1.4-1.1-3.2-1.7-4.9 2.8-.5 7.9-1.9 8.1-1.3 2.2 5.5 6.8 2.7 10.2 3.5-3.8.9-7.6 2.6-11-1.5-.6-.7-3.3.3-5.1.6.4 1.2.7 2.4 1.2 3.6.2.4.7.7 1 1.1 5.9 6.1 5.9 6.1 2.6 13-1.2 2-2.4 4-3.6 6.1" style="fill:#d5d5d5" />
            <path d="m195 59.4c4.6-.1 9.2-.2 13.8-.2 4.6 0 9.2.1 13.8.1.5 0 .9-1 1.4-1.6 2.8 1.6 5.9 2.8 8.4 4.8 1.6 1.2 2.4 3.4 3.6 5.1-6.6-7.4-16-5.5-24.3-6.9-4.3-.7-8.9 0-13.4.1-1.2-.2-2.6-.1-3.3-1.4" style="fill:#738896" />
            <path d="m42.2 213.2c2.4.7 4.8 1.5 7.1 2.2.8.3 1.7.6 2.5 1-.5.8-.9 1.9-1.6 2.2-2.2 1.1-4.6 1.7-6.6 3-1.4.8-2.3 2.5-3.4 3.7-3.4-2.2-3.6-4.5-.4-7.3 1-.9 1.5-2.3 2.3-3.5 0-.4.1-.9.1-1.3" style="fill:#caafb1" />
            <path d="m45.1 228.5c2.6-1 5.3-2 7.9-3 .8-.6 1.6-1.2 2.5-1.5 1.5-.4 3.2-.9 4.2.4 1.2 1.6-.5 2.6-1.4 3.7-2.6 2.5-5.8 3.5-9.7 4.2 1.4 1.8 3 1.8 4.6 1.7 1.2 0 2.8-.7 3 1.4 0 .3 0 .6 0 1-1 0-1.9.1-2.9.1-7.5 0-8.1-.6-8.2-8" style="fill:#c8b1b0" />
            <path d="m205.9 231.3c3.2-5.2 6.4-10.4 9.8-15.4.5-.7 2.7-.2 4.2-.2-1.8 2-3.7 4-5.5 6-2.8 3.1-5.6 6.4-8.5 9.6" style="fill:#868689" />
            <path d="m241.9 191.6c3.9 3.4 2.6-.7 3.2-2.2 1 2.2 2.2 4.4 3 6.7.4 1.2-.1 2.6-.2 3.9-1.2-.6-2.7-.9-3.6-1.8-1-1-1.5-2.5-2.2-3.8-.9-.8-.9-1.8-.2-2.8" style="fill:#535557" />
            <path d="m250 91.5c-.6-1.4-1.8-2.8-1.7-4.2.3-4.6-1.8-8.3-4.2-11.9-.2-.3-.3-.5-.2-.7.1-.2.2-.3.3-.3 3.6 2 5.4 5 5.1 9.3-.2 2.6.4 5.2.7 7.8" style="fill:#afb0b2" />
            <path d="m89.1 146.5c-1 3.3-1.4 7-3.1 9.9-1.6 2.8-4.5 4.8-6.9 7.2 1.4-1.6 2.9-3.1 4.1-4.8.8-1.1 1.6-2.6 1.4-3.8-.5-4.1 1.2-6.6 4.5-8.5" style="fill:#d5d5d5" />
            <path d="m245.1 189.5c-.3-7.6-.7-15.2-.9-22.8 0-.4 1.2-.8 1.9-1.1-.3 7.9-.6 15.9-1 23.9" style="fill:#535557" />
            <path d="m106.1 128.5c-1.9 2.5-3.7 4.9-5.6 7.4-.8-4.5.4-7.5 5.6-7.4" style="fill:#d5d5d5" />
            <path d="m244.1 74.4c0 .4 0 .7-.1 1.1-4.3.1-6-3.1-7.9-6.1 2.8 1.6 5.4 3.3 8 5" style="fill:#858688" />
            <path d="m100.5 135.9c-2.8 2.5-5.6 5-8.4 7.6 2.8-2.5 5.6-5 8.4-7.6" style="fill:#d5d5d5" />
            <path d="m241.9 191.6c.1 1 .1 1.9.2 2.9-.4 1.1-.8 2.2-1.2 3.3-.5-2.8-1.1-5.6-1.6-8.3.4-.1.7-.2 1.1-.3.5.7 1 1.6 1.5 2.4" style="fill:#e0e0e1" />
            <path d="m192.1 37.5c-2.7-.3-5.3-.7-8-1 2.7.3 5.4.6 8 1" style="fill:#595b5d" />
            <g style="fill:#f1e3cf">
                <path d="m113 117.5c-.6 1.3-1.3 2.6-1.9 3.9.6-1.3 1.3-2.6 1.9-3.9" />
                <path d="m141.1 91.5c.2.2.5.3.8.3 1.8.6 3.7 2 5.4 1.8 7.1-.9 10 3.7 12.3 9 1.5 3.5 2.3 7.2 3.7 10.7.5 1.3 1.9 2.2 2.9 3.2.2-1.5.6-3 .6-4.5 0-1.1-.5-2.2-.8-3.3.1-1.5-1.9-3.7 1.3-4.3 4.3 2 8.6 4 13 5.9.7 1.2-.7 1.6-1 2.4 1.5 4.4 5 6.8 9.2 6.5 3.7-.3 5 1 5.8 4.1.5.4.5.9 0 1.4 1.1 4.6 4.7 4.1 7.9 3.6 6.4-1 12.8-2.4 19.2-3.5 1-.2 2.1.3 3.2.4-.4.8-.9 1.7-1.2 2.5-2 7-3.9 14.1-5.9 21.3.6.2-.3.2-.4-.2-3.9-9.2-12.5-11.5-20.8-13.3-21.8-4.8-29.9 1-38.3 19.9-.2.4-.5.8-.8 1.2-2.6 1.4-5.5 1.1-8.3 1-1.5 0-3.3-.4-3.5-2.2-.4-3.8-2.6-4.7-5.9-4.3-1.4.2-2.2-1.4-3.6-1.3-.3.8.1 1.6.7 1.6 6.1.3 7.3 6.5 11.2 9.4 1.2.9 1.2 2.3.2 3.6 0 1.2-.3 2.4 0 3.5.7 1.9 1.7 3.7 2.6 5.5 2.3-1.3 5.2-2.1 6.6-4.1 1.4-2 .9-5.1 1.9-7.6 2.3-5.8 4.7-11.6 7.5-17.2.6-1.2 2.9-1.6 4.4-2.3 2.9 1.1 2.4 3.9 3 6.1 2.4.6 5 2.1 7.2 1.8 5.4-.9 9.3 1.8 13.8 4.7-8.7-2-8.4 6.9-12.9 9.6 1.8 2.4 3 5.6 5.4 7 3.1 1.8 7.1 2.2 11 3.3-4.8 6.5-9.5 12.9-17.4 15.9-4.5 2.7-10.3 1.9-14.4 5.4-.2.6-.2 1 .1 1.2 5.2 2.8 5.2 2.8.8 7.1-1.2 1.2-2.3 2.4-3.8 3.2-7.4 6.2-15.6 11.2-25.4 10.8-9.8-.3-19.6-2.2-29.4-3.4-.8-.1-1.8-.2-2.4-.6-10.1-8.8-21.1-17.4-20.5-32.6.2-5.1 3.1-10.3 5.3-15.1 4.3-9.4 9-18.6 13.5-27.9 1.4-3.4 2.9-6.7 4.3-10.1 1.8-2.7 3.7-5.4 5.5-8.1.9-5.4 4.9-8.4 8.9-11.4 2.4-.8 3.6.5 4.6 2.5 1.4 3 3.6 5.4 5.5 8.1 1.1 1.6 2.2 3.4 4.7 2.5 1.9-.4.8-4.1 3.7-3.5.5.7.7 1.5.8 2.3.8 5.8 1 6 6.4 3.8 5.2-2.1 2.8 2.7 3.7 4.1 4.2-.5 4-8.6 10.3-4.5-2.3-3.8-3.7-7.4-5.4-10.8-2.6-3.5-5.4-6.7-9.2-8.9-3.3-3.2-9-3.3-10.8-8.4-.4-1.3-.4-2.6.1-3.9 1-1.2 1.9-1.8 3.1-.9" />
            </g>
            <path d="m195 59.4c1.1.4 2.2.9 3.3 1.3-1.7 3.2-2.3 5.9 2.3 7.2.7.2 1.1 1.5 1.6 2.3 1.6 1.7 3.6.4 5.4.8 1.1.2 2.8-.5 2.7 1.7-.4 3.7-.5 7.1 5 5 1.1-.4 2.6.1 3.8.5 2.7 1 5.2 2.2 7.6 3.1-3.5.6-4.1 3.5-3.4 7.1-3.4-.2-5.9 1.9-8.3 3.7-4.3 3.2-4.8 3.5-8.7-.1-.9-.8-1.7-.7-2.7-.6-1.6.1-3.3.6-4.6-1-.9-.6-1.9-1.8-2.8-1.8-4.1.1-8.2.7-12.3.7-3.2 0-6.4-.4-9.6-1.8 2.6 0 5.3.2 7.9 0 3.3-.3 6.8-.6 6.2-5.7-.1-1 2-2.3 3.3-3.7-4.8-4-10.3.1-15.4-.8 2.7-4.1 2.2-5.5-2.1-5.7-.7 0-1.3-.3-2-.4.7-.6 1.3-1.5 2-1.6 4.9-.5 9.9-.6 14.8-1.2 1.3-.1 2.5-1.4 3.7-2.1-.5-.9-1.1-1.7-1.6-2.6-1.1-1.4-2.6-.5-4-.7-1-.2-2.4.1-2.1-1.7-.4-.9-.9-2.7-1.1-2.7-3.8.5-4.1-1.8-3.7-4.5.4-2.6 1-5.1 1.6-7.6 2.5.7 5 1.3 7.4 2.2.6.2.8 1.7 1.1 2.6.6 1.2-.7 1.6-1 2.5-2.1 5.7-2.1 5.7 5.7 5.6" style="fill:#719ebd" />
            <path d="m199 90.4c1.8-.2 3.6-.5 5.3-.5 1 0 2.3.3 2.8 1 2.7 3.2 5.3 3.1 7.4-.6.9-1.5 1.1-4.1 3.4-1.2.8-1.2 1.6-2.4 2.6-3.8.7.8 1.7 2 2.7 3.1.8 0 1.7.1 2.5.1 1.9 0 3.8 0 5.6 0-1.1 1.2-2.4 2.4-3.4 3.6-1.8 2.1-.2 5.5 3.3 5.3 4.8-.3 3.9 5.5 7.5 5.9-.4.7-.6 1.5-1.1 2-1.5 1.6-3.1 3-4.6 4.6-2.7 2.8-4.9 4-7-.8-1.9-4.3-3.9.2-5.9.3-3.6.9-3.7-1.8-3.8-4.1-.1-3.6 1.3-6.2 5.7-5.9-3.2-.6-6.3-2.4-9 1.1-1.7.4-3.5.7-5.2 1.1.7-4.3-2.1-7.6-6.7-7.7-2.8.1-5.2-.1-2.1-3.5" style="fill:#87b0cd" />
            <path d="m53.1 223.5c-2.5-.4-2.9-1.3-.9-3 2.1-1.8 4.9-3.3 2-6.7-1.2-1.5-.3-2.8.9-3.9 1.6-1.5 3.5-2.5 5.6-3 9.1-2.5 18.1-5.1 27.6-2.6 2.7 2.7 5.7 5.3 1.9 9.3-12 .3-23.6 2.4-33.9 9.2-1 .6-2 1.3-3.2.7" style="fill:#f0e3cd" />
            <path d="m98.1 219.5c-.9 1-2 2.9-2.8 2.8-8.4-1.4-15.2 3.4-22.6 5.8-3.6 1.2-7.2 2.2-10.7 3.3-.3 1.1-1 1.7-2.1 1.9-1.3.3-2.8.4-3.6-.8-1-1.4.4-2.4 1.2-3.3.6-.6 1.2-1.1 1.8-1.7.5-.5 1.3-.9 1.1-1.5-1.3-6 3-7.4 7.2-8.7 4.4-1.4 9-2 13.6-3 3.4-.7 7-.4 9.9 2 2.4 1.1 4.7 2.1 7 3.2" style="fill:#f1e1c8" />
            <path d="m181 143.4c1.9-1.7 6.2.8 6.5-3.7 0-.1 1.5-.4 2.2-.1 6.5 2.8 13.1 5.3 19.3 8.6 4.3 2.3 5.2 7.4 2.7 11.7-.7 1.1-2.4 1.6-3.6 2.3-.5-.9-.9-1.8-1.4-2.7-1.6-3-3-6.2-5-9-.6-.9-2.9-.6-4.4-.9-.9-.1-2 0-2.6-.5-4.4-3.9-9.6-3-14.7-2.6.8-3.7 4.1-1.2 5.8-2.3-1.6.2-3.4.8-4.8-.8" style="fill:#babcb7" />
            <path d="m57 204.5c-2.2-3.8-.8-5.4 3.3-6.1 3.3-.6 6.5-2 9.7-3.1 2.4-.6 4.8-1.5 7.2-1.5 1.4 0 2.7 1.6 4.1 2.5 1.4 5.9.8 6.6-5.4 7.3-4.7.5-9.4 1.5-14.1 2.4-1.7.3-3.9 1.4-4.8-1.5" style="fill:#f3ead5" />
            <path d="m106 232.5c-7.4.3-14.8.7-22.2.8-.8 0-2-2.1-2.3-3.3-.2-1 .7-3 1.4-3.1 3.4-.7 6.9-1 10.4-1.4 5.3.3 11-.1 12.7 7" style="fill:#f0e0c8" />
            <path d="m57 204.5c4.6-.5 9.1-.9 13.7-1.4 1.6-.2 3.3-.7 4.9-.6 4.7.4 6.9-1.4 5.7-6.2.3.3.9.7.9 1-.5 4.6 2.1 6.4 6.2 7-9.5-.4-18.7 1.2-27.6 4.2-3.1 1-8.2 1.2-4.9 7.2.4.7-2.3 3.2-3.6 4.8 3.3-4.9 1.1-9.7-5-10.9 1.3-2 7-1.4 3.7-6.1 1.1-.5 2.2-1.5 3.1-1.3 1 .2 1.9 1.5 2.9 2.3" style="fill:#a9a49e" />
            <path d="m148.1 164.5c-.9-1.4-1.8-2.9-2.7-4.3-1.1-2-5.5-1.9-3.8-5.7-1.2-.3-2.4-.9-3.6-.9-2.7 0-4.2-1-4-3.8.1-.9.4-1.8.7-2.7.8.4 1.6.8 2.5 1.2 1.3.5 2.6 1 4 1.4 2.7.7 6.6-.1 5 5-.1.3 1.6 1.7 2.5 1.8 2.8.3 5.6.2 8.4.2-.2 5.7-4.4 7-9 7.8" style="fill:#949187" />
            <path d="m91.2 216.4c-9.5-2.1-18.2.5-26.9 3.9-2.5 1-3.6 1.8-2.6 4.7.3.9-.9 2.4-1.5 3.7-1.1-.2-2.3-.1-3.1-1.1.9-.6 1.8-1.2 2.7-1.9-.2-.4-.4-.7-.6-1.1-2.1.3-4.1.5-6.2.8 0-.6 0-1.3 0-1.9 8.8-8.1 20.5-8.5 31.1-11.8 1.7-.5 4 1.1 6 1.8.4 1 .7 1.9 1.1 2.9" style="fill:#998e81" />
            <path d="m199 90.4c-.3 1.4-1.9 3.4 1.7 2.5 2.6-.7 5.6-1.4 6.6 2.8.2.8 2.7 1.1 4.4 1.7-1.3 1.5-2.5 2.9-3.8 4.4-1.9.5-3.8.9-6 1.5.7-1.7 3.6-4.5-1.5-3.5-1.3.2-2.8-1.4-4.2-2-2.5-1-5-2-7.4-2.9 3.1-1.5 6.6-3 10.2-4.5" style="fill:#6d97b4" />
            <path d="m164 207.4c2.2-2.4 4.4-4.8 7.1-7.8-1.8-.1-3.1.2-3.9-.3-1-.6-1.7-1.8-2.2-2.9-.1-.3.9-1.6 1.6-1.8 4.8-1.4 9.7-2.6 14.6-3.9-4.4 4.7-8.8 9.4-13.3 14-1.1 1.1-2.5 1.8-3.9 2.7" style="fill:#ab9c8f" />
            <path d="m150.3 232.3c-6.4 0-12.9 0-19.3.1.9-.7 1.8-1.4 2.7-2 7.2-5 10.3-4.6 16.6 1.9" style="fill:#d6c6b0" />
            <path d="m213.1 100.7c.5-1.9 1-3.7 1.2-4.4 2.2.3 3.9.5 5.7.8.9.2 2 .2 2.7.7.8.5 1.3 1.5 1.9 2.3-1.1.3-2.3.6-3.4 1-1.2.5-3.4 1.2-3.4 1.7.2 2.4-2.1 5.9 2.3 6.8-2.1.5-4.1 1.1-6.2 1.4-1.8.3-3.6.3-7 .6 2.5-1.1 3.8-1.6 5-2.1 4.1-1.6 1.9-5.9 3.5-8.5-.7-.1-1.5-.2-2.3-.3" style="fill:#789bb6" />
            <path d="m239.4 123.6c-.2-1-.4-2.1-.7-3.1-.2 0-.5 0-.7 0-.6 6.7-1.3 13.3-1.9 19.4-3.6-4.6 0-26.9 5.6-32.9-.5 5.3-1 10.9-1.6 16.5-.2.1-.5.1-.7.1" style="fill:#456070" />
            <path d="m181 143.4c2.4.1 4.8.3 7.2.4 0 .2 0 .5 0 .7-2.7.7-5.4 1.4-8.1 2.1-1.2 0-2.5-.2-3.6.1-.9.3-1.6 1.2-2.4 1.8-1-2-2-4.1-3-6.1 3.3.3 6.6.7 9.9 1" style="fill:#d1c9b9" />
            <path d="m194.2 124.7c0-.5 0-.9 0-1.4 6.8-1.8 13.5-3.7 20.3-5.5-5.9 5-12.7 7-20.3 6.9" style="fill:#aaa6a1" />
            <path d="m167.3 104.4c-.4 1.4-.9 2.9-1.3 4.3-1.1-4.9-2.3-9.9-3.5-15.1 3 1 6.2 1.4 4.3 6.1-.5 1.3.3 3.1.5 4.7" style="fill:#c8beae" />
            <path d="m210.3 72.7c-2.7-.8-5.4-1.6-8-2.5 7 0 13.9 0 19.2 0-2.7.6-7 1.5-11.2 2.5" style="fill:#5a7d94" />
            <path d="m232 123.8c.9-3.6 1.7-7.2 2.6-10.8.5.1 1.1.3 1.6.4-.8 3.6-1.5 7.3-2.3 10.9-.7-.2-1.3-.3-1.9-.5" style="fill:#526a7a" />
            <path d="m189.2 53.8c.3-.8.7-1.6 1-2.5 5 .7 9.9 1.5 14.9 2.2 0 .1 0 .2-.1.2-5.2.1-10.5.1-15.8.1" style="fill:#5a7d95" />
            <path d="m179.2 112.8c.3-.8.6-1.6 1-2.4 2.8.7 5.5 1.4 8.6 2.2-3.6 4.1-6.5.4-9.6.2" style="fill:#beb5a7" />
            <path d="m184.9 61.3c2 .8 4.1 1.6 6.1 2.4-5.3 0-10.6 0-16.5 0 3.8-.9 7.1-1.6 10.4-2.4" style="fill:#5d8099" />
            <path d="m244.6 124.4c.3-1.3.4-2.7.9-3.9.1-.3 1.4-.2 2.2-.2-.5 1.5-1.1 3-1.6 4.4-.5-.1-1-.2-1.5-.3" style="fill:#49687a" />
            <path d="m168.3 73.3c-1.5.3-3 .6-4.5.8-.1-.4-.2-.8-.3-1.2 1.5-.2 2.9-.4 4.4-.7.1.4.3.8.4 1.1" style="fill:#3d5361" />
            <path d="m175.1 97.3c-1.1 0-2.1 0-3.2 0 0-.2 0-.4 0-.6 1.1-.1 2.2-.1 3.3-.2 0 .3-.1.6-.1.8" style="fill:#53626b" />
            <path d="m57.2 227.5c1 .4 2 .7 3.1 1.1-1.2 1-2.4 2-3.6 3.1.1.3.3.6.4.9 1.7-.4 3.3-.8 5-1.1.6 0 1.4-.2 1.9.1 1 .5 1.9 1.3 2.8 2-1 .7-1.9 1.8-2.9 1.9-2.6.2-5.2 0-7.8 0-3.1-1-7.4 1.7-9.3-3.1 3.5-1.7 6.9-3.3 10.4-4.9" style="fill:#6b6362" />
            <path d="m139.1 92.5c.1 1.3.1 2.6.2 3.9-5.6 4.6-11.9 8.3-16.7 13.9-.5.7-1.1 1.2-1.7 1.8-.5.4-1.2.8-1.8.4-.8-.6-.5-1.4-.2-2.2 1.2-3 3.9-4.7 5.9-7 .3-.3.7-.6 1-.9 1.6-.6 2.7-2 4.1-2.9 2.4-1.6 4.5-3.5 6-6 1-.9 1.7-2.2 3.2-1" style="fill:#595b5d" />
            <g style="fill:#797978">
                <path d="m124.9 103.2c-2 2.7-4 5.3-5.9 8 .3.3.6.5.8.8.7-.8 1.5-1.6 2.2-2.5.6-.7 1.3-.7 2-.1-3 3.6-6 7.3-9 10.9 1.4-6.8 3.1-13.4 9.9-17.1" />
                <path d="m139.1 92.5c-1 .3-2.1.6-3.1 1 .1-.5.1-1.1.4-1.4 4.2-3.9 6.8-8.6 8.5-14 .3-1 1.4-1.7 2.1-2.6-2 4.6-4.1 9.1-6.1 13.8-.3.6.1 1.5.1 2.3-.6.2-1.2.5-1.9.9" />
                <path d="m136 93.4c-2 2-4 4-6 6 2-2 4-4 6-6" />
                <path d="m130.1 99.4c-1.4 1-2.7 2-4.1 2.9 1.3-.9 2.7-1.9 4.1-2.9" />
            </g>
            <path d="m106.9 179.6c-.6-3.1-1.3-6.1-1.9-9.2.7-2.9 1.4-3.3 3.3-1.4 2.1 2.2 3.4 4.8 4.4 7.6.7 2.8 3 4.4 5 6.2 2.2 2 4.3 4.1 6.3 6.2 2.3 2.5 5.2 3 8.8 2.8-.5-3-3.2-4.9-2.1-7.7-2.1-7.1-7.8-11.9-13.6-11.5-2.3-.1-3.6-2.1-5.6-2.9-.6-.3-1.2-.7-1.6-1.1-1.5-1.4-2.9-3.3-1.7-5.2 1.2-2 3.5-1.4 5.4-.5 5.5 2.3 11.1 4.3 15.5 8.7 2.7 2.8 6.1 4.3 10.1 2.7 1.6 6.6 3.6 13.2 4.7 19.9.2 1.2-2.8 3.5-4.8 4.2-3.9 1.4-8 2.1-12 3-4.5 1-7.4-.7-9.5-5-1.9-3.9-4.9-7.4-7.3-11.1-1.4-1.7-2.5-3.6-3.4-5.7" style="fill:#4a3230" />
            <path d="m124.1 109.5c-.7 0-1.3.1-2 .1 5-4.5 9.9-8.9 14.9-13.3.4-.4 1.5 0 2.3.1 3.5 2.4 7 4.9 10.5 7.3 1.9 1.8 2.7 4.3 4.3 6.4 1.4 1.8 2.8 2.5 4.8 2.6 2 3.7 4 7.4 5.8 11.2.3.7-.7 1.9-1.1 2.9-.5-.6-1.3-1-1.6-1.7-1-2.5-1.9-2.4-3.1-.1-.6 1.1-1.5 2-2.5 2.8-1.2 1-2.5 1.9-3.7 2.9-.5-1.8-1.1-3.7-1.6-5.6 0 0-.6.7-1.2.9-2.3.5-4.7 1-7 .8-.5-.1-.7-3.4-.9-5.3-.1-1 0-2 .1-3-.4-3.4 2.8-4.1 4.6-5.8-2.6-3.1-6.2-3.2-9.6-3.7-2.3-.3-2.9 1.1-2.6 3.1.4 2.2 1.2 4.1 2.5 5.9.9 1.3 2.2 2.6 1.9 4.4-1.3 1.8-2.9 1.9-4.7-.4-2.6-3.4-4.7-7.1-7.2-10.5-.6-.9-1.9-1.3-2.9-2" style="fill:#1e2124" />
            <path d="m139.1 174.5c-.7.6-1.4 1.1-2.1 1.7-1.5 1.6-1.9 2.8-4.5 0-4-4.2-9.8-6.7-14.9-9.8-1.4-.9-2.8-1.7-4.4-2.1-1.5-.4-3.1-.2-4.6-.3.7 1.4 1.2 2.9 2 4.2.3.5 1.1.7 1.6 1 0 .2 0 .4 0 .6.7 2.3 1.3 4.7.4 7.1-.2.4-.5.7-1 .8-1.3-2.6-2.5-5.2-4-7.6-.2-.3-1.8.2-2.7.4-1.1-1.9-1.6-3 .8-5 1.6-1.4.3-6.6 4.7-5.8 6.9 1.2 14.8-.4 20.2 6 2.8 3 5.7 5.9 8.5 8.8" style="fill:#b1827b" />
            <path d="m139 122.5c-2-3.4-4.4-6.5-5.8-10.1-1.4-3.7.7-5.8 4.6-4.8 4.2 1.2 8.3 3 12.6 4.6-3.3 2.6-5.7 4.4-8.1 6.3-1.2 1.4-2.2 2.7-3.3 4" style="fill:#e9eae9" />
            <path d="m158.9 112.7c-1.1.7-2.2 1.4-3.6 2.3-1.8-3.8-3.7-7.6-5.5-11.4 3.1 3.1 6.1 6.1 9.1 9.1" style="fill:#aaa69f" />
            <path d="m106.9 179.6c1.1 1.9 2.1 3.9 3.2 5.8-1.9-1.4-5.4-2-3.2-5.8" style="fill:#b0a396" />
            <path d="m131.9 184.5c.5 1.7 1 3.4 1.6 5.1.4 1.1.8 2.1 1.2 3.1-1.2.3-2.4.8-3.6.8-4.5.2-7.6-2.2-10.2-5.6-1.2-1.5-2.6-2.9-4-4.4.3-.4.6-.7 1-.9 2.1-1.1 1.6-2.5.5-4.1-.9-1.3-2.2-2.6-2-4.4.1-.5.4-.8.9-1 1.1-.4 2.1-.1 2.8.7 3.5 4 8.5 6.4 11.8 10.7" style="fill:#cd6960" />
            <path d="m131.9 184.5c-3.3-2.5-6.6-4.9-9.9-7.4-1.7-1.2-3.3-2.6-4.9-3.8-.3-.2-.4-.4-.4-.6 0-.3.1-.4.2-.4.3-.5.6-1.5 1-1.5 5.2-.2 13.5 8 14 13.7" style="fill:#dad0ce" />
            <path d="m118.2 183.4c-.4 0-.8.1-1.2.1-1.7-1.9-3.5-3.9-5.2-5.8.2-.1.3-.2.5-.3 3.4.6 5.3 2.6 5.9 6" style="fill:#cc776e" />
            <path d="m116.9 172.2c.1.3.1.7.2 1 0 0 0 .2 0 .2-3.6 1.4-4.1-1.5-5.2-3.7.1-.2.2-.3.3-.5 1.6 1 3.2 2 4.7 3" style="fill:#b1827b" />
            <path d="m111.9 169.7c1.7 1.2 3.4 2.5 5.2 3.7 1.1 1.8 2.4 3.5 3.3 5.3 1.1 2.2 1.9 4.6-2.2 4.6-2-2-4-4-6-6-.1-2.4-.2-5-.3-7.6" style="fill:#efa99e" />
        </g>
        <g id="funky_3_">
            <path d="m175.9.7c4.5 0 9-.1 13.4 0 .9 0 2.5.7 2.6 1.3.6 4.6 1.3 9.2 1.1 13.8-.1 2-2.6 3.8-4 5.7-1.3 1.1-2.3 2.9-4.6 2.4-.2-.2-.5-.4-.7-.6-.3-.2-.6-.2-.9-.2-.5 0-.6-.1-.5.1.3.3.4-.1.7 0 .5.1.9.3 1.2.6.5.7.4 1.3-.1 1.9-2.7 1.3-5.3 2.7-8 4-.6.4-1.3.6-2 .7-4.5-1.4-5.5 2.1-6.2 5-1.2 4.8-2.8 9.5-4.5 14.1-1.1 3.5-3.3 6.4-4.6 9.8-1.4 3.4-5.1 3.2-7.9 4.4-3.5 1.1-4.4 5.7-8.3 6.2-2.6.3-5.1.6-7.7-.1-.3-.4-.5-.8-.6-1.3-.1-1.9 1.1-3.2 2.1-4.6 2.7-3.5 7.1-2 9.3-3.4 1.9-.3.9-1.2 1.2-.6 0 .1-.1.2-.3.2-1.2 0-2.2.6-3.4.7-2.6.1-5.3.2-7.9-.3-1.3-.2-.8 3.2-3.2 2.6-2.1 2.2-5 .6-7.4 1.6-1.3.9-2.8 1.3-4.4 1.6-1.4.7-2.3-1.8-3.8-.6-1.2.6-2.5 1.2-3.8.7-2.8-1-4.3.6-5.6 2.6-3.6.5-7 1.4-9.9 3.9-1.7 1.4-3.9 1.7-6.1 1.4-2-.3-3.6.2-4.5 2.2-2.2 1.7-5 2-7.3 3.3-1.1.5-2.5-.2-3.5.7-.3.3-.7.4-1.1.5-1.5 0-1.8 1.4-2.7 2.1-1.6.8-2.7 2.2-3.7 3.7-2.8.9-5.2 2.9-8.2 3.2-2.4-1.2-4.6-2-5.2 1.9-.2.4-.5.8-.8 1.2-1.2.8-2.7 1-4 1.6-1.4.6-2.8.4-3.5-.9-1.9-4-5.4-3.8-8.9-3.8-5.9-1.2-11.7-2.8-17.9-3-5-.2-9-4.8-14.3-4.7-1.5-.3-2.7-1.3-3.2-2.8 0-25.2.2-50.3.1-75.4 0-3.5 1.6-3.6 4.2-3.6 25.8.1 51.6.1 77.4.2 1.2 2.1-.7 2.8-1.5 3.9 2.2-1.2 4.9-1.6 7.6-1.1 1 .2 2 .6 2.2 1.7.2 1.1-.5 1.9-1.4 2.4-2.9 2-6.5 2.3-9.1 3.2-1.3 0-.4 1.1-.7.4-.1-.2 0-.3.3-.3 5 .5 9-1.7 12.6-4.8 1.3-1.1 2.5-2.8 4.7-2 1.6 1.6.2 2.7-.8 3.7-1.1 1.2-2.5 2.2-2.8 4.1 2.1.2 3.2-1.2 4.6-2 4.1-2.1 8.3-4.2 13.1-2.3.8.3 1.6.5 2.4.4 5.1-.5 5.1-.5 3.2 4.7 4.2-1.8 8.6-2.5 12.7-4.2 3.6-.3 4.4 2.9 6.4 4.8 1.2 1.5 4.6 1.1 3.8 4.5 2.1-1.7 4.1-3.4 5.5-6.1-4.4 2-6.6-.1-7.8-4 .7-3.8 4-6.6 8.2-6.8 1.8-.1 3.7 0 5.5 0 3.6 0 6.9 2.5 10.8.2 1.8-1 2.6 1.5 1.9 3.3-1 2.4-2.9 4-5.4 4.9-1.9.7-3.8 1.2-5.4 2.4 1.3 4.2-1.5 6.8-3.7 9.6 2.6-2.6 3.9-6.3 7.5-8 .6-.2 1.2-.4 1.8-.7 1.5-2.1 3.1-4.2 5.2-5.8.6-.8 1.2-1.6 2-2.2 1.7-1.3 2.6-4.7 5.3-3.4 2.3 1 .9 3.9 1.3 5.7.5-1.8-1-4.6 1.9-6.2" />
            <path d="m131 9.4c-4.1 1.8-8.2 3.6-12.4 5.2-.4.2-2.1-1.4-2-1.6.8-1.8 1.8-3.5 2.2-4.1-2.4-.2-5.2-.8-7.9-.4-3.6.5-7.1 1.9-10.6 2.9-2.3.7-4.6 1.5-6.9 2.2 1.3-2.1 2.6-4.3 3.9-6.4.6-.9 1.2-1.8 1.9-2.7.2-.2.3-.3.5-.5 3.3-1.4 6.9-2 10.3-3.4 2.3 0 4.6 0 6.9 0 1 1.5 2 1 3.1 0 .7 0 1.5 0 2.2 0 .6.6 1.3 1.2 1.6 2 .6 1 .2 3.1 2.4 2.5 1.8-1.7 5.8-.5 5.9-4.5 2.4 0 4.7 0 7.1-.1 1.1 1.1 4.4.5 1.1 4.2-3 3.5-5.1 5.4-9.3 4.7" style="fill:#2986b0" />
            <path d="m68.1 185.7c0 3.6 0 7.1 0 10.7-2.4.7-3.8-1.4-5.8-2-12.1-8.9-26.1-14.5-38.4-23-6.1-4.3-12.2-8.6-18.2-13.2-1.3-1-2.4-2.3-3-3.9-.1-1.5-.1-2.9 0-4.4 2-1.6 3.3.1 4.7 1 2.6 1.7 4.9 3.8 7.4 5.7 11.9 8.7 23.6 17.8 37 24.2 4.5 2.2 8.4 5.3 12 8.8.7.2 1.6 2.2 2.2-.1.3-1.5-.6-3.7 2.1-3.8" style="fill:#a5d4dd" />
            <path d="m3.1 149.5c0 1.6.1 3.2.1 4.8.4 1 .9 2.1 1.1 3.2-.2 9.4.9 18.9.3 28.3.2 15.7-.1 31.3-.2 46.9-.3 1.2-.3 2.6-2.1 2.6 0-29.8-.1-59.6-.1-89.4 0-22.1.1-44.3.1-66.4 3.2 1 6.7 1.4 9.6 3 8.3 4.4 17.8 3 26.3 6.1 1.5 1.1 3.3 0 4.7.7 1.8.9 4.4 1.3 3.4 4.4-1.4.6-2.6-.1-3.8-.5-7.1-2.6-14.4-3.9-21.9-3.8-4.2.1-8-.4-11.5-3.5-2.9-2.5-4.3-1.7-4.4 2.2-.2 6.6 0 13.3-.1 19.9 0 3 2 5.2 2.9 7.8.2.8 0 1.5-.6 2-4.5.3-1.3 3.4-1.9 5.2 0 1-.3 2-.3 3 .1 6.9-.2 13.9.2 20.8-.2 1.1-.6 2.2-1.8 2.7" style="fill:#323836" />
            <path d="m2.3 235.3c.3-.7.6-1.3 1-2 .5-.4 1-.6 1.6-.7.9-.1 1.8 0 2.6.2 10.6.6 21.2.1 31.8.2 1.8 0 3.7 0 5.5.3 7.7 1.4 15.4.8 23.1.4.6-.1 1.2-.1 1.8 0 9.5.8 19 .1 28.4.4 2.3.1 4.7-.5 6.6 1.4-1.5.3-3 .9-4.6.9-21 0-42 0-63 0-1.8-.6-3.5-.6-5.3 0-8.7 0-17.5.1-26.2.1-1.1-.1-2.2-.8-3.3-1.2" style="fill:#7c898b" />
            <path d="m175.1 31.5c-2.8 6.9-5.7 13.7-8.4 20.6-.9 2.3-.9 4.9-1.5 7.3-1.2 4.3-3.1 7.4-8.2 8.9-3.7 1.1-6.6 4.8-9.9 7.3-1.1-1.1-.6-2.3-.1-3.5 2.3-3.9 6-6.1 10.1-7.6 2.3-.8 3.9-1.9 3.3-4.6-.2-3.5 1.3-6.7 2.2-10 2.7-5.2 4.5-10.8 7.5-15.9 1-1.7 1.7-3.6 3.8-4.3.7 0 1.5-.1 2.2-.1-.3.6-.6 1.3-1 1.9" style="fill:#787a7a" />
            <path d="m99.1 4.4c-2.2 1.6-4.3 3.7-6.8 4.7-4.1 1.7-8.5 2.7-12.8 4.1-.3-.7-.5-1.3-.8-2 4.3-1.7 8.7-3.4 13-5.1-.1-.6-.3-1.2-.4-1.8-3.8.7-7.7 1.3-11.8 2 1.7-2.1 3.2-3.9 4.6-5.7 6.3 0 12.6 0 18.9 0 .5 3.2-2.5 2.8-3.9 3.8" style="fill:#287191" />
            <path d="m131 9.4c.1-.1.1-.4.2-.4 3.5.1 5.6-1.2 8.1-4.3 2-2.5-.5-2.8-.1-4.1 9 0 18 0 27 0 3.1.3 4.2 1.3 1.7 4-.9 1-2.7 1.6-1.9 3.5-1.7 2.1-3.4 4.1-5.1 6.2-1.4-3.6-4.7-1.2-7-2.2-.4-.2-.7-.5-.9-1 3.4-1.8 7-3.6 10.3-5.6.8-.5.9-2.2 1.4-3.3-1 .3-2.1.6-3.1 1.1-2.1 1.1-3.7 3.1-6.1-.5-1-1.5-5.4-1.9-7.7-1-3.2 1.2-7.9 1.6-7.8 6.9-1 1.9-2.5 3.6-2.9 5.9-2-1.8-4.1-3.5-6.1-5.2" style="fill:#01050a" />
            <path d="m63.1 193.5c1.7 1 3.3 1.9 5 2.9 11.1 11 22.1 22.1 33.2 33.1.2.9-.3 1.3-1.1 1.5-.5 0-1 0-1.4-.2-10-7.9-18.1-17.9-27.2-26.9-3.1-3.1-7.6-4.8-9.8-9 0-.7.6-1.1 1.3-1.4" style="fill:#56787b" />
            <path d="m141.3 87.6c-5.3 5.4-10.9 10.6-15.8 16.3-3.3 3.8-5.6 8.4-8.3 12.6-2 3.1-3.9 6.1-5.9 9.2-1.8-1.4.3-2.6.1-3.8-2.5 1.3-2.2-.9-2.7-2.1-.1-.7.1-1.3.5-1.9.8-1.1.8-2.6 1.8-3.5.5-.2.9-.1 1.3.1.5.1.5 1.3.7.9 2.4-4.9 4.2-10.3 9.4-13.2 4.6-2.5 9.4-4.7 11.2-10.2 1.2-2.5 2.8-4.5 5.7-5.2.8-.1 1.5.1 2 .8" style="fill:#767574" />
            <path d="m100.1 230.5c.4-.3.7-.7 1.1-1 1.2 1.7 2.5 3.4 3.7 5.1-12 .6-23.9.8-35.9-.1h-.5l-.5.1c-7.7.8-15.4.9-23-.1-10.6 0-21.2.1-31.9 0-2.4 0-4.9-.5-7.3-.8 2.3-2.3 5.3-1.6 8-1.6 26.9-.1 53.8 0 80.8 0 1.9-.1 4.2.6 5.5-1.6" style="fill:#b5dee3" />
            <path d="m109.2 119.5c.9.6 1.8 1.1 3.2 2-.1.5-.7 2.4-1.2 4.2-.8 1.5-1.5 3.1-2.3 4.6-.4.9-.8 1.7-2 1.3-.7-.6-1.1-1.5-1.3-2.4-.1-.8.3-1.5.5-2.2-.9 1.1-1.2 2.6-2.9 2.8-.5-.1-.9-.3-1.3-.5-1.6-1.2-4.5.1-5.1-2.7.2-.3.4-.5.7-.6 1.1-.1 2.8.3 1.6-1.9 3.9-.5 7.1-2.3 10.1-4.6" style="fill:#584f44" />
            <path d="m166 8.2c-.6-.4-1.2-.8-1.9-1.3 1-1.1 1.9-2.4 3-3.3 3-2.2-.7-2-1-3 3.2 0 6.5 0 9.7 0-.3 3.4-.7 6.7-1 10.1-.5 0-.9.1-1.4.1-.3-3.1-.6-6.2-.9-9.7-2.4 2.7-4.5 4.9-6.5 7.1" style="fill:#3982a1" />
            <path d="m132.1.7c1.5 2.4 2 4.1-1.9 4.2-1.3 0-2.7 1.1-4 1.7-3.3.3-1.9-2.9-3.1-4.1-.3-.6-.6-1.2-.8-1.9 3.2.1 6.5.1 9.8.1" style="fill:#01050a" />
            <path d="m68.1 185.7c-.5 2.2-1 4.4-1.5 6.9-1-.6-2.2-1.4-3.4-2.1 1.2-1.9-1.9-2.2-1.5-3.9.5-2.3 1.6-4.3 2.2-6.6.5-2 1.8-3.8 4.3-1.9.5.9.3 1.7 0 2.6-.3 1.1-.2 2.1-.1 3.2 0 .2 0 .4.1.7-.1.3-.1.7-.1 1.1" style="fill:#63787e" />
            <path d="m69.1 234.4c12 0 23.9.1 35.9.1 0 .3-.1.6-.2.9-10.2 0-20.4 0-30.6 0-1.7 0-3.4-.6-5.1-1" style="fill:#7a898c" />
            <path d="m99 4.5c1.3-1.3 2.7-2.6 4-3.9 2.3 0 4.7 0 7 0-3.6 1.3-7.3 2.6-11 3.9" />
            <path d="m184.1 23.6c1.6-.7 3.2-1.4 4.8-2.2-1.6 1.4-3.2 2.7-4.9 4.1.1-.6.1-1.3.1-1.9" style="fill:#6c6d6d" />
            <path d="m120 .7c-.7.8-1.4 1.7-2.1 2.5-.3-.8-.6-1.7-1-2.5 1 0 2.1 0 3.1 0" />
            <path d="m107.2 131.7c.6-.5 1.1-1 1.7-1.4-.8 1.8-1.7 3.6-2.5 5.4-.2-.2-.4-.3-.6-.5-.6-1.6 0-2.7 1.4-3.5" style="fill:#c5c5c5" />
            <path d="m71.2 180.6c0 .3 0 .7.1 1-1 1-2.1 2-3.1 3-.1-.2-.2-.3-.4-.5-.4-1.2.1-2.2.9-3.1.8-.5 1.5-1.1 2.5-.4" style="fill:#63787e" />
            <path d="m31.9 236.3c1.8 0 3.5 0 5.3 0-1.8 0-3.5 0-5.3 0" style="fill:#cae5e7" />
            <path d="m7.1 116.5c-3.6-2.9-4.3-6.6-4-11 .4-6.3.1-12.6.3-19 0-1.3.4-3.4 1.2-3.7 1.1-.4 3.4-.1 4.1.8 4 5.3 9.6 3.8 15 4.4 7.6.9 15 3.7 22.4 5.7 1.4.9 2.9 2.2 4.2-.2 1.3-.3 2.6-.6 4-.9 5.9.8 9.5-3.5 13.9-6.2-.1-2.8 1.6-3.7 4-4 .4-.3.8-.4 1.2-.2 3.1 1.3 5.2-.9 7.6-2.2 1.9-1 3.4-2.4 5.2-3.6-.2-2.9 1.4-3.7 4.1-4 2.6-.2 5-1.4 7.5-2 3.1-.7 6.2-1.3 9.3-2 2.2-4.8 5.4-2.6 8.5-1.2 0 3.8-3.7 6-4.4 9.6-2 6.8-6.1 12.4-10.3 18-.8.8-1.8 1.5-2.5 2.4-3.3 3.1-5.1 7.2-7 9.6 1.3-2 3.7-4.9 5.9-7.9.9-1.1 1.7-2.3 2.9-3.3 1.3-.8 3.3-2.6 3.6.4.4 3.7-.1 8.6-3.4 9.8-6.6 2.5-8.4 7.5-9.5 13.3-9.7 12.6-17.3 26.5-26.1 39.6-1.1 1.7-2 3.6-4.5 3.3-13.4-12.2-28.7-22.1-42.1-34.3-3.9-3.5-8.7-6.2-11.1-11.2" style="fill:#f7d3b8" />
            <path d="m138.8 87.4c-1.6 1.7-3.1 3.4-4.7 5.1-2.6 4.6-7.1 7-11.2 9.8-3.6 5-7.1 9.9-10.5 14.6-.1-.4-.2-1.4-.3-2.5-2-4.1 1.7-7.1 2.1-10.8 1.1-3.3 2.8-6.2 5.2-8.9 4.4-4.8 7.2-10.6 10.2-16.4 1.4-2.8 2.9-5.5 5-7.9 2.6-.5 5.5.3 7.7-1.9 2.7-2 5.3-4.1 8-6.1 1.7-.8 3.4-.9 5 .1.1 2.6-2.3 3.2-3.8 4.5-1.3 1.2-2.9 2.1-3.7 3.7-2.8 4.3-3.8 9.6-6.7 13.8-.8 1.2-1.1 2.4-2.3 2.9" style="fill:#dccbbb" />
            <path d="m137 64.5c-.7 1.3-1.4 2.6-2.1 3.8-5.9 11.1-10.8 22.7-19.9 31.8-2.6 2.1-2.5 5.2-3.2 8-.2.5-.4.9-.6 1.4-.8 1.2-1.5 2.6-2.3 3.7-1.2 1.6-2.5 3.4-4.7 2.5-2.5-1-2.3-3.3-1.8-5.4.2-1 .4-1.9.6-2.9 2.6-5.3 4.8-10.9 7.1-16.3 1.2-1.8 2.1-3.8 2.9-5.8 2.7-6.9 6.9-12.8 12.6-17.6 2.1-1.8 3.9-3.9 6-5.7 2 .4 4.9-1.3 5.4 2.5" style="fill:#f5d8c1" />
            <path d="m119.9 65.4c1.4-.6 2.8-1.3 4.2-1.9 2.2-1 3.7-1 2.7 2.1-.4 1.1-1.1 2.1-1.9 2.9-5.3 4.8-8.6 10.8-11.8 17-.5 1-1.2 2.2-2.5 2-1.4-.3-1.4-1.7-1.5-2.8-.2-1.9.7-3.4 1.3-5.1 1.9-5.5 4.1-11 9.5-14.2" style="fill:#ddcbbf" />
            <path d="m126.1 46.3c-1.9-.6-3.7-1.1-5.6-1.7-1.1-.4-2.2-1-3.3-1.5 1.1-.5 2.2-1 3.4-1.6-4.4-1-8.8-2.1-13.2-3.1.1-.2.3-.4.4-.7 6.9-.5 13.7-1.1 21-1.6-1.1 1-2.4 2.1-3.6 3.2-.7.7-1.3 1.5-1.9 2.2.9.6 1.9 1.6 2.8 1.6 2.6 0 5.3-.4 7.9-.7-1.3 4.1-5.5 2-7.9 3.9" style="fill:#194155" />
            <path d="m110 84.5c.1.8.2 1.6.2 1.8 5.2-6.8 10.7-13.8 15.9-21.1 2-2.8-1.2-1.2-1.9-1.7 1.3-.2 2.7-.3 4-.7 1-.3 1.9-.9 2.9-1.4.6.3.6.7 0 1-1.8 2.3-3.8 4.5-5.4 7-4.9 7.3-9.7 14.7-14.5 22-3-1.9-5.1-3.9-1.2-6.9" style="fill:#312d29" />
            <path d="m114.1 99.5c7.4-7.6 12.4-16.7 17.1-26 .9-1.9 2.5-3.4 3.8-5.1 0 .4.1.8.1 1.2.6.3.7.8.3 1.3-6 9.3-9.6 20-17.8 28-1.2 1.2-1.6 3.2-2.4 4.9-1.1-.7-1.3-1.8-1.5-2.9-.1-.7.1-1.1.4-1.4" style="fill:#3c3731" />
            <path d="m173.9 29.7c-3.6 6.5-7.3 13.1-10.9 19.6-.4-.1-.6-.4-.7-.8 2.1-6 4.2-12 6.3-18 1.3-3.8 3.1-3.7 5.3-.8" style="fill:#bbb9ad" />
            <path d="m137.1 14.5c-2.6-3.7 1-4.4 2.9-5.9 2.6 4.3 5.5 3.7 8.6.1.4.5.7 1 1.1 1.4-3 3.6-5.9 7.2-8.9 10.7-.6-.1-1.1-.1-1.7-.2 2.9-3.8.4-4.9-2-6.1" style="fill:#3e8aad" />
            <path d="m126.1 46.3c.3-.6.5-1.6 1-1.8 2.3-.8 4.6-1.3 6.9-2 1.7-.7 3.5-1.5 5.2-2.2.3.4.5.9.8 1.3-1.6 1-3.2 2.1-4.8 3.1-3 3.1 1 2.5 1.9 3.6 3-.2 6.1-.4 8.8-.6-3.2 5-9.1 3.5-15.1 1.2-1.6-.7-3.1-1.7-4.7-2.6" style="fill:#216381" />
            <path d="m162.3 48.5c.2.3.5.5.7.8-.6 3.8-1.2 7.5-1.9 11.3-1.5 2.1-3 4.3-6.1 2.8-1.6-.3-3.2-.5-4.8-.8 8.6-.8 8.9-8.7 12.1-14.1" style="fill:#b1b3ae" />
            <path d="m131.1 62.5c0-.3 0-.7 0-1 1.1-.1 2.2-.1 3.3-.2-1-.9-2-1.8-2.6-2.4 5.5.3 11.1.6 16.4.9-3.4 1.4-7.3 3.1-11.1 4.7-2.1-.7-4-1.3-6-2" style="fill:#768889" />
            <path d="m159.2 14.4c-1.7 1.8-3.6 3.6-5.2 5.5-1.4 1.7-2.4 3.7-3.6 5.6-.7-.7-1.5-1.3-2.2-2 1.2-1.7 2.3-3.5 3.6-5.1 1.4-1.7 4-3 .6-5.2-.1-.1.5-1.4.8-2.1 0 0 .1.3.1.3 1.4 1.9 5.6-1.5 5.9 3" style="fill:#0e1f29" />
            <path d="m137.4 53.7c5.6-2 11.5-4.2 16.8-6.1-1 4.8-9.9 8.7-16.8 6.1" style="fill:#284958" />
            <path d="m119.9 65.4c-2.9 4.7-5.9 9.4-8.8 14.1-1.2-.7-.4-2.1-1-3 1.7-3 3.4-6 5.1-9 .2-1.3.9-2.3 1.8-3.2 1 .4 2 .8 2.9 1.1" style="fill:#363330" />
            <path d="m68 86.4c-3 2.4-5.9 5-9.2 7-1 .6-3.1-.5-4.7-.9-.1-.3 0-.6 0-.9 1.8-1.3 3.8-1.8 5.9-2.1 2.7-1 5.4-2.1 8-3.1" style="fill:#908379" />
            <path d="m86 76.4c-3 2.4-6 5-9.2 7.1-.8.5-2.5-.6-3.8-.9.3-1.1 1.3-1.4 2.1-2.1 1.1-.9 2.7-.3 3.8-1.2 1.7-2.5 4.3-3 7.1-2.9" style="fill:#96877c" />
            <path d="m121.8 32.7c-4.7 1.1-9.3 2.2-14 3.2-.1-.5-.2-1.1-.4-1.6 4.6-1.3 9.3-2.5 13.9-3.8.2.8.3 1.5.5 2.2" style="fill:#23414f" />
            <g style="fill:#1e1e1d">
                <path d="m60.1 89.6c-2 .7-4 1.4-5.9 2.1.6-1.6 1.2-3.1 1.7-4.7 1.4.8 2.8 1.7 4.2 2.6" />
                <path d="m50.2 93.5c-.2 1-.5 2-.7 2.9-1.2-.9-2.3-1.8-3.5-2.8-.4-5.2-5.5-3.2-7.9-5.2 4 0 8.1-.6 9.6 4.7.1.4 1.6.3 2.5.4" />
            </g>
            <path d="m102.7 29.7c-.3 1-.3 1.3-.3 1.3-2.3-.1-4.6-.2-6.9-.3.1-.6.2-1.7.2-1.7 2.3.2 4.7.5 7 .7" style="fill:#295165" />
            <path d="m117.1 64.3c-.6 1.1-1.2 2.1-1.8 3.2-3-1.6-5.8-2.1-8.3.9-.1-3.1 1.4-4 4.4-3.7 1.8.2 3.8-.2 5.7-.4" style="fill:#60615d" />
            <path d="m159.2 14.4c-1.5-.5-3-1-4.4-1.6-.6-.3-1.1-.8-1.6-1.3 1.5-.2 3-.1 4.4-.6 3.8-1.3 4 .6 3.4 3.4-.7.1-1.3.1-1.8.1" style="fill:#467c96" />
            <path d="m135.3 70.8c-.1-.4-.2-.9-.3-1.3 2.4-.3 4.8-.6 7.1-.9-.9.9-1.9 1.7-2.8 2.7-1.6 2.1-2.8.9-4-.5" style="fill:#5f5953" />
            <path d="m62.8 18.3c1.7.3 3.3.6 5 1 .1 0 0 1.3 0 1.3-1.8.1-3.5.1-5.3.1.1-.9.2-1.6.3-2.4" style="fill:#275369" />
            <path d="m53.1 58c.9 1.9 1.8 3.8 2.7 5.6-.5.2-1 .5-1.5.7-.9-1.9-1.9-3.7-2.8-5.6.5-.2 1-.5 1.6-.7" style="fill:#243d4a" />
            <path d="m52.1 14.4c.1.1.3.1.4.3.8 1.3 1.6 2.6 2.3 3.9-.4.2-1.1.7-1.2.6-1-1.2-1.8-2.4-2.7-3.6.2-.7.6-1 1.2-1.2" style="fill:#112e3b" />
            <path d="m137.1 48.3c-1.6-.6-3.1-1.2-4.7-1.8.9-.6 1.9-1.2 2.8-1.8.7 1.2 1.3 2.4 1.9 3.6" style="fill:#092336" />
            <path d="m52.4 88.3c-.9.7-1.4 1.2-1.9 1.7-.8-.9-1.7-1.8-2.3-2.9-.1-.2.8-1 1.2-1.6.9.9 1.8 1.7 3 2.8" style="fill:#2e4a58" />
            <path d="m89.7 25.4c1.3.4 2.6.7 3.9 1.2.2.1.1.8.1 1.3-1.4-.2-2.9-.4-4.3-.6.1-.6.2-1.2.3-1.9" style="fill:#25404d" />
            <path d="m74.3 62.4c-.5-1.6-1.1-3.1-1.6-4.7.4-.2.8-.3 1.2-.5.8 1.5 1.5 3.1 2.3 4.6-.7.2-1.3.4-1.9.6" style="fill:#315160" />
            <path d="m58.1 40.1c.5 1.6 1.1 3.1 1.6 4.7-.4.1-1.2.4-1.2.3-.7-1.4-1.3-2.8-1.9-4.2.6-.3 1.1-.6 1.5-.8" style="fill:#315060" />
            <path d="m79 39c.6 1.6 1.2 3.1 1.8 4.7-.4.2-1.2.5-1.2.4-.7-1.5-1.3-3-1.9-4.6.5-.1.9-.3 1.3-.5" style="fill:#315160" />
            <g style="fill:#4e4742">
                <path d="m78.9 79.3c-1.3.4-2.5.8-3.8 1.2-.3-5.4 2.3-1.6 3.8-1.2" />
                <path d="m75.1 80.5c-.7.7-1.4 1.4-2.1 2.1-.3-.1-.6-.1-1-.2.4-1.1.9-2.2 1.3-3.3.6.4 1.2.9 1.8 1.4" />
            </g>
            <path d="m76.3 24c.7.7 1.3 1.2 1.6 1.9.1.2-1 1.2-1.1 1.2-.7-.5-1.4-1.2-2.1-1.8.5-.4.9-.8 1.6-1.3" style="fill:#264050" />
            <path d="m184.1 23.5c-.2 0-.3 0-.5 0-1.2.4-2.5.7-3.7 1.1 0-.3-.1-.6-.1-.9 1.5 0 2.9-.1 4.3-.2" style="fill:#28363a" />
            <path d="m180 11.4c0 1.5 0 3.1 0 4.6-.3 0-.5 0-.8 0 0-1.5 0-3.1 0-4.6.3 0 .6 0 .8 0" style="fill:#6195ad" />
            <path d="m52.1 14.4c-.4.4-.8.8-1.2 1.2-.4-1-.7-1.9-1.1-2.9.8.6 1.6 1.2 2.3 1.7" style="fill:#264756" />
            <path d="m159.4 18.1c-.7.6-1.2 1-1.7 1.2-.2.1-.6-.5-.9-.7.4-.5.8-1 1.4-1.3.1-.1.6.4 1.2.8" style="fill:#0e1f29" />
            <path d="m94.3 52.5c0-1.2 0-2.4 0-3.6.2 0 .4 0 .6 0 .1 1.2.1 2.3.2 3.5-.3 0-.5.1-.8.1" style="fill:#3a4c55" />
            <path d="m123 2.5c1 1.4 2.1 2.7 3.1 4.1-4.1 1-2.7-2.2-3.1-4.1" style="fill:#0c3a50" />
            <path d="m63.1 193.5c-.4.4-.7.7-1.1 1.1-4.7.4-7.2-3.6-10.9-5.4-16.6-7.9-32.3-17.2-46.1-29.5-.7-.6-1.2-1.4-1.9-2 0-1.1 0-2.2.1-3.4 13.8 12 29.3 21.4 45.3 30.1 5 2.6 9.7 6 14.6 9.1" style="fill:#2c4c54" />
            <path d="m62 186.6c.7.8 1.5 1.6 2.2 2.5.3.4.5.8.8 1.2-.6 0-1.3.1-1.9.1-6.7-4.4-13.5-8.6-20.1-13.1-9.7-6.6-19.3-13.3-28.9-19.9-.2-1 .4-1.3 1.2-1.5 5.6 1.2 9.3 5.5 13.7 8.6 9.8 6.8 20.5 12 30.4 18.6 1.1.9 3.4 1.1 2.6 3.5" style="fill:#325961" />
            <path d="m15.3 156.3c-.4.4-.8.8-1.2 1.2-3.7-2.6-7.3-5.3-11-7.9.3-.7.6-1.3 1-2 4.5 1.8 8.9 3.9 11.2 8.7" style="fill:#527e86" />
            <path d="m5.2 158.4c14 12.5 30.2 21.5 46.7 30 3.5 1.8 6.8 4.1 10.2 6.1 12.5 11.9 24.9 23.9 37.4 35.8-.9 1.2-2.1 1.2-3.4 1-3.2-2.3-5.6-5.4-8.2-7.4 1 2.5 5.7 3.1 5.8 7.2-4.5 4.2-9.2 1.1-13.3-.4-3.1-1.1-5.8-2.2-9-.9-1.3.5-3.1.5-3.8-.4-4.1-5.4-11.2-3.9-16.1-7.5-2.4-1.8-5.4-2.7-5.2-7.6-2.7 4.5-5 4.3-7.5 1.6-1.3-1.4-2.9-2.7-4.8-1.5-3.8 2.5-7.2 1.7-10.6-.6-.6-.4-1.5-.7-2.4-.7.9 1.6 3.2 3 1.4 5.1-1.4 1.8-3.7 1.6-5.6 1.1-3.2-.8-6-2.4-9.5-2.5-3.3-.1-2.1-3.5-2.6-5.6.9 5.5 1.1 11 .9 16.5-.1 2 .3 4-1.3 5.7h-.4l-.4-.1c0-16.3.1-32.5.1-48.8 1.9-1.9 4.9 1 6.6-1.6 1-.1 1.8.3 2.5.9 1.2 1.5 2.3 2.3 3.6.1.5-.1.9 0 1.3.2 3.4 2.6 6.4 5.5 11.1 6.1 3.1.4 5.7 2.7 8 4.8 2.6 2.3 5.4 3.8 9 4.6 5.1 1.1 8.6 5.4 12.8 8.2 5.1 1.6 10 3.4 14.1 7 1.6.9 2.4 3.3 6 1.9-2.7-.2-4.7 0-5.7-1.8-1.7-1.1-3-2.7-4.1-4.3-1.7-2.6-4.1-3.8-7.2-3.4-1.3-.1-2-2.2-3.7-1.1-.4.1-.9.1-1.3.1-2.4-1-4-2.9-5.4-5-1.9-2.9-4.4-4.4-7.9-4-.6-.2-1.1-.6-1.6-1.1-.5-.6-.9-2.7-1.7-.1-1.3.5-2.3.1-3.2-.8-1.8-1.5-3.2-3.3-4.6-5.2-1.5-2-3.4-3.2-6-2.7-1-.1-2.2-.4-2.4-1.3-.8-2.8-1.2 0-1.8 0-1.9.7-3-.6-4.2-1.7-1.3-1.1-2.7-2.1-4.1-2.9-1.1-.2-1.8.8-2.8.8-2.4-1-4.1-3-6.5-4-1.6-6.2-.5-12.5-.6-18.8-.1-.9.6-1.1 1.4-1" style="fill:#b5dee3" />
            <path d="m15.3 156.3c-3.7-2.9-7.5-5.9-11.2-8.8-.3-3.2-.8-6.3-.9-9.5-.1-4.4 0-8.9 0-13.3 2.2-1.7 3.3.3 4.6 1.4 11.5 10.1 23.9 19 36.4 27.8 9.1 6.5 17.4 13.9 24.5 22.5.2.8.1 1.5-.6 2-1.1.8-2.4 1.5-3.2 2.5-1.2 1.8-1.9 3.8-2.8 5.7-11.1-7-22.3-13.9-33.3-21-4.7-3-9-6.2-13.5-9.3" style="fill:#acdae1" />
            <path d="m4.1 122.4c-.3-1.4-.9-2.8-.9-4.2 0-3.8 1.6-1.4 2.8-.7 4.4 2.2 7.3 6.1 11 9.2 11.3 9.3 22.4 18.7 34.5 27 3.3 2.3 5.7 5.6 8.6 8.3 2.5 1.2 4.6 2.9 6.6 4.9 1.3 1.4 2.5 2.8 2.8 4.8-.1 1-.6 1.8-1.7 2.1-3.4-1-5.4-3.9-7.6-6.2-8.2-8.4-18.4-14.2-27.4-21.5-8.6-7-18.2-12.8-26.2-20.6-.9-1-1.9-1.8-2.5-3.1" style="fill:#9cc7c1" />
            <path d="m4.1 122.4c11.6 9.1 23.3 18.1 34.8 27.3 9.8 7.9 19.4 16 29.2 24 1.7.4 3.7.5 2.6 3.2-1 .5-2 .3-2.9-.4-12.9-10.6-25.7-21.2-38.6-31.8-7.9-6.5-15.9-13-23.9-19.4-.6-.5-1.5-.5-2.2-.7.4-.7.7-1.4 1-2.2" style="fill:#386067" />
            <path d="m59.9 162.7c-15.8-12.8-31.6-25.6-47.3-38.5-2.4-2-4.4-4.4-6.6-6.7.4-.4.7-.7 1.1-1.1 13.7 11.3 27.4 22.5 41 33.9 4.1 3.5 8.1 7.2 12.1 10.8.3.7.2 1.2-.3 1.6" style="fill:#485448" />
            <path d="m10.2 183.4c.2 1.2.3 2.3.5 3.5-2.4-.7-4.8-1.5-7.3-2.2-.1-9-.2-18-.2-27 .7.3 1.4.5 2 .8-1.4 6.8-2.8 13.5.9 20.1 2.6.4 3.3 2.7 4.1 4.8" style="fill:#95bfc5" />
            <path d="m138.8 87.4c2.7-5.7 5.5-11.4 8.2-17 .8.4.6 1.2.9 1.9-.3 1.1-.5 2.2-.8 3.4-2 4-3.9 8-5.9 12-.8-.2-1.6-.2-2.4-.3" style="fill:#616362" />
            <path d="m67.9 176.5c1.1 0 2.2-.1 3.3-.1.4-.8.2-1.8.9-2.5 2.3-1.7 2.6-3.6 1.1-6-.6-1.1-1.7-2.1-1.2-3.6 4.4-1.3 9.1-1.9 12-6.1.7-1.1 2.3-1.8.3-3.4-1.7-1.3-.4-3.1.8-4.3 5.2-5.1 9.3-11.2 15-15.8 2.1-1.6 3.1-4.6 6.1-5.2.4.7.7 1.5 1.1 2.2-.5 1.2-1 2.3-1.4 3.5-7 7.5-13.9 15.1-16.9 25.3-.3 1.1-.7 2.7-1.6 3-7.8 3.4-10.1 12.1-16.2 17.1-.7.3-1.4.6-2.1.9-1.1.5-1.5-.3-2-1.1.3-.7.6-1.4.9-2.1-.1-.5-.1-1.2-.1-1.8" style="fill:#373837" />
            <path d="m4.1 233.5c0-8.4 0-16.7 0-25.1.4 0 .8 0 1.2 0-.1 1.2-.1 2.3-.2 3.5 0 2.7 0 5.1 4.1 3.9 1.4-.4 3.3.9 5 1.5 1.4.4 2.8 1.1 4.2 1.2 1.1 0 2.3-.7 3.4-1.2-.8-.9-1.5-1.8-2.3-2.7-.7-.7-1.4-1.3-2.1-2 1-.3 2-.8 3.1-1 .6-.1 1.3.2 1.9.5 4 2.3 8 4.6 12.4.3.4-.4 3.4 1.3 4.6 2.6 2.3 2.3 3.8 3.6 4.9-.8.1-.5 1.1-1.3 1.5-1.3.6.1 1.7 1.1 1.6 1.4-1.2 4.6 2.1 5.2 5.1 6.4 2.6 1 4.9 2.9 7.5 3.7 1.4.4 3.8-1.5 4.9-.9 1.4.8 1.7 3.2 2.8 4.7.4.5 1.8 1 2.3.7 6.5-4.4 11.1 1.8 16.6 2.8 2.1.4 4.4-.9 6.6-1.4.6-.7 1.3-.7 2-.1 1.4 0 2.9-.1 4.3-.1.3 0 .5 0 .7.2.9.7 1.7 1.3 2.6 2-.2.4-.3.7-.5 1.1-32.1 0-64.2 0-96.3 0-.7.2-1.3.1-1.9.1" style="fill:#cae5e7" />
            <path d="m45.1 234.4c7.7 0 15.3 0 23 .1-7.7 0-15.4-.1-23-.1" style="fill:#7a898c" />
            <path d="m147.9 72.2c-.3-.6-.6-1.2-.9-1.9 2.7-2.3 5.4-4.7 8-7 2-.9 4.1-1.9 6.1-2.8 1.7 3.1-.6 3.7-2.7 4.9-3.5 2.2-7 4.6-10.5 6.8" style="fill:#353737" />
            <path d="m111.2 114.8c-.4 1.2-.8 2.5-1.2 3.7-.7-.4-1.2-.2-1.7.4-5.8 6.9-10.6 6.4-14.9-1.4.1-5.6 1.8-7.5 8-9.4.5 0 .9.3 1.2.8.1.3.2.6.2 1-.1 2.1-1.2 4.6 1.3 5.8 2.6 1.3 3.6-1.6 5.1-2.9.4-.3.8-.5 1.4-.5 1.1.5 1.1 1.4.6 2.5" style="fill:#150f0c" />
            <path d="m94.2 117.3c4.5 7 7.8 7.2 13.4.8.7-.8 2.2-3.2 2.4.4-.3.3-.5.7-.8 1-1.9 4.6-5.6 5.7-10.1 5.1-1.5 1.1-2.9.3-4.3-.3-1.8-1.2-2.5-3.1-3.4-4.9-.3-1.4-.5-2.8.7-4 2-.9.8 2 2.1 1.9" style="fill:#c9aa94" />
            <path d="m122.9 102.3c3.7-3.3 7.4-6.5 11.2-9.8-.7 4.3-6.1 9.1-11.2 9.8" style="fill:#565655" />
            <path d="m111.2 114.8c-.4-.8-.7-1.5-1.1-2.3-1.3-1.7.4-2.7 1-4 1.1-2.6.2-6 3.1-8 .3 1 .7 2.1 1 3.1-1 3.6-2.1 7.2-3.1 10.8-.4.1-.6.2-.9.4" style="fill:#1b1813" />
            <path d="m92.1 119.5c1 1.4 1.9 2.7 2.9 4.1 1.3 2.2-.9 4.9 1.1 6.9 2.5-.1 3.9-3.9 6.9-1.9 0 .4.1.7.1 1.1.4 2.9-1.8 4-3.6 5.5-1 .7-1.7 1.7-2.8 2.3-2.4 1.2-4.8 1.9-6.9-.5-1.1-3.1-.8-6.1.3-9.4-6.5 9-11.7 18.5-16.7 28.2-1.6 3-2.8 6-2.1 9.5-1 2.9-3 3.5-5.7 2.5-1.9-1.7-3.9-3.3-5.8-5 .1-.5.2-1 .3-1.5 1.3-1.1 2.8-1.9 3.7-3.2 7.7-11.6 15.2-23.2 22.8-34.8.9-1.3 2.1-2.4 3.2-3.7.9-.7 1.6-.7 2.3-.1" style="fill:#080706" />
            <g style="fill:#aea79d">
                <path d="m103.1 128.5c-1.5.8-2.9 1.8-4.4 2.5-1.2.6-2.4 1-3.7 1.5-.8-1.9-.6-3.8-.3-5.7.3-2 1.3-2.7 2.5-.4 2 .7 3.9 1.4 5.9 2.1" />
                <path d="m99 134.4c1.4-1.6 2.8-3.2 4.2-4.9 1.5-1.8 3-3.6 4.5-5.4.3.3.6.5.9.8-.8 1.5-1.6 3-2.4 4.5-1.8 1.9-3.5 3.8-5.3 5.7-.7-.1-1.5.2-1.9-.7" />
            </g>
            <path d="m97.2 126.4c-.8.3-2.2.5-2.2.9-.2 1.7-.1 3.4 0 5.2 0-3 0-6 .1-9 1.3.4 2.7.7 4 1.1.4.5.8.9 1.2 1.4-1 .1-2 .2-3.1.4" style="fill:#150f0c" />
            <path d="m67.1 180.5c.7.4 1.3.7 2 1.1-.4.8-.8 1.7-1.3 2.5-.3-1.2-.5-2.4-.7-3.6" style="fill:#386067" />
            <path d="m92.1 119.5c-.7 0-1.5 0-2.2 0 .6-6.7 2.3-12.2 10.1-14.3 1.9-.5 2.4-6.3 3.7-10.2-1.7.7-2.7 1.2-3.7 1.6-.6-.7-.5-1.4-.1-2.1 3.4-6 6.8-11.9 10.2-17.9.3 1 .6 2 1 3-.4 1.7-.8 3.3-1.1 5-2.6 2.8.2 4.8 1.1 7-2.4 5.3-4.7 10.6-7.1 15.9-.5.7-.7 1.8-2 1.1l.1.1c-5.6-1.2-7.2 3-9.2 6.8-.2 1.2-.5 2.6-.8 4" style="fill:#0d0c0b" />
            <path d="m98.1 99.5c-3 4-6 7.9-9 11.9-.5-.4-1-.8-1.6-1.1 3.5-4.6 7-9.2 10.5-13.8.8.9-.2 2 .1 3" style="fill:#ab9381" />
            <path d="m98.1 99.5c0-1-.1-2.1-.1-3.1.7-.7 1.3-1.3 2-2 0 .7.1 1.4.1 2.1-.7 1-1.4 2-2 3" style="fill:#56473b" />
            <path d="m13.8 95.3c.6-1 1.2-1.9 1.9-2.8.1-.1.7.4 1.1.6-.6 1-1.2 2.1-1.7 3.1-.4-.3-.8-.6-1.3-.9" style="fill:#987c6e" />
            <path d="m85.5 116.7c-.6-.7-1.1-1-1.1-1.3 0-.4.3-.9.6-1.2.1-.1.9.3 1 .4 0 .6-.2 1.1-.5 2.1" style="fill:#b59680" />
            <g style="fill:#dccbbb">
                <path d="m102 108.4c.7-.4 1.3-.7 2-1.1 0 .3 0 .7 0 1 .2 2.2.3 4.5.5 6.7 1.6-1.7 3.2-3.3 4.8-5 .6-.6 1.2-1.1 1.8-1.6-.3 1.3-.7 2.7-1 4-.7.7-1.2 1.7-2 2.1-1.5.7-3.2 1.6-4.7 1.4-.7-.1-1.1-2.6-1.4-4.1-.2-1.1 0-2.2 0-3.4" />
                <path d="m114.2 100.5c-1 2.7-2 5.3-3.1 8 1-3 2-6 3-9 0 .3 0 .7.1 1" />
            </g>
            <path d="m58.1 208.6c-2.1-1.4-4.2-3.1-6.4-4.3-4.2-2.1-8.6-3.9-12.8-6-1.1-.6-1.9-1.8-2.8-2.7-.2-1 .2-1.5 1.2-1.2.9.4 1.8.7 2.7 1.1 1.5-1 2.1 1.4 3.4.9 4.1-2.1 6.2.9 8.5 3.4 1.7 1.9 3.5 3.8 5.3 5.7 1.1.7 2 1.6.9 3.1" style="fill:#94bbc1" />
            <path d="m37.2 194.4c-.4.4-.8.8-1.2 1.2-4.9-2.3-9.8-4.5-14.6-7-1.7-.9-2.9-2.6-4.4-3.9.1-.7.5-1.1 1.1-1.2 1.2.7 2.5 1.3 3.7 2 1.8-1 2.3 2 4 1.2 1.8.2 4.2-.2 5.4.7 2.4 1.9 4.1 4.6 6 7" style="fill:#95bfc5" />
            <path d="m58.1 208.6c-.3-1-.7-2.1-1-3.1.3 0 .5 0 .8 0 1.5-1 2.1 1.4 3.4.9 3.1-1.6 5.4-.3 7.3 2.1 1.6 1.9 3 3.9 4.5 5.9-.1.7-.7.8-1.1 1.1-4-1.7-6.9-5.9-12-4.9-.5.2-1.3-1.3-1.9-2" style="fill:#94bbc1" />
            <path d="m11.1 181.5c1-.6 1.9-1.3 2.9-1.9-.8 2.3 3 2.5 2.1 4.8.1 1.1.2 2.2.5 4.5-1.9-1.8-3.3-3.1-4.6-4.4.2-1.1-1.9-1.6-.9-3" style="fill:#95bfc5" />
            <path d="m72 215.5c.4-.4.8-.8 1.1-1.1.9.3 1.8.7 2.7.9.9.2 2.1 0 2.8.5.5.4.5 1.6.7 2.4-1.2.1-2.6.8-3.5.3-1.4-.6-2.5-1.9-3.8-3" style="fill:#79a2a9" />
            <path d="m95.1 230.5c-.7 0-1.3.1-2 .1-2.8-2.9-5.6-5.9-8.5-8.8.4-.4.7-.8 1.1-1.1 3.1 3.2 6.3 6.5 9.4 9.8" style="fill:#8cb8c0" />
            <path d="m11.1 181.5c.3 1 .6 2.1.9 3.1-.6-.4-1.2-.8-1.9-1.2-1.4-1.6-2.8-3.3-4.1-4.9 1.7 1 3.4 2 5.1 3" style="fill:#67939a" />
            <path d="m16.2 184.4c-.7-1.6-1.4-3.2-2.1-4.8 1.4 1.3 2.7 2.6 4.1 3.9-.4.4-.8.8-1.1 1.2-.4-.2-.6-.2-.9-.3" style="fill:#5a838a" />
            <g style="fill:#638b92">
                <path d="m25.9 186.7c-1.3-.4-2.7-.8-4-1.2 2.3-2.8 2.6 1 4 1.2" />
                <path d="m43.3 196.4c-1.1-.3-2.3-.6-3.4-.9 2.1-3.5 2.2.9 3.4.9" />
                <path d="m61.3 206.4c-1.1-.3-2.3-.6-3.4-.9 2.2-3.5 2.2.9 3.4.9" />
            </g>
            <path d="m65.7 167.7c1.8-1.1 3.6-2.1 5.4-3.2.3-.2.7-.2 1 .1 5.9 7.5 4.4 8.7-.1 10-2.1.1-2.2-1.8-2.9-3-1.2-1.3-2.3-2.6-3.4-3.9" style="fill:#17191a" />
            <path d="m69 171.6c1 1 2 2 2.9 3-.3.6-.5 1.2-.8 1.8-1-.9-2-1.8-3.1-2.7.4-.7.7-1.4 1-2.1" style="fill:#759699" />
            <path d="m72.1 164.5c-.3 0-.7 0-1-.1-.1-1.9-1-4.1-.3-5.5 6.2-11.5 12.6-22.8 19-34.2.5.2.9.4 1.4.6-.3 3.7-.6 7.3-.9 11 2.2 3.1 4.5 2 6.8.1.7-.6 1.3-1.3 2-1.9.6.3 1.3.5 1.9.8-5.2 5.6-10.4 11.2-15.5 16.8-1.1 1.2-.9 1.3 1 2.1.4.2.5 1.5.3 2.1-3.3 5.7-7.9 8.9-14.7 8.2" style="fill:#e4cebd" />
            <path d="m92.9 115.3c.7-6.9 4.5-9.8 9.2-6.8-4.1 1.6-8.3 3.1-7.9 8.8-.4-.7-.8-1.4-1.3-2" style="fill:#f7d3b8" />
            <path d="m97 136.3c-3.2 3.1-4.6 3.1-6.8-.1 2.3.1 4.5.1 6.8.1" style="fill:#aea79d" />
        </g>
        <g id="brenda-hand">
            <g style="fill:#f1e3cf">
                <path d="m60.9 88.3l-33.8-2.3-25.6-3.4v-43.6l51.6 7.5z" />
                <path d="m4.3 40.6c.2-.6.4-1.6.6-1.7 6.2-.4 7.8-5 9.5-9.9 1.8-5.2 5.6-6.4 10.6-4.1 5.1 2.4 10.5 4.2 15.4 6.9 9.5 5.3 16.9 12 18 24.3.4 5 4.4 9.7 7 14.3 4.1 7.1 3.4 13-2.3 17.2-.6.4-1.5.4-2.3.6-.1-.7-.1-1.4.4-1.9 5.1-5.4 3.6-10.8.2-16.3-1.4-2.3-2.2-4.9-4-6.9-3.2-3.4-2.1-7.9-3.4-11.7-.9-1.4-1.7-2.8-2.1-4.4-.4-2.6-2.6-4-4.2-5.9-.3-.3-.6-.7-.8-1.1-2.4-4.7-7.5-5.1-11.5-7.2-3.7-1.9-7.5-3.6-11.2-5.3-2.9-1.3-5.9-1.8-7.2 2.3.4.5-.7.4-.1.5.2 0 .3.3.6-.1.4-.9.8-1.8 1.7-2.4.9-.5 1.8-.6 2.8-.6.8 0 1.5.1 2.3.4 5.8 2.5 11.2 5.8 17.2 7.9 3.3 1.1 4.7 3.5 4.3 7-.6 2-.7 4.5-3.5 4.9-1.8.1-3.1-.8-4.4-1.9-6.1-6.1-13.6-4.1-20.6-3.3-4.6.5-8.8.1-13-1.6" />
            </g>
            <path d="m47.2 68.3c-6.3-4-12.6-8.3-19.1-12-1.7-1-4.4-1.2-6.2-.6-6 2-10.6-1.4-15.5-3.3-.7-.3-.8-1.8-1.2-2.8.8-.1 1.7-.4 2.5-.2 3.5.6 7.1 2.3 10.6 2 13.8-1.3 22.4 7.8 31.8 15.2-.6 1-2 1.1-2.9 1.7" style="fill:#92867e" />
            <path d="m55.1 50.5c.2.2.7.5.7.7-1 8 4.7 13.5 7.7 19.9 3.9 8.2 3.8 10.4-2.6 17.2-1.6.4-3.2.8-4.8 1.2-.6.4-1.3.5-2 .2-.8-2.9 2.1-3 3.3-4.5.8-.7 1.6-1.5 2.5-2.1 2.9-.6 1.5-3.1 2.1-4.7 1.5-3.1-1.8-4.4-2.5-7.9-.3 3.8 4.2 4.7 2.5 7.9-5.8-.8-8.5-4.8-10-9.9 4.6-2 5.2-4.4 2-7.8-1.3-1.4-2.7-2.8-4.1-4.2.6-1.1 2.6 0 2.6-1.9.2-.8.5-1.6.8-2.3.5-.7 1.1-1.2 1.8-1.8" style="fill:#8e8684" />
            <path d="m4.3 40.6c8-.4 15.9-1.3 23.9-.9 3.7.2 7.2 3.2 10.8 4.9-.8.9-1.8 1.6-2.9 2-4.9-3.5-10-3.3-15.8-2.3-5.6 1-11.5.8-16-3.7" style="fill:#a1978d" />
            <path d="m40.1 86.5c.3-.1.6-.1.9 0 1.5.7 2.1 1.7.9 3.2-5-2.2-10-4.4-14.9-6.7-6.3-2.9-12.8-3.3-19.5-1.6-1 .3-2.3-.5-3.5-.7 1-.8 1.8-2.1 2.9-2.4 8.7-2.4 16.7-.6 24.2 4 2.7 2.4 5.4 4.2 9 4.2" style="fill:#a5a09c" />
            <path d="m29.8 71.7c-4.6-4-10.5-3.3-15.9-4.1-2.1-.3-4.3-.5-6.3-1-.9-.2-1.6-1.2-2.3-1.8 1-.4 2-1.3 2.9-1.2 8.7 1.2 18.2-.5 25.6 6.2-.9 1.5-3.6-.6-4 1.9" style="fill:#ac9f95" />
            <path d="m42 89.7c-.3-1.1-.6-2.2-.9-3.2 0-2.3-.1-4.5-.1-6.8 3.8-.2 5.6 3.8 9.1 4.2.4.3.8.6 1.1.9.7 1.1 2 1.8 2 3.7-1.9 1.1-4 .5-7.3.2 3.5.7 5.9-.2 8.2.8.7 0 1.4.1 2.1.1-.3.4-.6.7-1 1.1-4.4 3.1-8.8 2.5-13.1-.1-.1-.4-.2-.6-.1-.9" style="fill:#ae938c" />
            <path d="m52 68.6c3.4 3.3 6.7 6.6 10.1 9.9 2.6 3 1.5 4.6-2.1 5.1-4.8-2.4-7-7.1-9.7-11.2-1.1-1.3-2.1-2.7-3.2-4 1-.6 2-1.3 3-1.9.7.7 1.3 1.4 1.9 2.1" style="fill:#4d4744" />
            <path d="m50.1 84.5c-3.1-1.6-6.1-3.2-9.2-4.8-3.7-2.7-7.4-5.3-11.1-8-.5-4.4 2.7-1.2 4-2 5.4 4.3 10.8 8.6 16.2 12.9.7.6.6 1.3.1 1.9" style="fill:#49423f" />
            <path d="m50.1 84.5c0-.6-.1-1.3-.1-1.9.6-.2 1.6-.6 1.6-.7-.4-3.2-.9-6.4-1.3-9.5 3.2 3.7 6.5 7.5 9.7 11.2-.7.7-1.4 1.4-2.1 2-2.9 1.7-5.5.9-7.8-1.1" style="fill:#c4978c" />
            <path d="m36 46.6c1-.7 2-1.3 2.9-2 1 .7 2 1.4 3 2 4.4 1.7 8.9 3.2 10.9 8 .3 1 .6 2 .9 3-1.3-.4-2.6-.7-3.8-1.1-4.6-3.3-9.3-6.6-13.9-9.9" style="fill:#544f4c" />
            <path d="m42.1 90.5c4.4 0 8.7.1 13.1.1-3.4 4.3-8.7 4.2-13.1-.1" style="fill:#d3d1d0" />
            <path d="m40.1 86.5c-3.6.9-7.8-1-8.8-4.1 2.9 1.3 5.8 2.7 8.8 4.1" style="fill:#ae938c" />
            <path d="m15.9 30.5c1.4-4.9 4-6.2 8.2-4.2 5.6 2.7 11.5 5 16.9 8 2.7 1.5 4.8 4.1 7.1 6.2-2-.5-1.2 2.3-2.8 2.4-.2-.1-.4-.2-.6-.3-.9-1.9-1.4-4.8-2.9-5.6-5.8-3.2-11.9-5.7-17.9-8.4-.7-.3-1.4-1.6-2 0-1 .1-1.9.1-2.9.2-1.1 0-1.2 2.5-3.1 1.7" style="fill:#8e8684" />
            <path d="m52.9 54.7c-3.6-2.7-7.3-5.3-10.9-8 .9-1.4 1.9-2.8 2.8-4.2l.4-.1c4.7 1.8 7.4 5.4 8.9 10.1-.4.7-.8 1.4-1.2 2.2" style="fill:#b59090" />
            <g style="fill:#85827f">
                <path d="m54.1 52.5c-3-3.4-5.9-6.7-8.9-10.1 1-.7 2-1.4 3-2 1.2 2.4 3.6 3.8 4.9 6.1.7 1.4 1.3 2.7 2 4.1-.4.6-.7 1.2-1 1.9" />
                <path d="m15.9 30.5c1.1-.6 2.2-1.2 3.3-1.8-.6 1.3-1 2.6-1.8 3.8-.2.4-1.3.2-2 .2.2-.8.3-1.5.5-2.2" />
            </g>
            <path d="m53.1 46.5c-1.6-2-3.3-4.1-4.9-6.1 1.6 2 3.2 4.1 4.9 6.1" style="fill:#8e8684" />
            <path d="m22.1 28.5c-.3-.6-.7-1.2-1-1.8 1 .6 2 1.2 3 1.8-.7 0-1.3 0-2 0" style="fill:#85827f" />
            <path d="m50.1 84.4c2.6.4 5.2.8 7.9 1.2-1.3 1.3-2.6 2.6-3.9 3.8-2.6 0-5.3 0-7.9 0 0-.2 0-.4 0-.6 1.9-.1 3.9-.2 5.9-.4-.8-1.3-1.4-2.6-2-4" style="fill:#49423f" />
            <path d="m62.1 78.5c-1.7-2.9-3.5-5.9-5.2-8.8.7-.4 1.3-.8 2-1.2 1.6 3 3.3 6.1 4.9 9.1-.6.3-1.1.6-1.7.9" style="fill:#c7a19f" />
        </g>
        <g id="sp6">
            <path d="m410.1 100.8c0-.3.1-.6.1-.8 0 0-.1 0-.1 0-.1-2-.2-4.1-.5-6.1 0-.3-1.8-2.9-3.5-5.2.1-.1.2-.1.3-.2-1.4-2.2-2.8-4.4-4.2-6.7-.3.2-1.8-.8-3.5-1.9 2.1 1.2 3.5 1.9 3.5 1.9-.8-1.5-17.8-12.6-28.8-19.4-.8-.6-8.9-4.5-9.2-5.1-1-.3-2-.6-3-.8-1.1-1.5-15.5-7.1-22.3-5.2-5.1 1.1-10 2.7-13.1 7.1-.9 1.3-5.5 3.9-5.5 3.9-7 1.6-9.6 3-17.9 9.7-1 .9-1.2.9-2.6 1.8-1.7 1-3 2.8-4.8 3.7-.3.4-.7.7-1 1.1-4.7 3.7-10.2 13.1-9.7 17.7-.5 1.6.2 3.6-.3 5.2 0 3.3 0 6.6 0 9.9.8 6.7 4.7 11.3 9.9 15.1.7.9 1.5 1.8 2.2 2.6 5.2 5.6 5.2 5.7-1.4 8.9-4 2-4.2 5.2-3.3 9.1.9-5.2 3.8-8.1 8.9-9 .6-.1 1.6-2.8 1.2-3.5-2.3-3.6-5-7-7.6-10.5-2.7-4.3-5.4-8.5-8.1-12.8 0-3.3 0-6.6 0-9.9.8-2.2 1.6-4.3 2.5-6.5-.3-.1-.6-.2-.8-.3 2.1-4.6 5.2-11.8 6.5-14.2 1-1 2.1-2 3.1-3 5.6-.2 8.8-4 12-7.9.6-.7 1.3-1.4 1.9-2.1 2-.7 4-1.4 6-2.1.7-.6 1.5-.8 2.3-.9-.8.3-1.5.6-2.3.9 3.6-.2 7.6.9 10.2-2.9 3.9-3.4 7.9-6.7 11.8-10.1 7.3 1.3 17.7 7 25 8.3.8 1.3 1.6 2.6 2.4 3.9 2.8.5 7.2 2.3 11.8 4.5 5 4.8 10.7 11.4 15.8 10.7 2.3 2.7 8.5 6.8 10.4 9.2 1 2.5 2.2 5.4 2.3 5.8.5 2.3 1.3 4.5 2 6.8-.7 2.8-1.5 10-2.1 12.8-1.5 3.1-2.9 6.1-4.4 9.2-1.8 2-3.6 3.9-5.5 5.9-1.1.8-25.4 12.8-27.8 14.3 0-.1 0-.2-.1-.2-.9.4-1.9.9-2.8 1.3-.4.1-.8.3-1.2.6-2.6 2.1-10.5 3.3-13.4 5.3-9.5-2.2-26.7-4.1-29.7-5.7-1.9-1-4.2-1.1-6.3-1.7-2.2-.9-4.5-1.6-6.5-2.8-3.9-2.2-7.1-1.6-10 1.8-.6.4-1.7.7-1.8 1.2-1.4 5.8-3 11.6-3.9 17.4-.6 3.9-1.6 5.5-4.9 5.6 5.2-5.2 3.4-18.8 3.2-24.6-1 3.2-2.4 13.8-2.1 17 .2 3-.7 5.1-3.3 6.4-.9 1.4-1.8 2.7-2.7 4.1.2 8.9-5.5 12.2-14.2 14-1 .2-1.9 1-2.9 1.6 1.1.2 2.3.8 3.3.6 8.4-1.8 18.4-13.6 18.4-13.6 0 0 9.3-7.3 7.8-15-1.2-6.2.5-10.8 5.4-14.4 2.9.3 5.8.7 8.7 1 7.7 3.1 28.7 14.2 47.4 9.3 0 0-.1-.1-.1-.1.1 0 .1.1.1.1 2.1-.9 4.3-1.8 6.3-2.9 2.1-1.1 9.2-4.3 11.3-5.6 1-.8 18.1-11.2 22.8-14.1 0 0 .1.1.1.1.3-.3.6-.6 1-.9 1.5-1.4 3-2.7 4.5-4.1 1.9-4 3.9-8.1 5.8-12.1.3-2 .6-8.5.9-11.9 0 0 .1 0 .1 0 0-.1 0-.4 0-.6m-40.9 43.4c-.1 0-.1 0-.2 0 0-.1 0-.1-.1-.2.4.1 1.4.2 2.5.2-.9.1-1.8.1-2.2 0" />
            <path d="m339.1 52.5c-.4 0-16 11.3-28 15-19.7 12.8-26.9 17.9-26 41.3.4 9.2 9.8 16.9 17.4 25.3-.8.5-2.9 2-3.7 2.5-4.1 2.8-6.1 4.5-6.4 6.6-.1.6-2.6 9-2 12.3 1.3 6.6-3.8 11.4-2.6 12.8 1.6 2 6.6-5 6.5-13.6 0-3.9.7-4.1.8-6.2 1.9-4.9 3.4-5.4 6.5-7.6 1.1-.8 3.1-.1 3.9-.9 7.1 4.3 26.1 9.9 25.8 9.3 3.6 2.4 20.8 5.3 37.7-4.9 27.7-12.3 37.6-18.8 39.3-37.2 5.4-24.2-45.7-54.8-69.2-54.7" style="fill:#fff" />
            <path d="m351.2 60.3c2.6.8 2.5 1.6.7 3.6-3.2 3.5-5.8 7.5-8.8 11.1-1 1.1-2.6 2.1-4 2.3-.8.1-1.9-1.5-2.8-2.3 1-.8 2-1.7 3.1-2.5.5-.4 1.5-.9 1.4-1.2-1.5-5.3 4.4-6.7 5.5-10.6 1.4-1.3 3.1-1.4 4.9-.4" style="fill:#3a1c17" />
            <path d="m351.2 60.3c-1.7.1-3.4.2-5 .3 1.5-2.3 3.1-3.2 5-.3" style="fill:#ebbbb4" />
            <path d="m349.4 62.7c-.7.9-1.3 1.8-2 2.6-.1.1-.7-.4-1.1-.6.6-1 1.2-2 1.9-3 .4.3.8.6 1.2 1" style="fill:#e34527" />
        </g>
    </g>
</svg>