<?xml version="1.0" encoding="utf-8"?>
<!-- Generator: Adobe Illustrator 17.0.0, SVG Export Plug-In . SVG Version: 6.00 Build 0)  -->
<!DOCTYPE svg PUBLIC "-//W3C//DTD SVG 1.1//EN" "http://www.w3.org/Graphics/SVG/1.1/DTD/svg11.dtd">
<svg version="1.1" id="Layer_1" xmlns="http://www.w3.org/2000/svg" xmlns:xlink="http://www.w3.org/1999/xlink" x="0px" y="0px"
	 width="130.4px" height="364.1px" viewBox="0 0 130.4 364.1" style="enable-background:new 0 0 130.4 364.1;" xml:space="preserve"
	>
<g id="_x36_th.svg">
	<g id="muszla_5_">
		<rect x="0" y="0.1" style="fill:#F0F1E3;" width="128.3" height="362.9"/>
		<polygon style="fill:#F1E4E3;" points="2.5,363.1 127.1,363.1 127.1,251.9 2.2,177 		"/>
		<path style="fill:#F5F4E9;" d="M0.4,83.4c-1.1-4.2,3.6-4.6,4.8-7.3c0.5,0,0.9-0.2,1.4-0.3c1.9-0.6,2.4-4.6,4.6-3.2
			c2.1,1.2,1.7,4.3,1.1,6.7c-0.2,0.9-0.1,1.7-0.4,2.8c0.5-0.9,0.3-1.7,0.5-2.4c0.4-3.6,2.7-5.8,5.4-7.8c0.6-0.4,1.3-0.7,2-0.8
			c1.2-0.2,2.3-0.4,3.5-0.5c0.5,0,0.9,0.2,1.3,0.5c1.4,1.6,1.1,3.1-0.4,4.7c0.8-0.8,1.6-1.3,2.7-1.3c3.1,0.5,2,3.6,3.3,5.3
			c1.3,0.4,1.7-0.7,2.4-1.3c1.2-1.1,2.6-1.5,4.1-0.7c1.4,0.8,1.2,2.2,1.1,3.5c-0.2,2.1-0.2,4.3-0.2,6.4c0,2.3,0,4.6-1.4,6.5
			c-2.2,2.8-4.8,3.8-7.9,1.5c-0.6-0.6-0.9-1.3-1-2.1c-0.4-1.8,0.1-3.6-0.4-5.6c-0.5,2.1-0.1,4.1-0.3,6c-0.1,0.7-0.3,1.4-0.7,2
			c-4.3,0.6-5,2.3-3,7.2c-0.9,3.2-4.4,3.8-6.1,6.2c-0.2,0.5-0.9,0.8-0.9,1.4c0.6-0.7,1.1-1.5,1.8-2.1c2.2-2,5-2.6,7.7-3.1
			c1-0.2,2.1-0.3,2.8,0.6c0.9,1.2,0,2.2-0.7,3.1c-2.2,2.7-4.9,5-6.8,7.9c-1.9,2.8-2.9,6-4.3,9c-1.6,1.8-2.1,6.5-6.2,2.5
			c-0.2-0.2-0.7,0.9-1,1.5c-2.2,7.8-2.1,15.1,3.6,21.5c0.9,1.6,1.2,3.6,2.8,4.9c3.8,2.4,4,5.9,3.2,9.8c0.1,1.5,0.3,3.3,1.7,3.8
			c3.9,1.6,4.2,4.9,4.6,8.3c0.4,0.8,0.9,1.5,1.8,1.8c1.5,0.7,4.1,0.9,4.2,2.4c0.3,3.9,6.7,3.4,5.6,8.1c-0.1,1.9-0.2,3.8-2.5,4.3
			c-2.9,0.7-4-1.7-5.3-3.6c-2.2,1-4.4,2.3-5.7-1.1c-0.8-1.1-1.8-1.8-3.1-2.2c-1.1-0.5-1.7-1.5-2.3-2.5c-0.7-1.3-1.5-0.8-2.3-0.1
			c-0.4,0.2-0.8,0.2-1.3,0.2c-2.2-0.9-2.7-3.3-4.2-4.9c-0.9-1.5-2.2,0.3-3.1-0.4c-2.6-2.3-2.6-6.3-5.4-8.5C1,144.4,1.3,117,1.2,89.6
			C1.2,87.5,1.7,85.3,0.4,83.4z"/>
		<path style="fill:#F0F1E3;" d="M28.1,95.1c6.3,1.6,8.1-0.1,8.1-7.9c0.7-0.9,1.6-1.6,2.8-1.5c2,0.8,2.2-1.5,3.5-2
			c4.3-0.4,2.8,3.6,4.1,5.4c0.4,0.2,0.7,0.1,1.1,0.1c8.7,0,11-6,12-13.1c1.3-2.1,2.6-4.3,5.2-5c4.2-0.3,4.8-2.9,3.6-6.2
			C67.8,63,67,61.3,69,59.9c1.8-1.2,3.4-0.3,5,0.6c1.6,0.8,2.8,3.1,5.1,1.6c3,0.9,6.1,1.8,9.1,2.7c-0.9,1.5-2,0.5-3.1,0.3
			c4.4,2,4.3,1.9,2.5,6.2c-1.6,4-4.2,7.5-5.8,11.2c1.9-2.8,3.7-6.1,5.2-9.5c1.9-4.4,4.2-7.5,9.5-7c1.7,0.2,3.1-1.1,4.8-1.3
			c2.4-0.8,4.8-1.8,7.2-2.6c1.8-0.3,3.4-1.2,4.5-2.7c0.7-0.6,1.6-1,2.6-0.9c2.3,1.2,2.5,3.4,2.6,5.5c0,1.7-0.6,3.3-2.2,4.2
			c-2,1.1-3-0.5-4.5-1.6c2,1.9,1.8,3.9,0.3,5.8c-1.4,1.9-1.2,3.2,1.3,3.3c3.1,0.1,5.1,2.3,7.4,3.8c1.4,0.5,2.1-0.3,2.6-1.5
			c0.7-1.6,0.9-3.5,2.5-4.7c3.3-0.9,2.1,1.7,2.1,3c0.1,9.3,0.1,18.6,0.1,27.8c-0.5,3.8-2.3,2.2-4,0.9c-2.8-3.7-6.5-6.1-10.8-7.6
			c-4.8-1.7-9.6-3.4-13.7-6.6c-2.5-1.9-5.6-1.6-8.6-1.6c-2.1,0-4.3,0-6.4,0c-17.6-0.1-34,4.2-49.6,12.1c-3.9,2-8,3-12.3,1.6
			c-5-3.9-0.3-6.5,1.1-9.9c0.7,1.2,1.2,2,1.7,2.8C27.1,99,26.6,94,28.1,95.1z"/>
		<path style="fill:#DCE8DB;" d="M8.2,30.1c-2.7-4.2-5.5-8.4-8-12.8c-0.5-0.8,0.1-2.2,0.2-3.3C2,11.9,0.9,9.3,1.2,6.9
			c0.2-1.9-0.6-4,1.3-5.4c7-0.8,13.9-0.6,20.7,0.7c2.1,2.5,2.8,5.9,5.3,8.3c1.6,1.6,0.1,4-1.2,5.7c-1.5,1.6-1.8,3.7-2.8,5.5
			c-2.3,0.6-2.4,4.5-5.6,3.6c-2-1.6-3-3.5-1.7-6c0.8-1.6-0.1-2.5-1.4-3.1c-1.4-0.7-2.7-0.3-3.4,1.1c-1.4,2.9-4,5.4-2.7,9.2
			C10.3,27.9,10.9,29.9,8.2,30.1z"/>
		<path style="fill:#EFF1E3;" d="M8.2,30.1c0.3-0.7,1.1-1.8,0.9-2.1c-3.2-4.7,1.1-7.8,2.5-11.5c1.1-3,3.1-3.1,5.4-1.2
			c1.7,1.3,4.8,2,1.4,5c-0.6,0.5,0.5,3.1,0.8,4.7c0.2,1.2,0.2,2.4-0.2,3.6c0.1,0.1-0.5,0.6,0.3,0.5c1.2-2.4,2.7-4.5,5-6
			c6.8-2.2,9-0.9,9.9,5.7c0.1,0.7,0,1.5-0.1,2.2c-0.4,2.8-2.7,4.3-4,6.5c-1.3,2-2.6,3.9-4.5,5.4c-2.8,1.8-4.9,0-7.2-1.3
			c-0.9-0.5-1.4-2.7-2.9-0.9c-0.3,0.8-0.5,1.7-1.1,2.4c-0.4,0.3-0.8,0.3-1.2-0.1c0.9-3.1-4.8-5.6-0.7-8.9
			C11.1,32.8,9.6,31.5,8.2,30.1z"/>
		<path style="fill:#88898A;" d="M0.4,83.4C1,84.9,2.2,86.4,2.2,88c0.1,26.3,0,52.5,0,78.8c0,2.1,0.6,4.2,0.9,6.2
			c1.3,1.4,1.1,3,0.4,4.6c-1,2.4-1,4.8-0.2,7.2c0.7,5.1,0.3,10.2,0.4,15.3c-0.2,6.6,0.4,13.3-0.3,19.9c-0.5,1.7-0.6,3.4,0,5.1
			c0.5,7.2,0.7,14.5-0.1,21.7c-1.1,3.1-0.5,6.2-0.8,9.4c-0.1,1.8,0.5,4.1-2.2,4.9c0-34.6-0.1-69.2-0.1-103.8
			C0.2,132.6,0.3,108,0.4,83.4z"/>
		<path style="fill:#7F8184;" d="M0.4,261.1c0.3-2.9,0.5-5.8,0.8-8.7c0.2-1.8,0.5-3.5,0.8-5.2c3.1,3.7,1,8.1,1.6,12.1
			C3.4,268.8,4,278.4,3.8,288C3.6,312,3.3,335.9,4,359.8c0.3,0.8,0.5,1.6,0.6,2.5c0,1.6-1.7,1-2.3,1.7c-0.6-1.2-1.8-2.3-1.8-3.5
			C0.4,327.4,0.4,294.2,0.4,261.1z"/>
		<path style="fill:#979B96;" d="M24.2,3C17,2.8,9.8,2.5,2.5,2.3c-1,0.1-1.6-0.5-2.2-1.1C1.1,0.8,2,0,2.8,0c19.5,0,39,0.1,58.5,0.1
			c4.3,1,8.6,0.2,12.8,0.5c1.1,0.1,2.7-0.5,3.1,0.9c0.3,1.2-1.2,1.8-2,2.6c-0.3,0.3-0.7,0.6-1,1c-0.6-0.5-1.4-0.7-2.1-1.1
			C61.7,3.2,51,1.9,41.1,4.9C35.4,6.6,31.2,5,26.4,4.2C25.5,4.1,24.8,3.6,24.2,3z"/>
		<path style="fill:#EFF1E3;" d="M18.2,72.2c-1.7,2.7-3.4,5.4-5.1,8.1c-1,0.2-1.3-0.6-1.8-1.2c0-2,0-4.1,0-6.4
			c-1.8,1.7-3.2,3.1-4.7,4.4c-0.1,0.1-0.9-0.7-1.4-1.1c5.7-7.3,7.3-16,8.1-25c0.3-0.3,0.7-0.4,1.1-0.2c0.8,0.7,1,1.8,1.8,2.3
			c2.1-2,3.8-4.2,5-6.9c0.8-2,2-3.5,4.5-2.3c3.1,4.7-1.5,7.6-2.8,11.3c-0.4,1.2-1.7,1.9-2.9,2.5c-5.8,3-5.8,3-4.2,8.8
			c-0.1,1.2-0.6,2.2-0.9,3.3c-0.8,2.4,0.8,1.9,2.1,1.8C17.6,71.7,17.9,71.9,18.2,72.2z"/>
		<path style="fill:#485A5E;" d="M2.3,364c0.7-0.3,1.4-0.7,2.1-1c3.9-2.5,8.2-1.1,12.3-1.3c1.1,0,2.3-0.1,3.4,0
			c4,0,7.9,0.1,11.9-0.2c2.3,0.6,4.1-0.5,6-1.6c1.2,0.6,2.2,1.5,3.3,2.3c2.4,0.3,4.8,0.6,7.2,1c2.1-0.6,3.4-3,5.9-2.8
			c-0.3,4.7,2,0.2,2.8,0.8c4.4,1.5,9,0.1,13.5,0.6c2.1,0.2,4.4-0.2,6.3,1c0.5,0.4,0.6,0.9,0.2,1.4C52.2,364.1,27.2,364.1,2.3,364z"
			/>
		<path style="fill:#7B8884;" d="M104.2,0.2c6.6-0.1,13.1-0.3,19.7-0.2c1.5,0,2.9,0.7,4.4,1.1c-1,3-0.5,6.2-0.9,9.3
			c-1.1,2.1-2.6,3-5,2.1c-1.2-2,0.5-3.4,1.2-4.9c1.5-3.1,0.5-4.5-2.7-4.1c-2.4,0.3-5.4-1.4-7.3,1.5c-0.3,0.6-0.8,1.1-1.5,1.2
			c-0.7-0.6-1.3-1.2-2-1.8C109.2,1.5,105,3.3,104.2,0.2z"/>
		<path style="fill:#3E4546;" d="M128.1,105.1l-0.4,0l-0.4,0c0-9.8-0.1-19.6-0.2-29.4c0-0.6-0.7-1.2-1-1.9c-0.2,0.4-0.5,0.9-0.7,1.3
			c-0.5,0.3-1,0.3-1.5-0.2c-0.4-0.7-0.8-1.6-0.4-2.3c2.2-4.5,2.2-9.4,3.2-14.2c0.4-0.5,0.8-0.7,1.4-0.4
			C128.1,73.8,128.1,89.4,128.1,105.1z"/>
		<path style="fill:#F0F1E3;" d="M65.8,61c0.8,1.7,1.6,3.5,2.4,5.2c-2.4,2.2-4.2,5.1-6.9,7.1c-1.9-2.2-1.5-4.6,0.3-6.2
			c2.2-2.1-0.4-2.2-0.8-3.2c-0.6-2.7,1.7-3.7,3.2-5.1c0.4,0,0.8,0,1.1,0.1C65.4,59.6,65.6,60.3,65.8,61z"/>
		<path style="fill:#121716;" d="M126.1,22.2c0.3-1.1,0.6-2.2,0.9-3.3c-1.7-2.9-1.6-5.9,0-8.8c0.4-3,0.8-6.1,1.2-9.1
			c0,7.7,0,15.3,0,23c-0.3,0.3-0.7,0.7-1,1C126.9,24.1,126.5,23.1,126.1,22.2z"/>
		<path style="fill:#5F6560;" d="M0.3,1.1c0.7,0.4,1.5,0.8,2.2,1.1C2.4,5.6,2.3,8.9,2,12.2C2,12.9,1,13.5,0.4,14.1
			C0.3,9.8,0.3,5.5,0.3,1.1z"/>
		<path style="fill:#0F1614;" d="M128.1,58.1l-0.4,0l-0.4,0c-2.7-4.2-2-8.5-0.3-12.7c0.4-0.4,0.8-0.8,1.2-1.2
			C128.1,48.8,128.1,53.4,128.1,58.1z"/>
		<path style="fill:#35383A;" d="M128.3,28.1c0,3,0,6-0.1,9C128.2,34.1,128.2,31.1,128.3,28.1z"/>
		<path style="fill:#F7F6EC;" d="M14.2,51.1c-0.3,0-0.7,0-1,0c0-2.7,0-5.3,0-8c0.3,0,0.7,0,1,0C16.1,45.8,16.1,48.4,14.2,51.1z"/>
		<path style="fill:#F7F6EC;" d="M61.1,64c1.2,0.9,5.3,0.2,1.6,3.6c-1.1,1-1,3.4-1.4,5.2c0,0.7-0.2,1.4-0.7,2
			c-2.2,1.7-0.5,4.6-2,6.6c-1.3,1.1-3,1.4-4.3,2.5c-1.5,1.3-3.3,3-4.9,0.4c-1.4-2.3-2.7-4.9-0.9-7.1c-8,3.6-8.2,3.5-9.3-3.6
			c-2.5,0.4-5,4.5-7.5,0.2c-0.8-2,0.2-3.8,0.9-5.7c-1.9,0.3-2.8,2.1-4.4,2.8c-1.3,0.5-2.7,1.3-4.1,0.2l-0.4,0
			c-1.5-2.3,1.4-3.6,1.4-5.8c-1.5-0.9-2.9,1-4.4,0.5c-3.9-2.4-3.2-5.5-1.3-8.7c4.3-3.3,6.1-7.7,5.9-13c0.1-0.2,0.3-0.4,0.4-0.6
			c2.6-1.9,3.2-5.5,6.1-7.2c3.7-0.2,7.3-1.9,11.1-1c2.4,0.6,2.6-2.1,3.9-3.2c1.3-1.1,2.7-2.1,4.4-1.7c2.1,0.5,2.2,2.2,2,3.9
			c0,0.6-0.8,1.3-0.4,1.5c0.4,0.3,1-0.6,1.6-0.7c2.9,4.6,5.9,9.2,8.5,14c0.7,1.3,0,3.3,0.1,5c0.1,1.4,0.5,2.9,0.7,4.3
			c-1.3,1-2.3,2.3-3.1,3.8c-0.3,0.4-0.7,0.6-1,1c-0.3,0.4-0.9,0.6-0.6,1.2c0.1-0.5,0.5-0.7,0.9-0.9C60.4,63.6,60.8,63.7,61.1,64z"/>
		<path style="fill:#F5EDE5;" d="M2.3,221.1c0-7,0.1-13.9,0.1-20.9c4.4-1.4,8.5-2,12.9,1c2.4,1.6,3.2-1.1,2.2-3.4
			c-0.6-1.5-1-2.9,0.3-4.2c1.4-1.4,2.3,0.3,3.5,0.6c2.1-0.5,0.6-2.4,1.4-3.4c0.2-0.4,0.5-0.7,1-0.7c0.8,0.6,1.6,1.1,2.2,1.6
			c0.8-3.2,0.8-3.2,3.3-2.2c-0.6,2-1.1,4.1-2.1,6.7c2.7-0.5,4.9,0.2,6.5,2.2c3.4,2.2,6.5,4.7,11,4.9c4,0.2,5.9,3.8,7.5,7.2
			c0.5,0.9,0.9,1.7,1.2,2.6c0.5,1.9,1.8,3,3.4,4c1.6,1,2.7,2.4,2.7,4.4c-0.1,3.2-2.2,4.2-4.7,3.4c-6-1.9-12-2-18-0.2
			c-2.4-1.4-1.8-5.3-4.9-5.9c2.3,1.7,2.5,4.1,2.2,6.7c-0.6,1.2-1.7,1.6-2.9,1.9c-3.1,1.4-5.7-0.4-9.2-2.3c1.4,1.7,3,1.7,2.9,3.1
			c-0.7,2.8-2.9,3.9-5.2,4.9c-1.9,0.4-3.8,1.3-5.9,1C8,231.2,4.4,226.7,2.3,221.1z"/>
		<path style="fill:#131414;" d="M32.1,73.2c1.7,2.7,3,1.1,4.6-0.2c1.1-0.9,2.8-1.1,4.2-1.6c-0.1,1.2-0.4,2.3-0.3,3.5
			c0.2,1.4,0.7,2.7,1.1,4.1c1-0.4,1.9-0.8,2.9-1.2c2.4-0.8,4.8-1.5,7.7-1.8c-6.9,2.2-1.9,6-2.4,8.9c3.1-1.4,5.7-2.6,8.2-3.7
			c1.4-1.4-0.5-3.7,1.3-5.1c0.2,0,0.5,0.1,0.7,0.1c-0.9,3.9-1.7,7.8-2.7,11.6c-0.1,0.5-1.1,1-1.8,1.2c-2.7,1.1-6.7-1.3-8.2,3
			c-1-1.2-2.5-2.4-2.8-3.7c-0.3-1.9,0.8-4.2-2.6-4c-2-1.1-1.5,2.1-3,1.8c-1,0.4-2,0.8-3,1.2c0-2,0.1-3.9,0.1-5.9
			c0-1-0.2-1.9-0.4-2.9c-1,0.5-2.1,1-3.1,1.5c-1.1,0.7-1.1,4.7-3.6,1.2C29.2,78.1,26.5,74.1,32.1,73.2z"/>
		<path style="fill:#1B1C1D;" d="M35.2,190.1c0.3,0,0.6,0,1,0c2.7,2,2.4,4.8,2,7.7c-1.3,3.7-3.6,2.3-5.9,1.3
			c-1.3-0.5-3.6-1.7-3.8-1.4c-2.4,3.4-3-0.6-2.9-0.9c1-2.5,2.3-4.9,3.5-7.3c0.4,0.7,0.6,1.6,1.2,2.1c1.1,1,2.4,1.8,3.7,2.7
			C34.4,192.8,34.8,191.5,35.2,190.1z"/>
		<path style="fill:#D6D9D7;" d="M17.4,165.7c0.8-1.3,1.5-2.9,2.6-3.9c0.7-0.6,2.1-0.4,3.2-0.6c0.6,0.6,1,1.3,0.9,2.1
			c-0.6,3.2-0.6,3.2,0.5,4.4c0.3,0.4,0.5,0.8,0.6,1.3c0.5,2.4,0.4,4.8,0.3,7.3c-0.1,1.2-0.5,2.3-1.6,2.9c-1.1-3.1,0-7.2-4.9-8.3
			C18.1,170.7,17.9,167.5,17.4,165.7z"/>
		<path style="fill:#7D8785;" d="M15,126c0,2.5,0.4,5-0.1,7.4c-0.2,1-2.3,1.6-3.5,2.3c-0.1,0.1-1.5-4.1-1.6-4.3
			c-0.5-0.8-1.1-1.6-1.7-2.3c0.7-1.2,1.4-2.4,2.3-4.1c0.6,1.9,0.9,3.1,1.4,4.6C13.1,128.2,14.1,127.1,15,126z"/>
		<path style="fill:#292B2A;" d="M2.1,184c0-2.3-0.1-4.7,0.1-7c0.1-1.3,0.6-2.7,0.9-4c0.8,0.8,1.9,1.6,2.5,2.6
			c0.8,1.3,1.2,2.8,1.8,4.3c1.3,1.7,2,3.5,1.5,5.6c-0.6,1.2-1.7,1.1-2.2,0.2C5.6,183.7,3.9,183.8,2.1,184z"/>
		<path style="fill:#202120;" d="M15,184.8c0.5-1.1,1-2.1,1.5-3.2c0.6,1,1.2,1.9,1.7,2.9c0.6,0.9,1.1,1.9,1.6,2.8
			c1,0.2,1.8,0.6,1.7,1.8c-0.3,0.7-0.8,1.2-1.5,1.4c-2.6-0.5-6.1,2.9-7.6-2C11.8,186.3,14,185.9,15,184.8z"/>
		<path style="fill:#6A6F6E;" d="M32.1,73.2c-1,2.7-2,5.3-2.9,8c-1-2-2-4-3-6C25.9,73,29,72.3,28.1,70c2-1.4,4-2.9,7-5.1
			C33.7,68.8,32.9,71,32.1,73.2z"/>
		<path style="fill:#131615;" d="M22.3,65.2c1.3-0.6,2.6-1.2,3.9-1.8c-0.2,1.3-0.2,2.7-0.7,3.9c-0.4,1.3-1.3,2.5-1.9,3.8
			c-1.1,0.3-2.2,0.6-3.3,0.9c-0.8-0.7-0.9-1.7-0.7-2.7C19.9,67.6,20.5,65.9,22.3,65.2z"/>
		<path style="fill:#111313;" d="M28.1,70c2.4,2.5,2.4,2.5-1.9,5.1c-0.3,0.4-0.5,0.7-0.8,1.1c-0.7,0.8-1.5,1.5-2.2,2.3
			c-0.1-1.2-0.4-2.4-0.3-3.6c0.2-1.3,0.7-2.5,1.1-3.8C25.4,70.7,26.8,70.4,28.1,70z"/>
		<path style="fill:#8A918B;" d="M25.4,94.2c0-2.5-0.1-4.9,0.1-7.4c0.1-0.8,0.9-1.5,1.4-2.2c0.4,0.7,1.2,1.5,1.2,2.2
			c0.1,2.1,0,4.3-0.1,6.4C27.3,93.9,26.6,94.6,25.4,94.2z"/>
		<path style="fill:#CFD0C5;" d="M4.2,120.7c1.1-2.1,2.2-4.1,3.4-6.2c0.5,0.2,0.9,0.4,1.4,0.6c-1,2.1-2,4.2-2.9,6.3
			C5.4,121.3,4.8,121,4.2,120.7z"/>
		<path style="fill:#2B2C2C;" d="M10.3,180c1.4,1.7,2.8,3.3,4.2,5c-1.5,1.3-3,0.6-4.4-0.2C9.2,183.1,5.7,181.4,10.3,180z"/>
		<path style="fill:#5F605E;" d="M10.3,180c-3.3,1.4-0.9,2.6,0.1,3.8c0,0.2,0,0.4,0,0.6c-0.4,1-0.8,2.1-2.2,1.7
			c-0.3-2.1-0.6-4.2-0.8-6.3c0.7-0.9,1.5-1.8,2.2-2.7C9.9,178.1,10.1,179,10.3,180z"/>
		<path style="fill:#4A514C;" d="M25.4,94.2c0.9-0.3,1.8-0.7,2.7-1c0,0.6,0,1.3,0.1,1.9c-0.5,1.5-0.9,3-1.7,5.5
			c-0.6-2-1-3.3-1.4-4.5C25.1,95.4,25.3,94.8,25.4,94.2z"/>
		<path style="fill:#B4B6AB;" d="M16.1,109.1c0.4,0.1,0.8,0.1,1.2,0.2c-1.3,1.3-2.5,2.6-3.8,4c-0.4-0.5-0.8-0.9-1.2-1.4
			C13.6,111,14.8,110,16.1,109.1z"/>
		<path style="fill:#4A4F47;" d="M10.2,98.2c0-3.7,0-7.4,0-11.1c0.3,0,0.7,0,1,0c0,3.7,0,7.4,0,11.1C10.9,98.5,10.6,98.6,10.2,98.2z
			"/>
		<path style="fill:#707672;" d="M11.3,79.2c0.6,0.4,1.2,0.8,1.8,1.2c-0.3,1.5-0.6,3.1-0.9,4.6c-0.5-0.1-0.9-0.1-1.4-0.2
			C10.9,83,11.1,81.1,11.3,79.2z"/>
		<path style="fill:#C3C4B8;" d="M10.2,98.2c0.3,0,0.7-0.1,1-0.1c-0.4,1.6-0.8,3.2-1.2,4.9c-0.2-1-0.5-2-0.5-3
			C9.5,99.3,9.9,98.7,10.2,98.2z"/>
		<path style="fill:#343739;" d="M12.1,152.1c3.3,0.5,3.6,2.3,2.1,4.8C13.6,155.3,12.9,153.7,12.1,152.1z"/>
		<path style="fill:#5F605E;" d="M10.5,183.8c1.4,0.4,2.7,0.8,4.1,1.2l0.1-0.2l0.3,0c-0.6,1.4-1.1,2.8-1.7,4.2
			c-3.3-0.1-2.9-2.7-3.1-4.8C10.2,184.1,10.4,183.9,10.5,183.8z"/>
		<path style="fill:#4C4F4E;" d="M20.2,69.1c0,1,0,1.9,0.1,2.9c-0.7,0.1-1.4,0.2-2,0.3l-0.5-0.1l-0.5,0.1c-1.5-2.5-0.8-3.8,2.2-3.6
			C19.7,68.8,20,68.9,20.2,69.1z"/>
		<path style="fill:#E7DCD6;" d="M21.6,188.9c-0.6-0.5-1.2-1.1-1.7-1.6c1.3,0.9,2.5,1.8,3.8,2.7c0,0-0.4,0.1-0.4,0.1
			C22.1,190.5,21.6,190,21.6,188.9z"/>
		<path style="fill:#E1EADE;" d="M127,45.3c0.1,4.2,0.2,8.5,0.3,12.7c0.6,6-1.3,11.5-3.4,17c0.1,1-0.5,1.6-1.2,2.2
			c-0.8,0.5-1.1,1.2-1.1,2.1c-0.1,1-0.8,1.4-1.6,1.8c-2.6-2.2-4.9-4.6-9-4.2c-2.7,0.3-3.4-1.6-1.4-3.8c1.5-1.8,5-3.9-0.4-5.3
			c-0.1,0-0.1-2,0.2-2.2c1-0.4,2.4-0.8,3.4-0.4c1,0.4,1.7,1.6,2.6,2.5c0.4-1.8,1.2-3.6,1.2-5.4c0-1.1-1.1-2.3-1.7-3.4
			C119,54.4,123,49.9,127,45.3z"/>
		<path style="fill:#596262;" d="M120.7,85c-1.9,3.2-3.8,6.4-5.8,9.5c-0.2,0.4-1.2,0.5-1.7,0.4c-0.3,0-0.8-0.9-0.7-1.1
			c2.1-3.4,4.4-6.7,6.6-10C119.6,84.1,120.2,84.6,120.7,85z"/>
		<path style="fill:#737B77;" d="M120.1,81.1c0.4-0.7,0.8-1.3,1.2-2c0-0.8,0.6-1.4,0.9-2.1c0.6-0.7,1.1-1.3,1.7-2
			c0.5,0,1,0.1,1.4,0.1C123.8,77.4,125.6,82.4,120.1,81.1z"/>
		<path style="fill:#151616;" d="M60.7,87.9c1.3-0.8,2.6-1.7,4.1-2.3c0.2-0.1,0.9,1.1,1.4,1.7c-1.5,0.7-3.1,1.4-4.6,2.1
			C61.3,88.9,61,88.4,60.7,87.9z"/>
		<path style="fill:#010102;" d="M91.2,88.2c-2.3,2.6-4.6,3.3-7,0.1C86.6,88.3,88.9,88.2,91.2,88.2z"/>
		<path style="fill:#F5F4E9;" d="M39.2,86c1-0.6,2-1.2,3-1.8c-0.6,1.2-1.2,2.3-1.8,3.5C40,87.1,39.6,86.6,39.2,86z"/>
		<path style="fill:#E1EADE;" d="M109,63c1.4-0.9,2.8-1.8,4.3-2.7C111.8,61.2,110.4,62.1,109,63z"/>
		<path style="fill:#DAE8DC;" d="M52.2,34.9c-0.4-1.2-0.7-2.3-1.1-3.5c-1.3,0.6-3.1,0.8-3.7,1.8c-1.7,2.6-2.4,5.5-6.8,2.8
			c-2-1.2-5.9,0.6-8.9,1.1c-0.2-0.1-0.4-0.2-0.6-0.3c0.7-2.3,2.7-3.8,3.4-6c0.5-1,0.7-2,1-3c0.2-0.4,0.4-0.8,0.7-1.1
			c1.7-1.1,2.8-2.5,3.4-4.4c0.3-0.8,0.6-1.5,1.1-2.2c0.6-0.8,0.9-1.6,0.7-2.6c0-1,0.1-2,1.1-2.5c0.3,0.1,0.6,0,0.8-0.2
			c-0.3,0-0.6,0-1,0c-3.9-1.2-6.8,1.5-10.1,2.6c-1.3,0.4-2.3,1.8-4,1.3c-1.1-0.6-1.8-1.5-2.1-2.7c2.2-2.6,3.7-5.1-0.9-6.8
			c-3.6-1.3-1.1-3.9-1.1-5.9c2.2,0,4.3,0.1,6.5-0.1c2.9-0.2,4.2,0.6,2.7,4.2C37.5,1,43.5,2.8,48.7,2.4c6.8-0.5,13.6-0.2,20.5-0.1
			c1.3,0,2.6,1,3.9,1.6c-8.5,3.7-16.9,14.2-17.7,22.2c-0.1,2.3-0.2,4.6-0.4,6.9c-0.3,0.2-0.6,0.5-0.9,0.7
			C53.7,34.6,53.5,35.7,52.2,34.9z"/>
		<path style="fill:#828A80;" d="M24.4,24.1c-1.7,2.3-3.5,4.6-5.2,6.9c-0.7-0.5-1-1.3-1.1-2.1c0.4-1.3,0.8-2.6,1.1-3.9
			c0.6-0.5,1.3-1,1.9-1.4c1-0.6,2.1-1,3.1-1.5c0.1,0.1,0.3,0.3,0.4,0.4C24.9,23.1,24.8,23.7,24.4,24.1z"/>
		<path style="fill:#828A80;" d="M26.2,15.7c0.5,0.8,1.1,1.5,1.6,2.3c0.1,2.5-0.6,4.3-3.6,4.1l0.1,0.1C24.9,20,25.6,17.9,26.2,15.7z
			"/>
		<path style="fill:#DCE8DB;" d="M24.2,22.1c1.2-1.4,2.4-2.7,3.6-4.1c3.1-1.6,6.1-3.5,9.4-4.5c1.8-0.6,4.1,0.4,6.2,0.7
			c0.2,0.4,0,0.7-0.4,0.9c-0.3,1-0.5,2-0.8,3c-0.1,0.9-1,1.3-1,2.2c-0.3,0.6-0.6,1.2-1,1.7c-1.2,1.9-2.3,3.8-4.1,5.2
			c0,0.3,0,0.6,0,0.9c-0.7,1-1.4,1.9-2.8,1.1c-1.2-6.5-2.2-7.1-8.9-5.1C24.3,23.5,24.3,22.8,24.2,22.1z"/>
		<path style="fill:#F7F6EC;" d="M25.2,44.1c-2.2,3.1-4.5,6-6.5,9.2c-1.1,1.7-1.6,3.8-3.5,0.8c-0.3-4.7,0.7-9.4-1-14
			c1-2.8,1.7-3.6,4.2-0.7c1.4,1.7,4.5,1.8,6.9,2.7c0.5,0.6,0.5,1.2,0,1.9L25.2,44.1z"/>
		<path style="fill:#FEFEFE;" d="M14.2,40.1c2.9,4.5,2.4,9.2,1,14c-0.3-1-0.7-2-1-3c0-2.7,0-5.3,0-8C14.2,42.1,14.2,41.1,14.2,40.1z
			"/>
		<path style="fill:#9DA39B;" d="M25.3,44c0-0.6,0-1.3,0-1.9c1.3-1.7,2.6-3.3,3.9-5c0.6-0.6,1.3-0.6,2,0l0.5,0
			C28.9,38.9,30,44,25.3,44z"/>
		<path style="fill:#646B66;" d="M31.1,37.1c-0.7,0-1.3,0-2,0c1.4-2,2.8-4,4.2-6c0.3-0.7,0.7-1.3,1.6-1.1c0.5,0.1,0.4,0.6,0.2,1
			C33.8,33.1,32.5,35.1,31.1,37.1z"/>
		<path style="fill:#9FABA1;" d="M35.1,31c-0.6,0-1.2,0.1-1.8,0.1c0-0.6,0-1.3,0-1.9c1-0.4,1.9-0.7,2.9-1.1
			C35.8,29.1,35.5,30.1,35.1,31z"/>
		<path style="fill:#3D443D;" d="M18.1,28.9c0.4,0.7,0.8,1.4,1.1,2.1c-0.6,0.2-1.1,0.3-1.7,0.5C17.7,30.7,17.9,29.8,18.1,28.9z"/>
		<path style="fill:#E7DCD6;" d="M10.1,184.2c1,1.6,2.1,3.2,3.1,4.8c0.9,0.3,1.8,0.6,2.7,0.8c1.4,0.3,2.7,0.4,4.1,0.6
			c1.7,1.5,2.2,3.4,1.5,5.5c-1.1-0.5-2.2-1.1-3.3-1.6c0.3,1.2,0.7,2.4,0.7,3.5c0,1.5,0,3.3-0.8,4.5c-0.4,0.6-2.7,0.7-3.7,0.1
			c-3.1-1.8-5.8-5.5-9.4-0.7c-0.1,0.1-1.7-1.1-2.6-1.6c-0.1-5.4-0.1-10.8-0.2-16.1c1.1-0.8,2.2-1.6,3.2-2.4c0.9,1.5,1.9,3,2.8,4.5
			C8.9,185.5,9.5,184.9,10.1,184.2z"/>
		<path style="fill:#F0E7E9;" d="M12.8,233.2c2.1-0.4,4.2-0.8,6.4-1.2c-2.1,3.8-6,6.1-7.8,10.3c-1.9,4.2-4,8.4-5.3,12.8
			c-0.5,1.5-0.6,3.3-2.3,4.2c-0.5,0.1-1,0-1.4-0.4c-0.1-4-0.2-8-0.3-12c0.1-7.6,0.2-15.2,0.4-22.7c3.1,0.4,3.3,3.6,5.1,5.2
			C9.1,231.1,10,233.5,12.8,233.2z"/>
		<path style="fill:#434447;" d="M12.8,233.2c-0.3,3.5-2.2,1.5-2.9,0.6c-2.6-3-5-6.3-7.5-9.5c0-1.1-0.1-2.2-0.1-3.3
			C5.8,225.1,9.3,229.2,12.8,233.2z"/>
		<path style="fill:#DFDBE1;" d="M13.2,288.1c0.4,1,0.7,1.9,1.1,2.9c2.3,3.1,0.9,6.7,1.2,10c0.2,2-0.1,3.9,0.3,5.9
			c0.7,1.7,0.7,3.6,1.2,5.4c0.4,0.9,0.8,1.7,1.2,2.6c3.5,2.6,7.2,4.9,10.9,7.1c3.9,2.1,7.7,4.7,12.5,3c0.5-0.2,1.6,0.4,1.9,0.9
			c1.6,3,0.2,10.6-2.4,13.2c-3.7,0.9-2.8-4.3-5.9-4.5c-0.8-0.1-1.3-1.4-2-2.1c-1.7-2-1.8,0.9-2.8,0.9c-0.7,0-1.3-0.4-1.6-1
			c-0.2-0.2-0.2-0.5-0.2-0.8c-0.2,0-0.2,0.2-0.1,0.6c0.2,0.8,0.1,1.5-0.5,2.1c-0.8,0.2-1.3-0.2-1.7-0.8c-0.6-2.7-1.5-5.1-4.7-5.6
			c0,1.2,1.2,2.3,0.5,3.6c-3.8,0.9-4.8-0.2-5.5-5.8c1.2-1.3,0.7-2.7,0.3-4.1c-0.9,1.3,1.3,2.8-0.2,4c-3.7,2.1-7.7,3.7-10.9,6.6
			c-0.7,0.6-2.3,2.9-3.2-0.1c0-6.6,0-13.3,0-19.9c-0.4-3.4,2.5-1.7,3.8-2.4c0.5,0.1,0.9,0.3,1.2,0.6c0,3.6,2.2,6,5.7,8.8
			c-1.7-4.4-5.2-6.5-6.5-9.9c-4-2.1-4.4-5.6-4.2-9.6c0.2-3.8,0.4-7.6-0.3-11.4c0-9.7,0-19.3,0-29c0.3,0,0.7,0.1,1,0.1
			c0.9,7.3,1.9,14.6,2.8,21.9C8.4,283.6,10.3,286.3,13.2,288.1z"/>
		<path style="fill:#F1E4E3;" d="M17.2,325.3c1.6,2.1,0.4,6.6,5.2,5.8c3.5-4.7,3.5,0.2,4.8,1.7c0.4,0.4,0.8,0.8,1.2,1.2
			c0.7-0.5-0.1-1.8,1.2-1.9c0.3,0.2,0.4,0.5,0.6,0.8c1.8,3.1,6.8,2.8,7.6,6.9c-0.5,1.5-1.9,2.2-3.2,3c-3.4,2-6.6,4.4-9.8,6.8
			c-4.6,3.5-5.3,8.9-7.8,13.4c-4.2,0-8.5,0-12.7,0c-0.3-0.3-0.7-0.7-1-1c-1.3-4-0.2-8.2-0.6-12.3c-0.3-3.5,1.6-2.9,3.6-1.9
			c1.6,0.7,2.6,3.6,6,1.1c-2.5,0.1-4.5,0.3-5.2-1.9c-4.3-3.9-5.6-8.5-3.8-14C7.3,329.4,11,325.2,17.2,325.3L17.2,325.3z"/>
		<path style="fill:#B5B4B8;" d="M3.3,333.1c-0.1,4.4-1.5,9.3,4.2,11.7C8,345,8,346.3,8.3,347c-0.7,0.6-0.1,1.9-1.3,2.2
			c-1.2-0.3-2.4-0.7-3.7-1.1c0,4.6,0,9.2,0,13.8c-0.4-1.2-1.1-2.4-1.1-3.6c0-23.5,0.1-46.9,0.2-70.4c0.3,3.1,1.1,6.3,0.7,9.3
			c-0.8,5.3,1.6,8.7,5.1,11.8c0.2,0.9-0.1,1.3-1,1c-0.2,0.1-0.5,0.1-0.7,0.1c-0.5,0-1.2-0.1-1.4-0.5c-1.3-2.5-1.3,0-1.9,0.4
			C3.2,317.8,3.3,325.5,3.3,333.1z"/>
		<path style="fill:#4C4F4E;" d="M22.3,65.2c-0.7,1.3-1.4,2.6-2.1,3.9l0,0c-1.8-0.5-3.4-1.4-5.1-2.1c-2.8-6.3-2.1-7.9,4.2-10
			c-0.1,1.8-0.7,3.7-0.2,5.3C19.5,63.5,21.2,64.3,22.3,65.2z"/>
		<path style="fill:#161818;" d="M15.1,67.1c2.6-1.5,3.7,0.7,5.1,2.1c-1,1-2,2.1-2.9,3.1c-1.4,0.3-2.7,0.6-4.1,0.8
			C13.8,71.1,14.5,69.1,15.1,67.1z"/>
		<path style="fill:#9BA39C;" d="M61.1,64c-0.3,0-0.6,0.1-0.8,0.1c-0.7-0.8-0.7-1.6-0.1-2.4c1.1-1.1,2.3-2.1,3.4-3.2
			c0.1,0.1,0.3,0.2,0.4,0.4C63,60.6,62.1,62.3,61.1,64z"/>
		<path style="fill:#787A70;" d="M52.2,34.9c0.6-0.4,1.3-0.7,1.9-1.1c0.1,0.5,0.1,1,0.2,1.5c-1,1.4-1.9,2.8-2.9,4.1
			c-0.4-0.3-0.8-0.5-1.3-0.8C50.8,37.4,51.5,36.1,52.2,34.9z"/>
		<path style="fill:#C1D7CF;" d="M121.2,12.9c-2.6-2.7-5.2-5.3-7.9-8c-0.4-1-4-2.4,0.4-2.7c1.8-0.1,3.7-0.2,5.5,0
			c2.3,0.3,4.6,0.8,7,1.2c-1.1,2.4-2.1,4.8-3.2,7.1c-0.3,0.6-0.8,1-1.2,1.5C121.8,12.5,121.6,12.8,121.2,12.9z"/>
		<path style="fill:#A1B9B5;" d="M121.2,12.9c0-0.3,0.2-0.6,0.5-0.7c1.8-0.7,3.6-1.3,5.3-2c0,2.9,0,5.9,0,8.8
			C125.1,16.9,123.2,14.9,121.2,12.9z"/>
		<path style="fill:#939892;" d="M40.9,56.4c-0.1-1.4-0.5-2.3-0.2-2.9c1.2-2.6,2.5-5.2,4-7.6c0.3-0.5,1.4-0.5,2.2-0.7
			c0.1,0.7,0.5,1.5,0.3,1.9c-1.3,2.6-2.7,5.1-4.2,7.7C42.6,55.2,42,55.5,40.9,56.4z"/>
		<path style="fill:#828582;" d="M36.9,64.9c-0.5-1.4-0.8-1.7-0.7-1.9c0.8-1.6,1.7-3.3,2.7-4.8c0-0.1,0.8,0.3,1.2,0.5
			C39.2,60.5,38.2,62.4,36.9,64.9z"/>
		<path style="fill:#565B58;" d="M60.2,61.7c0,0.8,0,1.6,0.1,2.4c-1,1.2-2,2.3-3,3.5c0.3-1.5,0.5-3.1,1-4.6
			C58.5,62.5,59.5,62.2,60.2,61.7z"/>
		<path style="fill:#F0F1E3;" d="M60.2,74.1c0,0.7,0,1.4,0.1,2c-0.7,1.6-1.4,3.2-2,4.8C58.9,78.7,59.5,76.4,60.2,74.1z"/>
		<path style="fill:#183646;" d="M44.3,103.1c-0.4,1.3-0.7,2.7-1.1,4c-2.7,2.3-4.5,5.7-8,7c-1.5-1.4,3.6-6.8-3.1-5.1
			c-1.2-2.2-0.1-3.6,1.9-2.7C38.5,108.2,41,104.7,44.3,103.1z"/>
		<path style="fill:#477D97;" d="M23.2,121c0.7,1,1.3,2.1,2,3.1c-0.6,0.5-1.2,1.1-1.8,1.6C23.3,124.1,23.2,122.5,23.2,121z"/>
		<path style="fill:#477D97;" d="M26.2,122c0.6-1.3,1.3-2.6,1.9-3.9C27.5,119.4,26.8,120.7,26.2,122z"/>
		<path style="fill:#484744;" d="M51.2,205.1c0.1,0.3,0.2,0.7,0.3,1c0.6,1.3,1.5,2.5,1.3,4.1c-0.2,0.8-0.6,1.3-1.6,1
			c-2.2-4.1-4.3-7.6-10.3-7.1c-2.7,0.2-5.6-3.2-8.5-5c1.7-0.4,3.4-0.8,5.1-1.2l0.5,0l0.2,0.4l0-0.1c1.1,3.2,3.3,3.6,6.2,2.4
			C50.2,198.3,50.3,198.4,51.2,205.1z"/>
		<path style="fill:#151415;" d="M113.9,247.3l-4-2l-4-2.1c-8.8-5.3-18.5-11-26.3-15.8c-10.1-6.3-18.9-11.9-28.2-17.8
			c7.3,3.1,16.8,7.7,26.7,12.5c4,2,8,4,12.1,6.1c6.2,3.3,10.4,5.7,11.5,6.8c-6.4-2.7-3.4-0.8,4.4,3.3c8,4.7,15.7,9.1,18.8,11.6
			C127.4,252.3,128.1,253.7,113.9,247.3z"/>
		<path style="fill:#131417;" d="M30.2,226c-2,0.7-4.1,1.3-6.1,2c-1.4-0.2-2.8-0.5-4.2-0.7c-0.2-0.4-0.4-0.7-0.6-1.1
			c1.9-0.8,3.8-1.6,5.7-2.4c0.2,1.1,0.5,2.2,0.8,3.4C27.2,226.9,28.7,226.5,30.2,226z"/>
		<path style="fill:#7A7A79;" d="M36.3,224c-1.1,0.4-2.1,0.7-3.2,1.1c-1-2.1-2-4.2-3-6.4C33.6,217.1,34.3,217.5,36.3,224z"/>
		<path style="fill:#131516;" d="M21.5,195.9c-0.5-1.8-1-3.7-1.5-5.5c0.5-0.5,1-1,1.5-1.5c0.5,0.4,1.1,0.8,1.6,1.2
			C22.5,192,26.9,195.4,21.5,195.9z"/>
		<path style="fill:#151415;" d="M62.8,215.3c-3.5-1.5-7-2.9-10.5-4.4c-0.8-1.1-1.6-2.2-2.5-3.3c1.2,0.3,2.4,0.6,3.5,0.8
			c1-0.1,2.3,0.4,3.8,1.5l-0.3,0C59.7,212,62.9,214,62.8,215.3z"/>
		<path style="fill:#040504;" d="M24,168.3c0.4-0.7,0.7-1.4,1.1-2c-0.2,3.2-0.5,6.4-0.7,9.6C24.2,173.3,24.1,170.8,24,168.3z"/>
		<path style="fill:#F0F1E3;" d="M122.2,77.1c-0.3,0.7-0.6,1.4-0.9,2.1c-0.3-0.6-0.7-1.2-1-1.9C121,77.2,121.6,77.2,122.2,77.1z"/>
		<path style="fill:#F5EDE5;" d="M51.2,205.1c-0.8-1.9-1.6-3.8-2.4-5.7c-8.2,4.1-9.6,3.9-10.7-1.3c2.8,2.9,5.2,2.9,7-1.1
			c2.3,1.2,3.8-2.5,6.2-0.8c1,1.6,2,3.3,3,4.9c-0.6,0.5-0.2,1.6-1,2C52.5,203.8,51.8,204.4,51.2,205.1z"/>
		<path style="fill:#474542;" d="M51.2,196.2c-2.1-0.3-3.6,4.4-6.2,0.8c1.6-1,3.3-2,4.9-3C50.4,194.8,50.8,195.5,51.2,196.2z"/>
		<path style="fill:#4F4943;" d="M53.2,203.1c0.3-0.7,0.7-1.3,1-2c0.4,1.5,0.8,3.1,1.1,4.6c-0.4,0.1-0.8,0.2-1.1,0.3
			C53.9,205,53.5,204.1,53.2,203.1z"/>
		<path style="fill:#999387;" d="M56.3,193.8c0.1-1.1,0.1-2.2,0.2-3.2c0.4,0.1,1.2,0.1,1.2,0.3c0.1,1,0.1,2,0.1,3
			C57.2,193.8,56.8,193.8,56.3,193.8z"/>
		<path style="fill:#67635B;" d="M46.4,193.8c-0.5-0.8-1.1-1.6-1-1.6c0.7-0.6,1.4-1.2,2.2-1.7c0,0,0.8,0.7,0.7,0.8
			C47.8,192,47.2,192.7,46.4,193.8z"/>
		<path style="fill:#F5EDE5;" d="M53.3,210c-0.4,0.1-0.8,0.2-1.1,0.4c-0.2-1.4-0.5-2.8-0.7-4.2C52,207.4,52.7,208.7,53.3,210z"/>
		<path style="fill:#98A59A;" d="M36.2,27.3c1.4-1.7,2.7-3.5,4.1-5.2C40.1,24.7,39.6,27.2,36.2,27.3z"/>
		<path style="fill:#A5B7B1;" d="M48.8,11.5c-1,0.7-1.5,1.3-2.2,1.4c-0.3,0.1-1.1-0.9-1-1.1c0.1-0.5,0.7-1.1,1.2-1.2
			C47.3,10.4,47.8,10.9,48.8,11.5z"/>
		<path style="fill:#A7B5AA;" d="M43,15.1c0.2-0.3,0.3-0.6,0.4-0.9c0.8,0.4,1.5,0.8,2.3,1.2c-0.2,0.4-0.4,0.8-0.6,1.1
			C44.4,16,43.7,15.6,43,15.1z"/>
		<path style="fill:#8A968C;" d="M41.2,20.4c0.3-0.7,0.7-1.5,1-2.2C41.9,18.9,41.5,19.6,41.2,20.4z"/>
		<path style="fill:#A6A0A3;" d="M37.2,340.1c-0.7-0.7-1.4-1.3-2.1-2c-1.7-1.7-3.3-3.4-4.9-5.1c0.6-0.9,1.2-1.9,1.8-2.8
			c1.1,0.9,2.3,1.7,3.3,2.7c2.1,2.1,4,4.3,6,6.4c0,0.3-0.1,0.6-0.1,0.9C39.9,341.1,38.5,341.3,37.2,340.1z"/>
		<path style="fill:#5D6167;" d="M15.1,308.3c-0.2-5.8-0.5-11.5-0.7-17.3c1,0.4,2.7,0.8,2.8,1.3c0.6,3.6,0.7,7.2,1,10.8
			c-1,0.8,0.6,3.1-1.7,3.1c-1.5-3.6-0.5-7.3-0.5-10.7C14.8,299.5,16.9,304.1,15.1,308.3z"/>
		<path style="fill:#72777D;" d="M13.2,288.1c-4.5-0.1-6.3-3-7-7c0.5-1.4,1-2.9,1.7-4.7C9.7,280.5,11.5,284.3,13.2,288.1z"/>
		<path style="fill:#687076;" d="M20.5,302.2c3,4.9,5.9,9.7,8.5,14C23.7,314.5,20.6,309.7,20.5,302.2z"/>
		<path style="fill:#7E8086;" d="M29.2,322.1c-3.6-2.4-7.3-4.7-10.9-7.1C23.5,314.9,26.4,318.5,29.2,322.1z"/>
		<path style="fill:#16191C;" d="M15.1,308.3c0-4.6,0-9.3,0-13.9c0.2,0,0.5,0,0.7,0c0.4,4,0.8,7.9,1.3,11.9c1,0.4,1.1,1.4,1.4,2.3
			c0.2,0.9,0.5,1.8-0.2,2.6c-0.3,0.4-0.7,0.8-1,1.2C16.4,311,15.7,309.6,15.1,308.3z"/>
		<path style="fill:#CBBDB2;" d="M20.5,273.3c-1.5,1.3-2.9,2.5-4.4,3.8c-0.9,0.1-1.7,0.2-2.6,0.3c0.2-1.7,0.5-3.5,0.7-5.2
			c1.7-1.3,3.4-0.2,5,0.1C19.7,272.6,20.1,272.9,20.5,273.3z"/>
		<path style="fill:#C7C9CA;" d="M27.3,283.1c0.3,1.1,0.6,2.3,0.9,3.4c-1.1,0.1-2.8,0.7-3.1,0.3c-0.7-1-0.7-2.5-1-3.8
			C25.1,281.8,26.2,279.5,27.3,283.1z"/>
		<path style="fill:#5D6167;" d="M18.1,311.1c-0.2-0.7-0.5-1.5-0.7-2.2c0.9-1.5-0.3-3.4,0.9-4.9c1,3,1.9,5.9,2.9,8.9
			c-0.2,0.2-0.4,0.3-0.6,0.5C19.7,312.6,18.9,311.9,18.1,311.1z"/>
		<path style="fill:#514C4A;" d="M37.2,340.1c1.3,0,2.7,0,4,0c-0.3,1-0.5,2-0.8,3.1c-1.7,0-3.4,0-5.2-0.1c-0.4-0.4-0.8-0.8-1.2-1.1
			C35.1,341.3,36.1,340.7,37.2,340.1z"/>
		<path style="fill:#5B7D8F;" d="M25.3,253.2c1.1-1.8,2.2-3.6,3.9-6.2c0,2.8,0,4.5,0,6.2C27.8,253.2,26.6,253.2,25.3,253.2z"/>
		<path style="fill:#A3A5AB;" d="M36.2,320.5c2.2,0.2,4.4,0.5,6.6,0.7c-0.1,0.6-0.2,1.3-0.2,1.9c-2.2-0.4-4.4-0.7-6.7-1.1
			C36,321.5,36.1,321,36.2,320.5z"/>
		<path style="fill:#787069;" d="M19.3,272.3c-1.7,0-3.3-0.1-5-0.1c1-4.6,4.1,0.6,5.7-1.2C19.8,271.4,19.5,271.8,19.3,272.3z"/>
		<path style="fill:#3A4E52;" d="M21.2,281.1c1-0.7,2-1.3,3-2c0,0.4,0.1,0.7,0.1,1.1C23.3,280.5,22.2,280.8,21.2,281.1z"/>
		<path style="fill:#C0C3C9;" d="M18.3,304c-0.3,1.6-0.6,3.3-0.9,4.9c-0.1-0.9-0.3-1.8-0.4-2.7c0.4-1,0.8-2,1.2-3.1
			C18.2,303.4,18.2,303.7,18.3,304z"/>
		<path style="fill:#9D9FA6;" d="M7.2,310.1c0.3-0.3,0.7-0.7,1-1c3-1.4,1.8,0.7,1.5,1.9c-0.3,1.4-1.6,3.5,1.6,1.7
			c1.2,2.3,2.5,4.6,3.7,6.9c-0.5,0.3-1,0.5-1.4,0.8C10.1,317.9,6.1,315.6,7.2,310.1z"/>
		<path style="fill:#9D9BA1;" d="M27.1,332.8c-0.3,0-0.9,0.1-1,0c-0.8-1.6-1.8-2.8-3.9-1.7c-0.9-1.6-1.7-3.2-2.6-4.8
			C22.8,328,28.4,327.1,27.1,332.8z"/>
		<path style="fill:#727378;" d="M17.1,325.2c-0.6-1.9-1.2-3.9-1.8-5.8c0.9-0.1,1.8-0.2,2.7-0.3C17.7,321.1,17.4,323.2,17.1,325.2
			L17.1,325.2z"/>
		<path style="fill:#7E8188;" d="M3.2,310.2c0.1-0.8,0.3-1.6,0.4-2.4c1,0.8,1.9,1.6,2.9,2.4C5.4,310.2,4.3,310.2,3.2,310.2z"/>
		<path style="fill:#564E54;" d="M29.6,332.1c-0.4,0.6-0.8,1.3-1.2,1.9c-0.1-0.7-0.2-1.3-0.1-2c0.1-0.7,0.3-1.4,0.5-2.1
			C29,330.7,29.3,331.4,29.6,332.1z"/>
		<path style="fill:#7E797A;" d="M7,349.2c0.4-0.7,0.9-1.5,1.3-2.2c1,0.1,2.7,0,3,0.5c0.7,1.4,0.8,3.2,1.2,4.8
			C10.6,351.3,8.8,350.2,7,349.2z"/>
		<path style="fill:#645F5D;" d="M14.4,355c0-1.4,0-2.7,0-4.1c0.2,0,0.4,0,0.6,0c0,1.4,0,2.8,0,4.2C14.8,355,14.6,355,14.4,355z"/>
		<path style="fill:#131414;" d="M82.8,100.7c1.7,2.7,3,1.1,4.6-0.2c1.1-0.9,2.8-1.1,4.2-1.6c-0.1,1.2-0.4,2.3-0.3,3.5
			c0.2,1.4,0.7,2.7,1.1,4.1c1-0.4,1.9-0.8,2.9-1.2c2.4-0.8,4.8-1.5,7.7-1.8c-6.9,2.2-1.9,6-2.4,8.9c3.1-1.4,5.7-2.6,8.2-3.7
			c1.4-1.4-0.5-3.7,1.3-5.1c0.2,0,0.5,0.1,0.7,0.1c-0.9,3.9-1.7,7.8-2.7,11.6c-0.1,0.5-1.1,1-1.8,1.2c-2.7,1.1-6.7-1.3-8.2,3
			c-1-1.2-2.5-2.4-2.8-3.7c-0.3-1.9,0.8-4.2-2.6-4c-2-1.1-1.5,2.1-3,1.8c-1,0.4-2,0.8-3,1.2c0-2,0.1-3.9,0.1-5.9
			c0-1-0.2-1.9-0.4-2.9c-1,0.5-2.1,1-3.1,1.5c-1.1,0.7-1.1,4.7-3.6,1.2C79.9,105.6,77.2,101.6,82.8,100.7z"/>
		<path style="fill:#596262;" d="M95.2,120c-15.3,24.2-30.6,48.6-45.7,72.3c-1.8,2.8-2.9,3-3,2.1c-0.1-0.5,3.4-7.8,4.3-9.1
			c16.3-25.6,32.4-50.8,48.5-76C97.9,112.9,96.5,116.4,95.2,120z"/>
		<path style="fill:#596262;" d="M66.2,109.5c-15.3,24.2-30.6,48.6-45.7,72.3c-1.8,2.8-2.9,3-3,2.1c-0.1-0.5,3.4-7.8,4.3-9.1
			c16.3-25.6,32.4-50.8,48.5-76C68.9,102.4,67.6,105.9,66.2,109.5z"/>
		<path style="fill:#596262;" d="M116.6,138c-15.3,24.2-30.6,48.6-45.7,72.3c-1.8,2.8-2.9,3-3,2.1c-0.1-0.5,3.4-7.8,4.3-9.1
			c16.3-25.6,32.4-50.8,48.5-76C119.3,130.9,117.9,134.5,116.6,138z"/>
		<path style="fill:#596262;" d="M114.3,32C99,56.2,83.7,80.6,68.6,104.3c-1.8,2.8-2.9,3-3,2.1c-0.1-0.5,3.4-7.8,4.3-9.1
			c16.3-25.6,32.4-50.8,48.5-76C117,24.9,115.7,28.5,114.3,32z"/>
		<path style="fill:#131414;" d="M58.6,88.5c1.7,2.7,3,1.1,4.6-0.2c1.1-0.9,2.8-1.1,4.2-1.6c-0.1,1.2-0.4,2.3-0.3,3.5
			c0.2,1.4,0.7,2.7,1.1,4.1c1-0.4,1.9-0.8,2.9-1.2c2.4-0.8,4.8-1.5,7.7-1.8c-6.9,2.2-1.9,6-2.4,8.9c3.1-1.4,5.7-2.6,8.2-3.7
			c1.4-1.4-0.5-3.7,1.3-5.1c0.2,0,0.5,0.1,0.7,0.1C85.8,95.2,85,99.1,84,103c-0.1,0.5-1.1,1-1.8,1.2c-2.7,1.1-6.7-1.3-8.2,3
			c-1-1.2-2.5-2.4-2.8-3.7c-0.3-1.9,0.8-4.2-2.6-4c-2-1.1-1.5,2.1-3,1.8c-1,0.4-2,0.8-3,1.2c0-2,0.1-3.9,0.1-5.9
			c0-1-0.2-1.9-0.4-2.9c-1,0.5-2.1,1-3.1,1.5c-1.1,0.7-1.1,4.7-3.6,1.2C55.6,93.4,53,89.4,58.6,88.5z"/>
	</g>
	<g id="funky-brenda_1_">
		<path style="fill:#7D8785;" d="M28.4,105.2c0,2.5-12.9,25.8-13.4,28.2c-0.2,1-2.3,1.6-3.5,2.3c-0.1,0.1-1.5-4.1-1.6-4.3
			c-0.5-0.8-1.1-1.6-1.7-2.3c0.7-1.2-3.1-7.3-2.1-9c0.6,1.9,9.6-12.4,10.1-10.9C17.4,107.7,27.4,106.3,28.4,105.2z"/>
		<path style="fill:#010102;" d="M124.2,104.1c1,0.3,2.1,0.7,3.1,1c0.3-0.5,0.5-0.5,0.8,0c0,21.6,0,43.3,0.1,64.9
			c-0.3,0.4-0.6,0.5-1.1,0.4c-0.8-0.2-1.6-0.6-2.3-0.9c-1.5-0.5-3.6,0-4.3-2.2c-0.1-0.4-0.2-0.9-0.2-1.3c0-0.5,0.1-0.9,0.3-1.3
			c0.9-2.1,2.1-4,2.6-6.3c0.6-6.4-0.6-12.4-4.4-17.7c-0.4-0.3-0.8-0.5-0.9,0.3c0.1,0.4,0.1,0.8,0.1,1.2c-0.3,1.5-0.8,2.5-2.5,1.4
			c-0.9-0.6-1.8-1.3-2.9-1.5c-2.6-0.9-5.1-1.2-7.7-0.2c-1.3,0.4-2.4,0.3-3.5-0.5c-1.5-1.1-1.8,0.4-2.3,1.3c-0.3,0.6,0.1-0.1-0.2,0.5
			c-1.7,2.8-2.9,6.1-5.4,8.1c-3.2,2.6-5.8-2-9.1-1.6c-1.9-1-3.6-2.2-5.6-3c-3.5-2.4-8-2.9-11.2-5.9c-2.7-3.4-1.2-7.3,3.4-8.9
			c1.1-0.4,1.1-0.4,0-1.6c-0.2-0.4-0.3-0.9-0.2-1.4c0.8-1.8,2.1-1.5,3.5-0.8c0.4,0.1,0.6,0.7,1.2,0.6c-0.3-0.1-0.5-0.3-0.8-0.6
			c-0.7-0.7-0.9-1.5-0.9-2.5c2.1-7.5,5.6-9.6,11.2-6.8c0.4,0.1,0.7,0.9,1,0.6c0.4-0.5,0.1,0.3-0.3-0.3c-2.1-3.5-0.1-4,2.7-3.8
			c1.5,0.1,2.3,2,4,1.3c0.5-0.4,0.9-1,1.6-1c1.9-0.2,4.4-1.1,5.4-2.1c0.5,0,0.9,0.1,1.3,0.3c0.5,0.1,1,1.5,1.4-0.3
			c0.4-2.1,2.3-2.6,3.7-1.3c2,1.8,4.2,1.2,6.8,1.2c-1.1-1.9-2.4-3.6-2.5-5.7c-0.2-4.8,3.6-6.2,6.9-7.9c1.3-0.7,2.5,0.2,3.5,1.1
			C121.6,102,122.8,103.2,124.2,104.1z"/>
		<path style="fill:#010202;" d="M128.1,364c-10.3,0.1-20.6,0.1-30.9,0.2c-0.3-0.4-0.6-0.8-0.7-1.2c1.1-5.5,4.6-9.4,8.8-12.8
			c2.3-1.9,4.6-3.8,7-5.6c1.9-1.4,2.5-3.1,0.8-5.1c-1.7-2-3-0.8-4.6,0.4c-6.4,5.2-11.6,11.9-20.1,14.3c-1.1,0.3-2.1,0.9-3.4,0.6
			c-1.8-1.2-3.4-2.8-5.8-2.7c-5.5-2.7-9.8-0.3-13.9,3.2c-2.6,2.3-4.4,5.4-7.7,6.9c-2.1,1-4.4,2.6-4.1-1.8c3.1-5,8.4-7.9,11.7-12.2
			c-5.7,1.7-9.1,6.4-12.7,11.1c-1.4,1.8-2.6,3.9-5.1,4.4c-2.2-0.3-4.4,0.6-6.5-0.6c-0.8-1.9,0.4-3.2,1.5-4.3c3.8-3.8,7.3-8,11.7-11
			c0.9-0.7,1.8-1.4,2.6-2.2c1.6-1.6,3.6-2.7,5.2-4.2c5.6-4.6,12.2-7.6,17.9-12c10.3-6.8,21.8-10.9,32.9-16.1
			c5.8-1.4,6.5-0.7,5.6,5.6c-0.5,1.5-0.9,3-1.8,4.3c-3.2,2.6-7.3,1.7-10.9,2.2c-7.3,1-13.8,4.1-20.5,6.7c-1.3,0-2.4,0.8-3.5,0.7
			c3.2-0.5,6.7-0.6,9.8-2.4c12.6-3.8,24,1.4,29.3,13.3c1.7,3.8,3.9,7.3,6.1,10.8c1,1.9,3.3,3.7,0.8,6c-2.6,0.1-3.8-1.8-5.2-3.5
			c-1-0.8-0.2-3.4-2.7-2.5c-2.1,1-4.4,1.9-6.7,1.7c-4.3-0.4-6.8,1.5-8.9,5.6c4,0.3,7.7,0.1,11.4,0.1c2.1,0,4.1-0.1,6.2,0
			c1.4,0,2.7,0,4,0.2C127,362.3,128.2,362.4,128.1,364z"/>
		<path style="fill:#5B7B84;" d="M128.1,364c-0.6-0.3-1.3-0.7-1.9-1c-0.5-1.3,0-2.2,1-2.9c-0.4-1.6-0.7-3.2-1.1-4.9
			c-0.4-5.6-0.1-11.2-0.3-16.8c-0.2-7.1-3.1-12.7-9.5-16.2c0.3-1.4,0.7-2.8,1-4.1c3.6-0.7,4.6,2.5,6.6,4.3c0.6,0.5,0.8,1.3,1.5,1.6
			c0-0.3-0.1-0.6,0-1c0.5-1.7-0.9-0.6-1.3-0.8c-1.6-0.9-2-2.4-1-3.7c3.2-4.2,2.6-9,2.7-13.8c0.2-6.9-0.5-13.9,0.4-20.8
			c0.5-2,0.5-4.1,0.5-6.2c-0.2-5,0.4-10.1-0.4-15.1c-0.2-0.9-0.2-1.7,0-2.6c0.7-2.5,0.5-5.1,0.4-7.7c-0.2-8.4-0.2-16.7,0-25
			c0-3.8,0-7.6,0-11.3c0-5.1,0-10.3,0-15.4c0-1.9-0.3-4,1.6-5.5c0.3,8.1,0.7,16.2,0.7,24.3c0.3,46.2,0.5,92.4,0.7,138.6
			C129.8,359.9,128.7,361.9,128.1,364z"/>
		<path style="fill:#485A5E;" d="M77,362.7c-2-1.2-4.2-0.8-6.3-1c-4.5-0.5-9,0.9-13.5-0.6c-0.8-0.7-3.1,3.9-2.8-0.8
			c-2.5-0.2-3.8,2.2-5.9,2.8c-2.4-0.3-4.8-0.6-7.2-1c-1.1-0.7-2.1-1.6-3.3-2.3c-1.9,1.1-3.7,2.2-6,1.6c-4,0.3-7.9,0.2-11.9,0.2
			c-1.1-0.1-2.3,0-3.4,0c-0.1,0-0.2,0-0.3,0c0.6,0.8,0.4,2.1-0.6,2.4v0c20.5,0,41,0,61.5,0.1C77.6,363.6,77.5,363.1,77,362.7z"/>
		<path style="fill:#5A4D42;" d="M128.4,195c-0.1,7.1-0.2,14.1-0.4,21.2c-0.7,0.1-1.3-0.2-1.6-0.9c-1.2-4.4-0.7-8.9-0.7-13.3
			c0-8.6,0-17.3,0.1-25.9c0-2.1-0.4-4.4,1.5-6c0.3-0.1,0.6-0.1,0.8,0C128.2,178.4,128.3,186.7,128.4,195z"/>
		<path style="fill:#1B3033;" d="M77.2,364.1c0.1-0.3,0.1-0.6,0.1-0.9c6.6-2.8,13.2-2.4,19.9-0.3c0,0.4,0.1,0.8,0.1,1.2
			C90.5,364.1,83.9,364.1,77.2,364.1z"/>
		<path style="fill:#020203;" d="M112,96c-3-1.7-6.9-2-9.4-4.1c-3.5-3-7.1-4.1-11.4-3.7c-2.3,1.2-4.6,1.4-7,0.1
			c-14.8-0.2-29.1,2.3-42.6,8.8c-6.1,2.9-12.3,6.1-19.3,6.1c-2,2-4.1,3.9-6.1,5.9c0.3,0.3,0.7,0.4,1.2,0.2c3.2-1.1,6.5-2.2,9.1-3.1
			c-3.8,6.6-7.6,13.2-11.4,19.8c-1,2-0.8,4.2-1.2,6.2c-0.3,1.8-0.4-1.9-1.7-2.3c-1.6-0.5-1.3,2.6-1.2,1.9c0.3-3.1-0.1-3.6-2.8-2.8
			c-3.8,9.8-2.4,17.8,4,23.1c1.2,1.4,3.5,2.3,2.1,4.8c1.6,1.2,2.8,2.6,3.4,4.2c0.5-1.3,2.6-0.9,2.8,0.5c0-0.1,0-0.2,0-0.3
			c0.2-1.9,3.2-1.8,3,0.1c0,0.2,0,0.3,0,0.5c0.2,0,0.4,0,0.6,0.1c4.4-0.1,3-4.5,4.8-6.5c0.3-0.8,0.4-1.7,0.1-2.5
			c-0.1-0.4-0.3-0.5-0.6-0.6c0.2-0.2,0.5-0.2,0.7,0.1c0.9-0.2,1.5-0.7,2-1.6c0.3-0.7,0.4-1.4,0.4-2.2c-1.3-4.8-0.5-9.4,0.5-14.1
			c0.1-0.5,0-1-0.1-1.5c-2.7-1.5-2.7-1.5-1.7-4.9c0.8-2.4,0.9-4.9,0.7-7.4c-0.1-1.5,0-3.9-2.9-3.4c-1,1.1-1.3,2.7-2.3,3.8
			c-0.5,0.5-0.8,1.1-1.3,1.7c-1.4-0.5,0-1.1-0.1-1.6c1.6-4.8,6.4-7.4,8.5-11.9c0.3-0.7,0.6-2,1.5-1.7c4.9,1.5,7.8-1.8,11-4.4
			c8.7-4.9,18-7.7,27.9-8.8c6.4-0.8,12.7-2.7,18.6-1c-7.5,0.5-15.2,2.5-22.9,4.6c-1.3,1.4-1.5,2.8,0.2,4c3.4,1.5,6.6,1.9,9.5-1.1
			c1.1-1.1,2.7-1,4.1-1.5c5.3-1.9,10.8,1,16.2-0.6c0.1-2.7,1.4-2.3,3.2-1.4c1.2,0.6,2.5,0.8,3.8,1.2c5,1.4,5,1.4,3.1,6.4
			c-0.1,0.5-0.1,0.9-0.1,1.4c0.5,1.1,0.8,2.3,2.4,2c-0.7-4.7,3.4-5.5,6.1-7.2c0.8-0.5,3,1.5,4.6,2.3c0.7,0.4,1.5,0.6,2.2,0.9
			C120.1,101.4,116.2,98.5,112,96z"/>
		<path style="fill:#090A0A;" d="M36.3,176.2c-1.6-1.9-3.7-2.3-6-1.3c-1.4,0.7-2.6,1.6-3.7,2.6c-0.8,1-2.7,1.7-1.1,3.5
			c0.1,0.1,0.1,0.2,0.2,0.3c1.3,0.1,2.5,0.4,3.7,0.8c0.4,0.1,0.8,0.2,1.1,0.5c1.3,0.7,2.4,1.8,3,3.4c1.6,0.4,1.4,2.5,1.8,4.1
			c0.6,0.3,1.1,0.2,1.5-0.4C38,185.2,38.3,180.6,36.3,176.2z"/>
		<path style="fill:#1B1C1D;" d="M36.2,190.1c-0.3,0-0.6,0-1,0c-0.3,0.9-0.6,1.8-0.8,2.7c1,2.2,1.4,4.8,1.5,7.4
			c1-0.1,1.8-0.7,2.4-2.4C38.6,194.9,38.9,192.1,36.2,190.1z"/>
		<path style="fill:#D6D9D7;" d="M25.2,169c-0.2-0.5-0.3-0.9-0.6-1.3c-1.1-1.3-1.1-1.3-0.5-4.4c0.1-0.7-0.1-1.3-0.6-1.8
			c-0.4,4.6,0,9.1-0.2,13.7c0,0.1,0,0.1,0,0.2c0.3,1.3,0.4,2.7,0.8,3.9c1.1-0.7,1.4-1.7,1.6-2.9C25.6,173.8,25.7,171.4,25.2,169z"/>
		<path style="fill:#AFACA2;" d="M24,179.2c0.1-1.1,0.3-2.2,0.4-3.4c0.9-3.3,0.1-6.5,0.2-9.8c0.2-0.6,0.6-1,1.2-1.1
			c3.6,4.1,1.5,8.8,1.6,13.3c-0.6,0.9-1.3,1.8-1.9,2.7C24.9,180.4,24.4,179.8,24,179.2z"/>
		<path style="fill:#020203;" d="M7.5,131c1.1-2.1,3.7-17,4.8-19.1c0.5,0.2,1.7,0.1,2.2,0.3c-1,2.1-1.9-0.3-2.9,1.9
			C11,113.8,1.2,118.1,7.5,131z"/>
		<path style="fill:#B4B6AB;" d="M16.1,109.1c0.4,0.1,0.8,0.1,1.2,0.2c-1.3,1.3-2.5,2.6-3.8,4c-0.4-0.5-0.8-0.9-1.2-1.4
			C13.6,111,14.8,110,16.1,109.1z"/>
		<path style="fill:#343739;" d="M12.1,152.1c3.3,0.5,3.6,2.3,2.1,4.8C13.6,155.3,12.9,153.7,12.1,152.1z"/>
		<path style="fill:#010102;" d="M91.2,88.2c-2.3,2.6-4.6,3.3-7,0.1C86.6,88.3,88.9,88.2,91.2,88.2z"/>
		<path style="fill:#F9F3E1;" d="M30.2,151c0.1-0.6,0.1-1.3,0.2-1.9c1-2.7,3.6-4.9,2.9-8.2c2.1-5.2,2.3-5.2,6.9-0.8
			c-4.1-5.5-3.1-11.4,2.9-18.5c1.6-1.6,2.9-3.6,4.6-5.1c0.7-0.6,1.5-1.1,2.4-1.5c1.4-0.6,2.3-1.7,3.4-2.8c2.2-2.1,3.4-1.4,3.8,1.4
			c0,2.5-1.5,4.7-1.2,7.1c0.5-1.5-0.3-4,2.5-4c2,0,2.5,1.9,2.9,3.5c1.1,4.8,2.4,9.7,3.1,14.6c-0.5,2.9,1.6,4,3.7,5c3.7,2,7.4,4,11,6
			c0.6,0.6,1.3,1,2,1.4c3.3,2.3,3.5,4.2-0.1,5.7c-6.8,2.7-9.1,8.6-11.8,14.5c-2,4.4-1.7,8.7,0.5,12.9c1.3,2.5,1.5,5.4,2.8,7.9
			c0.7,1.3,0.2,2.6-1.2,3.4c-2.1,0.8-4.1-0.3-6-0.4c2.9,1,6.4,0.7,9.2,2.7c0.8,0.7,1.5,1.3,1.9,2.3c0.2,3.2-0.8,5.7-4.2,6.7
			c-3.2,0.4-6.4,0.5-9.2,2.2c-1.3,0.5-2.7,0.8-4,1.2c-2.2,0.7-2.4,3.8-5,4c-0.5,0-0.9-0.1-1.2-0.3c-0.8-1.3-1.5-2.7-2.1-4
			c-0.1-0.4-0.1-0.9,0.1-1.3c0.4-1,1-1.9,2.2-1.9c1.8-0.4-0.2-0.9,0-1.4c-1-1.5-3-2.5-2.8-4.8c-2.6-2.1-2.9,1.3-4.4,1.8
			c-3.7,3.6-5,3.6-7.9-0.1c-0.2-0.5-0.3-1.1-0.2-1.6c-0.3-7.3-0.9-14.5-1.4-21.8c0.2-0.8,0.6-1.5,1.3-2c1.3-0.8,2.5-0.4,3.7,0.2
			c4.9,3.2,9.1,0.8,13.3-1.5c2.5-1.5,1.5-4.7,3.1-6.6c0.2-0.6,0.5-1.3,0.8-1.8c0.2-0.4,0.6-0.7,0.9-1c0.3-0.1,0.7-0.2,0.9-0.4
			c0.3-0.3,0.2-0.4,0-0.3c-2.5,1.4-5.4,0.3-8,1.3c-3,0.4-5.6,1.8-8.5,2.6c-0.8-0.3-1.1-0.8-1.2-1.6c2.6-7.9,8-12,16.9-12.1
			c-7.3-1.6-11-0.2-15.2,5.1c-1.9,2.4-3.1,5.2-5.2,7.3c-1.7,1.8-3.2,4-6.2,3.6c-1.6-0.6-2.1-2-2.5-3.5c-0.1-0.7-0.1-1.4,0.2-2.1
			c2.3-2.2,2-4.5,0.3-6.9C30.2,153.9,28.8,152.8,30.2,151z"/>
		<path style="fill:#F9E5CD;" d="M71,191.2c0.1-1.1,0.6-2.4,0.3-3.3c-1.3-4.2-3.8-8.2-3.9-12.4c-0.2-4.4,1.5-9,3-13.3
			c1.8-5.4,5.7-8.9,11.2-10.5c0.4-0.1,0.7-2.2,0.3-3c-0.5-1.1-1.7-1.8-2.7-2.7c1.7,0.9,3.4,1.9,5,2.8c6.5,2.3,7.3,4.4,2.3,9.5
			c-3.9,4-4.2,9.6-7.8,13.6c-1.3,1.4-0.4,3.3,0.8,4.5c2.6,2.7,3.3,5.3,0.1,8.1c-1.3,1.2-1.6,3.3,0.3,3.5c4.8,0.7,9.3,3.4,14.5,1.3
			c5.6-2.2,6.5-6.7,6.8-11.6c0.4-6.1,0.7-12.3,0.6-18.4c0-2.9,0-6.1,3.1-7.9c1.6-0.5,3.2-0.1,4.7,0.5c1.8,1,2.9,2.2,1.3,4.3
			c-0.8,0.7-2.2-0.9-2.5,0.3c-0.2,0.8-0.1,2.3,1.3,2.8c0.9-0.1,1.7,0,2.4,0.5c0.3,0.4,0.5,0.8,0.6,1.2c0.1,1-0.2,1.8-1,2.4
			c-1.8,4.2-0.9,5.6,3.6,6c0.9-0.6,1.6-1.4,2.3-2.3c1-0.9,1.8-2.3,3.4-1.1c0,0.3,0,0.7,0,1c-0.6,1.9,0.7,3.9-0.3,5.8
			c-0.3,0.7-0.7,1.3-1.2,1.9c-1.6,1.7-3.6,2.5-5.8,2.6c-1.1,0.1-2.2,0.2-2.3,1.7c-0.3,4,0.6,8-1.2,11.8c-2.1,6.2-7.8,4.6-12.2,5.2
			c-2.3,0.3-4.4,0.2-6.3,2c-5.1,4.7-6.2,4.7-11.9,0.5c-1.2-0.9-2.3-1.9-3.7-2.4c-0.6-0.4-1.3-0.7-1.9-1.1
			C74.7,192.5,70.2,194.1,71,191.2z"/>
		<path style="fill:#F8D8C1;" d="M105.2,152.1c-0.7,2.3-1.8,4.6-1.9,7c-0.3,6.6,0.3,13.2-0.3,19.7c-0.8,8.7-6.6,14.8-16.7,11.9
			c-1.9-0.5-4-0.2-5.9-0.8c-1.4-0.5-2.9-1.6-3.5-2.8c-0.4-0.8,0.6-2.9,1.6-3.5c2.9-1.8,3.3-3,0.5-5.5c-3.2-3-4.1-6.5,0.6-9.3
			c0.5-0.3,1.3-1.2,1.1-1.5c-2.1-5,2.8-6.7,4.7-9.5c3.8-5.6,4.1-5.4-1.2-9c0.7,0.1,1.3,0.1,2,0.2c2.1,0.6,5.3,2.6,6,1.9
			c2.5-2.4,4-5.7,6-8.7c1.2-1.8,2.4-4.4,3.7,0c0.5,1.9,2.1,3.2,2.7,5.1C104.3,149,105.8,150.4,105.2,152.1z"/>
		<path style="fill:#F4D5BD;" d="M120.2,172.8c0.4-1.9,0.7-3.8,1.1-5.7c1.3,0.6,2.7,1.2,4,1.8c0.6,0.6,1.3,1.2,1.3,2
			c-0.1,7.6,0.7,15.2-0.5,22.8c-0.7,1.5-0.5,3.2-0.9,4.7c-0.1,0.5-0.3,1-0.5,1.5c-1.3,2.9-2,6-2.2,9.2c-0.1,2-0.3,4-2,5.4
			c-1.7,0.8-2.8,2.1-3.4,4c-0.3,1-0.8,2.4-2.4,1.2c-0.9-3.4-1-6.8,0.2-10.2c2-5.6,2.8-11.4,4.2-17.1c0.8-1.4,0.3-3.1,0.4-3.6
			c0,0.1,0.2,1.3-0.1,2.5c-1.9,9.9-5.8,19.4-5.9,29.7c-0.1,1.4-0.2,2.7-0.6,4c-1.7,1.3-1.1,6.3-5.4,3.3c-0.7-1.6-0.4-3.1,0.4-4.6
			c1.1-1.5,1-3.3,1.1-5.1c1-5.8,2.7-11.5,2.6-17.4c0-1.2,0.3-2.3,0.5-3.4c-0.3-0.2-0.1,0-0.2,0.4c-0.6,2.2,0,6.1-3.2,5.6
			c-2.7-0.4-1.1-3.9-1-6c0.1-2.3,0.8-4.5,1.4-6.7c0.4-4.7,0.8-9.5,1.2-14.2c0.6-0.2,1,0,1.3,0.5c0.1,3.3,0.1,6.7,0.1,10
			c0-2.8,0-5.6,0-8.4c0.2-1.7,1.3-1.6,2.5-1.3C120,179,120,179,120.2,172.8z"/>
		<path style="fill:#6CADCF;" d="M109.3,105.2c0.1,0.2,0.1,0.4,0,0.7c1,2.5-0.9,3.1-2.5,3c-3.5-0.2-5,1.3-5.3,4.7
			c-0.1,0.7-0.7,1-1.5,0.8l0,0c-2.3,1.5-6,0.2-7.2,3.7c-0.3,0.5-0.6,1-0.9,1.4c-1-0.9-1.8-2.1-2.9-2.7c-1-0.5-2.3-0.3-3.5-0.4
			c0.5,0.9,1,1.9,1.5,2.8c0.1,1.9-1.1,1.4-2.1,1c-5.5-3-8.7-1.2-10.6,6c-0.7,0.8-1.4,1.2-2.5,1c-1.9-0.2-0.9,1.1-0.8,1.8
			c0.1,0.3,0.3,0.6,0.4,0.9c-2.4,1.7-3.9-0.2-5.6-1.4c-1.4-2.2-1.3-4.8-1.2-7.3c0.2-3.3,0.8-6.5-1.7-9.4c-0.9-1-1.2-3.1,1.6-2.8
			c0.6,0.2,1.2,0.6,1.7,1c1.4,0.5,2.3-0.9,3.6-1c0.6-0.2,1.3-0.3,1.9-0.5c2.4-1.3,5.2-1.2,7.6-2.4c4.2-1,8.5,1.1,12.8-0.7
			c2.3-1,4.5-1.9,6.5-3.5C105.1,98.9,106.9,99.5,109.3,105.2z"/>
		<path style="fill:#F9EBD6;" d="M116.4,169.7c-0.9,0.7-2.6,2-2.7,1.9c-1.5-1.5-3.3-3.1-4-5.1c-0.9-2.2-0.1-3,1.6-3.3
			c1.9,0.1,1.9,0.1,1.1-1.8c0-0.3,0-0.6-0.1-1c-0.9-2.5,1.1-5.6-1.4-7.9c-1.6-0.8-3.1-1.5-3.2-3.6c0.3-1.4,1.1-2.2,2.4-2.6
			c2.9-0.7,5.1,0.2,6.3,3.2c0.8-2.7,2.4-5.4,0.8-8.3l0,0c-0.5-1.8-0.4-3.1,2-2c4.7,5.9,6.4,12.5,5.1,19.9c-1.3,1.9-2.4,4-2.8,6.3
			c0.2,0.3,0.2,0.5-0.1,0.7c-1,0.7-2.1,1.3-3.1,2c-2.4-4.5,1-7.9,2.3-11.6c0.4-1.2,0.1-2.4,0.2-2.8c0,0.2,0,1.2,0,2.1
			c-0.6,2-1.9,3.7-2.6,5.7c-0.9,2-0.9,4.1-0.9,6.2C117.1,168.4,116.8,169,116.4,169.7z"/>
		<path style="fill:#DFBEA5;" d="M124.3,194.2c0.6-0.9,1.8-1.9,1.8-2.8c-0.1-7.5-0.5-15-0.8-22.5c0.7,0.4,1.4,0.7,2.1,1.1
			c0,15.4-0.1,30.7-0.1,46.1c0,2.4-1.4,2.4-3.2,2c-0.5-1.2-0.4-2.5-0.1-3.7c1.2-1.4,0.7-2.9,0.7-3.8c0.4,0.7,0.1,2-0.3,3.3
			c-1.2,1.6-0.4,3.4-0.6,5.1c-0.8,1.6-1,3.7-3.2,4.2c-1.5-1-1.7-2.7-1-4c3.2-6.4,2.7-13.6,4.7-20.2l0,0
			C125.1,197.5,125,195.9,124.3,194.2z"/>
		<path style="fill:#3A8FB7;" d="M100.1,114.3c0.1-0.1,0.3-0.2,0.4-0.3c0.6-2,4.7-5.6,7.1-6.4c0.7-0.2,1.2-1.1,1.8-1.7
			c0.6,0.8,1.2,1.5,1.9,2.3c1.2,2.4,2.5,4.9,3.3,6.6c-2,0.4-3.9,0.9-5.9,0.9c-0.8,0-1.5-1.1-2.3-1.6c-0.9-0.6-1.9-1-2.9-1.5
			c0.1,1.2,0.2,2.3,0.3,3.5c0,0.5,0.1,0.9,0.3,2.5C102.4,116.7,101.3,115.5,100.1,114.3z"/>
		<path style="fill:#7397A8;" d="M66.1,128.1c1.8,0.6,3.6,1.2,5.5,1.8c1.3,1.2,2.7,2.5,4.5,4.2c-2.9,0.9-4.9-4-6.7,0.1
			c-0.8,1.8-3.5,3.2-1.1,5.7c-1.6-1.3-3.3-2.6-4.9-3.9C64.6,133.5,63.8,130.3,66.1,128.1z"/>
		<path style="fill:#141313;" d="M110,146.9c-0.7,0.7-1.4,1.3-2,2c-1.7,1.7-2.8,0.9-3.7-0.9c-1.3-2.5-2.5-5-3.9-7.6
			c-0.5,0.4-1.3,1.1-2.1,1.8c0.7-3.2,1.7-4.8,4.2-1.1c0.2,0.3,1.1,0,1.7,0c0.9,1.1,1.1,3.8,3.5,1.5c1.1-1,2.4-1.5,3.9-0.7
			c0.4,0.2,0.9,0.4,1.3,0.7c1.1,0.7,2.5,1.5,2.2,2.9c-0.4,1.9-2.1,0.8-3.3,1C111.3,146.7,110.6,146.6,110,146.9z"/>
		<path style="fill:#A09F9C;" d="M110,146.9c1.4-0.5,2.8-1.1,4.6-1.8c-1.3-1-2.5-1.9-3.7-2.8c0.4-1.1,1.6-0.5,2.2-1
			c0.9,0.3,1.8,0.6,2.7,1c0.4,0.2,0.8,0.5,1.2,0.8c0-0.6,0-1.3,0.1-1.9c4.4,3.8,0,7.4-0.2,11.6C114.9,150.1,114.7,145.7,110,146.9z"
			/>
		<path style="fill:#C9BFB5;" d="M113.1,141.3c-0.7,0.3-1.5,0.7-2.2,1c-2.1,1.2-4.1,2.4-6.6,3.9c0-1.9,0-3.5,0-5.2
			C107.2,141.2,110.2,141.2,113.1,141.3z"/>
		<path style="fill:#446171;" d="M89.2,136.1c-3.7-2-7.3-4.1-11-6.1c0.3-0.6,0.6-1.1,0.9-1.7c3.3,1.9,6.7,3.9,10,5.8
			c0.7,0.4,1.4,0.8,1.1,1.7C90.1,136.4,89.6,136.3,89.2,136.1z"/>
		<path style="fill:#324854;" d="M112.2,132.1c-2.4,0.4-4.9,0.8-8.7,1.4c3.7-3.2,6.5-5.6,9.2-8c0.4,0.4,0.9,0.9,1.3,1.3
			c-0.9,0.9-2.1,1.7-2.6,2.8C111.1,130.2,111.9,131.3,112.2,132.1L112.2,132.1z"/>
		<path style="fill:#4B6775;" d="M124.4,127.9c-2.7,2.4-5.5,4.8-8.2,7.2c-0.4-0.4-0.8-0.9-1.1-1.3c2.7-2.4,5.4-4.8,8.1-7.2
			C123.6,127.1,124,127.5,124.4,127.9z"/>
		<path style="fill:#233B47;" d="M89.2,136.1c0-0.7,0-1.3,0-2c0.3,0,0.7-0.1,1-0.1c1.6-0.1,3.1-0.2,4.7-0.3
			c-0.1,0.8-0.1,2.2-0.3,2.2C92.8,136.2,91,136.1,89.2,136.1z"/>
		<path style="fill:#3A8FB7;" d="M93,118c-0.3-0.7-0.5-1.5-0.8-2.2c2.6-0.5,5.3-1,7.9-1.5c-0.8,1.1-1.5,2.2-2.3,3.4
			C96.5,119.2,94.7,112.7,93,118z"/>
		<path style="fill:#7397A8;" d="M71.2,129.1c-0.9-1-1.8-2.1-3.3-3.8c2.8,0.4,4.7,0.6,6.6,0.9c0.2,0.6,0.5,1.3,0.7,1.9
			c-0.2,0.4-0.5,0.7-1,0.9C73.2,129,72.2,129,71.2,129.1z"/>
		<path style="fill:#324854;" d="M112.2,132.1c1.3-1.4,2.5-2.8,3.8-4.2c0.4,0.6,0.8,1.1,1.2,1.7
			C115.5,130.4,113.9,131.2,112.2,132.1L112.2,132.1z"/>
		<path style="fill:#F4D5BD;" d="M121.4,165.4c0.9-2.1,1.9-4.2,2.8-6.3C123.2,161.2,122.3,163.3,121.4,165.4z"/>
		<path style="fill:#6CADCF;" d="M74.3,129c0.3-0.3,0.6-0.6,1-0.9c1,0.9,2,1.7,3,2.6c-0.3,0.3-0.6,0.6-0.9,0.9
			C76.3,130.8,75.3,129.9,74.3,129z"/>
		<path style="fill:#5B869B;" d="M85.1,120.2c0.7-0.3,1.4-0.7,2.1-1c0.6,0.8,1.1,1.6,1.7,2.3C87.6,121.1,86.3,120.6,85.1,120.2z"/>
		<path style="fill:#A09F9C;" d="M119.1,139.2c-0.7,0.7-1.3,1.3-2,2c-0.1-1-0.2-1.9-0.3-2.9C117.6,138.6,118.3,138.9,119.1,139.2z"
			/>
		<path style="fill:#ACD9E3;" d="M116.4,322.2c1.2,0,2.9-0.5,3.4,0.1c3.8,4.3,7.8,8.6,7.5,15c-0.3,6-0.7,12-1.1,18
			c-2.2-4-4.6-7.9-6.7-12c-5-10-13.7-14.5-24.7-12.6c-1.1,0.2-2.3,0.4-3.4,0.7c-5.1,1.5-5.1,1.5-7,0c8.4-5.1,17.6-7.5,27.4-8.1
			C113.3,323.1,114.8,322.5,116.4,322.2z"/>
		<path style="fill:#AAD6E1;" d="M113.2,314c-11,5.3-22,10.7-33.1,16c-1.2,0.9-1.9,0.4-2.4-0.9c1.8-4.7,6.6-5.9,10.2-8.1
			c6-3.7,12.6-6.5,19.4-8.6c8.3-2.6,9.6-4.4,9.5-13.1c0-3.6,0.3-7.3-0.2-10.9c-0.6-0.8-1.4-0.5-2.1-0.2
			c-11.3,4.2-21.4,10.5-31.7,16.6c-1.4,0.8-2.6,2.2-4.5,1.6c-0.4-0.3-0.6-0.7-0.7-1.2c0.1-2,1.5-3.1,3.1-4
			c5.8-3.3,11.1-7.2,16.6-10.8c7.1-2.1,13.3-6.3,19.2-8.4c1.6-0.8,0.4-1.3,0.9-0.8c0.1,0.1,0.1,0.3-0.3,0.4c-4.6,1.5-8.6,4.2-13,6.1
			c-1.6,0.7-3,1.4-4.7,0.8c-1.6-1.6-0.5-2.6,0.8-3.6c0.4-0.3,0.8-0.5,1.3-0.7c5.4-2.2,10.2-5.5,15.5-7.8c1.9-0.6,2.7-2.2,3.7-3.7
			c0.9-1.2,1.4-3.1,3.6-2.6c0.6,0.8,0.7,1.7,0.7,2.6c-0.9,2.6,3.6,2.8,2.4,5.5c-1.3,2.4-5.2,2.1-5.5,5.4c-0.5,1.5-0.3,3-0.4,4.5
			c0,4.5,0,9,0,13.6c0,0.5,0.1,1,0.1,1.5c0.5,7.6,0.5,7.6-6.8,10C114.3,313.2,113.8,313.7,113.2,314z"/>
		<path style="fill:#ACD9E1;" d="M97.1,362.9c-6.6,0.1-13.2,0.2-19.9,0.3c-2.3-0.1-4.6-0.2-7-0.3c1.1-3.8,5.4-1.9,7.3-4.3
			c2.5-1.7,4.8-3.6,7.9-4.3c9.4-3.1,16.7-9.3,23-16.5c2.1-2.4,3.6-2,5.1,0c1.4,2,4.3,4,1,6.7c-2.4,2-5.4,3.5-7.4,5.8
			C103.5,354.3,100.4,358.7,97.1,362.9z"/>
		<path style="fill:#9EC7D0;" d="M120.3,287.4c0.3-1.4,0.6-2.8,0.9-4.3c2.1-0.4,4.2-0.7,6,1.1c-0.1,9.6-0.2,19.3-0.5,28.9
			c-0.1,1.7-1.3,3.4-2,5.1c-0.4,1-0.9,2-1.3,3.1c0.4,0.2,0.8,0.4,1.2,0.6c0.5-1,1.1-2.1,1.6-3.1c0.3,0,0.6,0.1,0.9,0.1
			c-0.2,2.5-0.4,5-0.6,7.1c-2.8-2.4-5.9-5.2-9.1-7.9c1.3-5.2,1.1-5.3-4.1-4c0.2-0.3,0.3-0.8,0.5-0.8c7.2-0.9,7.7-5.7,6.6-11.4
			C121,297,121,292.2,120.3,287.4z"/>
		<path style="fill:#A0D1DB;" d="M78.2,359.3c-2.6,1.2-5.3,2.4-7.9,3.6c-3.3,0-6.5,0.2-9.8-0.1c-1.1-0.1-2.2-1.1-3.3-1.8
			c2.6-2.4,5.4-4.7,7.9-7.2c4.3-4.2,9.6-5.3,14-2.8c1.1,1.2,3.8-0.6,4.1,1.6c0.3,1.9-1.8,2.9-3.3,3.9c-0.5,0.4-1.1,0.7-1.7,1.1
			c-0.6,0.3-1.2,0.4-1.8,0.8C77,358.9,77.9,358.5,78.2,359.3z"/>
		<path style="fill:#77A3AC;" d="M41.2,362.1c-2.6,1.8-3.2,0.5-3-2c1.6-7.2,3.4-14.4,5.3-21.5c0.3-1.2,1.3-1.9,2.5-2.2
			c3-0.2,3.1,1.9,3,4c0,2.3-0.9,4.6-0.3,7.5c2.9-1.9,4.7-4.4,7-6.4c0.3-0.3,0.7-0.6,1.1-0.8c0.9-0.5,1.9-0.9,3-0.9
			c0.6,0.1,1.1,0.5,1.6,0.9c0.4,0.4,0.7,0.9,0.8,1.6c-1.7,1.3-3.4,2.6-5.1,3.9c-0.9,0.4-1.8,0.9-2.1,2
			C50.5,352.7,45.9,357.4,41.2,362.1z"/>
		<path style="fill:#B1D8DF;" d="M115,362.9c-4.4,0-8.8,0-14.2,0c4.1-3.8,5.7-9.2,12.3-8c2.2,0.4,4.7-1.2,7.1-1.9
			c2.9,0.2,1.4,2.1,0.9,3C119.8,358.9,117.7,361.3,115,362.9z"/>
		<path style="fill:#8EB8C0;" d="M54.4,360.3c-2,0.9-3.9,1.9-5.9,2.8c5.2-7.3,9.5-15.8,21-16.8C64,351.3,59.2,355.8,54.4,360.3z"/>
		<path style="fill:#80ABB4;" d="M62.3,342.1c-0.4-0.3-0.7-0.7-1.1-1c0.5-2.4,2.7-3.2,4.2-4.6c1.3-1.2,3.4-1.6,3.5-3.9
			c1.2-2.3,3.3-3.4,5.6-4c1.2,0.1,2.5-0.3,3.7,0.5c0.6,0.3,1.3,0.6,1.9,1C74.2,334.1,68.3,338.1,62.3,342.1z"/>
		<path style="fill:#374B50;" d="M115,362.9c1.3-2,2.8-3.8,4-5.9c0.7-1.2,0.8-2.6,1.2-4c2.1-1,2.1-1,2.8,3.3
			c0.3,2.3,2.2,4.7-0.7,6.6C119.9,363,117.5,363,115,362.9z"/>
		<path style="fill:#20363D;" d="M78.2,359.3c-1.4,0.3-2.8,0.5-5.4,1c3.9-2.9,6.9-5.1,10.2-7.4c-1.6-0.7-2.8-1.2-3.9-1.7
			c3.1-0.9,5,0.5,6.3,3.2C83.1,356,80.7,357.6,78.2,359.3z"/>
		<path style="fill:#99B9C2;" d="M122.3,363c-1.2-1.3,4.2-4.9-1.6-4.5c0.8-0.7,1.6-1.4,2.3-2.1c1.4,1.2,2.8,2.5,4.2,3.7
			c-0.3,1-0.7,1.9-1,2.9C124.9,363,123.6,363,122.3,363z"/>
		<path style="fill:#6C8C94;" d="M84.3,331.3c2.3,0,4.7,0,7,0c-3.4,0.9-6.8,1.9-10.2,2.8c-0.1-0.4-0.3-0.8-0.4-1.2
			C81.9,332.3,83.1,331.8,84.3,331.3z"/>
		<path style="fill:#80ABB4;" d="M55.1,348c0.7-0.7,1.4-1.4,2.1-2C56.5,346.7,55.8,347.4,55.1,348z"/>
		<path style="fill:#000001;" d="M3.4,259.2c2.3-5.6,4.5-11.2,6.8-16.8c1.8-4.5,4.6-8.1,9-10.3c1.7-1.3,3.3-2.7,5-4
			c2.2,0,4.4-0.3,6.1-2c1-0.3,2-0.7,3-1c0.7-1.3,1.2-3.3,3.2-1.1c6.2-2.8,12.4-2.4,18.6-0.2c2.8,1,3.4-0.3,3.3-2.7
			c0.3-0.3,0.7-0.6,1.1-0.7c2.3-1,3.5-3.7,6.2-4.1c0.8,0,1.4,0.1,2.1,0.6c1.5,2.3,4.8,3.7,3.9,7.3c-7.2,4.4-8.6,10.4-3.6,15.3
			c1.8,1.8,3.7,2.8,6.3,1.7c3.8-1.5,7.2-3.7,11.1-4.9c0.7-0.2,1.4-0.3,2.2-0.4c1.2,0,2.5,0,3.6,0.7c0.7,3.4-2.4,3.3-4.1,4.3
			c-1.8,1.1-2.4,2.1-1,3.8c1.7,2.1,2.7,5.7,5.8,5.5c4.5-0.2,8.7-2,12.1-5c1.9-1.7-1.3-2.6-1.3-4.2c-0.1-1,0.1-1.9,1.2-2.3
			c2.9,0.7,5.9,1.9,8.3-1.1c1.2-0.9,2-2.1,2.6-3.4c0.3-0.4,0.6-0.6,1-0.8c1.4-0.5,2.9-0.8,3.9-2.2c2.4-1.7,4.6-3.7,7.4-4.7
			c0.5,0,0.9,0.2,1.1,0.6c0,8.5,0,17,0.1,25.6c-0.4,1.1-1.4,1.6-2.1,2.4c-9.1,9.1-16.6,19.6-26,28.3c-2.5,2-4,4.8-6.1,7.1
			c-2.1,1.7-3.9,3.6-5.9,5.3c-2.6,1.6-4.4,4.2-6.7,6.2c-1,0.9-2.1,1.9-3.1,2.8c-2.5,3.6-5.9,6.2-9.2,9.1c-3.1,2.5-6.2,5-8,8.7
			c-5.4,4.4-9.5,10.1-15,14.3c-1.3,3.9-2.6,7.8-3.9,11.7c-1.3,3.8-2.5,7.6-3.8,11.4c-1.5,1.3-2.1,4.9-5.1,1.9
			c-0.8-4,2.8-6.4,3.4-9.8c1-1.6,1.6-3.3,1.5-5.2c0.1-1.4,0.5-2.8,1.2-4c0.6-1,0.8-2.2,1-3.3c0.1-0.5,0.3-0.9,0.4-1.3
			c0.9-1.5,2-2.9,2.3-4.9c0.6-5.2,0-6-5.2-6.6c-3.2-0.4-6-1.6-8.5-3.7c-3.2-3.5-6.6-6.6-11.4-7.8c-0.9-0.9-1.4-1.9-1.2-3.2
			c0.2-0.7,0.6-1.2,1.4-1.4c0.4-0.2,1.4,0.9,1.2-0.2c-0.4-2.2-1-4.3-1.7-6.5c-0.1-0.4-0.2-0.9-0.3-1.3c-0.8-4,0.3-8.5-3.3-11.6
			c-0.7-0.9-1-2-1.5-3.1c-1.1-2.4-3.4-4.2-3.8-6.9c-0.4-2.6-2.9,2.3-3.1-0.9C3.7,273.3,1.4,266.4,3.4,259.2z"/>
		<path style="fill:#B5DCE4;" d="M99.2,283c8.7-9.6,17.5-19.2,26.2-28.8c1.4-1,2.1-0.3,2.3,1.1c0.1,1.6,0.4,3.2-0.3,4.8
			c0,0.7,0,1.4,0,2.1c0.3,0.9-0.2,1.6-0.6,2.4c-0.7,0.8-1.3,1.7-1.8,2.7c-2.8,2.9-3.9,7.3-7.7,9.3c-5.4,2.7-10.9,5.4-16.1,8.5l0,0
			C98.9,286,98.5,285,99.2,283z"/>
		<path style="fill:#522E24;" d="M120.1,232c-1.7,0.7-3.3,1.4-5,2c-1.2-3.2,1-5.4,2.2-8c1-1.3,2.3-2.4,3.8-3.1
			c0.7-1.3,1.4-2.7,2.1-4c0.3-0.4,0.6-0.6,1-0.8c1-0.7,2-1.4,3-2.1c0.3,0,0.6,0,0.8,0.1c0,3.7,0,7.4,0,11.1
			c-0.3-0.1-0.6-0.2-0.9-0.3c-1.3-1.2-0.8-3-1.4-5.2C123.9,225.7,120.3,227.9,120.1,232z"/>
		<path style="fill:#1B2326;" d="M127.2,284.2c-2-0.4-4-0.7-6-1.1c-0.4-4.5,3.6-3.8,6-5c0.4-0.5,0.7-0.5,1,0.1
			C127.8,280.2,127.5,282.2,127.2,284.2z"/>
		<path style="fill:#507079;" d="M128.2,278.2c-0.3,0-0.7-0.1-1-0.1c-0.6-0.7-1.2-2-1.9-2c-3.6-0.3-1.9-2-1.1-3.5
			c3.2-2.2,0.1-5.9,2.1-8.4c0.4-0.7,0.7-1.3,1.1-2C127.6,267.5,127.9,272.9,128.2,278.2z"/>
		<path style="fill:#507079;" d="M127.3,260c-0.7-1.9-1.3-3.9-2-5.8c0.9-0.5,1.8-0.9,2.7-1.4C127.8,255.2,127.6,257.6,127.3,260z"/>
		<path style="fill:#F6EDD7;" d="M40.4,343.1c-0.4,1.3-0.8,2.6-1.2,3.9c-0.5,1.8-0.8,3.6-1.8,5.2c-1.4,3.2-2.9,6.5-4.3,9.7
			c-4.2,0.3-8.4,0.7-12.6,1c-2.9-5.3,0.6-9.1,3.6-12.6c3-3.5,7-6,11.1-8.2C37,341.8,39.2,339.7,40.4,343.1z"/>
		<path style="fill:#2F2E2C;" d="M35.2,343.1c-2.6,2-5.2,4-7.9,5.9c-5,3.4-6.6,8.4-6.8,14.1c-1.1,0-2.3,0-3.5,0
			c-0.2-6.8,3.3-11.6,8.3-15.5c2.7-2.1,5.8-3.7,8.6-5.6C35.1,341.5,35.4,342.1,35.2,343.1z"/>
		<path style="fill:#579ABA;" d="M48.2,117.4c-1.3,1.5-2.6,3-3.9,4.5c-6.1,3-8.4,8.7-10.6,14.5c-0.5,1.4-0.3,3-1,4.3
			c-0.3,0.5-0.8,0.6-1.4,0.4c-1.4-2.3-0.6-4.7-0.2-7.1c0-0.3,0-0.6,0.1-1c0.6-1.6-0.2-2.3-1.6-2.8c-1.2-0.5-1.1-1.4-0.7-2.3
			c0-3.3,0-6.7-0.1-10c0,0-0.3-0.1-0.4-0.1c-0.1,0-0.3,0.2-0.4,0.2c-1,1.1-1.2,2.7-1.9,3.9c-0.4,0.7-0.7,1.4-1.1,2.1
			c-3.5,0.8-2.3-1.4-2-3.1c3-4,6-8,8.9-12c0.8-1.3,2-1.9,3.2-1c2.2,1.6,1.2,3.7,0.7,5.7c-0.9,1.9-1.8,3.9-2.1,6.6
			c4-3.9,9.5-6.2,8.4-12.9c-0.4-1.9,1.5-2.7,1.9-4.3c0.4-0.8,0.6-2.1,1.2-2.3c2.7-1.1,5.7-1.5,8.3-2.9c9.9-5.2,21.1-4.3,31.6-6.7
			c2.7-0.6,5.9,0.4,8.8,1c0.7,0.1,1.1,1.7,1.6,2.6c-0.7,0.4-1.7,1.2-2,1c-5-3.6-9.6,0.8-14.5,0.5c-3.3-0.2-6.8,1.2-10.1,1.8
			c-2.7,2-6.3,1.8-9.2,3.6c-0.5,0.4-1,0.8-1.4,1.3c-2,3.2-5.6,4.9-7.6,8.2C49.8,113.2,48.3,115,48.2,117.4z"/>
		<path style="fill:#010102;" d="M58.1,101.9c0.3-0.3,0.6-0.6,1-0.9c0.4-0.3,1-0.2,1.4-0.4c3-1.7,5.9-0.3,8.7,0.5
			c3.4,0.5,6.7,2.2,9.2-2.5c0.8-1.5,5.2-1.4,7.9-1.4c4.3,0,8.7,0.5,13,0.8c3.2,1.8,3.2,1.8-0.3,4.9c-3.5,4.1-7.9,5.4-13.1,4.5
			c-2.2-0.4-4.5-0.2-6.7-0.3c-2.7,0.1-5.4,0.1-7,2.9c-0.7,0-1.3,0-2,0c-2.2-2.1-2.4,2.3-4.2,1.3c-0.3-0.3-0.6-0.6-0.9-1
			c-0.5-1.2-1.1-2.4-2-3.4c-0.3-0.3-0.5-0.7-0.8-1c-0.8-1.7-2.7-0.8-3.9-1.5C57.6,103.7,57.6,102.8,58.1,101.9z"/>
		<path style="fill:#DED8CF;" d="M30.2,151c1.1,2,2.3,4,3.3,6c1.3,2.5,1,4.5-2.2,5.1c-1,0.6-0.7,1.3-0.1,2c0.8,1.1,1.5,2.1,2.3,3.2
			c0.3,1.2,0.3,2.5,0.5,3.8c-0.3,2.2-1.3,3-3,1.2c-1-1-1.2-2.6-2-3.8c1.3-2.5-2.3-1.3-2.1-3c0-1.4-0.3-2.8-0.3-4.2
			c0.1-2.2,0.3-4.4,1.4-6.3c0.1-0.9,0.3-1.9,0.4-2.8l-0.1,0.1C28.9,151.9,29.6,151.5,30.2,151z"/>
		<path style="fill:#398EB5;" d="M99.1,102.9c0.1-1.6,4.6-3,0.3-4.9c-0.5-0.8-0.9-1.7-1.6-3.1c4.4,1.1,8.8,1.5,12.2,3.4
			c2.7,1.5,1.7,4.7-0.6,6.8C106.6,101.3,103.3,100.1,99.1,102.9z"/>
		<path style="fill:#183646;" d="M44.3,103.1c-0.4,1.3-0.7,2.7-1.1,4c-2.7,2.3-4.5,5.7-8,7c-1.5-1.4,3.6-6.8-3.1-5.1
			c-1.2-2.2-0.1-3.6,1.9-2.7C38.5,108.2,41,104.7,44.3,103.1z"/>
		<path style="fill:#365E71;" d="M31.2,134.1c0.3,2.3,0.6,4.6,0.9,6.9c1.5,1.3,0,2.3-0.3,3.3c0.9-0.9,0.8-2.3,1.4-3.5
			c0.5-0.2,0.9,0,1.2,0.4c1.7,4.2-2.3,5.4-4,7.9C30.6,144.1,30.9,139.1,31.2,134.1z"/>
		<path style="fill:#5A5E5D;" d="M26.2,158.7c-0.7,0.9-1.8,1.6-2.8,2.3c0,0.1,0,0.3,0,0.5c-0.2,2.1-0.2,4.1-0.2,6.2
			c0.2,0.2,0.5,0.4,0.8,0.6c1-0.3,0.4-1.5,1.1-2c0.1-0.4,0.2-0.8,0.3-1.2c0.2-0.3,0.4-0.6,0.6-1c0.3-0.7,0.8-1.3,1.1-2
			c0.3-2.4,0.6-4.7,0.9-7.1C27.4,156.2,27,157.6,26.2,158.7z"/>
		<path style="fill:#0A131B;" d="M69.2,101.1c-1.3,1-2.7,2-4,3c-0.3-0.3-0.5-0.5-0.8-0.8c0.6-1,1.2-1.9,2-3.1
			c-2.5,0.3-4.9,0.6-7.3,0.8c3.4-0.9,6.8-1.9,10.1-2.8C69.2,99.2,69.2,100.1,69.2,101.1z"/>
		<path style="fill:#365E71;" d="M29.1,128c1.5,1.4,5.1,1.9,2.2,5.1c-1.1,0.6-2.3,1.1-3.8,1.8C28,132.7,28.5,130.3,29.1,128z"/>
		<path style="fill:#2A3539;" d="M28.4,152.2c-1,0-2,0.1-2.9,0.1c0.3-0.6,0.6-1.3,0.8-1.9c0.7,0.6,1.4,1.3,2,1.9
			C28.3,152.3,28.4,152.2,28.4,152.2z"/>
		<path style="fill:#477D97;" d="M23.2,121c0.7,1,1.3,2.1,2,3.1c-0.6,0.5-1.2,1.1-1.8,1.6C23.3,124.1,23.2,122.5,23.2,121z"/>
		<path style="fill:#477D97;" d="M26.2,122c0.6-1.3,1.3-2.6,1.9-3.9C27.5,119.4,26.8,120.7,26.2,122z"/>
		<path style="fill:#484744;" d="M51.4,206.1c-0.1-0.3-0.2-0.7-0.3-1c-0.9-6.7-1-6.8-6.9-4.5c-2.9,1.1-5.1,0.7-6.2-2.4l0,0.1
			l-0.2-0.4l-0.5,0c-0.6,0.1-1.1,0.3-1.7,0.4c0.1,1.2,0.1,2.3,0.1,3.5c1.7,1.3,3.4,2.5,4.9,2.3c6.1-0.5,8.1,3,10.3,7.1
			c0.9,0.3,1.3-0.2,1.6-1C53,208.6,52,207.4,51.4,206.1z"/>
		<path style="fill:#151415;" d="M59.1,221.1l-0.4,0l-0.4-0.1c-1-1.1-2-2.1-2.9-3.3c-1.1-1.5-2.1-3.1-3.1-4.7
			c0.7-0.8,1.7-1.2,2.8-1.5c0.4-0.1,0.8-0.1,1.3-0.1c0.7,0.2,1.1,0.6,1.3,1.3c-0.7,0.8-0.3,1.2,0.5,1.5c0.9,0.8,1.7,1.6,2.1,2.8
			C60.4,218.5,60.5,220,59.1,221.1z"/>
		<path style="fill:#7E7E7B;" d="M55.4,212.2c-1.1,0.3-2.1,0.5-3.2,0.8c-0.3-0.6-0.7-1.3-1-1.9c0.3-0.3,0.7-0.6,1-0.9
			c0.2-0.6,0.6-0.7,1.1-0.4l-0.1,0.2C54.2,210.6,55.2,211,55.4,212.2z"/>
		<path style="fill:#F5EEDF;" d="M25.4,165c-0.1-0.3-0.1-0.6-0.2-0.9c-0.3-0.7-0.1-1.2,0.7-1.1c1.1,0.2,1.5,0.9,1.3,2
			c0.7,1.1,1.4,2.2,2.1,3.4c0.9,2.5,1.9,4.9,0.7,7.5c-0.9,0.8-1.8,1.6-2.7,2.4c-0.3-2.3-0.7-4.6-1-7C26.1,169.2,25.7,167.1,25.4,165
			z"/>
		<path style="fill:#F5EDE5;" d="M38.1,198.2c-0.2-0.1-0.5-0.3-0.7-0.4c-0.4-2.6-0.8-5.1-1.2-7.7c-0.3-4.7-0.6-9.4-0.9-14.1
			c-0.6-0.8-0.6-1.5,0.3-2.1c0.7-0.4,1.2-0.1,1.7,0.5C37.5,182.4,37.8,190.3,38.1,198.2z"/>
		<path style="fill:#AFACA2;" d="M37.2,174.4c-0.7,0.5-1.3,1.1-2,1.6c-1.7-0.1-3.4-0.1-5.2-0.2c-0.2-2.5-0.4-5-0.7-7.5
			c0.7,1.1,1.3,2.2,2.1,3.2c0.3,0.4,0.9,0.5,1.4,0.7c0.1-0.6,0.2-1.2,0.3-1.9c2,0.4,4.8-0.5,5.1,2.9C37.9,173.6,37.6,174,37.2,174.4
			z"/>
		<path style="fill:#040504;" d="M24,168.3c0.4-0.7,0.7-1.4,1.1-2c-0.2,3.2-0.5,6.4-0.7,9.6C24.2,173.3,24.1,170.8,24,168.3z"/>
		<path style="fill:#F9EBD6;" d="M59.1,221.1c0.2-1.7,0.4-3.4,0.5-5c0.9-3.9,5.1-4.6,7.1-7.5c0.7-0.6,1.5-1.1,2.4-1.5
			c2.1-0.9,4.2-1.9,3-4.9c1.4-2,2.8-4.1,4.2-6.1c0.9,0,2.2-0.3,2.7,0.2c6.3,5.5,7,5.5,13.2-0.4c1-1,3.1-0.8,4.8-1.1
			c4.3-0.7,9.3,1.1,12.3-3.7c-0.2,4.1-0.4,8.1-0.6,12.2c0.4,0.1,0.8,0.2,1.2,0.3c0.7-3.1,1.4-6.2,2.1-9.4c0.1,0,0.2,0,0.4,0
			c0,2.3,0,4.6,0,6.9c0.3,9-3,16-11.3,20.2c-2.1,2.1-4.5,3.2-7.4,4.1c-5.3,1.6-9,5.9-12.6,10.1c-1.4,1.6-2.5,4.2-5.5,3
			c-1-0.9-1-2.5-2.1-3.1c0.4,0.8,1.2,1.5,1.4,2.5c1.4,1.6,1.3,3-0.5,4.2c-4.3,2.7-6.3-0.8-8.6-3.3c-3-3.3-2.8-7.2-0.7-10.6
			c1.2-2,3.9-3,5.9-4.5c1.6-1.4,2.3-3.4,3.4-5.3c-1-1.4-3.1-0.7-4.1-2c-0.9,0.1,0.3-3.3-1.9-1.1c-0.8,0.8-2.1,0.9-3,1.7
			C63.1,218.4,61.1,219.8,59.1,221.1z"/>
		<path style="fill:#0A0A0A;" d="M38.3,173.2c-1.7-1-3.4-1.9-5.1-2.9c0.1-1,0.2-2,0.3-3.1c2.5-2.6,5.4-5,7.5-7.9
			c3.5-4.7,6.6-9.6,13.3-9.6c2.1,0,4.2,0.7,6.5,1.8c-8.5,0.9-14.3,5-17.7,12.4c-0.4,1.2,0,1.5,1.2,1.2c2.6-1.1,5.2-2.2,7.8-3.2
			c2.5-0.1,5.2-1.8,7.2,1.2l0,0c-1.2,0.7-1.9,1.9-2.7,3c-1.6,2.3-3,4.7-6.3,2c-0.5-0.5-0.6,1.1-0.7,1.8c0.3,2,0.3,3.8-2.5,3.5
			c-2.1-0.2-3.9,2.1-6.1,0.7C40.2,173.9,39.2,173.5,38.3,173.2z"/>
		<path style="fill:#12181B;" d="M63.5,106c0.6,1.4,1.1,2.8,1.7,4.2c-0.5,0.1-1,0.3-1.6,0.4c6,4.2,1.4,10,2.4,15
			c0.2,0.8,0.1,1.6,0.1,2.4c-0.9,2.6-1.8,5.3-2.8,7.9c-1.3-6.4-2.5-12.8-3.8-19.2c-0.5,0-1,0-1.5-0.1c-0.7,2.7-1.4,5.4-2.2,8.1
			c-0.4-0.1-0.9-0.1-1.3-0.2c0.6-3.8,1.2-7.7,1.7-11.5C57,109.1,58.3,105.7,63.5,106z"/>
		<path style="fill:#23272A;" d="M34.3,141.2c-0.3,0-0.7,0-1,0.1c-0.6-0.1-0.7-0.7-1-1.1c-0.5-8.1,4.6-13.4,9.6-18.7
			c0.3-0.3,1.6,0.3,2.4,0.5c-1.8,3.1-4.1,6-5.2,9.4c-1.3,4-0.4,7.8,4.6,9.4c-0.3,0.4-0.5,0.8-0.8,1.2c-2.4-1.3-4.9-2.6-7.5-4
			C35.2,138.6,34.8,139.9,34.3,141.2z"/>
		<path style="fill:#F5EDE5;" d="M51.2,205.1c-0.8-1.9-1.6-3.8-2.4-5.7c-8.2,4.1-9.6,3.9-10.7-1.3c2.8,2.9,5.2,2.9,7-1.1
			c2.3,1.2,3.8-2.5,6.2-0.8c1,1.6,2,3.3,3,4.9c-0.6,0.5-0.2,1.6-1,2C52.5,203.8,51.8,204.4,51.2,205.1z"/>
		<path style="fill:#0A131B;" d="M58.1,101.9c0.4,0.7,0.7,1.5,1.1,2.2c0.2,0.3,0.3,0.5,0.3,0.8c0,0.3,0,0.5-0.1,0.5
			c-3.6,3.1-5,8.1-9.4,10.6c-0.6,0.5-1.2,1-1.9,1.5c-2.3-5.5,3-7.4,5.1-10.7C54.5,104.8,56.5,103.5,58.1,101.9z"/>
		<path style="fill:#D9DAD3;" d="M48.3,170c0.2-1.3,0.3-2.7,0.5-4c1.1,0.7,2.2,1.9,3.2,1.9c1.4-0.1,2.7-1.2,4.1-1.8
			c0.9-0.7,1.5-1.9,3-1.1c-1.2,2.4-2.4,4.9-3.6,7.3C52.3,174.1,49.9,173.5,48.3,170z"/>
		<path style="fill:#686560;" d="M48.3,170c0.6,0.1,1.8,0.2,1.8,0.3c0,3.7,1.7,2.4,3.5,1.3c0.4-0.2,1.2,0.3,1.9,0.5
			c-1.8,1.6-3.1,4.9-6.5,2.4c-0.3-0.2-1.1-0.3-1.3-0.1c-2.2,2.1-2.2,2.2-6.6-0.3c2.5-0.4,4.2-4.1,7.3-1.6
			C48.4,171.7,48.4,170.9,48.3,170z"/>
		<path style="fill:#999189;" d="M72,202.2c1,0.6,2,1.1,3.6,2.1c-2.4,1.4-4.4,2.6-6.3,3.8c-0.5-0.9-1.3-1.3-2.3-1.3
			c-0.4-0.1-0.8-0.1-1.2-0.3c-1.2-0.4-2.5-0.4-3.5-1.2c-0.2-0.2-0.3-0.5-0.2-0.7c0.1-0.3,0.1-0.4,0.2-0.4
			C65.4,203.6,68.7,202.9,72,202.2z"/>
		<path style="fill:#97A1A6;" d="M50.1,115.9c1.6-1.9,3.1-3.8,4.7-5.7c1.5-1.8,3-3.5,4.5-5.2c1.7-1.2,3-0.6,4.1,0.9l0.2,0.1
			c0,0.3-0.1,0.6-0.1,0.9c-5.2-1.2-4.9,3.9-7,6.2c-0.7-0.2-1.6-0.9-1.9-0.7C52.9,113.5,51.5,114.8,50.1,115.9z"/>
		<path style="fill:#C8C1B7;" d="M62.2,205.1c1.3,0.3,2.6,0.5,3.9,0.8c-2.4,3.6-6.3,4.7-10,6.1c-0.3,0.1-0.5,0.2-0.8,0.3
			c-0.7-0.7-1.4-1.4-2.2-2.1c1.7-1.6,3.4-3.3,5.1-4.9C59.7,206.3,60.9,205.3,62.2,205.1z"/>
		<path style="fill:#928F87;" d="M71,191.2c1.3,0.8,2.7,1.5,3.9,2.3c0.1,0-0.4,1-0.7,1.5c-4.2-1.2-8.3-2.5-12.5-3.7
			c0.1-0.5,0.2-0.9,0.3-1.4C65,190.3,68,190.8,71,191.2z"/>
		<path style="fill:#D6CFC2;" d="M39.8,154.2c-0.7,2-1.3,3.7-1.9,5.5c-0.5-0.9-1.6-1.9-1.4-2.7c0.3-1.6,1.3-3.2,2-4.8
			C38.9,152.8,39.3,153.4,39.8,154.2z"/>
		<path style="fill:#474542;" d="M51.2,196.2c-2.1-0.3-3.6,4.4-6.2,0.8c1.6-1,3.3-2,4.9-3C50.4,194.8,50.8,195.5,51.2,196.2z"/>
		<path style="fill:#6F6B63;" d="M59.4,163.2c-2.4-0.4-4.8-0.8-7.2-1.2c3.8-0.6,7.6-1.2,11.4-1.8c0.1,0.2,0.2,0.4,0.3,0.6
			C62.3,161.6,60.8,162.4,59.4,163.2z"/>
		<path style="fill:#4F4943;" d="M53.2,203.1c0.3-0.7,0.7-1.3,1-2c0.4,1.5,0.8,3.1,1.1,4.6c-0.4,0.1-0.8,0.2-1.1,0.3
			C53.9,205,53.5,204.1,53.2,203.1z"/>
		<path style="fill:#999387;" d="M56.3,193.8c0.1-1.1,0.1-2.2,0.2-3.2c0.4,0.1,1.2,0.1,1.2,0.3c0.1,1,0.1,2,0.1,3
			C57.2,193.8,56.8,193.8,56.3,193.8z"/>
		<path style="fill:#646360;" d="M44.3,165.2c-1,0.8-1.9,1.5-2.9,2.3c-0.2-0.3-0.5-0.6-0.7-0.9c0.8-0.9,1.6-1.7,2.5-2.6
			C43.5,164.4,43.9,164.8,44.3,165.2z"/>
		<path style="fill:#5C6764;" d="M59.1,164.8c-1,0.4-2,0.7-3,1.1c1.1-0.9,2.1-1.8,3.2-2.8C59.2,163.7,59.1,164.3,59.1,164.8z"/>
		<path style="fill:#67635B;" d="M46.4,193.8c-0.5-0.8-1.1-1.6-1-1.6c0.7-0.6,1.4-1.2,2.2-1.7c0,0,0.8,0.7,0.7,0.8
			C47.8,192,47.2,192.7,46.4,193.8z"/>
		<path style="fill:#898177;" d="M62.2,205.1c-1.3,0-2.6,0.1-3.9,0.1c1.3-0.3,2.6-0.6,3.8-0.9C62.2,204.6,62.2,204.8,62.2,205.1z"/>
		<path style="fill:#AFACA2;" d="M31.2,164.1c-0.6-0.7-1.2-1.4-1.8-2c0.6,0,1.2,0,1.8,0.1C31.3,162.8,31.2,163.4,31.2,164.1z"/>
		<path style="fill:#F5EDE5;" d="M53.3,210c-0.4,0.1-0.8,0.2-1.1,0.4c-0.2-1.4-0.5-2.8-0.7-4.2C52,207.4,52.7,208.7,53.3,210z"/>
		<path style="fill:#F9E5CD;" d="M69.1,157.9c-0.4,0.3-0.9,0.8-1.1,0.7c-0.3-0.1-0.7-0.6-0.7-1c0-0.2,0.5-0.5,0.7-0.8
			C68.4,157.1,68.7,157.5,69.1,157.9z"/>
		<path style="fill:#141311;" d="M120.2,172.8c0.2,2.2,0.3,4.4,0.5,6.6c-1.8,0-3.7,0.2-5.4,0c-1.1-0.1-2-1-3-1.5
			c-0.5-0.1-0.8-0.3-1.1-0.7c-0.3-0.1-0.6-0.2-0.9-0.2c0.9-0.2,1.9-0.5,2.8-0.7c2.6,1.1,4.7,0.5,6.1-2.1
			C119.5,173.6,119.9,173.2,120.2,172.8z"/>
		<path style="fill:#605C56;" d="M121.3,156.1c-1,4-2.1,8-3.1,12c-0.6,0.5-1.2,1-1.8,1.6c0-0.6,0-1.1-0.1-1.7c0.7-2.3,0.4-4.7,0.8-7
			c1-1.7,2-3.3,2.9-5C120.5,155.5,120.9,155.5,121.3,156.1z"/>
		<path style="fill:#2C2C29;" d="M111.2,152.1c2.5,2.5,3.5,5.2,1,8.3c-0.9-0.2-1.9-0.4-2.8-0.6c-1.3-1.6-0.9-2.7,0.8-3.6
			c-0.3-1.1-0.5-2.2-0.8-3.3C109.4,151.3,110.2,151.5,111.2,152.1z"/>
		<path style="fill:#9C938C;" d="M111.2,152.1c-0.6,0.3-1.2,0.5-1.8,0.8c-1.4-0.3-2.8-0.5-4.3-0.8c-0.3-1.4-0.6-2.7-0.9-4.1
			c1.2,0.3,2.5,0.6,3.7,0.9C109.1,150,110.1,151,111.2,152.1z"/>
		<path style="fill:#F9EBD6;" d="M110.3,156.2c-0.3,1.2-0.6,2.4-0.8,3.6c-0.9-1.7-1.8-3.4-2.7-5.1
			C107.9,155.2,109.1,155.7,110.3,156.2z"/>
		<path style="fill:#8F857A;" d="M119.2,174.1c-1,3.7-3.2,3.7-6.1,2.1C115.2,175.5,117.2,174.8,119.2,174.1z"/>
		<path style="fill:#59514B;" d="M112.3,161.3c0.6,0.3,1.2,0.5,1.8,0.8c-0.5,0.9-1.1,1.7-1.6,2.6c-0.4-0.5-0.8-1.1-1.3-1.6
			C111.6,162.5,112,161.9,112.3,161.3z"/>
		<path style="fill:#BFA697;" d="M81.8,172.6c0.2-5.6,3.6-9.2,7.6-12.4c0.4-0.3,1.4-0.7,1.5-0.6c0.8,1.2,2.4,2.7,2.1,3.7
			c-1.4,4.5-3.2,9-5.2,13.3c-0.5,1.2-2,1.9-3,2.9c-0.9-1.5-1.9-3-2.7-4.5C81.8,174.3,81.9,173.4,81.8,172.6z"/>
		<path style="fill:#F0C4A7;" d="M118.4,226.3c-1.1,2.6-2.2,5.2-3.2,7.7l0,0c-0.6,1.4-0.9,2.9-1.9,4c-2.6,3.7-5.6,4.4-9.1,1.1
			c-2.4-1.2-4.2-2.9-5.5-5.3c-0.5-1.4-0.1-2.8,0.3-4.1c0-2.5,2.6-2.6,3.6-4.2c4-4.2,4.2,0.5,5.7,2.4c0.7-0.1,1.6,0.1,2-0.2
			c0.8-0.7,1.3-1.7,1.9-2.6c0.7,0.4,0.9,1.1,0.8,1.8c-0.6,2-1.8,3.9-1.6,5.5c-0.1-1,0.7-2.4,1.1-3.8c0.2-0.5,0.4-0.9,0.6-1.3
			c1.1-2.3-1-5.7,2.3-7.2c2.1-1.6-0.6-7.1,4.8-6C121.8,218.4,118.9,222.2,118.4,226.3z"/>
		<path style="fill:#B49C90;" d="M108.1,227.9c-2.2,0.7-1.3-5.8-4.8-2c-1.2,1.3-5.8,0.1-3.1,4.2c-0.3,1.3-0.6,2.6-1,3.9
			c-2.6-0.3-5,0.6-7.6,0.8c-1.5,0-2.8-0.4-3.7-1.8c1.7-3.6,3.8-6.2,8.3-6.9c2.1-0.3,2.5-4.1,4-6c5.2-2.9,10-6.1,10-13.1
			c0-2,1.3-3.9,1.9-5.9c0,3.1,0.3,6.3-0.1,9.3c-0.3,2.9-1.3,5.7-2,8.6c-0.3,0.3-0.6,0.4-1,0.2c-0.1-0.3-0.4-0.5-0.7-0.7
			c-0.1,0,0,0.2,0.1,0.6c0.2,0.8,0.8,1.4,1,2.2c0,0.9,0.3,1.8-0.5,2.6C108.8,225.3,108.5,226.6,108.1,227.9z"/>
		<path style="fill:#A98F7D;" d="M115.2,220.1c-0.7,2.7-1.4,5.3-2,8c-1.2-2.2,0.2-4.7-0.9-6.8c2.2-10.1,4.4-20.2,6.7-30.3
			c0.7,0,0.8,0.7,1.1,1.1C118.5,201.4,116.9,210.7,115.2,220.1z"/>
		<path style="fill:#BE9B83;" d="M118.4,226.3c0.6-4.1,1.1-8.2,1.7-12.3c0.7-3.6,1.4-7.2,2.2-10.8c0.4-1.5,1.3-2.8,1.9-4.2
			c-1,6.5-2.1,12.9-3,19.4c-0.2,1.5-0.1,3-0.1,4.5C120.2,224.1,119.3,225.2,118.4,226.3z"/>
		<path style="fill:#8F857A;" d="M111.2,177.1c0.4,0.2,0.7,0.5,1.1,0.7c0,3.7,0,7.5,0,11.2c-0.4,0-0.7,0-1.1,0
			C111.2,185,111.2,181.1,111.2,177.1z"/>
		<path style="fill:#795947;" d="M112.3,221.2c0.3,2.3,0.6,4.6,0.9,6.8l0,0c-0.9,0.2-1.4,0-1-1c-0.1-0.7-0.1-1.3-0.2-2
			C112.1,223.8,112.2,222.5,112.3,221.2z"/>
		<path style="fill:#6B594B;" d="M120.1,192c-0.4-0.4-0.7-0.7-1.1-1.1c0.1-1.4,0.3-2.8,0.4-4.2c0.2,0,0.5,0,0.7,0
			C120.1,188.5,120.1,190.3,120.1,192z"/>
		<path style="fill:#BE9B83;" d="M124.3,194.2c0,1.6-0.1,3.3-0.1,4.9C124.2,197.5,124.3,195.8,124.3,194.2z"/>
		<path style="fill:#F0C4A7;" d="M109.4,219.2c0.2,0,0.5-0.1,0.7-0.1c-0.3,1.7-0.7,3.3-1,5c0-1,0-2.1,0-3.1
			C108.6,220.3,108.6,219.7,109.4,219.2z"/>
		<path style="fill:#12181B;" d="M72.2,110c1.3-3.4,3.6-4.5,7-2.9C76.9,108.1,74.5,109,72.2,110z"/>
		<path style="fill:#12181B;" d="M66,111.3c1.4-0.4,1.4-5.5,4.2-1.3c-0.6,0.4-1.6,0.7-1.7,1.2C67.6,114.1,66.8,112.6,66,111.3z"/>
		<path style="fill:#090503;" d="M117.1,161c-0.3,2.3-0.5,4.6-0.8,7C116.6,165.7,116.9,163.3,117.1,161z"/>
		<path style="fill:#313026;" d="M121.3,156.1c-0.4,0-0.8,0-1.2-0.1c0.2-1.4,0.3-2.7,0.5-4.1c0.3,0,0.6,0,0.9,0.1
			C121.4,153.4,121.3,154.8,121.3,156.1z"/>
		<path style="fill:#BE9B83;" d="M124.2,214.1c0.1-1.4,0.1-2.8,0.2-4.2c0.3,0.1,0.6,0.1,0.9,0.2C125,211.4,124.6,212.8,124.2,214.1
			L124.2,214.1z"/>
		<path style="fill:#BE9B83;" d="M124.2,218.2c-0.3,0.3-0.7,0.6-1,0.8c0.3-1.6,0.7-3.3,1-4.9l0,0
			C124.2,215.4,124.2,216.8,124.2,218.2z"/>
		<path style="fill:#618C96;" d="M78.2,329.1c-1,0-2.1-0.1-3.1-0.1c1.1-3.8,4.8-4.9,7.5-6.8c7-4.8,14.8-8.2,22.7-11.2
			c2.8-1.1,5.5-2.3,8-3.9c1.5-0.6,1.9-2,2.3-3.3c0.4-3.9,0.1-7.9,0.2-11.8c0-2-0.2-4,1.3-5.6c0.3,7,1.7,14.2,0.3,20.9
			c-0.6,2.9-6.8,4.9-10.6,6.9C97.4,319.2,87.8,324.1,78.2,329.1z"/>
		<path style="fill:#567D89;" d="M60.5,322.3c2.6-3,5.2-6,7.8-9.1c4-1.3,6.1-5.2,9.9-6.7c10-5.7,20-11.4,30.1-16.9
			c2.1-1.2,4.6-1.7,6.9-2.5c0.3,0.4,0.4,0.8,0.3,1.3c-1.7,3.5-5.9,2.4-8.3,4.6c-14.9,7.1-28.2,16.8-41.2,26.9
			C64.5,321.2,63.1,323.3,60.5,322.3z"/>
		<path style="fill:#638C96;" d="M99.2,288.1c3.7-1.5,7.5-3,11.2-4.5c2.6-1,5.2-2.1,7.8-3.1c0.2,0.5,0.4,1.1,0.6,1.6
			c-7.1,3.1-14.3,6.2-21.4,9.3c-0.2-0.2-0.3-0.3-0.5-0.5c-0.1-1.2,0.6-2,1.6-2.6C98.8,288.2,99,288.2,99.2,288.1z"/>
		<path style="fill:#628A96;" d="M81.3,302.1c2-2.4,4-4.7,6-7.1c2.4,0.5,3-1.9,4.6-2.7c1.7-0.8,3-2.5,5.2-1.5
			c0.1,0.1,0.2,0.3,0.4,0.4C92,294.9,86.6,298.5,81.3,302.1z"/>
		<path style="fill:#759BA5;" d="M101.2,285.1c5.2-3.1,10.5-6.1,15.7-9.2c0.6,0.3,0.7,0.8,0.3,1.3
			C111.9,279.8,106.5,282.4,101.2,285.1z"/>
		<path style="fill:#81AAB5;" d="M78.2,306.5c-3.3,2.2-6.6,4.5-9.9,6.7c3.3-2.8,6.6-5.5,9.8-8.3C78.2,305.5,78.2,306,78.2,306.5z"/>
		<path style="fill:#8CAFB7;" d="M126.3,264.1c0.3,2.7,1,5.5,0.8,8.2c-0.2,2.4-1.7,2.3-2.9,0.2c0-1,0-2,0-2.9
			c-1.1-1.2,0.8-2.2,0.2-3.3C125,265.5,125.6,264.8,126.3,264.1z"/>
		<path style="fill:#507079;" d="M124.3,266.3c-0.1,1.1-0.1,2.2-0.2,3.3c-2.6,2.3-2.2,7.2-6.9,7.6c-0.1-0.4-0.2-0.9-0.3-1.3
			C119.4,272.7,121.9,269.5,124.3,266.3z"/>
		<path style="fill:#3C6875;" d="M115.2,288.1c0-0.3,0-0.6,0-1c0.6-0.3,1.3-0.5,1.9-0.8c-0.2,6.2-0.5,12.5-0.7,18.7
			c-3-4.2-1.1-9-1.6-13.5C114.7,290.4,115.3,289.2,115.2,288.1z"/>
		<path style="fill:#759BA5;" d="M99.2,283c0.7,0.7,1.4,1.4,2.1,2.1c-0.7,1-1.3,2-2,3l0,0c-2.1,0.5-3.4,3.5-6.1,1.9
			C95.1,287.7,97.1,285.4,99.2,283z"/>
		<path style="fill:#234A54;" d="M120.3,287.4c0,4.8,0,9.6,0,14.5C120.3,297,120.3,292.2,120.3,287.4z"/>
		<path style="fill:#B0DCE6;" d="M60.5,322.3c5.9-4.2,11.6-8.7,17.6-12.6c9.5-6.1,19.2-11.8,28.9-17.7c3.1-1.2,4.4,0.3,4.7,3.2
			c0,1.3-1,2.2-1.5,3.2c-0.4,0.6-0.8,1.1-1.3,1.6c-2.6,4.3,0.7,4.1,3.3,4.5c1.3,0.8,1.3,2.4,2,3.5c-9.8,4.7-19.6,9.3-29.3,14.2
			c-3.5,1.8-6.6,4.5-9.8,6.7c-1.9,1.4-3.9,2.8-5.8,4.1c-2.3,3.4-5.3,5.7-9.3,6.8c-0.9,0.4-1.8,0.8-2.8,1.2c-1.3-1.6,2.3-5.2-2.2-5.6
			c-1.3,0.2-2.1,1-2.4,2.3c-0.1,1.3-0.4,2.9,1.8,2.8c0.4-0.1,0.8-0.1,1.2-0.2c0.7,0,1.2,0.1,1.7,0.7c-2.4,2.5-4.7,5.1-7.2,7.4
			c-0.5,0.5-1.7,0.4-2.5,0.6c-0.1-0.7-0.2-1.4-0.2-2.1c0.2-2.5,0.7-5,0.6-7.5c0-0.9-1.3-1.7-1.9-2.5
			C50.8,332.1,55.6,327.2,60.5,322.3z"/>
		<path style="fill:#538390;" d="M60,339.9c3.1-2.3,6.2-4.5,9.3-6.8c0.2,0.5,0.7,1.4,0.6,1.5c-2.8,2.2-5.8,4.3-8.6,6.5
			C60.8,340.7,60.4,340.3,60,339.9z"/>
		<path style="fill:#EFDECE;" d="M20,270.9c3-1.8,6-5.1,8.9-5c7.9,0.2,8.8-6.1,11.1-10.7c1.3-2.6,0.8-6.1,1.1-9.2
			c-0.7-1.6-1.6-3.3,1.1-4c2.5,4.3,6,7.2,11,8.1c0.3,2.4-2.5,2.2-3.1,3.9c-2.9,4.2-6.1,8.2-6.1,13.7c1.2,0.9,3,0.6,3.9,2.1
			c1.4,1.7,2,3.5,0.2,5.3c-1.3,2.7-2.6,5.3-3.9,8c-0.4,0.3-0.9,0.4-1.4,0.2c-1.9-1.1-2.7-2.8-2.5-5c0-1.1,1.7-1.9,0.9-2.9
			c-0.8-0.9-2,0.4-3.1,0.3c-0.5,0-0.9-0.1-1.4-0.2c-4.4-2.9-9-4.6-14.2-1.9c-0.7,0.2-1.4,0.3-2.1,0.2c-0.7-0.2-1.3-0.5-1.6-1.3
			C18.9,271.8,19.8,271.5,20,270.9z"/>
		<path style="fill:#94C0D4;" d="M42.2,242c-0.4,1.3-0.7,2.7-1.1,4c-1.8-1.5-3.4-3.1-4,1c-0.2,1.6-1.2,3.1-2,4.5
			c-0.3,0.6-1.2,0.9-1.8,1.3c-2-3.2-2.2-0.2-3,0.9c-0.1,0.1-0.8-0.3-1.2-0.4c-1.2-1.3-0.7-2.8-0.3-4.2c0.3-0.6-1.1-0.2-0.4-0.1
			c0.1,0,0.1,0.1,0.1,0.3c0.1,2.3-2.3,2.6-3.2,4c-0.4,2.8-1.3,4.8-4.7,3.3c-0.4-0.2-1.2,0.1-1.4,0.4c-1.5,1.9-2.9,3.9-4.8,6.6
			c0-2.1,0-3.3,0-5.1c-1.2,0.8-2.1,1.7-2.8,1.6c-1.3-0.1-2.6-0.6-3.7-1.4c-0.4-0.3-0.3-2.3,0.2-2.6c6.6-3.5,8-9.5,8.3-16.2
			c0.2,2,0.3,4.1,0.7,6c0.3,1.2,1.2,2.2,1.8,3.3c1.1-1.1,2.7-2,3.1-3.2c1.1-3.3,1.6-6.7,3.2-10c0.1,1,0,2,0.2,2.9
			c0.4,1.6,1,3.1,1.5,4.7c1.6-0.9,3.2-1.7,4.9-2.6c0.5-0.3,1.1-0.6,1.6-0.9c2.6,1.5,4,0.5,4.4-2.2c0.2-1.6-0.1-3.9,2.1-3.7
			c1.8,0.2,1.6,2.6,1.9,4.1c0.2,0.9-0.3,2,0.5,2.8C42.4,241.4,42.4,241.7,42.2,242z"/>
		<path style="fill:#F1DBC9;" d="M43.2,283.1c0.3,0,0.7,0,1,0c-1.1,9.4-2.2,18.8-3.4,29c-1.4-2.2-2.6-4.4-4-6.5
			c-0.8-1.1-1.8-2.1-2.8-3.1c-3.5-3.8-7-7.6-10.5-11.4c-1.6-2.5-0.2-3.8,2.1-4c4.1-0.5,6-3,7.1-6.6c1.5-1.6,3.3-1.6,4.7-0.1
			c0.9,0.9,1.5,1.1,2.5,0.6C41.3,281.2,41.4,283.4,43.2,283.1z"/>
		<path style="fill:#F7F7F5;" d="M103.2,241.2c4.8,3.4,4.8,3.5-0.5,6.5c-0.9,0.5-1.7,0.9-2.6,1.4c-9.7,4.5-12.1,3.8-16.5-5.8
			c-0.2-0.5,0.4-1.8,1-2.2c2.2-1.4,4.5-2.6,6.7-3.9C95.9,233.8,99.8,235.2,103.2,241.2z"/>
		<path style="fill:#CD858C;" d="M61.3,267.1c-9.8,14.9-10,31.2-6.9,48c0.6,3.3,3.2,7.4-1.6,10.3c-3-16.1-7-32.1-0.4-48
			c1.6-3.9,3.8-7.6,5.8-11.4c0.5-1,1.3-1.5,2.4-1.3C61.7,265.3,62,266.1,61.3,267.1z"/>
		<path style="fill:#F1CCB4;" d="M100.3,220.1c-0.8,3.4-2,6.1-5.8,7.5c-2.4,0.9-4.2,3.6-6.2,5.5c0.8,2.6-1.8,2.8-2.9,4.1
			c-3.7,1.7-7.4,3.3-11,5c0-1.4,0-2.8,0-4.2c0.3-0.4,0.6-0.4,0.8,0.1c1.8-1.3,3.6-2.4,5.3-3.8c3.9-3.3,7.3-7.2,11.6-9.7
			C94.6,223,98.1,222.7,100.3,220.1z"/>
		<path style="fill:#1D1E20;" d="M60.1,264.9c-0.6,0.4-1.3,0.7-1.9,1.1c-1.7,1-3.4,2-5,3c-0.9-1.2-2.2-0.4-3.3-0.9
			c-0.4-0.3-0.7-1.1-0.9-1.1c-0.9,0.2-0.1,0.8-0.1,1.2c-0.1,0.8-0.1,1.6-1.2,1.7c-1.5-0.5-2.9-1-4.4-1.5c-0.5-3.6,1.3-5.8,4.4-7.3
			c1.4-0.8,2.3-2.1,3.8-2.8c0.9-0.3,1.8-0.4,2.7-0.5c1.6,0,3.2-0.4,4.8-0.4c2.6,1,5.4,0.3,8,1.2c-0.6,0.7-1.2,1.4-1.8,2.2
			C64.3,263.2,62.4,264.3,60.1,264.9z"/>
		<path style="fill:#D9D4C9;" d="M67.1,258.8c-2.7,1.7-5.4,1.4-7.9-0.5c-1.8-0.5-3.4,0-5,0.8c-0.9,0.1-1.7,0.1-2.6,0.2
			c-1.6,0.5-1.9-0.7-2.1-1.8c0.3-2.5,2-3.8,4.2-4.4c3.2-0.6,6.3-2.4,9.7-1c2.8,1.4,5.7,2.7,9.1,4.4C70.6,257.2,68.8,258,67.1,258.8z
			"/>
		<path style="fill:#92B8CA;" d="M44,232c1.5-3.6,2.6,0.5,4.1,0.2c3.8-0.6,7.6-0.5,11.5-0.6c0.8,0,1.7,0.2,2.5,0.2
			c-0.3,0.8-0.6,1.7-1.1,2.5c-0.2,0.4-0.7,1.1-1,1c-5.1-0.6-9.1,5.1-14.5,2.5C42.5,236.6,41.1,234.8,44,232z"/>
		<path style="fill:#30312E;" d="M43.2,283.1c-0.1,0.6-0.2,1.2-0.2,1.8c-0.5-0.2-1.3-0.3-1.5-0.6c-0.6-0.9-0.9-2-1.3-3.1
			c-5-2.5-9.6-6.1-15.7-5.3c-2.5,0.4-4.6,2-7.1,2.4c-0.4-0.4-0.9-0.8-1.3-1.3c-0.5-3.5,2-3.6,4.4-3.8c0.6-0.1,1.2-0.3,1.7-0.4
			c5.5-2.7,10.3-0.7,15,2.3c0.2,0.2,0.4,0.3,0.7,0.1c1.9,0.3,3,1.4,3.1,3.3C41.8,280,42.5,281.6,43.2,283.1z"/>
		<path style="fill:#1C2528;" d="M33.4,280.3c-0.2,5.3-2,7.3-7.3,7.8c-2,0.2-3.6,0.1-2.6,2.8c-3-2.9-2.4-5.5,0.6-7.9
			c1.1,0.3,2.1,4.1,3.2,0c1.1-1.1,2.1-2.1,3.2-3.2c-2.1,0.1-4.1,0.2-6.2,0.3c-0.4-0.4-0.5-1-0.4-1.5c0.4-0.9,1.1-1.3,1.9-1.5
			c2.4-0.6,4.8-0.2,7.1,0.5C35.2,278.2,34.2,279.2,33.4,280.3z"/>
		<path style="fill:#CD7269;" d="M120.1,232c-0.1-1.2-0.7-2.8-0.2-3.6c1.9-3,4.1-5.9,7.1-10.1c0,3.8,0,6.2,0,8.7
			C124.8,228.6,122.5,230.3,120.1,232z"/>
		<path style="fill:#2D2826;" d="M103.2,241.2c-3.2-3.4-6.8-5.8-11.9-4.1c-1.4-0.1-2.8-0.2-4.2-0.2c0.5-3,3.6-1.5,5.1-2.8
			c1.8-0.7,3.7-1.5,5.6-1.9c0.3-0.1,1,1.2,1.5,1.9c1.6,1.7,3.2,3.4,4.8,5.1C103.8,239.8,103.5,240.5,103.2,241.2z"/>
		<path style="fill:#222D34;" d="M44,232c-2.7,2.8,1,3.9,1.5,5.9c-1.1,1-2.2,2.1-3.3,3.1c-1-2-1.9-3.9-3.2-6.6
			c-0.4,1.4-0.9,2.4-0.9,3.4c-0.1,4.1-1.6,4.7-4.7,2.2c1.2-0.8,3.5-1.5,3.5-2.3C37,232.7,40.3,232.3,44,232z"/>
		<path style="fill:#95B2B0;" d="M25.2,277.9c-0.3,0.4-0.6,0.7-1,1.1c-0.7,1.1-2.2,1-3,2c-1.1,0.5-2.3,0.9-3.4,1.4
			c-0.1-1.4-0.2-2.8-0.4-4.2c2.3-1.1,4.5-2.2,6.8-3.3c1.7-0.7,3.4-0.4,5.3-0.1C28.8,277.6,26.6,277.2,25.2,277.9z"/>
		<path style="fill:#5D6167;" d="M15.1,308.3c-0.2-5.8-0.5-11.5-0.7-17.3c1,0.4,2.7,0.8,2.8,1.3c0.6,3.6,0.7,7.2,1,10.8
			c-1,0.8,0.6,3.1-1.7,3.1c-1.5-3.6-0.5-7.3-0.5-10.7C14.8,299.5,16.9,304.1,15.1,308.3z"/>
		<path style="fill:#C1B5A8;" d="M70.2,216.1c0.2,0,0.3,0,0.5,0.1c1.6,0.4,3.2,0.8,4.8,1.2c-1.5,2.2-3.1,4.3-4.6,6.5
			c-1-2.3-2-4.5-3-6.8C68.4,216.2,69.1,215.6,70.2,216.1z"/>
		<path style="fill:#72777D;" d="M13.2,288.1c-4.5-0.1-6.3-3-7-7c0.5-1.4,1-2.9,1.7-4.7C9.7,280.5,11.5,284.3,13.2,288.1z"/>
		<path style="fill:#687076;" d="M20.5,302.2c3,4.9,5.9,9.7,8.5,14C23.7,314.5,20.6,309.7,20.5,302.2z"/>
		<path style="fill:#7E8086;" d="M29.2,322.1c-3.6-2.4-7.3-4.7-10.9-7.1C23.5,314.9,26.4,318.5,29.2,322.1z"/>
		<path style="fill:#AAD6E1;" d="M93.1,290c2-0.6,4.1-1.3,6.1-1.9c-0.7,0.9-1.5,1.9-2.2,2.8c-2.4,1.3-4.7,2.7-7.1,3.9
			c-0.8,0.4-1.8,0.2-2.7,0.3C89.2,293.4,91.2,291.7,93.1,290z"/>
		<path style="fill:#171B1E;" d="M47.7,269.9c0.2-0.4,0.5-0.9,0.4-1.3c-0.1-1.2-0.4-2.5-0.6-3.7c0.9,1,1.8,2.1,2.7,3.1
			c0.7,0.6,1.5,1,1.9,1.8c-1.3,1.7-2.6,3.5-3.9,5.2C48,273.4,47.8,271.6,47.7,269.9z"/>
		<path style="fill:#16191C;" d="M15.1,308.3c0-4.6,0-9.3,0-13.9c0.2,0,0.5,0,0.7,0c0.4,4,0.8,7.9,1.3,11.9c1,0.4,1.1,1.4,1.4,2.3
			c0.2,0.9,0.5,1.8-0.2,2.6c-0.3,0.4-0.7,0.8-1,1.2C16.4,311,15.7,309.6,15.1,308.3z"/>
		<path style="fill:#CBBDB2;" d="M20.5,273.3c-1.5,1.3-2.9,2.5-4.4,3.8c-0.9,0.1-1.7,0.2-2.6,0.3c0.2-1.7,0.5-3.5,0.7-5.2
			c1.7-1.3,3.4-0.2,5,0.1C19.7,272.6,20.1,272.9,20.5,273.3z"/>
		<path style="fill:#C7C9CA;" d="M27.3,283.1c0.3,1.1,0.6,2.3,0.9,3.4c-1.1,0.1-2.8,0.7-3.1,0.3c-0.7-1-0.7-2.5-1-3.8
			C25.1,281.8,26.2,279.5,27.3,283.1z"/>
		<path style="fill:#686F6F;" d="M24.6,265.4c1.2-2.6,2.5-5.1,3.7-7.7c0.5,0.3,1.1,0.5,1.6,0.8c-1.2,2.6-2.4,5.2-3.7,7.7
			C25.8,265.9,25.2,265.7,24.6,265.4z"/>
		<path style="fill:#AABCBC;" d="M63.4,252c-3.1,0.7-6.3,1.3-9.4,2c-0.3-0.9-0.2-1.7-0.2-2.6c0-0.5,0.1-0.8,0.5-1.1
			C57.3,250.8,60.3,251.4,63.4,252z"/>
		<path style="fill:#866466;" d="M60.1,264.9c1.7-1.3,3.4-2.7,5.2-4c0.1,0.6,0.6,1.4,0.3,1.7c-1.4,1.6-2.9,3-4.3,4.5
			C60.9,266.4,60.5,265.7,60.1,264.9z"/>
		<path style="fill:#5D6167;" d="M18.1,311.1c-0.2-0.7-0.5-1.5-0.7-2.2c0.9-1.5-0.3-3.4,0.9-4.9c1,3,1.9,5.9,2.9,8.9
			c-0.2,0.2-0.4,0.3-0.6,0.5C19.7,312.6,18.9,311.9,18.1,311.1z"/>
		<path style="fill:#514C4A;" d="M37.2,340.1c1.3,0,2.7,0,4,0c-0.3,1-0.5,2-0.8,3.1c-1.7,0-3.4,0-5.2-0.1c-0.4-0.4-0.8-0.8-1.2-1.1
			C35.1,341.3,36.1,340.7,37.2,340.1z"/>
		<path style="fill:#5B7D8F;" d="M25.3,253.2c1.1-1.8,2.2-3.6,3.9-6.2c0,2.8,0,4.5,0,6.2C27.8,253.2,26.6,253.2,25.3,253.2z"/>
		<path style="fill:#A3A5AB;" d="M36.2,320.5c2.2,0.2,4.4,0.5,6.6,0.7c-0.1,0.6-0.2,1.3-0.2,1.9c-2.2-0.4-4.4-0.7-6.7-1.1
			C36,321.5,36.1,321,36.2,320.5z"/>
		<path style="fill:#8F887F;" d="M70.2,216.1c-0.8,0.3-1.6,0.7-2.4,1c-0.9,0-1.7,0-2.6,0c1.7-1.5,3.4-3,5.7-5.2
			C70.6,214,70.4,215,70.2,216.1z"/>
		<path style="fill:#5C514B;" d="M92.2,234.1c-1.7,0.9-3.4,1.9-5.1,2.8c-0.6,0.1-1.2,0.2-1.8,0.3c1-1.4,1.9-2.7,2.9-4.1
			C89.6,233.4,90.9,233.7,92.2,234.1z"/>
		<path style="fill:#787069;" d="M19.3,272.3c-1.7,0-3.3-0.1-5-0.1c1-4.6,4.1,0.6,5.7-1.2C19.8,271.4,19.5,271.8,19.3,272.3z"/>
		<path style="fill:#55656B;" d="M73.8,248.4c-0.2-1.1-0.4-2.2-0.5-3.3c0.6,0,1.3,0,1.9,0c0,1.1,0,2.2,0,3.4
			C74.7,248.4,74.2,248.4,73.8,248.4z"/>
		<path style="fill:#A7AAAB;" d="M52.1,269.9c-0.6-0.6-1.3-1.2-1.9-1.8c0.6-0.5,1.2-1,1.7-1.5c0.4,0.9,0.8,1.7,1.2,2.6
			C52.8,269.3,52.4,269.6,52.1,269.9z"/>
		<path style="fill:#D9D4C9;" d="M54.2,250.2c0.1,0.5,0.1,0.9,0.2,1.4c-1.3,1.8-3,2.6-5.2,1.6c1.3-1,2.6-2.1,4-3.1
			C53.5,250.1,53.9,250.2,54.2,250.2z"/>
		<path style="fill:#3A4E52;" d="M21.2,281.1c1-0.7,2-1.3,3-2c0,0.4,0.1,0.7,0.1,1.1C23.3,280.5,22.2,280.8,21.2,281.1z"/>
		<path style="fill:#C0C3C9;" d="M18.3,304c-0.3,1.6-0.6,3.3-0.9,4.9c-0.1-0.9-0.3-1.8-0.4-2.7c0.4-1,0.8-2,1.2-3.1
			C18.2,303.4,18.2,303.7,18.3,304z"/>
		<path style="fill:#A6A0A3;" d="M37.4,352.3c0.6-1.7,1.2-3.5,1.8-5.2C38.6,348.8,38,350.6,37.4,352.3z"/>
		<path style="fill:#522E24;" d="M113.2,238.1c0.6-1.3,1.3-2.7,1.9-4C114.5,235.4,113.9,236.7,113.2,238.1z"/>
		<path style="fill:#040B11;" d="M35.2,114.1c2.7-2.3,5.4-4.6,8-7c1.9,3.6,0.4,6.1-2.4,8.4c-2.7,2.2-5.1,4.8-7.6,7.2
			c-0.4-0.3-0.9-0.6-1.3-0.9C33,119.3,34.1,116.7,35.2,114.1z"/>
		<path style="fill:#06161F;" d="M32.4,140.1c0.3,0.4,0.6,0.8,1,1.1c-0.3,1.1-0.6,2.3-0.9,3.4c-0.3-0.1-0.6-0.1-0.9-0.2
			c0.2-1.2,0.3-2.3,0.5-3.5C32.1,140.7,32.2,140.4,32.4,140.1z"/>
		<path style="fill:#12181B;" d="M63.3,105.9c-1.4-0.3-2.7-0.6-4.1-0.9c0-0.3,0-0.6,0-0.9C61.3,103,63.3,102.2,63.3,105.9z"/>
		<path style="fill:#AFACA2;" d="M27.3,165c-0.7-0.3-1.4-0.6-2-0.9c0.6-0.7,1.2-1.3,1.8-2C27.2,163,27.2,164,27.3,165z"/>
		<path style="fill:#7E7E7B;" d="M56.2,212c3.3-2,6.6-4.1,10-6.1l0.1,0.4c0.6,0.9,1,1.9,1.1,3c-2.6,2.3-5.2,4.6-7.8,6.8
			c-0.8-0.6-1.6-1.2-2.5-1.9c1.1-0.6,2.4-1.1,3.1-2.1c0.6-0.4-0.4-0.7,0.1-0.3c0.1,0.1,0,0.2-0.3,0.4c-0.9,0.6-1.7,1.7-2.9,0.7
			C56.8,212.6,56.5,212.3,56.2,212z"/>
		<path style="fill:#E9EAEB;" d="M57.1,212.9c2.1-1.3,4.2-2.7,6.4-4c0.3,0.5,0.6,1.1,0.9,1.6c-2.4,1.2-4.8,2.4-7.3,3.7
			C57.1,213.8,57.1,213.3,57.1,212.9z"/>
		<path style="fill:#9F9689;" d="M84.5,213.3c-0.2-2.5-0.4-5.1-0.6-7.6c0.6,0,1.2-0.1,1.7-0.1c0.2,2.6,0.3,5.1,0.5,7.7
			C85.5,213.3,85,213.3,84.5,213.3z"/>
		<path style="fill:#6B665C;" d="M75.1,238.1l-0.4-0.1c0,0-0.4,0-0.4,0c-1.3-1.5-2.6-3-3.9-4.5C74.1,233.2,75.2,235.1,75.1,238.1z"
			/>
		<path style="fill:#232220;" d="M67.3,209.3c-0.4-1-0.7-2-1.1-3c1.2-0.1,2.5-0.2,3.7-0.3c-0.2,0.7-0.5,1.5-0.7,2.2
			C68.6,208.5,68,208.9,67.3,209.3z"/>
		<path style="fill:#A98F7D;" d="M112.2,227.1c0.3,0.3,0.7,0.7,1,1c-0.4,2.7-0.9,5.5-1.4,9C109.5,233.1,110.4,230.1,112.2,227.1z"/>
		<path style="fill:#7C685F;" d="M100.2,230.1c-0.4-1.3-0.7-2.6-1.1-3.9c1.4-0.1,2.8-0.2,4.2-0.3c-0.4,1.2,0.6,4.1-2.5,2.1
			C100.7,228.7,100.4,229.4,100.2,230.1z"/>
		<path style="fill:#63524C;" d="M109.4,219.2c-0.1,0.6-0.2,1.2-0.3,1.8c-0.4-1.3-0.9-2.6-1.3-3.9c0.4-0.1,0.9-0.3,1.3-0.4
			C109.2,217.5,109.3,218.4,109.4,219.2z"/>
		<path style="fill:#AAD6E1;" d="M111.2,296c-1.4-1.4-2.8-2.7-4.3-4.1c2.8-1.3,5.5-2.6,8.3-3.9c0.4,5.7,0.8,11.3,1.2,17
			c-0.7,1-1.5,2-2.2,3c-0.7-1-1.3-2-2-3C112.9,302,115.7,298.6,111.2,296z"/>
		<path style="fill:#42656D;" d="M111.2,296c5.4,1.5,5.7,4.2,1,9c-1.8-0.6-3.6-1.1-5.4-1.7c0.6-1.5,1.2-3,1.8-4.5
			c1,0.6,0.5,3,2.6,2.2c0.8-1.4-0.4-1.5-1.3-1.8c-0.4-0.1-0.8-0.3-1.1-0.5C109.7,297.8,110.4,296.9,111.2,296z"/>
		<path style="fill:#4F7D87;" d="M54.5,334.3c4.9,0.2,5.4,1.4,2.7,6.8c0,0,0,0,0,0c-0.7,0-1.3,0-2,0.1
			C50.7,339.3,53.6,336.7,54.5,334.3z"/>
		<path style="fill:#8EBAC5;" d="M54.5,334.3c0.3,0.9,0.6,1.7,1,2.6c-4.6,1.2-0.3,2.8-0.2,4.3l0,0c-4.5,2-3-2.2-4-3.8
			C52.4,336.3,53.5,335.3,54.5,334.3z"/>
		<path style="fill:#ABCDD6;" d="M112.2,302.1c-3.5,1.4-3.9,1.1-3.6-3.2c0,0,0.2-0.2,0.2-0.1c0.5-0.1,0.9-0.2,1.4-0.3
			c0.3,0.3,0.6,0.6,0.8,0.9c0.4,0.7,0.6,1.5,1,2.2C112.1,301.7,112.1,301.9,112.2,302.1z"/>
		<path style="fill:#2E5C64;" d="M51.3,337.3c1.3,1.3,2.6,2.6,4,3.8c-1.1,0.4-2.2,0.7-3.3,1.1C51.8,340.5,51.5,338.9,51.3,337.3z"/>
		<path style="fill:#1A1A19;" d="M49.3,253.2c1.7-0.5,3.4-1.1,5.2-1.6c-0.2,0.8-0.3,1.6-0.5,2.4c-1.3,1-2.5,2-3.8,3
			c-0.5,1.9-1.1,3.9-2,5.7c-4.1-0.2-3.5,3.6-4.9,5.8c-1.9-0.7-2.1-0.8-1.1-2.7C44.4,261.5,46.9,257.4,49.3,253.2z"/>
		<path style="fill:#CBBDB2;" d="M37.2,275.1c-4.8-2.1-9.6-4.2-15-2.3C27.9,269.2,32.7,270.9,37.2,275.1z"/>
		<path style="fill:#F1DBC9;" d="M41,278.5c-1-1.1-2.1-2.2-3.1-3.3c1.9-0.3,3.7-0.6,5.6-0.8C42.7,275.8,41.8,277.1,41,278.5z"/>
		<path style="fill:#627576;" d="M25.2,277.9c1-0.7,2-1.5,3.6-2.6c-1.8-0.1-3.2-0.3-4.5-0.4c2.5,0.3,5.3,0.1,7.5,1.1
			c2.9,1.3,7.6,0.1,8.5,5c-0.7,1.1-1.3,2.2-1.3,2.2c-1.9-1.1-3.7-2-5.5-3c-0.7-0.8-1.2-2.1-2-2.2C29.4,277.8,27.2,278,25.2,277.9z"
			/>
		<path style="fill:#AABCBC;" d="M48.2,262.6c0.7-1.9,1.3-3.8,2-5.7c0.5,0.8,0.9,1.5,1.4,2.3C50.4,260.4,49.3,261.5,48.2,262.6z"/>
		<path style="fill:#AABCBC;" d="M54.2,259.1c1.7-0.3,3.3-0.5,5-0.8C57.5,258.5,55.8,258.8,54.2,259.1z"/>
		<path style="fill:#AFD8E3;" d="M110.2,298.8l0.1-0.4c4.3-0.7,3.3,1.4,2,3.7l0.1,0C111.2,301.3,111.1,299.8,110.2,298.8z"/>
		<path style="fill:#42656D;" d="M110.2,298.8c0.7,1.1,1.4,2.2,2.1,3.3C111.6,301,110.9,299.9,110.2,298.8z"/>
	</g>
	<g id="sp10">
		<path style="fill:#FFFFFF;" d="M92.5,0.5c-18.2,0-37.3,10.9-37.3,29.1c0,9,4.7,18,11.6,24.8c-1.3,1.5-2.7,3.9-4,6.7
			c-2.4,5.4-3,10.3-1.5,10.9s3.6,0.4,6-5c0.9-2.1,1.4-7.4,3-9.5c6.6,5.2,14.5,8.6,22.3,8.6c18.2,0,37.4-21.8,37.4-32.9
			c0-9.6-11.7-23.1-18-27.8C106.5,1.2,99,0.5,92.5,0.5z"/>
		<path d="M128.3,24c-1.3-2.8-4.5-9.5-6.7-11.5c-3.2-2-3.8-6.9-8.2-7.6c0,0-0.1,0.1-0.1,0.1c-2.8-1.5-7.5-3.7-9.1-4.8L78,0.2
			c0.1,0.8-0.4,1.8-1.5,1.8l-5.4,1.6c-0.2,0-0.5,0.1-0.7,0.2v0l0,0c-0.4,0.2-0.8,0.4-1.1,0.6C63,8.1,59.6,14.5,55.4,20.1
			c-1.2,1.6-1.7,4-0.4,6.1c0.1,0.1,0.2,0.1,0.2,0.1c-1.7,2.1-1.7,4.2-0.4,6.4c-0.6,0.3-1,0.8-1.2,1.5c0,0.5,0,1,0.2,1.4
			c1.3,2.5,1.6,5.4,3.4,7.7c3.1,3.9,6.3,7.7,4.3,13.3c-0.2,0.5,0.3,1.2,0.7,1.8c-2.9,7.4-2.9,14-2.4,16.3c-0.2,0.5-0.1,1,0.4,1.5
			L60.2,76c1.7-1.4,3.3-2.7,5-4.1c5.3-0.5,6-2,4.2-8c-0.3-1.1,0-2.4,0.1-3.6c1.2,0.3,2.4,0.3,3.5,0.8c1.4,0.6,6.5,2.6,9.3,3.8l0,0.1
			c0.5,0.2,1.1,0.4,1.6,0.6l0,0l0,0c1.6,0.6,3.2,1.2,4.9,1.8c-0.2,0.3,4.7-0.3,6.7-0.3c1.9,0,3.8-1.1,5.7-1.8c0.1,0,0.2-0.1,0.3-0.1
			c2.5-0.8,5-1.5,7.5-2.3c1.5-0.8,3.1-1.4,4.3-2.7c0.6-0.4,1.2-0.9,1.7-1.3c4.6-3.8,8-8.8,12.2-13c0.3-0.6,0.5-1.3,1-1.8
			c0.3-1.7,0.6-3.4,1-5C130.6,34,131.2,28.9,128.3,24z M128.2,37.1c-2.4,5.7-7.6,9.6-10.6,14.4c-4.4,7.2-10.5,10-17.3,12.9v0v0
			c-4,0.1-8,0.3-12,0.4c-1.7-0.2-3.3-0.5-5-0.7c-0.7-0.6-1.9-1.2-4.1-2c-1.4-0.7-3.4-1-4.2-2.1c-3.8-5.2-6.4-2-9.1,1
			c-0.5,1.8,1,3.3,1,5c0,0.2,0,0.4,0,0.6c-2.2,0.8-4.1,2.1-5.1,4.3c1.4-4.8,3.1-11.7,3.3-12c2.9-2.6,4.2-4.5,0.8-8.5
			c-4.2-5-6.5-11.5-9.6-17.3c0-2.3,0-4.6,0.1-6.9c2.5-3.9,4.6-8.1,7.5-11.6c3-3.5,6.8-6.3,10.3-9.4C74.1,5,74,4.9,73.9,4.8
			c0.4-0.2,0.8-0.4,1.3-0.7c4-0.9,7.9-1.8,11.9-2.6c-0.1-0.4,9.5,0.6,14.3,0.6c0.3,0.6,1.6,0.1,2.1,0.2c1.6,0.6,5.9,2.9,8.8,3.7
			c0,0-0.1,0.1-0.1,0.1c4.6,5.4,10.4,13.6,15.1,18.9c0.3,1,0.6,2,1,3.1C129,31.1,129.1,34.1,128.2,37.1z"/>
	</g>
</g>
<g>
</g>
<g>
</g>
<g>
</g>
<g>
</g>
<g>
</g>
<g>
</g>
<g>
</g>
<g>
</g>
<g>
</g>
<g>
</g>
<g>
</g>
<g>
</g>
<g>
</g>
<g>
</g>
<g>
</g>
</svg>
